<svg width="390" height="160" viewBox="0 0 390 160" fill="none" xmlns="http://www.w3.org/2000/svg">
<circle cx="352" cy="26" r="50" fill="#FDDFAA" fill-opacity="0.5"/>
<path d="M360 123.806L370.759 125.557L372.099 117.321L361.34 115.571C359.287 115.237 357.891 113.306 358.222 111.274C358.552 109.243 360.488 107.854 362.541 108.188L373.3 109.938L374.64 101.703L363.881 99.9522C357.267 98.8762 351.011 103.346 349.94 109.927C348.87 116.508 353.386 122.73 360 123.806Z" fill="#9B51E0"/>
<path d="M248.088 94.5411C247.432 94.4108 247.508 93.4502 248.176 93.4233L253.781 93.198C261.018 92.9071 267.113 87.6949 268.524 80.5904L269.617 75.0885C269.747 74.4325 270.708 74.5076 270.734 75.1758L270.96 80.7806C271.251 88.018 276.463 94.1132 283.567 95.5241L289.069 96.6167C289.725 96.747 289.65 97.7076 288.982 97.7345L283.377 97.9598C276.14 98.2507 270.044 103.463 268.634 110.567L267.541 116.069C267.411 116.725 266.45 116.65 266.423 115.982L266.198 110.377C265.907 103.14 260.695 97.0445 253.59 95.6337L248.088 94.5411Z" fill="#FF6086"/>
<circle cx="50" cy="110" r="50" fill="#FDDFAA" fill-opacity="0.5"/>
<path d="M101.007 63.2819C99.0292 55.633 109.392 51.2224 113.534 57.9504C115.118 60.5234 118.194 61.7629 121.119 61.0067C128.768 59.0291 133.179 69.3923 126.451 73.5337C123.878 75.1174 122.638 78.1939 123.394 81.1191C125.372 88.768 115.009 93.1786 110.867 86.4506C109.284 83.8776 106.207 82.638 103.282 83.3943C95.6331 85.3719 91.2225 75.0087 97.9505 70.8673C100.524 69.2835 101.763 66.2071 101.007 63.2819Z" fill="#EB5757"/>
<path fill-rule="evenodd" clip-rule="evenodd" d="M205.543 57.87C196.279 69.3788 198.044 86.2082 209.507 95.5046C198.018 86.1875 181.137 87.9657 171.803 99.476C181.067 87.9674 179.302 71.1378 167.839 61.8414C179.328 71.1587 196.209 69.3803 205.543 57.87Z" fill="#4F4F4F"/>
<path fill-rule="evenodd" clip-rule="evenodd" d="M309.978 50.2371C306.729 45.1988 298.957 48.9112 300.834 54.6051C301.755 57.3984 300.133 60.3903 297.29 61.1427C291.494 62.6763 292.623 71.2147 298.618 71.189C301.559 71.1764 303.903 73.6437 303.74 76.5804C303.408 82.5665 311.877 84.1311 313.706 78.4213C314.602 75.6202 317.673 74.1532 320.416 75.2158C326.006 77.3819 330.112 69.8104 325.246 66.3073C322.859 64.5887 322.413 61.2147 324.271 58.9348C328.059 54.2873 322.126 48.0433 317.291 51.5881C314.919 53.327 311.572 52.7088 309.978 50.2371ZM312.964 68.2426C315.074 67.2347 315.967 64.7072 314.959 62.5974C313.951 60.4875 311.424 59.5941 309.314 60.602C307.204 61.6099 306.311 64.1373 307.319 66.2472C308.327 68.3571 310.854 69.2504 312.964 68.2426Z" fill="#2F80ED"/>
<path d="M28.09 69.4227C26.2237 70.3339 24.1962 70.8687 22.1233 70.9964C20.0504 71.1242 17.9726 70.8423 16.0086 70.1671C14.0446 69.4918 12.2328 68.4363 10.6767 67.0608C9.12059 65.6854 7.85065 64.0169 6.93937 62.1506C6.02809 60.2844 5.49332 58.2569 5.3656 56.1839C5.23787 54.111 5.51969 52.0332 6.19496 50.0692C6.87024 48.1052 7.92574 46.2934 9.30121 44.7373C10.6767 43.1812 12.3452 41.9113 14.2114 41L16.4909 45.6682C15.2376 46.2801 14.1172 47.1329 13.1936 48.1779C12.2699 49.2228 11.5611 50.4394 11.1077 51.7583C10.6542 53.0772 10.465 54.4725 10.5508 55.8645C10.6365 57.2565 10.9956 58.6179 11.6076 59.8712C12.2195 61.1244 13.0723 62.2448 14.1172 63.1685C15.1622 64.0921 16.3788 64.8009 17.6977 65.2544C19.0166 65.7078 20.4118 65.8971 21.8038 65.8113C23.1958 65.7255 24.5573 65.3664 25.8105 64.7545L28.09 69.4227Z" fill="#9B51E0"/>
<path d="M137.945 10C143.168 11.4434 141.222 18.4825 146.445 19.9258C151.667 21.3692 153.613 14.3301 158.835 15.7735C164.058 17.2169 162.112 24.256 167.323 25.696C172.545 27.1394 174.491 20.1003 179.701 21.5402C184.923 22.9837 182.978 30.0227 188.188 31.4627C193.411 32.9061 195.356 25.867 200.578 27.3103C205.801 28.7537 203.855 35.7928 209.078 37.2362C214.3 38.6795 216.246 31.6404 221.468 33.0838C226.691 34.5273 224.745 41.5663 229.968 43.0097C235.19 44.453 237.136 37.414 242.358 38.8574" stroke="#00D092" stroke-width="1.21716" stroke-miterlimit="10"/>
</svg>
