<svg width="80" height="145" viewBox="0 0 80 145" fill="none" xmlns="http://www.w3.org/2000/svg">
<path d="M64.3129 132.919C64.5465 138.783 56.4182 143.864 46.1579 144.267C35.8975 144.669 27.3904 140.242 27.1568 134.378C26.9232 128.514 35.4745 134.051 45.7349 133.648C55.9953 133.246 64.0793 127.055 64.3129 132.919Z" fill="black"/>
<path d="M44.9163 29.9805C64.0581 29.9805 79.5762 45.3862 79.5764 64.3906C79.5764 72.6554 76.6403 80.2389 71.749 86.1715C71.7439 86.1776 71.7481 86.1868 71.756 86.187V86.187C71.7636 86.1872 71.7683 86.1952 71.7639 86.2014C70.3769 88.1882 67.2642 92.8859 65.8254 95.9004C64.0229 99.6776 64.8303 108.012 63.6624 110.109C62.761 111.728 60.7775 111.392 58.9749 111.368C49.721 111.248 30.492 110.936 27.6077 110.648C24.756 110.363 25.2525 99.5635 23.6957 93.9312C23.6602 93.8027 23.6094 93.6823 23.5451 93.5656L21.6594 90.1445L21.2111 89.5345C21.1455 89.4453 21.0718 89.3624 20.9915 89.2862C14.3783 83.0198 10.2571 74.1833 10.2571 64.3906C10.2572 45.3863 25.7746 29.9807 44.9163 29.9805Z" fill="#FAAE2B"/>
<ellipse cx="11.6065" cy="10.1224" rx="11.6065" ry="10.1224" transform="matrix(0.0288557 0.999584 -0.999595 0.0284433 67.1272 51.3218)" fill="#F27E07"/>
<g filter="url(#filter0_d_432_355)">
<ellipse cx="10.3848" cy="9.05691" rx="10.3848" ry="9.05691" transform="matrix(0.0288557 0.999584 -0.999595 0.0284433 66.4651 52.9707)" fill="white"/>
</g>
<ellipse cx="1.01812" cy="0.887932" rx="1.01812" ry="0.887932" transform="matrix(0.0288557 0.999584 -0.999595 0.0284433 58.1868 64.9263)" fill="white"/>
<ellipse cx="11.6065" cy="10.1224" rx="11.6065" ry="10.1224" transform="matrix(0.0288557 0.999584 -0.999595 0.0284433 45.011 51.3208)" fill="#F27E07"/>
<g filter="url(#filter1_d_432_355)">
<ellipse cx="10.3848" cy="9.05691" rx="10.3848" ry="9.05691" transform="matrix(0.0288557 0.999584 -0.999595 0.0284433 44.3479 52.9697)" fill="white"/>
</g>
<ellipse cx="6.31232" cy="5.50518" rx="6.31232" ry="5.50518" transform="matrix(0.0288557 0.999584 -0.999595 0.0284433 40.5569 56.9219)" fill="#D27B08"/>
<ellipse cx="6.31232" cy="5.50518" rx="6.31232" ry="5.50518" transform="matrix(0.0288557 0.999584 -0.999595 0.0284433 40.5569 56.9219)" fill="#D27B08"/>
<ellipse cx="6.31232" cy="5.50518" rx="6.31232" ry="5.50518" transform="matrix(0.0288557 0.999584 -0.999595 0.0284433 63.1184 56.9229)" fill="#D27B08"/>
<ellipse cx="4.4126" cy="3.98255" rx="4.4126" ry="3.98255" transform="matrix(0.340589 0.940212 -0.905672 0.42398 37.5247 57.7515)" fill="#381004"/>
<ellipse cx="4.4126" cy="3.98255" rx="4.4126" ry="3.98255" transform="matrix(0.340589 0.940212 -0.905672 0.42398 37.5247 57.7515)" fill="#381004"/>
<ellipse cx="4.4126" cy="3.98255" rx="4.4126" ry="3.98255" transform="matrix(0.340589 0.940212 -0.905672 0.42398 60.0857 57.7515)" fill="#381004"/>
<ellipse cx="1.01812" cy="0.887932" rx="1.01812" ry="0.887932" transform="matrix(0.0288557 0.999584 -0.999595 0.0284433 36.0901 62.2554)" fill="white"/>
<ellipse cx="1.01812" cy="0.887932" rx="1.01812" ry="0.887932" transform="matrix(0.0288557 0.999584 -0.999595 0.0284433 36.0901 62.2554)" fill="white"/>
<ellipse cx="1.01812" cy="0.887932" rx="1.01812" ry="0.887932" transform="matrix(0.0288557 0.999584 -0.999595 0.0284433 58.6511 62.2554)" fill="white"/>
<path d="M59.7069 35.2805C58.8484 36.2618 58.5435 37.6499 58.8592 39.1396C59.1749 40.6292 60.0854 42.0983 61.3904 43.2236C62.6953 44.349 64.2879 45.0384 65.8177 45.1403C67.3475 45.2422 68.6893 44.7481 69.5478 43.7669L64.6273 39.5237L59.7069 35.2805Z" fill="white"/>
<path d="M76.5013 56.6408C77.4292 55.7239 77.0375 53.5661 75.4123 50.642C73.7871 47.7179 71.0616 44.2671 67.8353 41.0486C64.6091 37.8302 61.1463 35.1079 58.2088 33.4804C55.2714 31.853 53.0998 31.4538 52.1719 32.3707L59.9632 36.6493L66.8307 42.822L72.5912 49.4534L76.5013 56.6408Z" fill="white"/>
<path d="M40.8873 46.5525V49.4443L27.4534 49.9865C27.4534 49.9865 30.4983 47.2545 33.3643 46.5525C36.1249 45.8763 40.8873 46.5525 40.8873 46.5525Z" fill="black"/>
<path d="M48.7409 47.0012L49.3707 49.8246L62.7437 47.4396C62.7437 47.4396 59.1444 45.4329 56.1637 45.3692C53.2926 45.3079 48.7409 47.0012 48.7409 47.0012Z" fill="black"/>
<path d="M40.5599 111.608C34.6204 111.448 26.5544 110.887 26.5544 110.887L27.2801 117.752L28.6806 117.832C28.6806 117.832 33.7227 119.055 37.0202 119.401C41.0574 119.824 43.336 120.284 47.3837 119.994C50.7258 119.754 52.6434 119.008 55.9128 118.298C58.9897 117.631 63.6332 116.01 63.6332 116.01L63.6321 111.074C63.6321 111.074 55.1274 111.608 49.4851 111.608C46.261 111.608 43.862 111.696 40.5599 111.608Z" fill="#B5B5CB" stroke="black" stroke-width="1.60818"/>
<path d="M41.8685 119.927C36.1062 119.773 27.2717 117.764 27.2717 117.764L27.9745 124.446L29.3332 124.524C29.3332 124.524 34.2246 125.713 37.4237 126.049C41.3403 126.46 43.5815 126.378 47.5085 126.095C50.7509 125.861 52.5807 125.663 55.7527 124.972C58.7379 124.322 63.2432 122.744 63.2432 122.744L63.6427 115.86C63.6427 115.86 55.5333 118.919 50.0665 119.599C46.8887 119.995 45.072 120.013 41.8685 119.927Z" fill="#B5B5CB" stroke="black" stroke-width="1.60818"/>
<path d="M42.0948 126.653C36.5095 126.508 27.9797 124.753 27.9797 124.753L28.649 131.433L29.9659 131.509C29.9659 131.509 34.7052 132.689 37.8056 133.02C41.6014 133.424 43.774 133.338 47.5811 133.048C50.7245 132.808 52.4985 132.607 55.5745 131.911C58.4693 131.255 62.8392 129.67 62.8392 129.67L63.2387 122.785C63.2387 122.785 55.2255 125.609 49.9252 126.299C46.8441 126.7 45.1999 126.733 42.0948 126.653Z" fill="#B5B5CB" stroke="black" stroke-width="1.60818"/>
<line x1="45.1262" y1="63.4559" x2="48.3504" y2="63.4559" stroke="black" stroke-width="0.804092"/>
<path d="M33.1035 82.4968C33.0383 84.3522 33.2825 86.2002 33.8221 87.9353C34.3618 89.6703 35.1864 91.2584 36.2489 92.6088C37.3113 93.9592 38.6839 94.4305 40.1073 95.1908C41.5308 95.951 43.329 96.2121 44.8968 96.2664C46.4645 96.3207 47.5521 95.8593 49.1453 95.6151C50.6187 94.9552 51.9775 94.4676 53.1323 93.194C54.287 91.9204 55.2211 90.3933 55.8813 88.6999C56.5416 87.0064 56.915 85.1798 56.9802 83.3244L45.0419 82.9106L33.1035 82.4968Z" fill="#001F34"/>
<path d="M36.8372 82.6572L53.4876 83.1581V83.1581C53.4102 85.6951 51.2891 87.6899 48.7501 87.6135L41.2944 87.3893C38.7553 87.3129 36.7597 85.1943 36.8372 82.6572V82.6572Z" fill="#FEFEFE"/>
<path d="M43.9888 90.4292C40.4598 89.973 36.5241 93.1259 36.5241 93.1259C36.5241 93.1259 38.4945 94.5935 39.7272 95.1284C41.1054 95.7265 41.8506 95.9457 43.1112 96.2283C44.7667 96.5994 45.7037 96.3704 47.2727 96.1298C48.9372 95.8747 50.9565 95.0256 50.9565 95.0256C50.9565 95.0256 47.409 90.8714 43.9888 90.4292Z" fill="#E54D24"/>
<defs>
<filter id="filter0_d_432_355" x="47.0165" y="53.2251" width="21.39" height="24.0412" filterUnits="userSpaceOnUse" color-interpolation-filters="sRGB">
<feFlood flood-opacity="0" result="BackgroundImageFix"/>
<feColorMatrix in="SourceAlpha" type="matrix" values="0 0 0 0 0 0 0 0 0 0 0 0 0 0 0 0 0 0 127 0" result="hardAlpha"/>
<feOffset dy="1.63679"/>
<feGaussianBlur stdDeviation="0.818397"/>
<feComposite in2="hardAlpha" operator="out"/>
<feColorMatrix type="matrix" values="0 0 0 0 0 0 0 0 0 0 0 0 0 0 0 0 0 0 0.25 0"/>
<feBlend mode="normal" in2="BackgroundImageFix" result="effect1_dropShadow_432_355"/>
<feBlend mode="normal" in="SourceGraphic" in2="effect1_dropShadow_432_355" result="shape"/>
</filter>
<filter id="filter1_d_432_355" x="24.8993" y="53.2241" width="21.39" height="24.0412" filterUnits="userSpaceOnUse" color-interpolation-filters="sRGB">
<feFlood flood-opacity="0" result="BackgroundImageFix"/>
<feColorMatrix in="SourceAlpha" type="matrix" values="0 0 0 0 0 0 0 0 0 0 0 0 0 0 0 0 0 0 127 0" result="hardAlpha"/>
<feOffset dy="1.63679"/>
<feGaussianBlur stdDeviation="0.818397"/>
<feComposite in2="hardAlpha" operator="out"/>
<feColorMatrix type="matrix" values="0 0 0 0 0 0 0 0 0 0 0 0 0 0 0 0 0 0 0.25 0"/>
<feBlend mode="normal" in2="BackgroundImageFix" result="effect1_dropShadow_432_355"/>
<feBlend mode="normal" in="SourceGraphic" in2="effect1_dropShadow_432_355" result="shape"/>
</filter>
</defs>
</svg>
