<svg width="40" height="60" viewBox="0 0 40 60" fill="none" xmlns="http://www.w3.org/2000/svg">
<path d="M19.8789 0.600586C30.8573 0.600747 39.7567 9.26378 39.7568 19.9502C39.7568 24.5974 38.0732 28.8615 35.268 32.1974C35.265 32.201 35.2674 32.2064 35.272 32.2066C35.2764 32.2068 35.2791 32.2115 35.2765 32.2151C34.4809 33.3324 32.6952 35.973 31.8701 37.668C30.8362 39.7919 31.2997 44.4785 30.6299 45.6582C30.1129 46.5685 28.9753 46.3793 27.9414 46.3662C22.634 46.2988 11.6054 46.1237 9.95117 45.9619C8.31564 45.8018 8.60051 39.729 7.70783 36.5616C7.68736 36.4889 7.65808 36.4209 7.62109 36.3551L6.53906 34.4316L6.28132 34.088C6.24424 34.0385 6.20263 33.9926 6.15735 33.9506C2.3639 30.4268 0 25.4573 0 19.9502C0.000147196 9.26368 8.90035 0.600586 19.8789 0.600586Z" fill="#FAAE2B"/>
<ellipse cx="6.52669" cy="5.8055" rx="6.52669" ry="5.8055" transform="matrix(0.0294309 0.999567 -0.999611 0.0278874 32.6172 12.5996)" fill="#F27E07"/>
<g filter="url(#filter0_d_1634_1183)">
<ellipse cx="5.83967" cy="5.1944" rx="5.83967" ry="5.1944" transform="matrix(0.0294309 0.999567 -0.999611 0.0278874 32.2368 13.5264)" fill="white"/>
</g>
<ellipse cx="3.5496" cy="3.15738" rx="3.5496" ry="3.15738" transform="matrix(0.0294309 0.999567 -0.999611 0.0278874 30.1045 17.251)" fill="#D27B08"/>
<ellipse cx="2.48592" cy="2.27744" rx="2.48592" ry="2.27744" transform="matrix(0.346737 0.93846 -0.908336 0.41691 28.3647 17.7168)" fill="#381004"/>
<ellipse cx="0.572516" cy="0.509255" rx="0.572516" ry="0.509255" transform="matrix(0.0294309 0.999567 -0.999611 0.0278874 27.5498 18.165)" fill="white"/>
<ellipse cx="6.52669" cy="5.8055" rx="6.52669" ry="5.8055" transform="matrix(0.0294309 0.999567 -0.999611 0.0278874 19.9268 12.5996)" fill="#F27E07"/>
<g filter="url(#filter1_d_1634_1183)">
<ellipse cx="5.83967" cy="5.1944" rx="5.83967" ry="5.1944" transform="matrix(0.0294309 0.999567 -0.999611 0.0278874 19.5474 13.5273)" fill="white"/>
</g>
<ellipse cx="3.5496" cy="3.15738" rx="3.5496" ry="3.15738" transform="matrix(0.0294309 0.999567 -0.999611 0.0278874 17.4141 17.251)" fill="#D27B08"/>
<ellipse cx="2.48592" cy="2.27744" rx="2.48592" ry="2.27744" transform="matrix(0.346737 0.93846 -0.908336 0.41691 15.6733 17.7168)" fill="#381004"/>
<ellipse cx="0.572516" cy="0.509255" rx="0.572516" ry="0.509255" transform="matrix(0.0294309 0.999567 -0.999611 0.0278874 14.8589 18.165)" fill="white"/>
<path d="M28.3618 3.58003C27.8695 4.13183 27.6946 4.91241 27.8756 5.75005C28.0567 6.58769 28.5789 7.41378 29.3274 8.0466C30.0758 8.67941 30.9892 9.0671 31.8666 9.12439C32.744 9.18168 33.5136 8.90387 34.0059 8.35207L31.1839 5.96605L28.3618 3.58003Z" fill="white"/>
<path d="M37.9935 15.5916C38.5257 15.076 38.3011 13.8626 37.369 12.2183C36.4369 10.574 34.8737 8.63357 33.0233 6.82379C31.1729 5.01401 29.1869 3.48316 27.5021 2.56802C25.8174 1.65289 24.5719 1.42842 24.0397 1.94399L28.5083 4.34997L32.4471 7.82097L35.7509 11.5499L37.9935 15.5916Z" fill="white"/>
<path d="M28.3539 55.4232C28.3539 57.9508 24.6973 59.9998 20.1867 59.9998C15.6761 59.9998 12.0195 57.9508 12.0195 55.4232C12.0195 52.8956 15.6761 55.4232 20.1867 55.4232C24.6973 55.4232 28.3539 52.8956 28.3539 55.4232Z" fill="black"/>
<path d="M29.2786 53.1985C29.2786 54.7725 25.2771 56.0485 20.341 56.0485C15.4048 56.0485 11.4033 54.7725 11.4033 53.1985C11.4033 51.6245 15.4048 52.1989 20.341 52.1989C25.2771 52.1989 29.2786 51.6245 29.2786 53.1985Z" fill="#CEDAEA"/>
<rect width="17.4404" height="20.1683" rx="0.740193" transform="matrix(0.999658 -0.0591755 0.0622612 0.996579 10.9199 36.0635)" fill="white"/>
<ellipse cx="1.36748" cy="1.01333" rx="1.36748" ry="1.01333" transform="matrix(0.975314 -0.231859 0.242722 0.967418 22.9854 41.3232)" fill="#FF6086"/>
<ellipse cx="0.233384" cy="0.210457" rx="0.233384" ry="0.210457" transform="matrix(0.975314 -0.231859 0.242722 0.967418 25.4873 44.8096)" fill="#085090"/>
<ellipse cx="0.233384" cy="0.210457" rx="0.233384" ry="0.210457" transform="matrix(0.975314 -0.231859 0.242722 0.967418 25.9722 36.6289)" fill="#01458B"/>
<ellipse cx="0.233384" cy="0.210457" rx="0.233384" ry="0.210457" transform="matrix(0.975314 -0.231859 0.242722 0.967418 17.854 38.4453)" fill="#01458B"/>
<ellipse cx="0.233384" cy="0.210457" rx="0.233384" ry="0.210457" transform="matrix(0.975314 -0.231859 0.242722 0.967418 23.5269 38.0947)" fill="#FF6086"/>
<ellipse cx="0.233384" cy="0.210457" rx="0.233384" ry="0.210457" transform="matrix(0.975314 -0.231859 0.242722 0.967418 14.1108 46.2559)" fill="#FF6086"/>
<ellipse cx="0.233384" cy="0.210457" rx="0.233384" ry="0.210457" transform="matrix(0.975314 -0.231859 0.242722 0.967418 13.4082 37.7637)" fill="#FF6086"/>
<ellipse cx="0.233384" cy="0.210457" rx="0.233384" ry="0.210457" transform="matrix(0.975314 -0.231859 0.242722 0.967418 19.7642 50.3232)" fill="#085090"/>
<ellipse cx="0.233384" cy="0.210457" rx="0.233384" ry="0.210457" transform="matrix(0.975314 -0.231859 0.242722 0.967418 23.1543 51.9131)" fill="#FF6086"/>
<ellipse cx="0.233384" cy="0.210457" rx="0.233384" ry="0.210457" transform="matrix(0.975314 -0.231859 0.242722 0.967418 17.0229 53.8457)" fill="#FF6086"/>
<ellipse cx="1.36748" cy="1.01333" rx="1.36748" ry="1.01333" transform="matrix(0.975314 -0.231859 0.242722 0.967418 15.6094 42.2666)" fill="#FF6086"/>
<mask id="path-28-inside-1_1634_1183" fill="white">
<path d="M24.4133 40.473C24.4177 40.2739 24.3836 40.0764 24.3133 39.8941C24.243 39.7118 24.1382 39.5492 24.0063 39.4175C23.8743 39.2858 23.7182 39.1881 23.549 39.1312C23.3797 39.0744 23.2012 39.0597 23.0259 39.0883C22.8506 39.1168 22.6827 39.1878 22.5338 39.2965C22.3849 39.4051 22.2586 39.5488 22.1636 39.7175C22.0685 39.8861 22.0072 40.0758 21.9836 40.2734C21.9601 40.4709 21.975 40.6716 22.0272 40.8614L22.3935 40.7314C22.3577 40.6012 22.3475 40.4636 22.3636 40.3281C22.3797 40.1926 22.4219 40.0625 22.487 39.9468C22.5522 39.8311 22.6388 39.7326 22.7409 39.6581C22.8431 39.5836 22.9582 39.5348 23.0785 39.5152C23.1987 39.4957 23.3211 39.5057 23.4372 39.5447C23.5533 39.5837 23.6603 39.6507 23.7509 39.7411C23.8414 39.8314 23.9132 39.943 23.9615 40.068C24.0097 40.193 24.0331 40.3284 24.0301 40.465L24.4133 40.473Z"/>
</mask>
<path d="M24.4133 40.473C24.4177 40.2739 24.3836 40.0764 24.3133 39.8941C24.243 39.7118 24.1382 39.5492 24.0063 39.4175C23.8743 39.2858 23.7182 39.1881 23.549 39.1312C23.3797 39.0744 23.2012 39.0597 23.0259 39.0883C22.8506 39.1168 22.6827 39.1878 22.5338 39.2965C22.3849 39.4051 22.2586 39.5488 22.1636 39.7175C22.0685 39.8861 22.0072 40.0758 21.9836 40.2734C21.9601 40.4709 21.975 40.6716 22.0272 40.8614L22.3935 40.7314C22.3577 40.6012 22.3475 40.4636 22.3636 40.3281C22.3797 40.1926 22.4219 40.0625 22.487 39.9468C22.5522 39.8311 22.6388 39.7326 22.7409 39.6581C22.8431 39.5836 22.9582 39.5348 23.0785 39.5152C23.1987 39.4957 23.3211 39.5057 23.4372 39.5447C23.5533 39.5837 23.6603 39.6507 23.7509 39.7411C23.8414 39.8314 23.9132 39.943 23.9615 40.068C24.0097 40.193 24.0331 40.3284 24.0301 40.465L24.4133 40.473Z" stroke="#01458B" stroke-width="0.613687" mask="url(#path-28-inside-1_1634_1183)"/>
<mask id="path-29-inside-2_1634_1183" fill="white">
<path d="M19.2537 40.9539C19.2443 40.755 19.1965 40.5602 19.1137 40.3829C19.031 40.2057 18.9152 40.0503 18.7743 39.9276C18.6335 39.8048 18.4711 39.7176 18.2982 39.672C18.1254 39.6264 17.9463 39.6235 17.7734 39.6635C17.6005 39.7035 17.4379 39.7855 17.2968 39.9036C17.1558 40.0218 17.0397 40.1734 16.9566 40.348C16.8736 40.5225 16.8255 40.7158 16.8157 40.9144C16.8059 41.1131 16.8347 41.3123 16.9 41.4983L17.2564 41.3445C17.2116 41.2169 17.1919 41.0803 17.1986 40.9441C17.2053 40.8078 17.2383 40.6753 17.2953 40.5555C17.3523 40.4358 17.4319 40.3318 17.5286 40.2508C17.6253 40.1697 17.7369 40.1135 17.8554 40.0861C17.974 40.0587 18.0969 40.0607 18.2154 40.0919C18.334 40.1232 18.4454 40.183 18.542 40.2672C18.6385 40.3514 18.718 40.458 18.7748 40.5795C18.8315 40.7011 18.8643 40.8347 18.8708 40.9711L19.2537 40.9539Z"/>
</mask>
<path d="M19.2537 40.9539C19.2443 40.755 19.1965 40.5602 19.1137 40.3829C19.031 40.2057 18.9152 40.0503 18.7743 39.9276C18.6335 39.8048 18.4711 39.7176 18.2982 39.672C18.1254 39.6264 17.9463 39.6235 17.7734 39.6635C17.6005 39.7035 17.4379 39.7855 17.2968 39.9036C17.1558 40.0218 17.0397 40.1734 16.9566 40.348C16.8736 40.5225 16.8255 40.7158 16.8157 40.9144C16.8059 41.1131 16.8347 41.3123 16.9 41.4983L17.2564 41.3445C17.2116 41.2169 17.1919 41.0803 17.1986 40.9441C17.2053 40.8078 17.2383 40.6753 17.2953 40.5555C17.3523 40.4358 17.4319 40.3318 17.5286 40.2508C17.6253 40.1697 17.7369 40.1135 17.8554 40.0861C17.974 40.0587 18.0969 40.0607 18.2154 40.0919C18.334 40.1232 18.4454 40.183 18.542 40.2672C18.6385 40.3514 18.718 40.458 18.7748 40.5795C18.8315 40.7011 18.8643 40.8347 18.8708 40.9711L19.2537 40.9539Z" stroke="#01458B" stroke-width="0.613687" mask="url(#path-29-inside-2_1634_1183)"/>
<mask id="path-30-inside-3_1634_1183" fill="white">
<path d="M19.743 44.1556C19.7388 44.3547 19.7818 44.5524 19.8688 44.7349C19.9558 44.9174 20.0849 45.0804 20.247 45.2126C20.4092 45.3447 20.6005 45.4429 20.8078 45.5004C21.0151 45.5578 21.2334 45.573 21.4475 45.5451C21.6616 45.5171 21.8665 45.4466 22.0479 45.3384C22.2293 45.2303 22.3828 45.087 22.4979 44.9187C22.6131 44.7503 22.687 44.5608 22.7145 44.3633C22.7421 44.1658 22.7227 43.9651 22.6577 43.775L22.2107 43.9038C22.2553 44.0342 22.2686 44.1719 22.2497 44.3073C22.2308 44.4428 22.1801 44.5727 22.1011 44.6882C22.0222 44.8037 21.9168 44.902 21.7924 44.9761C21.668 45.0503 21.5275 45.0987 21.3807 45.1179C21.2338 45.137 21.0841 45.1266 20.9419 45.0872C20.7998 45.0478 20.6685 44.9805 20.5573 44.8898C20.4461 44.7991 20.3576 44.6874 20.2979 44.5622C20.2382 44.437 20.2087 44.3014 20.2116 44.1649L19.743 44.1556Z"/>
</mask>
<path d="M19.743 44.1556C19.7388 44.3547 19.7818 44.5524 19.8688 44.7349C19.9558 44.9174 20.0849 45.0804 20.247 45.2126C20.4092 45.3447 20.6005 45.4429 20.8078 45.5004C21.0151 45.5578 21.2334 45.573 21.4475 45.5451C21.6616 45.5171 21.8665 45.4466 22.0479 45.3384C22.2293 45.2303 22.3828 45.087 22.4979 44.9187C22.6131 44.7503 22.687 44.5608 22.7145 44.3633C22.7421 44.1658 22.7227 43.9651 22.6577 43.775L22.2107 43.9038C22.2553 44.0342 22.2686 44.1719 22.2497 44.3073C22.2308 44.4428 22.1801 44.5727 22.1011 44.6882C22.0222 44.8037 21.9168 44.902 21.7924 44.9761C21.668 45.0503 21.5275 45.0987 21.3807 45.1179C21.2338 45.137 21.0841 45.1266 20.9419 45.0872C20.7998 45.0478 20.6685 44.9805 20.5573 44.8898C20.4461 44.7991 20.3576 44.6874 20.2979 44.5622C20.2382 44.437 20.2087 44.3014 20.2116 44.1649L19.743 44.1556Z" stroke="#01458B" stroke-width="0.613687" mask="url(#path-30-inside-3_1634_1183)"/>
<rect width="6.67544" height="2.41331" rx="0.27949" transform="matrix(1.00063 -0.0237543 0.0250223 0.998722 16.9458 34.1279)" fill="#F0A9B1"/>
<path d="M17.0151 36.2803L23.6948 36.1217L23.7072 36.6147C23.711 36.7688 23.5889 36.8968 23.4345 36.9005L17.3141 37.0458C17.1597 37.0494 17.0314 36.9274 17.0275 36.7733L17.0151 36.2803Z" fill="#FF6489"/>
<path d="M20.3477 46.8717C20.563 46.844 20.7142 47.0787 20.5949 47.2553L19.253 49.2407C19.1525 49.3894 18.9275 49.3848 18.8291 49.2321L17.7506 47.5581C17.6522 47.4054 17.746 47.2062 17.9273 47.1829L20.3477 46.8717Z" fill="#FFA3AD"/>
<rect width="11.3658" height="2.5206" transform="matrix(0.85796 -0.510666 0.532791 0.848149 8.10352 53.0029)" fill="#FFD64B"/>
<line y1="-0.174875" x2="10.2702" y2="-0.174875" transform="matrix(0.856366 -0.51327 0.535464 0.846503 9.5791 53.29)" stroke="#FF7F51" stroke-width="0.349751"/>
<line y1="-0.174875" x2="10.1996" y2="-0.174875" transform="matrix(0.857553 -0.511333 0.533476 0.847728 10.0972 54.0088)" stroke="#FE8745" stroke-width="0.349751"/>
<path d="M8.03476 53.5849C7.88774 53.3509 7.96048 53.0469 8.19723 52.906L9.12093 52.3562L10.5 54.5516L9.57633 55.1014C9.33958 55.2423 9.02847 55.1668 8.88145 54.9328L8.03476 53.5849Z" fill="#FD6186"/>
<rect width="0.906452" height="3.05514" transform="matrix(0.622486 0.777891 -0.799792 0.606419 30.4263 52.9141)" fill="#A589ED"/>
<rect width="6.072" height="3.06655" transform="matrix(0.622486 0.777891 -0.799792 0.606419 26.6523 48.1885)" fill="#085090"/>
<rect width="0.906452" height="3.07582" transform="matrix(0.622486 0.777891 -0.799792 0.606419 26.1382 47.5342)" fill="#A589ED"/>
<path d="M30.9976 53.6084L31.4383 54.1592C31.6544 54.4292 31.6045 54.8188 31.3269 55.0293L29.8821 56.1247C29.6045 56.3352 29.2042 56.287 28.9882 56.0169L28.5474 55.4662L30.9976 53.6084Z" fill="#FFD540"/>
<path d="M26.1465 47.5566L25.8824 47.2266C25.6663 46.9566 25.2661 46.9083 24.9884 47.1188L23.5165 48.2349C23.2389 48.4454 23.189 48.8349 23.4051 49.105L23.6692 49.435L26.1465 47.5566Z" fill="#FFD540"/>
<ellipse cx="0.266807" cy="0.148126" rx="0.266807" ry="0.148126" transform="matrix(-0.990826 -0.135146 -0.142484 0.989797 27.0317 52.2715)" fill="white"/>
<path d="M25.3423 50.8145L26.3921 52.0822" stroke="white" stroke-width="0.148039" stroke-linecap="round"/>
<path d="M10.4717 42.7842C11.4908 42.7843 12.0649 43.1722 12.415 43.7646C12.7904 44.4002 12.9384 45.3253 12.9385 46.4355C12.9385 47.5458 12.7904 48.4708 12.415 49.1064C12.065 49.6991 11.491 50.0868 10.4717 50.0869C9.442 50.0869 8.72648 49.6883 8.25586 49.0645C7.77275 48.4238 7.51758 47.5042 7.51758 46.4355C7.51764 45.3668 7.77261 44.4472 8.25586 43.8066C8.72648 43.1828 9.44204 42.7842 10.4717 42.7842Z" fill="white" stroke="black" stroke-width="0.897258"/>
<path d="M30.7767 49.6182C29.7576 49.6123 29.1858 49.2211 28.8393 48.6267C28.4677 47.9889 28.3253 47.063 28.332 45.9528C28.3387 44.8425 28.4924 43.9184 28.8716 43.285C29.2252 42.6943 29.8015 42.3099 30.8208 42.3156C31.8505 42.3215 32.5636 42.7242 33.0304 43.3508C33.5096 43.9941 33.7593 44.9152 33.7528 45.9838C33.7463 47.0525 33.4858 47.9707 32.9987 48.6085C32.5243 49.2296 31.8063 49.6241 30.7767 49.6182Z" fill="white" stroke="black" stroke-width="0.897258"/>
<path d="M17.5667 9.91802V11.5441L9.86182 11.849C9.86182 11.849 11.6082 10.3128 13.252 9.91802C14.8353 9.53778 17.5667 9.91802 17.5667 9.91802Z" fill="black"/>
<path d="M22.0711 10.171L22.4322 11.7586L30.1022 10.4175C30.1022 10.4175 28.0378 9.28905 26.3283 9.25325C24.6816 9.21876 22.0711 10.171 22.0711 10.171Z" fill="black"/>
<path d="M15.2536 27.718C15.2583 28.4576 15.4126 29.189 15.7077 29.8705C16.0027 30.552 16.4328 31.1703 16.9734 31.69C17.5139 32.2098 18.1543 32.6208 18.8581 32.8996C19.5618 33.1784 20.315 33.3195 21.0748 33.315C21.8346 33.3104 22.586 33.1602 23.2861 32.873C23.9863 32.5858 24.6214 32.1671 25.1554 31.641C25.6893 31.1148 26.1115 30.4914 26.3979 29.8064C26.6844 29.1214 26.8294 28.3882 26.8247 27.6486L21.0392 27.6833L15.2536 27.718Z" fill="#77290F"/>
<path d="M23.7841 32.1579C23.7846 31.7844 23.7096 31.4145 23.5633 31.0693C23.417 30.724 23.2023 30.4102 22.9314 30.1458C22.6605 29.8813 22.3388 29.6714 21.9845 29.5279C21.6303 29.3845 21.2505 29.3104 20.8668 29.3099C20.4832 29.3093 20.1032 29.3823 19.7485 29.5247C19.3938 29.6671 19.0714 29.8761 18.7997 30.1398C18.5281 30.4035 18.3124 30.7167 18.165 31.0615C18.0177 31.4063 17.9416 31.776 17.941 32.1495L20.8625 32.1537L23.7841 32.1579Z" fill="#FD6A81"/>
<defs>
<filter id="filter0_d_1634_1183" x="21.1078" y="13.6689" width="12.2171" height="13.5052" filterUnits="userSpaceOnUse" color-interpolation-filters="sRGB">
<feFlood flood-opacity="0" result="BackgroundImageFix"/>
<feColorMatrix in="SourceAlpha" type="matrix" values="0 0 0 0 0 0 0 0 0 0 0 0 0 0 0 0 0 0 127 0" result="hardAlpha"/>
<feOffset dy="0.913221"/>
<feGaussianBlur stdDeviation="0.45661"/>
<feComposite in2="hardAlpha" operator="out"/>
<feColorMatrix type="matrix" values="0 0 0 0 0 0 0 0 0 0 0 0 0 0 0 0 0 0 0.25 0"/>
<feBlend mode="normal" in2="BackgroundImageFix" result="effect1_dropShadow_1634_1183"/>
<feBlend mode="normal" in="SourceGraphic" in2="effect1_dropShadow_1634_1183" result="shape"/>
</filter>
<filter id="filter1_d_1634_1183" x="8.41832" y="13.6699" width="12.2171" height="13.5052" filterUnits="userSpaceOnUse" color-interpolation-filters="sRGB">
<feFlood flood-opacity="0" result="BackgroundImageFix"/>
<feColorMatrix in="SourceAlpha" type="matrix" values="0 0 0 0 0 0 0 0 0 0 0 0 0 0 0 0 0 0 127 0" result="hardAlpha"/>
<feOffset dy="0.913221"/>
<feGaussianBlur stdDeviation="0.45661"/>
<feComposite in2="hardAlpha" operator="out"/>
<feColorMatrix type="matrix" values="0 0 0 0 0 0 0 0 0 0 0 0 0 0 0 0 0 0 0.25 0"/>
<feBlend mode="normal" in2="BackgroundImageFix" result="effect1_dropShadow_1634_1183"/>
<feBlend mode="normal" in="SourceGraphic" in2="effect1_dropShadow_1634_1183" result="shape"/>
</filter>
</defs>
</svg>
