<svg width="40" height="60" viewBox="0 0 40 60" fill="none" xmlns="http://www.w3.org/2000/svg">
<path d="M20.1836 0.641602C30.9958 0.641602 39.7607 9.90722 39.7607 21.3369C39.7607 26.3074 38.1017 30.8676 35.3389 34.4354C35.336 34.4392 35.3386 34.4446 35.3433 34.4448C35.3478 34.4451 35.3506 34.4498 35.3481 34.4536C34.5646 35.6484 32.8068 38.4732 31.9941 40.2861C30.9759 42.5577 31.4312 47.5705 30.7715 48.832C30.2623 49.8053 29.1422 49.6029 28.124 49.5889C22.8971 49.5168 12.037 49.3293 10.4072 49.1562C8.79502 48.985 9.07724 42.4793 8.19523 39.0941C8.17657 39.0225 8.14983 38.9551 8.1158 38.8894L7.04688 36.8252L6.7916 36.4556C6.75548 36.4033 6.71463 36.3544 6.66989 36.3093C5.84157 35.4735 5.08328 34.5613 4.40343 33.5841C4.40336 33.584 4.40327 33.5839 4.40318 33.5838L4.3998 33.5805C4.39966 33.5803 4.39976 33.5801 4.39996 33.5801C4.40014 33.5801 4.40025 33.5799 4.40014 33.5797C2.01619 30.1511 0.60653 25.9183 0.606445 21.3369C0.606445 9.90724 9.37143 0.641632 20.1836 0.641602Z" fill="#FAAE2B"/>
<ellipse cx="6.98003" cy="5.71788" rx="6.98003" ry="5.71788" transform="matrix(0.0271022 0.999633 -0.999541 0.0302835 32.7285 13.4756)" fill="#F27E07"/>
<g filter="url(#filter0_d_1687_4912)">
<ellipse cx="6.24529" cy="5.11599" rx="6.24529" ry="5.11599" transform="matrix(0.0271022 0.999633 -0.999541 0.0302835 32.3545 14.4668)" fill="white"/>
</g>
<ellipse cx="3.79616" cy="3.10972" rx="3.79616" ry="3.10972" transform="matrix(0.0271022 0.999633 -0.999541 0.0302835 30.2549 18.4502)" fill="#D27B08"/>
<ellipse cx="2.63798" cy="2.27363" rx="2.63798" ry="2.27363" transform="matrix(0.321797 0.945858 -0.896064 0.446646 28.541 18.9482)" fill="#381004"/>
<ellipse cx="0.612284" cy="0.501568" rx="0.612284" ry="0.501568" transform="matrix(0.0271022 0.999633 -0.999541 0.0302835 27.7383 19.4277)" fill="white"/>
<ellipse cx="6.98003" cy="5.71788" rx="6.98003" ry="5.71788" transform="matrix(0.0271022 0.999633 -0.999541 0.0302835 20.2324 13.4756)" fill="#F27E07"/>
<g filter="url(#filter1_d_1687_4912)">
<ellipse cx="6.24529" cy="5.11599" rx="6.24529" ry="5.11599" transform="matrix(0.0271022 0.999633 -0.999541 0.0302835 19.8584 14.4668)" fill="white"/>
</g>
<ellipse cx="3.79616" cy="3.10972" rx="3.79616" ry="3.10972" transform="matrix(0.0271022 0.999633 -0.999541 0.0302835 17.7588 18.4502)" fill="#D27B08"/>
<ellipse cx="2.63798" cy="2.27363" rx="2.63798" ry="2.27363" transform="matrix(0.321797 0.945858 -0.896064 0.446646 16.0439 18.9482)" fill="#381004"/>
<ellipse cx="0.612284" cy="0.501568" rx="0.612284" ry="0.501568" transform="matrix(0.0271022 0.999633 -0.999541 0.0302835 15.2422 19.4277)" fill="white"/>
<path d="M28.5374 3.82915C28.0525 4.41931 27.8803 5.25417 28.0586 6.15005C28.2369 7.04594 28.7512 7.92947 29.4883 8.60628C30.2254 9.28309 31.125 9.69774 31.9891 9.75901C32.8532 9.82029 33.611 9.52316 34.096 8.933L31.3167 6.38108L28.5374 3.82915Z" fill="white"/>
<path d="M38.0238 16.6757C38.5479 16.1242 38.3267 14.8265 37.4087 13.0679C36.4907 11.3093 34.9513 9.23387 33.1289 7.29825C31.3066 5.36263 29.3507 3.72535 27.6915 2.74658C26.0323 1.76781 24.8057 1.52773 24.2816 2.07916L28.6824 4.65243L32.5615 8.36476L35.8152 12.353L38.0238 16.6757Z" fill="white"/>
<line x1="19.1211" y1="20.3895" x2="22.4598" y2="20.3895" stroke="black" stroke-width="0.933834"/>
<path d="M12.3652 32.2219C14.979 34.1213 18.0389 35.1166 21.0693 35.0531C24.0997 34.9896 26.9308 33.8709 29.1227 31.8709L28.1469 30.7217C26.1773 32.5189 23.6332 33.5242 20.91 33.5812C18.1869 33.6383 15.4372 32.7439 13.0884 31.0371L12.3652 32.2219Z" fill="black"/>
<path d="M11.6853 40.5883C9.99398 40.138 7.28418 39.7861 7.28418 39.7861L9.25708 55.0268L19.5768 58.3958H23.5226L34.2977 55.0268C34.2977 55.0268 35.4024 47.915 35.5118 43.3156C35.5445 41.9377 35.5118 39.7861 35.5118 39.7861C35.5118 39.7861 34.1317 40.2993 33.2354 40.5883C31.0216 41.3021 29.6981 41.3762 27.4684 42.0321C25.9152 42.4891 23.5226 43.3156 23.5226 43.3156H18.3628C18.3628 43.3156 14.3962 41.31 11.6853 40.5883Z" fill="#22B4FD"/>
<path d="M11.6853 40.5883C9.99398 40.138 7.28418 39.7861 7.28418 39.7861L9.25708 55.0268L19.5768 58.3958H23.5226L34.2977 55.0268C34.2977 55.0268 35.4024 47.915 35.5118 43.3156C35.5445 41.9377 35.5118 39.7861 35.5118 39.7861C35.5118 39.7861 34.1317 40.2993 33.2354 40.5883C31.0216 41.3021 29.6981 41.3762 27.4684 42.0321C25.9152 42.4891 23.5226 43.3156 23.5226 43.3156H18.3628C18.3628 43.3156 14.3962 41.31 11.6853 40.5883Z" stroke="black" stroke-width="0.933834"/>
<path d="M11.6853 40.5883C9.99398 40.138 7.28418 39.7861 7.28418 39.7861L9.25708 55.0268L19.5768 58.3958H23.5226L34.2977 55.0268C34.2977 55.0268 35.4024 47.915 35.5118 43.3156C35.5445 41.9377 35.5118 39.7861 35.5118 39.7861C35.5118 39.7861 34.1317 40.2993 33.2354 40.5883C31.0216 41.3021 29.6981 41.3762 27.4684 42.0321C25.9152 42.4891 23.5226 43.3156 23.5226 43.3156H18.3628C18.3628 43.3156 14.3962 41.31 11.6853 40.5883Z" stroke="black" stroke-width="0.933834"/>
<rect x="19.7404" y="44.1036" width="3.31548" height="13.8256" fill="#26B3FF" stroke="black" stroke-width="0.933834"/>
<line y1="-0.311278" x2="14.3782" y2="-0.311278" transform="matrix(0.949945 -0.312417 0.28233 0.959317 21.5488 43.958)" stroke="white" stroke-width="0.622556"/>
<line y1="-0.311278" x2="15.4464" y2="-0.311278" transform="matrix(0.962849 0.270039 -0.243423 0.96992 6.67676 39.7861)" stroke="white" stroke-width="0.622556"/>
<line y1="-0.311278" x2="14.3782" y2="-0.311278" transform="matrix(0.949945 -0.312417 0.28233 0.959317 21.5498 43.6377)" stroke="black" stroke-width="0.622556"/>
<line y1="-0.311278" x2="15.4464" y2="-0.311278" transform="matrix(0.962849 0.270039 -0.243423 0.96992 6.67676 39.4668)" stroke="black" stroke-width="0.622556"/>
<line y1="-0.311278" x2="14.3782" y2="-0.311278" transform="matrix(0.949945 -0.312417 0.28233 0.959317 21.5498 42.6748)" stroke="white" stroke-width="0.622556"/>
<line y1="-0.311278" x2="15.4464" y2="-0.311278" transform="matrix(0.962849 0.270039 -0.243423 0.96992 6.67676 38.5039)" stroke="white" stroke-width="0.622556"/>
<line y1="-0.311278" x2="14.3782" y2="-0.311278" transform="matrix(0.949945 -0.312417 0.28233 0.959317 21.5488 41.7129)" stroke="black" stroke-width="0.622556"/>
<line y1="-0.311278" x2="15.4464" y2="-0.311278" transform="matrix(0.962849 0.270039 -0.243423 0.96992 6.67676 37.541)" stroke="black" stroke-width="0.622556"/>
<path d="M6.99219 44.1035C7.49667 44.1035 7.87728 44.2114 8.16992 44.3838C8.4622 44.556 8.69472 44.8095 8.87695 45.1445C9.25074 45.832 9.39646 46.8305 9.39648 48.0215C9.39648 49.2128 9.2509 50.2118 8.87695 50.8994C8.69472 51.2345 8.4622 51.488 8.16992 51.6602C7.8773 51.8325 7.49657 51.9394 6.99219 51.9395C6.00163 51.9395 5.3059 51.5259 4.84082 50.8564C4.36149 50.1664 4.1084 49.1735 4.1084 48.0215C4.10844 46.8697 4.36162 45.8775 4.84082 45.1875C5.3059 44.518 6.00159 44.1035 6.99219 44.1035Z" fill="#D9D9D9" stroke="black" stroke-width="0.933834"/>
<path d="M36.5652 52.278C36.0607 52.2748 35.6807 52.1646 35.389 51.9904C35.0977 51.8164 34.8666 51.5615 34.6862 51.2253C34.3163 50.5355 34.1761 49.5361 34.1827 48.3451C34.1893 47.1539 34.3405 46.1557 34.7182 45.4705C34.9023 45.1366 35.1363 44.8845 35.4295 44.7142C35.7231 44.5437 36.1044 44.4391 36.6088 44.4422C37.5993 44.4483 38.2927 44.8662 38.7541 45.5386C39.2295 46.2315 39.4771 47.226 39.4707 48.378C39.4642 49.5298 39.2055 50.5204 38.7225 51.2074C38.2537 51.874 37.5557 52.2842 36.5652 52.278Z" fill="#D9D9D9" stroke="black" stroke-width="0.933834"/>
<path d="M30.0477 56.9523C30.0477 58.6357 26.1068 60.0004 21.2455 60.0004C16.3842 60.0004 12.4434 58.6357 12.4434 56.9523C12.4434 55.2689 16.3842 56.9523 21.2455 56.9523C26.1068 56.9523 30.0477 55.2689 30.0477 56.9523Z" fill="black"/>
<path d="M17.9074 10.6085V12.3476L10.3193 12.6737C10.3193 12.6737 12.0393 11.0307 13.6581 10.6085C15.2174 10.2018 17.9074 10.6085 17.9074 10.6085Z" fill="black"/>
<path d="M22.343 10.8784L22.6987 12.5764L30.2524 11.1421C30.2524 11.1421 28.2193 9.93518 26.5357 9.89689C24.914 9.86 22.343 10.8784 22.343 10.8784Z" fill="black"/>
<defs>
<filter id="filter0_d_1687_4912" x="21.3435" y="14.6201" width="12.1333" height="14.3902" filterUnits="userSpaceOnUse" color-interpolation-filters="sRGB">
<feFlood flood-opacity="0" result="BackgroundImageFix"/>
<feColorMatrix in="SourceAlpha" type="matrix" values="0 0 0 0 0 0 0 0 0 0 0 0 0 0 0 0 0 0 127 0" result="hardAlpha"/>
<feOffset dy="0.950447"/>
<feGaussianBlur stdDeviation="0.475224"/>
<feComposite in2="hardAlpha" operator="out"/>
<feColorMatrix type="matrix" values="0 0 0 0 0 0 0 0 0 0 0 0 0 0 0 0 0 0 0.25 0"/>
<feBlend mode="normal" in2="BackgroundImageFix" result="effect1_dropShadow_1687_4912"/>
<feBlend mode="normal" in="SourceGraphic" in2="effect1_dropShadow_1687_4912" result="shape"/>
</filter>
<filter id="filter1_d_1687_4912" x="8.8474" y="14.6201" width="12.1333" height="14.3902" filterUnits="userSpaceOnUse" color-interpolation-filters="sRGB">
<feFlood flood-opacity="0" result="BackgroundImageFix"/>
<feColorMatrix in="SourceAlpha" type="matrix" values="0 0 0 0 0 0 0 0 0 0 0 0 0 0 0 0 0 0 127 0" result="hardAlpha"/>
<feOffset dy="0.950447"/>
<feGaussianBlur stdDeviation="0.475224"/>
<feComposite in2="hardAlpha" operator="out"/>
<feColorMatrix type="matrix" values="0 0 0 0 0 0 0 0 0 0 0 0 0 0 0 0 0 0 0.25 0"/>
<feBlend mode="normal" in2="BackgroundImageFix" result="effect1_dropShadow_1687_4912"/>
<feBlend mode="normal" in="SourceGraphic" in2="effect1_dropShadow_1687_4912" result="shape"/>
</filter>
</defs>
</svg>
