<svg width="89" height="12" viewBox="0 0 89 12" fill="none" xmlns="http://www.w3.org/2000/svg">
<path d="M0.945749 11.6729C0.726434 11.6729 0.542011 11.5981 0.392478 11.4486C0.242945 11.299 0.168179 11.1146 0.168179 10.8953V0.771917C0.168179 0.542633 0.242945 0.358209 0.392478 0.218646C0.542011 0.069113 0.726434 -0.00565329 0.945749 -0.00565329H3.9364C4.68407 -0.00565329 5.347 0.158833 5.92519 0.487805C6.50338 0.816776 6.95198 1.27534 7.27098 1.86351C7.59995 2.4417 7.76444 3.10961 7.76444 3.86724C7.76444 4.59497 7.59995 5.24294 7.27098 5.81117C6.95198 6.37939 6.50338 6.82301 5.92519 7.14201C5.347 7.46101 4.68407 7.62051 3.9364 7.62051H1.72332V10.8953C1.72332 11.1146 1.64855 11.299 1.49902 11.4486C1.35946 11.5981 1.17503 11.6729 0.945749 11.6729ZM1.72332 6.185H3.9364C4.39497 6.185 4.79871 6.08531 5.14762 5.88594C5.49653 5.68656 5.77067 5.41242 5.97005 5.06351C6.16943 4.7146 6.26911 4.31584 6.26911 3.86724C6.26911 3.38874 6.16943 2.97005 5.97005 2.61117C5.77067 2.24232 5.49653 1.95323 5.14762 1.74388C4.79871 1.53453 4.39497 1.42986 3.9364 1.42986H1.72332V6.185ZM12.7745 11.7476C12.0866 11.7476 11.4686 11.6031 10.9203 11.314C10.382 11.0149 9.9533 10.5813 9.6343 10.013C9.32527 9.44481 9.17075 8.74699 9.17075 7.91958V4.24108C9.17075 4.02176 9.24053 3.84232 9.38009 3.70276C9.52963 3.55322 9.71405 3.47846 9.93337 3.47846C10.1527 3.47846 10.3321 3.55322 10.4717 3.70276C10.6212 3.84232 10.696 4.02176 10.696 4.24108V7.91958C10.696 8.47784 10.8007 8.94139 11.01 9.31023C11.2193 9.66911 11.5035 9.93827 11.8623 10.1177C12.2212 10.2872 12.625 10.3719 13.0736 10.3719C13.5022 10.3719 13.881 10.2872 14.21 10.1177C14.5489 9.94824 14.8181 9.71896 15.0175 9.42986C15.2169 9.14076 15.3165 8.81678 15.3165 8.4579H16.2586C16.2586 9.07597 16.1041 9.63422 15.795 10.1327C15.496 10.6311 15.0823 11.0249 14.5539 11.314C14.0355 11.6031 13.4424 11.7476 12.7745 11.7476ZM16.0792 11.6729C15.8598 11.6729 15.6754 11.6031 15.5259 11.4635C15.3863 11.314 15.3165 11.1295 15.3165 10.9102V4.24108C15.3165 4.01179 15.3863 3.82737 15.5259 3.6878C15.6754 3.54824 15.8598 3.47846 16.0792 3.47846C16.3084 3.47846 16.4929 3.54824 16.6324 3.6878C16.772 3.82737 16.8418 4.01179 16.8418 4.24108V10.9102C16.8418 11.1295 16.772 11.314 16.6324 11.4635C16.4929 11.6031 16.3084 11.6729 16.0792 11.6729ZM22.5037 11.6729C22.0053 11.6729 21.5567 11.5482 21.1579 11.299C20.7591 11.0398 20.4451 10.6909 20.2158 10.2523C19.9866 9.81366 19.8719 9.3202 19.8719 8.77192V1.63921C19.8719 1.41989 19.9417 1.24045 20.0813 1.10089C20.2208 0.961325 20.4003 0.891543 20.6196 0.891543C20.8389 0.891543 21.0183 0.961325 21.1579 1.10089C21.2975 1.24045 21.3672 1.41989 21.3672 1.63921V8.77192C21.3672 9.17067 21.4769 9.50463 21.6962 9.77379C21.9155 10.0429 22.1847 10.1775 22.5037 10.1775H23.0121C23.1915 10.1775 23.3411 10.2473 23.4607 10.3869C23.5903 10.5264 23.6551 10.7059 23.6551 10.9252C23.6551 11.1445 23.5704 11.3239 23.4009 11.4635C23.2414 11.6031 23.032 11.6729 22.7729 11.6729H22.5037ZM19.1841 5.07846C18.9747 5.07846 18.8053 5.01865 18.6757 4.89902C18.5461 4.77939 18.4813 4.62986 18.4813 4.45042C18.4813 4.25104 18.5461 4.09154 18.6757 3.97192C18.8053 3.85229 18.9747 3.79248 19.1841 3.79248H22.6383C22.8476 3.79248 23.0171 3.85229 23.1467 3.97192C23.2763 4.09154 23.3411 4.25104 23.3411 4.45042C23.3411 4.62986 23.2763 4.77939 23.1467 4.89902C23.0171 5.01865 22.8476 5.07846 22.6383 5.07846H19.1841ZM28.9391 11.7327C28.2114 11.7327 27.5584 11.5532 26.9802 11.1943C26.402 10.8255 25.9435 10.332 25.6045 9.71397C25.2755 9.08594 25.1111 8.37815 25.1111 7.59061C25.1111 6.80307 25.2905 6.09528 25.6494 5.46724C26.0182 4.83921 26.5117 4.34575 27.1297 3.98687C27.7578 3.61802 28.4606 3.4336 29.2382 3.4336C30.0157 3.4336 30.7135 3.61802 31.3316 3.98687C31.9497 4.34575 32.4382 4.83921 32.797 5.46724C33.1659 6.09528 33.3503 6.80307 33.3503 7.59061H32.7671C32.7671 8.37815 32.5977 9.08594 32.2587 9.71397C31.9297 10.332 31.4762 10.8255 30.898 11.1943C30.3198 11.5532 29.6668 11.7327 28.9391 11.7327ZM29.2382 10.3869C29.7466 10.3869 30.2001 10.2672 30.5989 10.028C30.9977 9.77877 31.3117 9.44481 31.541 9.02612C31.7702 8.59746 31.8849 8.11896 31.8849 7.59061C31.8849 7.05229 31.7702 6.57379 31.541 6.15509C31.3117 5.72643 30.9977 5.39248 30.5989 5.15323C30.2001 4.904 29.7466 4.77939 29.2382 4.77939C28.7397 4.77939 28.2861 4.904 27.8774 5.15323C27.4787 5.39248 27.1596 5.72643 26.9204 6.15509C26.6911 6.57379 26.5765 7.05229 26.5765 7.59061C26.5765 8.11896 26.6911 8.59746 26.9204 9.02612C27.1596 9.44481 27.4787 9.77877 27.8774 10.028C28.2861 10.2672 28.7397 10.3869 29.2382 10.3869ZM32.5877 11.6878C32.3684 11.6878 32.1839 11.618 32.0344 11.4785C31.8949 11.3289 31.8251 11.1445 31.8251 10.9252V8.63734L32.1092 7.05229L33.3503 7.59061V10.9252C33.3503 11.1445 33.2755 11.3289 33.126 11.4785C32.9864 11.618 32.807 11.6878 32.5877 11.6878ZM36.353 6.55883C36.353 5.9607 36.4975 5.42737 36.7866 4.95883C37.0857 4.48033 37.4845 4.10151 37.9829 3.82238C38.4813 3.54326 39.0296 3.40369 39.6278 3.40369C40.2259 3.40369 40.6695 3.50338 40.9586 3.70276C41.2577 3.89217 41.3723 4.12145 41.3025 4.39061C41.2726 4.53017 41.2128 4.63983 41.1231 4.71958C41.0433 4.78936 40.9486 4.83422 40.839 4.85416C40.7293 4.8741 40.6097 4.86911 40.4801 4.83921C39.8421 4.70961 39.2689 4.69964 38.7605 4.8093C38.2521 4.91896 37.8483 5.12332 37.5493 5.42238C37.2602 5.72145 37.1156 6.10027 37.1156 6.55883H36.353ZM36.3679 11.6729C36.1287 11.6729 35.9443 11.613 35.8147 11.4934C35.6851 11.3638 35.6203 11.1744 35.6203 10.9252V4.24108C35.6203 4.00182 35.6851 3.8174 35.8147 3.6878C35.9443 3.55821 36.1287 3.49341 36.3679 3.49341C36.6172 3.49341 36.8016 3.55821 36.9212 3.6878C37.0508 3.80743 37.1156 3.99185 37.1156 4.24108V10.9252C37.1156 11.1644 37.0508 11.3489 36.9212 11.4785C36.8016 11.6081 36.6172 11.6729 36.3679 11.6729Z" fill="#00D4CD"/>
<path d="M43.8196 11.6729C43.6003 11.6729 43.4158 11.5981 43.2663 11.4486C43.1168 11.299 43.042 11.1146 43.042 10.8953V0.771917C43.042 0.542633 43.1168 0.358209 43.2663 0.218646C43.4158 0.069113 43.6003 -0.00565329 43.8196 -0.00565329H46.8102C47.5579 -0.00565329 48.2208 0.158833 48.799 0.487805C49.3772 0.816776 49.8258 1.27534 50.1448 1.86351C50.4738 2.4417 50.6383 3.10961 50.6383 3.86724C50.6383 4.59497 50.4738 5.24294 50.1448 5.81117C49.8258 6.37939 49.3772 6.82301 48.799 7.14201C48.2208 7.46101 47.5579 7.62051 46.8102 7.62051H44.5972V10.8953C44.5972 11.1146 44.5224 11.299 44.3729 11.4486C44.2333 11.5981 44.0489 11.6729 43.8196 11.6729ZM44.5972 6.185H46.8102C47.2688 6.185 47.6725 6.08531 48.0215 5.88594C48.3704 5.68656 48.6445 5.41242 48.8439 5.06351C49.0433 4.7146 49.1429 4.31584 49.1429 3.86724C49.1429 3.38874 49.0433 2.97005 48.8439 2.61117C48.6445 2.24232 48.3704 1.95323 48.0215 1.74388C47.6725 1.53453 47.2688 1.42986 46.8102 1.42986H44.5972V6.185ZM53.1212 11.6729C52.9019 11.6729 52.7175 11.6031 52.5679 11.4635C52.4284 11.314 52.3586 11.1295 52.3586 10.9102V4.25603C52.3586 4.02675 52.4284 3.84232 52.5679 3.70276C52.7175 3.56319 52.9019 3.49341 53.1212 3.49341C53.3505 3.49341 53.5349 3.56319 53.6745 3.70276C53.814 3.84232 53.8838 4.02675 53.8838 4.25603V10.9102C53.8838 11.1295 53.814 11.314 53.6745 11.4635C53.5349 11.6031 53.3505 11.6729 53.1212 11.6729ZM53.1212 2.16257C52.8521 2.16257 52.6178 2.06787 52.4184 1.87846C52.229 1.67908 52.1343 1.44481 52.1343 1.17566C52.1343 0.906496 52.229 0.677213 52.4184 0.487805C52.6178 0.288428 52.8521 0.188739 53.1212 0.188739C53.3904 0.188739 53.6197 0.288428 53.8091 0.487805C54.0084 0.677213 54.1081 0.906496 54.1081 1.17566C54.1081 1.44481 54.0084 1.67908 53.8091 1.87846C53.6197 2.06787 53.3904 2.16257 53.1212 2.16257ZM63.6297 11.6878C63.4104 11.6878 63.226 11.618 63.0765 11.4785C62.9369 11.3289 62.8671 11.1445 62.8671 10.9252V7.24668C62.8671 6.67846 62.7625 6.21491 62.5531 5.85603C62.3438 5.49715 62.0597 5.23298 61.7008 5.06351C61.3519 4.88407 60.9481 4.79435 60.4896 4.79435C60.0709 4.79435 59.692 4.87908 59.3531 5.04855C59.0142 5.21802 58.745 5.44731 58.5456 5.7364C58.3463 6.01553 58.2466 6.33952 58.2466 6.70837H57.3045C57.3045 6.08033 57.454 5.52207 57.7531 5.0336C58.0621 4.53516 58.4808 4.14139 59.0092 3.85229C59.5375 3.56319 60.1307 3.41865 60.7886 3.41865C61.4765 3.41865 62.0896 3.56818 62.6279 3.86724C63.1762 4.15634 63.6048 4.585 63.9139 5.15323C64.2329 5.72145 64.3924 6.41927 64.3924 7.24668V10.9252C64.3924 11.1445 64.3176 11.3289 64.1681 11.4785C64.0285 11.618 63.8491 11.6878 63.6297 11.6878ZM57.4839 11.6878C57.2646 11.6878 57.0802 11.618 56.9307 11.4785C56.7911 11.3289 56.7213 11.1445 56.7213 10.9252V4.25603C56.7213 4.02675 56.7911 3.84232 56.9307 3.70276C57.0802 3.56319 57.2646 3.49341 57.4839 3.49341C57.7132 3.49341 57.8977 3.56319 58.0372 3.70276C58.1768 3.84232 58.2466 4.02675 58.2466 4.25603V10.9252C58.2466 11.1445 58.1768 11.3289 58.0372 11.4785C57.8977 11.618 57.7132 11.6878 57.4839 11.6878ZM69.8898 11.6729C69.3913 11.6729 68.9427 11.5482 68.544 11.299C68.1452 11.0398 67.8312 10.6909 67.6019 10.2523C67.3727 9.81366 67.258 9.3202 67.258 8.77192V1.63921C67.258 1.41989 67.3278 1.24045 67.4674 1.10089C67.6069 0.961325 67.7864 0.891543 68.0057 0.891543C68.225 0.891543 68.4044 0.961325 68.544 1.10089C68.6836 1.24045 68.7533 1.41989 68.7533 1.63921V8.77192C68.7533 9.17067 68.863 9.50463 69.0823 9.77379C69.3016 10.0429 69.5708 10.1775 69.8898 10.1775H70.3982C70.5776 10.1775 70.7272 10.2473 70.8468 10.3869C70.9764 10.5264 71.0412 10.7059 71.0412 10.9252C71.0412 11.1445 70.9565 11.3239 70.787 11.4635C70.6275 11.6031 70.4181 11.6729 70.1589 11.6729H69.8898ZM66.5702 5.07846C66.3608 5.07846 66.1913 5.01865 66.0617 4.89902C65.9322 4.77939 65.8674 4.62986 65.8674 4.45042C65.8674 4.25104 65.9322 4.09154 66.0617 3.97192C66.1913 3.85229 66.3608 3.79248 66.5702 3.79248H70.0244C70.2337 3.79248 70.4032 3.85229 70.5328 3.97192C70.6624 4.09154 70.7272 4.25104 70.7272 4.45042C70.7272 4.62986 70.6624 4.77939 70.5328 4.89902C70.4032 5.01865 70.2337 5.07846 70.0244 5.07846H66.5702ZM76.3252 11.7327C75.5975 11.7327 74.9445 11.5532 74.3663 11.1943C73.7881 10.8255 73.3295 10.332 72.9906 9.71397C72.6616 9.08594 72.4971 8.37815 72.4971 7.59061C72.4971 6.80307 72.6766 6.09528 73.0355 5.46724C73.4043 4.83921 73.8978 4.34575 74.5158 3.98687C75.1439 3.61802 75.8467 3.4336 76.6243 3.4336C77.4018 3.4336 78.0996 3.61802 78.7177 3.98687C79.3358 4.34575 79.8243 4.83921 80.1831 5.46724C80.552 6.09528 80.7364 6.80307 80.7364 7.59061H80.1532C80.1532 8.37815 79.9838 9.08594 79.6448 9.71397C79.3158 10.332 78.8623 10.8255 78.2841 11.1943C77.7059 11.5532 77.0529 11.7327 76.3252 11.7327ZM76.6243 10.3869C77.1327 10.3869 77.5862 10.2672 77.985 10.028C78.3838 9.77877 78.6978 9.44481 78.9271 9.02612C79.1563 8.59746 79.271 8.11896 79.271 7.59061C79.271 7.05229 79.1563 6.57379 78.9271 6.15509C78.6978 5.72643 78.3838 5.39248 77.985 5.15323C77.5862 4.904 77.1327 4.77939 76.6243 4.77939C76.1258 4.77939 75.6722 4.904 75.2635 5.15323C74.8647 5.39248 74.5457 5.72643 74.3065 6.15509C74.0772 6.57379 73.9626 7.05229 73.9626 7.59061C73.9626 8.11896 74.0772 8.59746 74.3065 9.02612C74.5457 9.44481 74.8647 9.77877 75.2635 10.028C75.6722 10.2672 76.1258 10.3869 76.6243 10.3869ZM79.9738 11.6878C79.7545 11.6878 79.57 11.618 79.4205 11.4785C79.2809 11.3289 79.2112 11.1445 79.2112 10.9252V8.63734L79.4953 7.05229L80.7364 7.59061V10.9252C80.7364 11.1445 80.6616 11.3289 80.5121 11.4785C80.3725 11.618 80.1931 11.6878 79.9738 11.6878ZM83.7391 6.55883C83.7391 5.9607 83.8836 5.42737 84.1727 4.95883C84.4718 4.48033 84.8706 4.10151 85.369 3.82238C85.8674 3.54326 86.4157 3.40369 87.0139 3.40369C87.612 3.40369 88.0556 3.50338 88.3447 3.70276C88.6438 3.89217 88.7584 4.12145 88.6886 4.39061C88.6587 4.53017 88.5989 4.63983 88.5092 4.71958C88.4294 4.78936 88.3347 4.83422 88.2251 4.85416C88.1154 4.8741 87.9958 4.86911 87.8662 4.83921C87.2282 4.70961 86.655 4.69964 86.1466 4.8093C85.6382 4.91896 85.2344 5.12332 84.9354 5.42238C84.6463 5.72145 84.5017 6.10027 84.5017 6.55883H83.7391ZM83.754 11.6729C83.5148 11.6729 83.3304 11.613 83.2008 11.4934C83.0712 11.3638 83.0064 11.1744 83.0064 10.9252V4.24108C83.0064 4.00182 83.0712 3.8174 83.2008 3.6878C83.3304 3.55821 83.5148 3.49341 83.754 3.49341C84.0033 3.49341 84.1877 3.55821 84.3073 3.6878C84.4369 3.80743 84.5017 3.99185 84.5017 4.24108V10.9252C84.5017 11.1644 84.4369 11.3489 84.3073 11.4785C84.1877 11.6081 84.0033 11.6729 83.754 11.6729Z" fill="#FAAE2B"/>
</svg>
