<svg width="80" height="145" viewBox="0 0 80 145" fill="none" xmlns="http://www.w3.org/2000/svg">
<path d="M64.3127 132.919C64.5463 138.783 56.418 143.864 46.1576 144.267C35.8972 144.669 27.3902 140.242 27.1566 134.378C26.923 128.514 35.4742 134.051 45.7346 133.648C55.995 133.246 64.0791 127.055 64.3127 132.919Z" fill="black"/>
<path d="M44.916 29.9805C64.0579 29.9805 79.576 45.3862 79.5762 64.3906C79.5762 72.6554 76.6401 80.2389 71.7487 86.1715C71.7437 86.1776 71.7479 86.1868 71.7558 86.187C71.7634 86.1872 71.768 86.1952 71.7637 86.2014C70.3767 88.1882 67.2639 92.8859 65.8252 95.9004C64.0227 99.6776 64.8301 108.012 63.6621 110.109C62.7607 111.728 60.7773 111.392 58.9746 111.368C49.7207 111.248 30.4917 110.936 27.6074 110.648C24.7557 110.363 25.2523 99.5635 23.6955 93.9312C23.66 93.8027 23.6091 93.6823 23.5448 93.5656L21.6592 90.1445L21.2108 89.5345C21.1453 89.4453 21.0716 89.3624 20.9912 89.2862C14.378 83.0198 10.2568 74.1833 10.2568 64.3906C10.257 45.3863 25.7743 29.9807 44.916 29.9805Z" fill="#FAAE2B"/>
<ellipse cx="11.6065" cy="10.1224" rx="11.6065" ry="10.1224" transform="matrix(0.0288557 0.999584 -0.999595 0.0284433 67.1274 51.3213)" fill="#F27E07"/>
<g filter="url(#filter0_d_1638_1277)">
<ellipse cx="10.3848" cy="9.05691" rx="10.3848" ry="9.05691" transform="matrix(0.0288557 0.999584 -0.999595 0.0284433 66.4653 52.9707)" fill="white"/>
</g>
<ellipse cx="1.01812" cy="0.887932" rx="1.01812" ry="0.887932" transform="matrix(0.0288557 0.999584 -0.999595 0.0284433 58.187 64.9258)" fill="white"/>
<ellipse cx="11.6065" cy="10.1224" rx="11.6065" ry="10.1224" transform="matrix(0.0288557 0.999584 -0.999595 0.0284433 45.0107 51.3203)" fill="#F27E07"/>
<g filter="url(#filter1_d_1638_1277)">
<ellipse cx="10.3848" cy="9.05691" rx="10.3848" ry="9.05691" transform="matrix(0.0288557 0.999584 -0.999595 0.0284433 44.3477 52.9697)" fill="white"/>
</g>
<ellipse cx="6.31232" cy="5.50518" rx="6.31232" ry="5.50518" transform="matrix(0.0288557 0.999584 -0.999595 0.0284433 40.5566 56.9219)" fill="#D27B08"/>
<ellipse cx="6.31232" cy="5.50518" rx="6.31232" ry="5.50518" transform="matrix(0.0288557 0.999584 -0.999595 0.0284433 40.5566 56.9219)" fill="#D27B08"/>
<ellipse cx="6.31232" cy="5.50518" rx="6.31232" ry="5.50518" transform="matrix(0.0288557 0.999584 -0.999595 0.0284433 63.1187 56.9229)" fill="#D27B08"/>
<ellipse cx="4.4126" cy="3.98255" rx="4.4126" ry="3.98255" transform="matrix(0.340589 0.940212 -0.905672 0.42398 37.5244 57.752)" fill="#381004"/>
<ellipse cx="4.4126" cy="3.98255" rx="4.4126" ry="3.98255" transform="matrix(0.340589 0.940212 -0.905672 0.42398 37.5244 57.752)" fill="#381004"/>
<ellipse cx="4.4126" cy="3.98255" rx="4.4126" ry="3.98255" transform="matrix(0.340589 0.940212 -0.905672 0.42398 60.0859 57.752)" fill="#381004"/>
<ellipse cx="1.01812" cy="0.887932" rx="1.01812" ry="0.887932" transform="matrix(0.0288557 0.999584 -0.999595 0.0284433 36.0898 62.2559)" fill="white"/>
<ellipse cx="1.01812" cy="0.887932" rx="1.01812" ry="0.887932" transform="matrix(0.0288557 0.999584 -0.999595 0.0284433 36.0898 62.2559)" fill="white"/>
<ellipse cx="1.01812" cy="0.887932" rx="1.01812" ry="0.887932" transform="matrix(0.0288557 0.999584 -0.999595 0.0284433 58.6514 62.2559)" fill="white"/>
<path d="M59.7072 35.2805C58.8487 36.2618 58.5437 37.6499 58.8594 39.1396C59.1751 40.6292 60.0856 42.0983 61.3906 43.2236C62.6956 44.349 64.2882 45.0384 65.818 45.1403C67.3478 45.2422 68.6895 44.7481 69.548 43.7669L64.6276 39.5237L59.7072 35.2805Z" fill="white"/>
<path d="M76.5015 56.6403C77.4294 55.7234 77.0377 53.5656 75.4125 50.6415C73.7874 47.7174 71.0618 44.2666 67.8356 41.0482C64.6093 37.8297 61.1466 35.1074 58.2091 33.4799C55.2716 31.8525 53.1001 31.4533 52.1722 32.3702L59.9635 36.6489L66.831 42.8215L72.5914 49.4529L76.5015 56.6403Z" fill="white"/>
<path d="M40.8871 46.5525V49.4443L27.4531 49.9865C27.4531 49.9865 30.4981 47.2545 33.3641 46.5525C36.1247 45.8763 40.8871 46.5525 40.8871 46.5525Z" fill="black"/>
<path d="M48.7411 47.0007L49.3709 49.8241L62.744 47.4391C62.744 47.4391 59.1446 45.4324 56.1639 45.3687C53.2928 45.3074 48.7411 47.0007 48.7411 47.0007Z" fill="black"/>
<path d="M40.5597 111.607C34.6202 111.447 26.5542 110.886 26.5542 110.886L27.2798 117.752L28.6803 117.832C28.6803 117.832 33.7224 119.055 37.02 119.401C41.0571 119.824 43.3357 120.284 47.3835 119.993C50.7255 119.754 52.6431 119.007 55.9126 118.298C58.9895 117.63 63.633 116.01 63.633 116.01L63.6319 111.074C63.6319 111.074 55.1271 111.607 49.4849 111.607C46.2607 111.607 43.8617 111.696 40.5597 111.607Z" fill="#B5B5CB" stroke="black" stroke-width="1.60818"/>
<path d="M41.8682 119.927C36.106 119.773 27.2715 117.764 27.2715 117.764L27.9742 124.445L29.3329 124.523C29.3329 124.523 34.2244 125.713 37.4234 126.049C41.3401 126.46 43.5813 126.378 47.5083 126.094C50.7507 125.86 52.5805 125.663 55.7525 124.972C58.7377 124.321 63.2429 122.744 63.2429 122.744L63.6424 115.859C63.6424 115.859 55.533 118.918 50.0663 119.599C46.8885 119.995 45.0717 120.013 41.8682 119.927Z" fill="#B5B5CB" stroke="black" stroke-width="1.60818"/>
<path d="M42.0945 126.652C36.5093 126.508 27.9795 124.753 27.9795 124.753L28.6488 131.433L29.9657 131.508C29.9657 131.508 34.705 132.689 37.8054 133.019C41.6011 133.423 43.7738 133.337 47.5809 133.047C50.7242 132.807 52.4982 132.607 55.5742 131.91C58.469 131.255 62.8389 129.669 62.8389 129.669L63.2384 122.785C63.2384 122.785 55.2253 125.608 49.925 126.299C46.8439 126.7 45.1996 126.732 42.0945 126.652Z" fill="#B5B5CB" stroke="black" stroke-width="1.60818"/>
<line x1="45.126" y1="63.4564" x2="48.3501" y2="63.4564" stroke="black" stroke-width="0.804092"/>
<path d="M33.1038 82.4968C33.0385 84.3522 33.2827 86.2002 33.8224 87.9353C34.3621 89.6703 35.1867 91.2584 36.2491 92.6088C37.3116 93.9592 38.6841 94.4305 40.1076 95.1908C41.531 95.951 43.3292 96.2121 44.897 96.2664C46.4648 96.3207 47.5523 95.8593 49.1455 95.6151C50.6189 94.9552 51.9778 94.4676 53.1325 93.194C54.2872 91.9204 55.2214 90.3933 55.8816 88.6999C56.5418 87.0064 56.9152 85.1798 56.9805 83.3244L45.0421 82.9106L33.1038 82.4968Z" fill="#001F34"/>
<path d="M36.8369 82.6572L53.4874 83.1581C53.41 85.6951 51.2889 87.6899 48.7498 87.6135L41.2941 87.3893C38.7551 87.3129 36.7595 85.1943 36.8369 82.6572Z" fill="#FEFEFE"/>
<path d="M43.9885 90.4292C40.4595 89.973 36.5239 93.1259 36.5239 93.1259C36.5239 93.1259 38.4943 94.5935 39.727 95.1284C41.1052 95.7265 41.8503 95.9457 43.111 96.2283C44.7665 96.5994 45.7034 96.3704 47.2725 96.1298C48.937 95.8747 50.9562 95.0256 50.9562 95.0256C50.9562 95.0256 47.4087 90.8714 43.9885 90.4292Z" fill="#E54D24"/>
<path d="M2.61711 43.859C4.71563 37.4766 14.9081 31.748 14.9081 31.748L15.3571 24.7805L17.4161 17.7311C17.4161 17.7311 18.8104 13.9772 20.3486 11.9727C21.9774 9.85014 23.2251 8.86437 25.4961 7.43711C27.8519 5.95645 29.4033 5.46916 32.081 4.69803C34.3186 4.05363 35.6279 3.85661 37.9431 3.59834C39.82 3.38897 42.773 3.3525 42.773 3.3525L45.47 3.48233C45.47 3.48233 48.3274 4.02552 50.1 4.58216C52.2031 5.24258 53.3989 5.64682 55.3214 6.7203C56.9495 7.6294 57.7687 8.30267 59.2286 9.45953C60.7361 10.6541 61.6445 11.2871 62.8948 12.7452C64.2952 14.3784 65.8245 17.4039 65.8245 17.4039C65.8245 17.4039 67.2151 20.1957 67.6809 22.1173C68.1235 23.943 68.1957 26.8989 68.1957 26.8989L68.4147 31.1613L68.4065 36.2367L53.1077 34.3902L50.4697 37.951C50.4697 37.951 48.4559 40.3611 46.8911 41.6054C45.1325 43.0038 41.9298 44.529 41.9298 44.529L37.464 46.626C37.464 46.626 33.9315 47.7437 31.6019 47.7257C30.3255 47.7158 28.3546 47.3567 28.3546 47.3567L24.2612 46.2296C24.2612 46.2296 22.0482 45.6454 20.7045 45.0751C19.232 44.4501 18.5333 43.844 17.1068 43.1214C15.9358 42.5283 14.073 41.6732 14.073 41.6732L13.5364 41.7006C13.5364 41.7006 13.2866 43.2487 12.8546 44.1392C12.3063 45.2695 11.8143 45.8578 10.8312 46.6461C9.7699 47.497 9.0073 47.8307 7.67974 48.142C6.55641 48.4054 4.72814 48.2922 4.72814 48.2922C4.72814 48.2922 3.33694 47.967 2.79509 47.3222C2.30581 46.7399 2.1626 45.4847 2.1626 45.4847C2.1626 45.4847 2.41117 44.4853 2.61711 43.859Z" fill="#B22222"/>
<path d="M45.47 3.48233L42.773 3.3525C42.773 3.3525 39.82 3.38897 37.9431 3.59834C35.6279 3.85661 34.3186 4.05363 32.081 4.69803C29.4033 5.46916 27.8519 5.95645 25.4961 7.43711C23.2251 8.86437 21.9774 9.85014 20.3486 11.9727C18.8104 13.9772 17.4161 17.7311 17.4161 17.7311L15.3571 24.7805L14.9081 31.748C14.9081 31.748 4.71563 37.4766 2.61711 43.859C2.41117 44.4853 2.1626 45.4847 2.1626 45.4847C2.1626 45.4847 2.30581 46.7399 2.79509 47.3222C3.33694 47.967 4.72814 48.2922 4.72814 48.2922C4.72814 48.2922 6.55641 48.4054 7.67974 48.142C9.0073 47.8307 9.7699 47.497 10.8312 46.6461C11.8143 45.8578 12.3063 45.2695 12.8546 44.1392C13.2866 43.2487 13.5364 41.7006 13.5364 41.7006L14.073 41.6732C14.073 41.6732 15.9358 42.5283 17.1068 43.1214C18.5333 43.844 19.232 44.4501 20.7045 45.0751C22.0482 45.6454 24.2612 46.2296 24.2612 46.2296L28.3546 47.3567C28.3546 47.3567 30.3255 47.7158 31.6019 47.7257C33.9315 47.7437 37.464 46.626 37.464 46.626L41.9298 44.529C41.9298 44.529 45.1325 43.0038 46.8911 41.6054C48.4559 40.3611 50.4697 37.951 50.4697 37.951L53.1077 34.3902M45.47 3.48233C45.47 3.48233 48.3274 4.02552 50.1 4.58216C52.2031 5.24258 53.3989 5.64682 55.3214 6.7203C56.9495 7.6294 57.7687 8.30267 59.2286 9.45953C60.7361 10.6541 61.6445 11.2871 62.8948 12.7452C64.2952 14.3784 65.8245 17.4039 65.8245 17.4039C65.8245 17.4039 67.2151 20.1957 67.6809 22.1173C68.1235 23.943 68.1957 26.8989 68.1957 26.8989L68.4147 31.1613L68.4065 36.2367L53.1077 34.3902M45.47 3.48233C45.47 3.48233 47.4798 4.9615 48.3038 6.27619C49.111 7.56384 49.5688 9.95122 49.5688 9.95122L50.6339 14.9719C50.6339 14.9719 51.1071 19.8394 51.0446 22.964C50.958 27.2961 49.7277 33.9822 49.7277 33.9822M49.7277 33.9822L53.1077 34.3902M49.7277 33.9822C49.7277 33.9822 43.7689 33.0095 39.9584 32.3427C34.2193 31.3383 31.5033 30.102 25.2907 29.6169C23.9309 29.5108 21.8025 29.7945 21.8025 29.7945L17.0137 30.8395" stroke="black" stroke-width="0.620913"/>
<path d="M42.6782 1.4934C43.6172 1.44576 44.4631 1.54904 45.0684 1.74556C45.3719 1.84413 45.6007 1.96229 45.7508 2.08444C45.9009 2.20664 45.9493 2.31307 45.9535 2.39487C45.9577 2.47665 45.9204 2.58757 45.7837 2.72422C45.647 2.86084 45.4313 3.00076 45.1397 3.12947C44.5578 3.38628 43.7269 3.57469 42.7879 3.62241C41.8487 3.6701 41.0021 3.56685 40.3968 3.3703C40.0935 3.27179 39.8644 3.15447 39.7144 3.0324C39.5644 2.9103 39.5159 2.80374 39.5116 2.72197C39.5074 2.64018 39.5447 2.52936 39.6814 2.39262C39.8181 2.25592 40.0337 2.11518 40.3255 1.98639C40.9075 1.72955 41.739 1.54109 42.6782 1.4934Z" fill="#B22222" stroke="black" stroke-width="0.536062"/>
<path d="M14.4952 41.9917C14.4952 41.9917 12.9091 40.926 11.7433 40.7959C10.4748 40.6544 9.70671 40.9545 8.55082 41.4922C7.65447 41.9092 6.47281 42.9332 6.47281 42.9332C6.47281 42.9332 5.59731 43.5395 5.18606 44.067C4.81156 44.5473 4.56996 44.8443 4.44969 45.4399C4.34656 45.9506 4.2771 46.3093 4.51831 46.7719C4.72298 47.1644 4.95032 47.3681 5.36446 47.5302C5.85253 47.7212 6.70611 47.4621 6.70611 47.4621" stroke="black" stroke-width="0.536062"/>
<path d="M32.961 16.9516L33.2436 17.065L33.6048 17.1541L34.0809 17.3435L34.6743 17.6029L35.1552 17.7318L35.6268 17.7837L35.8029 17.6907L35.9676 17.3531L36.1174 16.8163L36.1617 16.2561L36.1625 15.662L36.0037 15.1468L36.4861 15.8395L36.8946 16.4959L36.9835 16.7313L37.2371 17.4062L37.2985 17.9899L37.3377 18.4652L37.3006 18.9347L37.1754 19.5496L37.0673 19.6554L36.8671 20.1502L36.5977 20.6473L36.2451 21.0312L35.9877 21.3768L35.5953 21.6814L34.9437 21.9659L34.3591 22.1794L33.7664 22.3009L32.8758 22.3078L32.159 22.252C32.159 22.252 31.8937 21.9671 31.6856 21.8343C31.6352 21.8022 31.5536 21.7569 31.5536 21.7569L30.8934 21.9555L30.8524 21.9745C30.8524 21.9745 30.8524 21.9745 30.8524 21.9745C30.7655 22.0148 30.6841 22.0527 30.6077 22.0883L30.8838 22.0767L31.4176 22.1182L31.8997 22.2319L32.4111 22.3631L33.0104 22.5468L33.6202 22.7923L34.4656 23.1628L34.3856 24.1773L34.3605 24.4953L33.847 24.1964L33.4752 24.0456L32.9582 23.792L32.3026 23.543L31.8804 23.4492L31.2586 23.3551L30.8761 23.3406L30.5182 23.4042L30.2164 23.533L29.8782 23.7353L29.5176 24.0271L29.1743 23.711L28.8883 23.4449L28.5355 23.2499L28.2681 23.1377L27.8458 23.0439L26.9998 23.0695L26.3766 23.1886L25.7016 23.3799L24.8048 23.6605L24.8263 23.3879L24.9064 22.3734L25.5015 22.2216L25.863 22.1127L26.2691 22.0224L26.8759 21.9172L27.2796 21.8572L28.2465 21.8563L28.759 21.9723L29.0862 22.1044L29.5022 22.4719L29.1625 22.1103L28.5398 21.8334L28.099 21.5858L27.9959 21.538C27.8721 21.4865 27.6635 21.4197 27.5242 21.4801C27.4159 21.5272 27.294 21.6755 27.294 21.6755L27.0356 21.8382L26.5781 21.8026L26.0442 21.7611L25.3675 21.5866L24.7284 21.3236L24.3193 21.0632L23.8303 20.8424L23.5363 20.4843L23.2025 20.047L22.9591 19.6319L22.7392 19.1121L22.6097 18.6145L22.5071 18.1647L22.4987 17.4937L22.673 17.0349L22.6849 16.8835L22.7208 16.4292L22.8538 16.1044L23.001 15.7959L23.4782 15.1932L24.2703 14.295L24.009 15.6611L24.0315 16.3484C24.0315 16.3484 24.0214 16.6632 24.1506 16.7842C24.2497 16.8771 24.479 16.9012 24.479 16.9012L25.0433 16.9451L25.6079 16.791L26.0938 16.6612L26.7311 16.5584L27.0023 16.4271C27.0023 16.4271 27.3877 16.3285 27.5843 16.442C27.7378 16.5306 27.863 16.7988 27.863 16.7988L28.1469 17.6741L28.6789 17.3498L28.6803 17.1366L28.6288 16.2337L28.4427 15.0919L28.3557 14.4452L28.149 13.7588L27.919 12.9791L27.7201 12.5828L27.5726 12.3123L27.3163 12.2543L27.6446 11.9827L28.0884 11.804L28.6937 11.912L28.8229 11.8306L29.2855 11.6076L29.5825 11.5393L29.8875 11.563L30.4874 11.3507L30.9985 11.6799L31.1053 11.6883L31.456 11.7155L31.7796 11.8931L32.1137 12.1323L32.1899 12.1383L32.6627 12.1751L33.079 12.3446L33.4059 12.6747C33.4059 12.6747 33.0879 12.814 32.9233 12.9571C32.6092 13.23 32.4197 13.893 32.4197 13.893L32.0358 14.8686L31.6504 16.0575L31.3829 16.9203L31.347 17.3746L31.5178 17.7382L31.845 17.8703L32.0181 17.4268L32.2675 16.9891L32.5752 16.7845L32.961 16.9516Z" fill="#FEFEFE"/>
<path d="M33.2436 17.065L32.9089 17.2218L32.7502 17.4837L32.7227 17.832L32.8414 18.4659L33.0739 19.2152L33.2653 19.9005L33.2127 20.5667L32.7788 21.2033L31.8994 21.6529L31.5536 21.7569M33.2436 17.065L32.961 16.9516L32.5752 16.7845L32.2675 16.9891L32.0181 17.4268L31.845 17.8703L31.5178 17.7382L31.347 17.3746L31.3829 16.9203L31.6504 16.0575L32.0358 14.8686L32.4197 13.893C32.4197 13.893 32.6092 13.23 32.9233 12.9571C33.0879 12.814 33.4059 12.6747 33.4059 12.6747L33.079 12.3446L32.6627 12.1751L32.1899 12.1383L32.1137 12.1323M33.2436 17.065L33.6048 17.1541L34.0809 17.3435L34.6743 17.6029L35.1552 17.7318L35.6268 17.7837L35.8029 17.6907L35.9676 17.3531L36.1174 16.8163L36.1617 16.2561L36.1625 15.662L36.0037 15.1468L36.4861 15.8395L36.8946 16.4959L36.9835 16.7313L37.2371 17.4062L37.2985 17.9899M32.1137 12.1323L31.9487 12.668L31.8249 13.0697L31.6453 13.6021M32.1137 12.1323L31.7796 11.8931L31.456 11.7155L31.1053 11.6883L30.9985 11.6799M31.4984 14.0955L31.6446 13.6041L31.6453 13.6021M31.4984 14.0955L31.4299 14.3797M31.4984 14.0955L31.6453 13.6021M30.9985 11.6799L30.9166 12.3287L30.777 13.1253L30.7144 13.5297L30.6562 13.8777L30.5959 14.2538M30.9985 11.6799L30.4874 11.3507L29.8875 11.563M29.8875 11.563L29.86 11.9113L29.8218 13.1729L29.8004 14.2224M29.8875 11.563L29.5825 11.5393L29.2855 11.6076L28.8229 11.8306L28.6937 11.912M28.6937 11.912L28.7652 12.367L28.8367 12.822L28.9142 13.5898L28.9873 14.2201M28.6937 11.912L28.0884 11.804L27.6446 11.9827L27.3163 12.2543L27.5726 12.3123L27.7201 12.5828L27.919 12.9791L28.149 13.7588L28.3557 14.4452L28.4427 15.0919L28.6288 16.2337L28.6803 17.1366L28.6789 17.3498L28.1469 17.6741L27.863 16.7988C27.863 16.7988 27.7378 16.5306 27.5843 16.442C27.3877 16.3285 27.0023 16.4271 27.0023 16.4271L26.7311 16.5584M26.7311 16.5584C26.7311 16.5584 27.0871 16.6182 27.22 16.7793C27.3411 16.9258 27.352 17.2466 27.352 17.2466C27.352 17.2466 27.2923 17.4091 27.2542 17.5132C27.1928 17.6809 27.0975 17.9428 27.0975 17.9428L26.9833 18.2234L26.8374 18.5168L26.7043 18.8416L26.5384 19.1943L26.397 19.6252L26.3683 19.9886L26.4897 20.3941L26.834 20.8932L27.5069 21.3112L28.099 21.5858M26.7311 16.5584L26.0938 16.6612L25.6079 16.791L25.0433 16.9451L24.479 16.9012C24.479 16.9012 24.2497 16.8771 24.1506 16.7842C24.0214 16.6632 24.0315 16.3484 24.0315 16.3484L24.009 15.6611L24.2703 14.295L23.4782 15.1932L23.001 15.7959L22.8538 16.1044L22.7208 16.4292L22.6849 16.8835L22.673 17.0349M28.099 21.5858L28.5398 21.8334L29.1625 22.1103L29.5022 22.4719M28.099 21.5858C28.099 21.5858 27.7334 21.3893 27.5242 21.4801C27.4159 21.5272 27.294 21.6755 27.294 21.6755L27.0356 21.8382L26.5781 21.8026L26.0442 21.7611L25.3675 21.5866L24.7284 21.3236L24.3193 21.0632M29.5022 22.4719L29.5854 22.5851M29.5022 22.4719L29.0862 22.1044L28.759 21.9723L28.2465 21.8563L27.2796 21.8572L26.8759 21.9172L26.2691 22.0224L25.863 22.1127L25.5015 22.2216L24.9064 22.3734L24.8263 23.3879M29.5854 22.5851L29.6829 22.5165L30.1448 22.3024M29.5854 22.5851C29.6366 22.5535 29.9618 22.3872 30.8524 21.9745M29.5854 22.5851L29.5041 23.6147M29.5854 22.5851L30.1448 22.3024M22.673 17.0349L22.8731 17.4161L23.1073 17.7543L23.5212 17.9541L24.049 18.0713M22.673 17.0349L22.4987 17.4937L22.5071 18.1647L22.6097 18.6145M22.6097 18.6145L22.9145 18.8362L23.4256 19.1655L23.9534 19.2827M22.6097 18.6145L22.7392 19.1121L22.9591 19.6319L23.2025 20.047M23.2025 20.047L23.5614 20.1663L23.9929 20.337L24.7098 20.3928M23.2025 20.047L23.5363 20.4843L23.8303 20.8424L24.3193 21.0632M24.3193 21.0632L24.7463 21.0964L25.2649 21.1368M37.2985 17.9899L37.2408 18.1378L37.1831 18.2856L36.9304 18.5707L36.443 18.9136L36.065 19.0366L35.6801 19.0523M37.2985 17.9899L37.3377 18.4652L37.3006 18.9347L37.1754 19.5496L37.0673 19.6554M35.621 20.1904L35.9729 20.2025L36.4765 20.0437L36.7179 19.9025L36.9592 19.7613L37.0673 19.6554M37.0673 19.6554L36.8671 20.1502L36.5977 20.6473L36.2451 21.0312M36.2451 21.0312L35.8848 21.125L35.3695 21.2373L34.729 21.1875M36.2451 21.0312L35.9877 21.3768L35.5953 21.6814L34.9437 21.9659M34.9437 21.9659L34.4886 21.9L34.031 21.8645M34.9437 21.9659L34.3591 22.1794L33.7664 22.3009L32.8758 22.3078L32.159 22.252C32.159 22.252 31.8937 21.9671 31.6856 21.8343C31.6352 21.8022 31.5536 21.7569 31.5536 21.7569M31.5536 21.7569L30.8934 21.9555L30.8524 21.9745M30.8524 21.9745L30.6067 22.0884M29.5041 23.6147L29.9177 23.2356L30.345 23.0707L30.8073 23.0458L31.3411 23.0873L31.8244 23.1858L32.4097 23.3532L33.084 23.5581L33.695 23.7884L34.2695 24.0921L34.3856 24.1773M29.5041 23.6147L29.1246 23.1739L28.7552 22.9928L28.4586 22.863L28.0199 22.7832L27.6081 22.7512L27.0847 22.7714L26.289 22.938L25.6798 23.0735L24.905 23.3636L24.8263 23.3879M34.3856 24.1773L34.4656 23.1628L33.6202 22.7923L33.0104 22.5468L32.4111 22.3631L31.8997 22.2319L31.4176 22.1182L30.8838 22.0767L30.6067 22.0884M34.3856 24.1773L34.3605 24.4953L33.847 24.1964L33.4752 24.0456L32.9582 23.792L32.3026 23.543L31.8804 23.4492L31.2586 23.3551L30.8761 23.3406L30.5182 23.4042L30.2164 23.533L29.8782 23.7353L29.5176 24.0271L29.1743 23.711L28.8883 23.4449L28.5355 23.2499L28.2681 23.1377L27.8458 23.0439L26.9998 23.0695L26.3766 23.1886L25.7016 23.3799L24.8048 23.6605L24.8263 23.3879M30.6067 22.0884L30.1448 22.3024" stroke="black" stroke-width="0.0915692"/>
<path d="M29.5576 18.073L29.9311 17.8126L29.9485 17.9815L29.968 18.3182L29.9781 18.578L29.9261 18.8482L29.8613 19.0869L29.7542 19.2766C29.7542 19.2766 29.7331 19.3524 29.7611 19.3838C29.7928 19.4193 29.8831 19.3933 29.8831 19.3933C29.8831 19.3933 29.9797 19.3681 30.0263 19.3283C30.1067 19.2598 30.1229 19.0768 30.1229 19.0768L30.1621 18.7751L30.1884 18.442L30.1548 18.089L30.086 17.7942L30.0172 17.4993L30.2915 17.7187L30.6007 18.078L30.8256 18.3392L30.9964 18.7029L31.0311 19.0408L30.966 19.4775L30.8129 19.8617L30.5273 20.1747L30.2384 20.3351L29.9603 20.3591L29.6484 20.2282L29.3777 19.9634L29.2327 19.6626L29.1462 19.3969L29.1561 19.0777L29.206 18.6398L29.3367 18.3453L29.5576 18.073Z" fill="#FDEF09" stroke="black" stroke-width="0.0915692"/>
<path d="M29.1656 22.0655C29.2117 22.2703 29.5006 22.4876 29.5006 22.4876L29.6014 22.5716L29.895 22.3507L30.1373 22.0039C30.1373 22.0039 30.1637 21.7736 30.1671 21.6254C30.1699 21.5062 30.1605 21.3202 30.1605 21.3202C30.1605 21.3202 30.0771 21.1348 30.0624 21.0078C30.0475 20.8782 30.0887 20.6747 30.0887 20.6747L29.734 20.8909L29.4024 20.6213C29.4024 20.6213 29.4637 20.9077 29.4123 21.0791C29.3703 21.2189 29.2182 21.3992 29.2182 21.3992L29.1943 21.702C29.1831 21.844 29.1344 21.9265 29.1656 22.0655Z" fill="#E40717" stroke="black" stroke-width="0.0915692"/>
<path d="M29.3021 16.8549C29.4844 16.7807 29.667 16.7384 29.8169 16.7244C29.8917 16.7175 29.9576 16.7172 30.011 16.7234C30.0536 16.7284 30.085 16.7385 30.1071 16.7486C30.1086 16.766 30.1054 16.7921 30.0844 16.8295C30.0583 16.876 30.0134 16.93 29.9535 16.9861C29.8339 17.0979 29.6613 17.2125 29.4802 17.2861C29.1419 17.4237 28.8916 17.3752 28.7267 17.3377C28.7261 17.3207 28.7296 17.2981 28.744 17.2696C28.7649 17.2283 28.8033 17.1811 28.856 17.1313C28.9614 17.0316 29.1204 16.9289 29.3021 16.8549Z" fill="#FEFEFE" stroke="black" stroke-width="0.0915692"/>
<path d="M30.8933 16.9515C31.0592 17.0569 31.1984 17.1806 31.2961 17.2942C31.3449 17.3511 31.3837 17.4048 31.4093 17.4519C31.4295 17.4889 31.4385 17.5202 31.4429 17.5438C31.4295 17.555 31.4067 17.568 31.3641 17.5725C31.3108 17.5779 31.2403 17.5725 31.1598 17.5561C30.9989 17.5232 30.8052 17.4488 30.6403 17.344C30.3323 17.1483 30.2285 16.917 30.1645 16.7616C30.1782 16.7513 30.1989 16.7411 30.2306 16.7364C30.2767 16.7297 30.3376 16.7338 30.409 16.748C30.5518 16.7763 30.7279 16.8464 30.8933 16.9515Z" fill="#FEFEFE" stroke="black" stroke-width="0.0915693"/>
<path d="M30.2003 15.1973C30.2003 15.1973 29.8389 15.5322 29.7523 15.8176C29.6955 16.005 29.7129 16.3173 29.7129 16.3173C29.7129 16.3173 29.7275 16.4513 29.7736 16.5201C29.8114 16.5763 29.9025 16.6367 29.9025 16.6367C29.9025 16.6367 30.0631 16.7332 30.1723 16.7187C30.2465 16.7088 30.3472 16.6409 30.3472 16.6409C30.3472 16.6409 30.4506 16.5764 30.4952 16.5153C30.5463 16.4454 30.573 16.308 30.573 16.308C30.573 16.308 30.6044 16.0458 30.5759 15.8817C30.5239 15.5817 30.2003 15.1973 30.2003 15.1973Z" stroke="black" stroke-width="0.0915692"/>
<defs>
<filter id="filter0_d_1638_1277" x="47.0165" y="53.2246" width="21.3903" height="24.0412" filterUnits="userSpaceOnUse" color-interpolation-filters="sRGB">
<feFlood flood-opacity="0" result="BackgroundImageFix"/>
<feColorMatrix in="SourceAlpha" type="matrix" values="0 0 0 0 0 0 0 0 0 0 0 0 0 0 0 0 0 0 127 0" result="hardAlpha"/>
<feOffset dy="1.63679"/>
<feGaussianBlur stdDeviation="0.818397"/>
<feComposite in2="hardAlpha" operator="out"/>
<feColorMatrix type="matrix" values="0 0 0 0 0 0 0 0 0 0 0 0 0 0 0 0 0 0 0.25 0"/>
<feBlend mode="normal" in2="BackgroundImageFix" result="effect1_dropShadow_1638_1277"/>
<feBlend mode="normal" in="SourceGraphic" in2="effect1_dropShadow_1638_1277" result="shape"/>
</filter>
<filter id="filter1_d_1638_1277" x="24.8993" y="53.2236" width="21.3898" height="24.0412" filterUnits="userSpaceOnUse" color-interpolation-filters="sRGB">
<feFlood flood-opacity="0" result="BackgroundImageFix"/>
<feColorMatrix in="SourceAlpha" type="matrix" values="0 0 0 0 0 0 0 0 0 0 0 0 0 0 0 0 0 0 127 0" result="hardAlpha"/>
<feOffset dy="1.63679"/>
<feGaussianBlur stdDeviation="0.818397"/>
<feComposite in2="hardAlpha" operator="out"/>
<feColorMatrix type="matrix" values="0 0 0 0 0 0 0 0 0 0 0 0 0 0 0 0 0 0 0.25 0"/>
<feBlend mode="normal" in2="BackgroundImageFix" result="effect1_dropShadow_1638_1277"/>
<feBlend mode="normal" in="SourceGraphic" in2="effect1_dropShadow_1638_1277" result="shape"/>
</filter>
</defs>
</svg>
