<svg width="80" height="145" viewBox="0 0 80 145" fill="none" xmlns="http://www.w3.org/2000/svg">
<path d="M64.3121 132.922C64.5457 138.786 56.4174 143.867 46.1571 144.27C35.8967 144.673 27.3897 140.245 27.1561 134.381C26.9225 128.516 35.4737 134.054 45.7341 133.651C55.9945 133.248 64.0785 127.057 64.3121 132.922Z" fill="black"/>
<path d="M44.917 29.9824C64.0589 29.9824 79.5771 45.3894 79.5771 64.3945C79.5771 72.6594 76.6409 80.2428 71.7497 86.1754C71.7447 86.1815 71.7489 86.1907 71.7568 86.1909C71.7643 86.1911 71.769 86.1991 71.7647 86.2053C70.3778 88.1919 67.264 92.8896 65.8252 95.9043C64.0225 99.6815 64.8301 108.017 63.6621 110.114C62.7608 111.733 60.7773 111.396 58.9746 111.373C49.7207 111.253 30.4917 110.941 27.6074 110.653C24.7707 110.369 25.2472 99.6795 23.7194 94.0236C23.6689 93.8366 23.5944 93.6605 23.5009 93.4909L21.6592 90.1494L21.2517 89.5945C21.1564 89.4647 21.0491 89.3441 20.9325 89.2331C19.4904 87.86 18.1682 86.3644 16.9817 84.763C16.9815 84.7628 16.9813 84.7626 16.9812 84.7624L16.9724 84.7537C16.9722 84.7534 16.9724 84.7529 16.9728 84.7529C16.9731 84.7529 16.9733 84.7525 16.9731 84.7522C12.7526 79.0511 10.2579 72.0125 10.2578 64.3945C10.2578 45.3895 25.7751 29.9825 44.917 29.9824Z" fill="#FAAE2B"/>
<ellipse cx="11.6069" cy="10.1224" rx="11.6069" ry="10.1224" transform="matrix(0.0288548 0.999584 -0.999595 0.0284442 67.1274 51.3213)" fill="#F27E07"/>
<g filter="url(#filter0_d_1747_1795)">
<ellipse cx="10.3851" cy="9.05689" rx="10.3851" ry="9.05689" transform="matrix(0.0288548 0.999584 -0.999595 0.0284442 66.4653 52.9707)" fill="white"/>
</g>
<ellipse cx="1.01815" cy="0.88793" rx="1.01815" ry="0.88793" transform="matrix(0.0288548 0.999584 -0.999595 0.0284442 58.1865 64.9258)" fill="white"/>
<ellipse cx="11.6069" cy="10.1224" rx="11.6069" ry="10.1224" transform="matrix(0.0288548 0.999584 -0.999595 0.0284442 45.0117 51.3223)" fill="#F27E07"/>
<g filter="url(#filter1_d_1747_1795)">
<ellipse cx="10.3851" cy="9.05689" rx="10.3851" ry="9.05689" transform="matrix(0.0288548 0.999584 -0.999595 0.0284442 44.3481 52.9707)" fill="white"/>
</g>
<ellipse cx="6.3125" cy="5.50517" rx="6.3125" ry="5.50517" transform="matrix(0.0288548 0.999584 -0.999595 0.0284442 40.5576 56.9238)" fill="#D27B08"/>
<ellipse cx="6.3125" cy="5.50517" rx="6.3125" ry="5.50517" transform="matrix(0.0288548 0.999584 -0.999595 0.0284442 40.5576 56.9238)" fill="#D27B08"/>
<ellipse cx="6.3125" cy="5.50517" rx="6.3125" ry="5.50517" transform="matrix(0.0288548 0.999584 -0.999595 0.0284442 63.1182 56.9238)" fill="#D27B08"/>
<ellipse cx="4.41271" cy="3.98256" rx="4.41271" ry="3.98256" transform="matrix(0.34058 0.940216 -0.905667 0.42399 37.5244 57.7529)" fill="#381004"/>
<ellipse cx="4.41271" cy="3.98256" rx="4.41271" ry="3.98256" transform="matrix(0.34058 0.940216 -0.905667 0.42399 37.5244 57.7529)" fill="#381004"/>
<ellipse cx="4.41271" cy="3.98256" rx="4.41271" ry="3.98256" transform="matrix(0.34058 0.940216 -0.905667 0.42399 60.085 57.7529)" fill="#381004"/>
<ellipse cx="1.01815" cy="0.88793" rx="1.01815" ry="0.88793" transform="matrix(0.0288548 0.999584 -0.999595 0.0284442 36.0908 62.2578)" fill="white"/>
<ellipse cx="1.01815" cy="0.88793" rx="1.01815" ry="0.88793" transform="matrix(0.0288548 0.999584 -0.999595 0.0284442 36.0908 62.2578)" fill="white"/>
<ellipse cx="1.01815" cy="0.88793" rx="1.01815" ry="0.88793" transform="matrix(0.0288548 0.999584 -0.999595 0.0284442 58.6514 62.2578)" fill="white"/>
<path d="M59.7067 35.2821C58.8482 36.2634 58.5432 37.6516 58.859 39.1413C59.1747 40.6309 60.0852 42.1001 61.3901 43.2255C62.6951 44.3508 64.2877 45.0403 65.8175 45.1422C67.3473 45.2441 68.689 44.75 69.5475 43.7687L64.6271 39.5254L59.7067 35.2821Z" fill="white"/>
<path d="M76.501 56.6431C77.4289 55.7262 77.0372 53.5683 75.412 50.6441C73.7868 47.7199 71.0613 44.269 67.8351 41.0505C64.6088 37.8319 61.1461 35.1095 58.2086 33.482C55.2711 31.8545 53.0996 31.4553 52.1717 32.3722L59.963 36.651L66.8305 42.8238L72.5909 49.4554L76.501 56.6431Z" fill="white"/>
<path d="M40.8871 46.5544V49.4463L27.4531 49.9885C27.4531 49.9885 30.4981 47.2565 33.3641 46.5544C36.1246 45.8782 40.8871 46.5544 40.8871 46.5544Z" fill="black"/>
<path d="M48.7407 47.0028L49.3704 49.8262L62.7435 47.4412C62.7435 47.4412 59.1441 45.4344 56.1634 45.3707C53.2924 45.3094 48.7407 47.0028 48.7407 47.0028Z" fill="black"/>
<path d="M40.5596 111.61C34.6201 111.45 26.5542 110.889 26.5542 110.889L27.2798 117.755L28.6803 117.835C28.6803 117.835 33.7224 119.058 37.02 119.404C41.0571 119.827 43.3357 120.287 47.3834 119.997C50.7255 119.757 52.6431 119.01 55.9125 118.301C58.9894 117.633 63.6329 116.013 63.6329 116.013L63.6318 111.077C63.6318 111.077 55.1271 111.61 49.4848 111.61C46.2607 111.61 43.8617 111.699 40.5596 111.61Z" fill="#B5B5CB" stroke="black" stroke-width="2.33788"/>
<path d="M41.8677 119.931C36.1055 119.777 27.271 117.768 27.271 117.768L27.9738 124.45L29.3324 124.527C29.3324 124.527 34.2239 125.717 37.4229 126.053C41.3395 126.464 43.5808 126.382 47.5077 126.098C50.7501 125.864 52.5799 125.667 55.7519 124.976C58.7371 124.326 63.2423 122.748 63.2423 122.748L63.6419 115.863C63.6419 115.863 55.5325 118.922 50.0658 119.603C46.8879 119.999 45.0712 120.017 41.8677 119.931Z" fill="#B5B5CB" stroke="black" stroke-width="2.33788"/>
<path d="M42.095 126.655C36.5097 126.511 27.98 124.756 27.98 124.756L28.6493 131.436L29.9661 131.511C29.9661 131.511 34.7055 132.692 37.8058 133.022C41.6016 133.427 43.7742 133.341 47.5813 133.05C50.7246 132.811 52.4987 132.61 55.5746 131.914C58.4694 131.258 62.8393 129.672 62.8393 129.672L63.2388 122.788C63.2388 122.788 55.2257 125.611 49.9254 126.302C46.8443 126.703 45.2001 126.735 42.095 126.655Z" fill="#B5B5CB" stroke="black" stroke-width="2.33788"/>
<line x1="45.127" y1="63.2759" x2="48.3511" y2="63.2759" stroke="black" stroke-width="1.16894"/>
<path d="M33.1048 82.4993C33.0396 84.3548 33.2837 86.2029 33.8234 87.9379C34.3631 89.673 35.1877 91.2611 36.2501 92.6116C37.3126 93.9621 38.6851 94.4334 40.1086 95.1936C41.532 95.9539 43.3303 96.215 44.898 96.2693C46.4658 96.3237 47.5533 95.8622 49.1465 95.618C50.6199 94.9581 51.9788 94.4704 53.1335 93.1968C54.2882 91.9232 55.2223 90.396 55.8826 88.7026C56.5428 87.0091 56.9162 85.1824 56.9814 83.3269L45.0431 82.9131L33.1048 82.4993Z" fill="#001F34"/>
<path d="M36.8379 82.6592L53.4883 83.16C53.4109 85.6972 51.2898 87.692 48.7506 87.6156L41.2952 87.3914C38.7561 87.315 36.7605 85.1963 36.8379 82.6592Z" fill="#FEFEFE"/>
<path d="M43.989 90.4321C40.46 89.9759 36.5244 93.1289 36.5244 93.1289C36.5244 93.1289 38.4948 94.5966 39.7274 95.1315C41.1056 95.7295 41.8508 95.9488 43.1114 96.2313C44.7669 96.6024 45.7039 96.3735 47.2729 96.1329C48.9374 95.8777 50.9567 95.0286 50.9567 95.0286C50.9567 95.0286 47.4092 90.8743 43.989 90.4321Z" fill="#E54D24"/>
<path d="M2.62236 43.8599C4.72011 37.4777 14.912 31.7502 14.912 31.7502L15.3602 24.7827L17.4183 17.7334C17.4183 17.7334 18.8121 13.9796 20.3501 11.9753C21.9787 9.85288 23.2263 8.86725 25.497 7.44023C27.8528 5.95984 29.4041 5.47273 32.0817 4.70191C34.3193 4.05778 35.6286 3.86091 37.9438 3.60292C39.8207 3.39378 42.7737 3.35767 42.7737 3.35767L45.4707 3.48782C45.4707 3.48782 48.3282 4.03138 50.1009 4.58824C52.2041 5.24893 53.4 5.65332 55.3226 6.72705C56.9509 7.63637 57.7701 8.30974 59.2302 9.46681C60.7378 10.6616 61.6464 11.2947 62.8968 12.753C64.2974 14.3864 65.8271 17.4121 65.8271 17.4121C65.8271 17.4121 67.2181 20.2041 67.6841 22.1258C68.127 23.9516 68.1995 26.9075 68.1995 26.9075L68.4191 31.1701L68.4115 36.2455L53.1123 34.3971L50.4747 37.9576C50.4747 37.9576 48.4612 40.3676 46.8965 41.6117C45.138 43.0099 41.9355 44.5347 41.9355 44.5347L37.47 46.6312C37.47 46.6312 33.9376 47.7485 31.6079 47.7302C30.3315 47.7201 28.3605 47.3609 28.3605 47.3609L24.267 46.2332C24.267 46.2332 22.0539 45.6488 20.7101 45.0783C19.2375 44.4531 18.5387 43.8469 17.1121 43.1241C15.941 42.5308 14.0781 41.6755 14.0781 41.6755L13.5415 41.7028C13.5415 41.7028 13.2918 43.2509 12.86 44.1414C12.3119 45.2716 11.8199 45.8599 10.8369 46.648C9.77567 47.4989 9.01311 47.8324 7.68557 48.1436C6.56226 48.4069 4.73396 48.2935 4.73396 48.2935C4.73396 48.2935 3.3427 47.9681 2.80077 47.3232C2.31141 46.7409 2.16805 45.4856 2.16805 45.4856C2.16805 45.4856 2.41649 44.4862 2.62236 43.8599Z" fill="#808080"/>
<path d="M45.4707 3.48782L42.7737 3.35767C42.7737 3.35767 39.8207 3.39378 37.9438 3.60292C35.6286 3.86091 34.3193 4.05778 32.0817 4.70191C29.4041 5.47273 27.8528 5.95984 25.497 7.44023C23.2263 8.86725 21.9787 9.85288 20.3501 11.9753C18.8121 13.9796 17.4183 17.7334 17.4183 17.7334L15.3602 24.7827L14.912 31.7502C14.912 31.7502 4.72011 37.4777 2.62236 43.8599C2.41649 44.4862 2.16805 45.4856 2.16805 45.4856C2.16805 45.4856 2.31141 46.7409 2.80077 47.3232C3.3427 47.9681 4.73396 48.2935 4.73396 48.2935C4.73396 48.2935 6.56226 48.4069 7.68557 48.1436C9.01311 47.8324 9.77567 47.4989 10.8369 46.648C11.8199 45.8599 12.3119 45.2716 12.86 44.1414C13.2918 43.2509 13.5415 41.7028 13.5415 41.7028L14.0781 41.6755C14.0781 41.6755 15.941 42.5308 17.1121 43.1241C18.5387 43.8469 19.2375 44.4531 20.7101 45.0783C22.0539 45.6488 24.267 46.2332 24.267 46.2332L28.3605 47.3609C28.3605 47.3609 30.3315 47.7201 31.6079 47.7302C33.9376 47.7485 37.47 46.6312 37.47 46.6312L41.9355 44.5347C41.9355 44.5347 45.138 43.0099 46.8965 41.6117C48.4612 40.3676 50.4747 37.9576 50.4747 37.9576L53.1123 34.3971M45.4707 3.48782C45.4707 3.48782 48.3282 4.03138 50.1009 4.58824C52.2041 5.24893 53.4 5.65332 55.3226 6.72705C56.9509 7.63637 57.7701 8.30974 59.2302 9.46681C60.7378 10.6616 61.6464 11.2947 62.8968 12.753C64.2974 14.3864 65.8271 17.4121 65.8271 17.4121C65.8271 17.4121 67.2181 20.2041 67.6841 22.1258C68.127 23.9516 68.1995 26.9075 68.1995 26.9075L68.4191 31.1701L68.4115 36.2455L53.1123 34.3971M45.4707 3.48782C45.4707 3.48782 47.4807 4.96727 48.3049 6.28208C49.1122 7.56984 49.5704 9.95732 49.5704 9.95732L50.6361 14.9782C50.6361 14.9782 51.1099 19.8459 51.0478 22.9705C50.9617 27.3027 49.7322 33.9887 49.7322 33.9887M49.7322 33.9887L53.1123 34.3971M49.7322 33.9887C49.7322 33.9887 43.7732 33.0153 39.9626 32.348C34.2233 31.3429 31.5072 30.1062 25.2945 29.6204C23.9346 29.5141 21.8062 29.7975 21.8062 29.7975L17.0175 30.842" stroke="black" stroke-width="0.902645"/>
<path d="M42.684 1.61628C43.612 1.5692 44.442 1.67201 45.0299 1.86286C45.3252 1.95876 45.5396 2.06987 45.674 2.17924C45.8083 2.28865 45.8293 2.36655 45.8311 2.40202C45.8329 2.43755 45.8196 2.5165 45.6976 2.63859C45.5752 2.761 45.3734 2.89422 45.0895 3.01953C44.5243 3.26891 43.7091 3.45529 42.7812 3.50245C41.853 3.54958 41.0223 3.4468 40.4343 3.25592C40.139 3.16002 39.9245 3.04794 39.7902 2.93856C39.6564 2.82951 39.635 2.75227 39.6331 2.71675C39.6312 2.68129 39.6442 2.60162 39.7665 2.47921C39.8889 2.3568 40.0908 2.22456 40.3747 2.09925C40.94 1.84978 41.7558 1.66341 42.684 1.61628Z" fill="#808080" stroke="black" stroke-width="0.779293"/>
<path d="M14.4952 41.9927C14.4952 41.9927 12.9091 40.9269 11.7433 40.7969C10.4748 40.6554 9.70669 40.9555 8.55081 41.4932C7.65446 41.9102 6.4728 42.9343 6.4728 42.9343C6.4728 42.9343 5.59731 43.5406 5.18606 44.068C4.81155 44.5484 4.56996 44.8454 4.44969 45.441C4.34656 45.9517 4.2771 46.3105 4.51831 46.773C4.72297 47.1655 4.95032 47.3693 5.36446 47.5314C5.85253 47.7224 6.7061 47.4632 6.7061 47.4632" stroke="black" stroke-width="0.779293"/>
<path d="M32.96 16.9518L33.2426 17.0652L33.6038 17.1543L34.0799 17.3437L34.6733 17.6031L35.1541 17.732L35.6258 17.7839L35.8019 17.6909L35.9666 17.3533L36.1164 16.8165L36.1606 16.2562L36.1615 15.6621L36.0027 15.147L36.4851 15.8396L36.8936 16.4961L36.9825 16.7315L37.2361 17.4064L37.2975 17.9901L37.3367 18.4655L37.2996 18.9349L37.1744 19.5498L37.0663 19.6557L36.8661 20.1505L36.5967 20.6475L36.2441 21.0315L35.9867 21.3771L35.5943 21.6818L34.9427 21.9662L34.3581 22.1798L33.7654 22.3013L32.8748 22.3081L32.158 22.2524C32.158 22.2524 31.8927 21.9674 31.6846 21.8347C31.6342 21.8025 31.5526 21.7573 31.5526 21.7573L30.8924 21.9559L30.8514 21.9748C30.8512 21.9749 30.851 21.975 30.8509 21.9751C30.7642 22.0153 30.6829 22.0531 30.6067 22.0887L30.8828 22.077L31.4166 22.1185L31.8987 22.2322L32.4101 22.3634L33.0094 22.5472L33.6192 22.7927L34.4646 23.1631L34.3846 24.1777L34.3595 24.4957L33.846 24.1967L33.4742 24.0459L32.9572 23.7924L32.3016 23.5433L31.8794 23.4496L31.2576 23.3555L30.8751 23.341L30.5172 23.4045L30.2154 23.5334L29.8772 23.7356L29.5166 24.0275L29.1733 23.7113L28.8874 23.4453L28.5345 23.2503L28.2671 23.1381L27.8448 23.0443L26.9988 23.0699L26.3756 23.189L25.7007 23.3802L24.8038 23.6609L24.8253 23.3883L24.9054 22.3737L25.5005 22.222L25.8621 22.113L26.2682 22.0227L26.8749 21.9175L27.2786 21.8575L28.2455 21.8566L28.7581 21.9726L29.0852 22.1047L29.5012 22.4723L29.1615 22.1107L28.5388 21.8337L28.098 21.5861L27.995 21.5383C27.8711 21.4868 27.6625 21.42 27.5232 21.4804C27.4149 21.5275 27.293 21.6758 27.293 21.6758L27.0346 21.8386L26.5771 21.803L26.0433 21.7614L25.3665 21.5869L24.7274 21.3239L24.3183 21.0635L23.8293 20.8426L23.5353 20.4846L23.2016 20.0473L22.9581 19.6322L22.7383 19.1123L22.6087 18.6147L22.5061 18.1649L22.4977 17.4939L22.672 17.0351L22.684 16.8837L22.7198 16.4294L22.8529 16.1046L23 15.7961L23.4772 15.1933L24.2693 14.2951L24.0081 15.6612L24.0305 16.3485C24.0305 16.3485 24.0204 16.6634 24.1496 16.7844C24.2487 16.8773 24.478 16.9014 24.478 16.9014L25.0423 16.9453L25.6069 16.7911L26.0928 16.6613L26.7301 16.5586L27.0013 16.4273C27.0013 16.4273 27.3867 16.3287 27.5833 16.4421C27.7369 16.5307 27.862 16.799 27.862 16.799L28.1459 17.6743L28.6779 17.35L28.6794 17.1368L28.6279 16.2339L28.4418 15.092L28.3547 14.4453L28.148 13.7589L27.918 12.9792L27.7191 12.5828L27.5716 12.3123L27.3153 12.2543L27.6437 11.9828L28.0874 11.804L28.6927 11.912L28.8219 11.8307L29.2845 11.6076L29.5815 11.5393L29.8865 11.5631L30.4864 11.3507L30.9975 11.68L31.1043 11.6883L31.455 11.7156L31.7786 11.8931L32.1127 12.1324L32.1889 12.1383L32.6617 12.1751L33.078 12.3446L33.4049 12.6748C33.4049 12.6748 33.0869 12.8141 32.9223 12.9572C32.6082 13.23 32.4187 13.8931 32.4187 13.8931L32.0348 14.8687L31.6494 16.0576L31.3819 16.9205L31.346 17.3747L31.5168 17.7385L31.844 17.8706L32.0171 17.427L32.2665 16.9893L32.5742 16.7847L32.96 16.9518Z" fill="#FEFEFE"/>
<path d="M33.2426 17.0652L32.9079 17.222L32.7492 17.4839L32.7217 17.8322L32.8404 18.4661L33.0729 19.2155L33.2643 19.9007L33.2117 20.567L32.7778 21.2036L31.8984 21.6532L31.5526 21.7573M33.2426 17.0652L32.96 16.9518L32.5742 16.7847L32.2665 16.9893L32.0171 17.427L31.844 17.8706L31.5168 17.7385L31.346 17.3747L31.3819 16.9205L31.6494 16.0576L32.0348 14.8687L32.4187 13.8931C32.4187 13.8931 32.6082 13.23 32.9223 12.9572C33.0869 12.8141 33.4049 12.6748 33.4049 12.6748L33.078 12.3446L32.6617 12.1751L32.1889 12.1383L32.1127 12.1324M33.2426 17.0652L33.6038 17.1543L34.0799 17.3437L34.6733 17.6031L35.1541 17.732L35.6258 17.7839L35.8019 17.6909L35.9666 17.3533L36.1164 16.8165L36.1606 16.2562L36.1615 15.6621L36.0027 15.147L36.4851 15.8396L36.8936 16.4961L36.9825 16.7315L37.2361 17.4064L37.2975 17.9901M32.1127 12.1324L31.9477 12.668L31.8239 13.0698L31.6443 13.6022M32.1127 12.1324L31.7786 11.8931L31.455 11.7156L31.1043 11.6883L30.9975 11.68M31.4974 14.0956L31.6436 13.6042L31.6443 13.6022M31.4974 14.0956L31.4289 14.3798M31.4974 14.0956L31.6443 13.6022M30.9975 11.68L30.9156 12.3287L30.776 13.1254L30.7134 13.5298L30.6552 13.8777L30.5949 14.2539M30.9975 11.68L30.4864 11.3507L29.8865 11.5631M29.8865 11.5631L29.859 11.9113L29.8208 13.1729L29.7994 14.2225M29.8865 11.5631L29.5815 11.5393L29.2845 11.6076L28.8219 11.8307L28.6927 11.912M28.6927 11.912L28.7642 12.367L28.8357 12.8221L28.9132 13.5899L28.9863 14.2202M28.6927 11.912L28.0874 11.804L27.6437 11.9828L27.3153 12.2543L27.5716 12.3123L27.7191 12.5828L27.918 12.9792L28.148 13.7589L28.3547 14.4453L28.4418 15.092L28.6278 16.2339L28.6794 17.1368L28.6779 17.35L28.1459 17.6743L27.862 16.799C27.862 16.799 27.7369 16.5307 27.5833 16.4421C27.3867 16.3287 27.0013 16.4273 27.0013 16.4273L26.7301 16.5586M26.7301 16.5586C26.7301 16.5586 27.0861 16.6183 27.2191 16.7794C27.3401 16.926 27.351 17.2468 27.351 17.2468C27.351 17.2468 27.2913 17.4092 27.2532 17.5134C27.1918 17.6811 27.0965 17.943 27.0965 17.943L26.9823 18.2236L26.8364 18.517L26.7033 18.8418L26.5374 19.1946L26.396 19.6254L26.3673 19.9888L26.4887 20.3944L26.833 20.8935L27.5059 21.3115L28.098 21.5861M26.7301 16.5586L26.0928 16.6613L25.6069 16.7911L25.0423 16.9453L24.478 16.9014C24.478 16.9014 24.2487 16.8773 24.1496 16.7844C24.0204 16.6634 24.0305 16.3485 24.0305 16.3485L24.0081 15.6612L24.2693 14.2951L23.4772 15.1933L23 15.7961L22.8529 16.1046L22.7198 16.4294L22.684 16.8837L22.672 17.0351M28.098 21.5861L28.5388 21.8337L29.1615 22.1107L29.5012 22.4723M28.098 21.5861C28.098 21.5861 27.7324 21.3896 27.5232 21.4804C27.4149 21.5275 27.293 21.6758 27.293 21.6758L27.0346 21.8386L26.5771 21.803L26.0433 21.7614L25.3665 21.5869L24.7274 21.3239L24.3183 21.0635M29.5012 22.4723L29.5844 22.5854M29.5012 22.4723L29.0852 22.1047L28.7581 21.9726L28.2455 21.8566L27.2786 21.8575L26.8749 21.9175L26.2682 22.0227L25.8621 22.113L25.5005 22.222L24.9054 22.3737L24.8253 23.3883M29.5844 22.5854L29.6819 22.5168L30.1438 22.3028M29.5844 22.5854C29.6356 22.5538 29.9608 22.3875 30.8514 21.9748M29.5844 22.5854L29.5031 23.6151M29.5844 22.5854L30.1438 22.3028M22.672 17.0351L22.8721 17.4163L23.1063 17.7545L23.5202 17.9543L24.048 18.0715M22.672 17.0351L22.4977 17.4939L22.5061 18.1649L22.6087 18.6147M22.6087 18.6147L22.9135 18.8365L23.4246 19.1657L23.9524 19.2829M22.6087 18.6147L22.7383 19.1123L22.9581 19.6322L23.2016 20.0473M23.2016 20.0473L23.5604 20.1666L23.992 20.3373L24.7088 20.3931M23.2016 20.0473L23.5353 20.4846L23.8293 20.8426L24.3183 21.0635M24.3183 21.0635L24.7453 21.0967L25.2639 21.1371M37.2975 17.9901L37.2398 18.138L37.1821 18.2858L36.9294 18.5709L36.4419 18.9139L36.064 19.0368L35.6791 19.0526M37.2975 17.9901L37.3367 18.4655L37.2996 18.9349L37.1744 19.5498L37.0663 19.6557M35.6199 20.1907L35.9719 20.2028L36.4755 20.0439L36.7168 19.9027L36.9582 19.7615L37.0663 19.6557M37.0663 19.6557L36.8661 20.1505L36.5967 20.6475L36.2441 21.0315M36.2441 21.0315L35.8838 21.1253L35.3685 21.2376L34.728 21.1878M36.2441 21.0315L35.9867 21.3771L35.5943 21.6818L34.9427 21.9662M34.9427 21.9662L34.4876 21.9004L34.03 21.8648M34.9427 21.9662L34.3581 22.1798L33.7654 22.3013L32.8748 22.3081L32.158 22.2524C32.158 22.2524 31.8927 21.9674 31.6846 21.8347C31.6342 21.8025 31.5526 21.7573 31.5526 21.7573M31.5526 21.7573L30.8924 21.9559L30.8514 21.9748M30.8514 21.9748L30.6057 22.0887M29.5031 23.6151L29.9167 23.2359L30.344 23.0711L30.8063 23.0461L31.3401 23.0877L31.8234 23.1862L32.4087 23.3536L33.083 23.5584L33.694 23.7888L34.2685 24.0925L34.3846 24.1777M29.5031 23.6151L29.1236 23.1742L28.7542 22.9931L28.4576 22.8634L28.0189 22.7836L27.6071 22.7515L27.0837 22.7717L26.288 22.9384L25.6788 23.0738L24.904 23.364L24.8253 23.3883M34.3846 24.1777L34.4646 23.1631L33.6192 22.7927L33.0094 22.5472L32.4101 22.3634L31.8987 22.2322L31.4166 22.1185L30.8828 22.077L30.6057 22.0887M34.3846 24.1777L34.3595 24.4957L33.846 24.1967L33.4742 24.0459L32.9572 23.7924L32.3016 23.5433L31.8794 23.4496L31.2576 23.3555L30.8751 23.341L30.5172 23.4045L30.2154 23.5334L29.8772 23.7356L29.5166 24.0275L29.1733 23.7113L28.8874 23.4453L28.5345 23.2503L28.2671 23.1381L27.8448 23.0443L26.9988 23.0699L26.3756 23.189L25.7007 23.3802L24.8038 23.6609L24.8253 23.3883M30.6057 22.0887L30.1438 22.3028" stroke="black" stroke-width="0.133118"/>
<path d="M29.5576 18.074L29.9311 17.8136L29.9485 17.9825L29.968 18.3192L29.9781 18.579L29.9261 18.8492L29.8612 19.0879L29.7542 19.2777C29.7542 19.2777 29.7331 19.3534 29.7611 19.3848C29.7928 19.4204 29.8831 19.3943 29.8831 19.3943C29.8831 19.3943 29.9797 19.3691 30.0263 19.3293C30.1067 19.2608 30.1229 19.0778 30.1229 19.0778L30.1621 18.7761L30.1884 18.443L30.1548 18.09L30.086 17.7951L30.0172 17.5003L30.2915 17.7197L30.6007 18.079L30.8256 18.3402L30.9964 18.7039L31.0311 19.0418L30.966 19.4786L30.8129 19.8628L30.5273 20.1758L30.2384 20.3361L29.9603 20.3602L29.6484 20.2293L29.3777 19.9644L29.2327 19.6637L29.1462 19.3979L29.1561 19.0788L29.206 18.6408L29.3367 18.3463L29.5576 18.074Z" fill="#FDEF09" stroke="black" stroke-width="0.133118"/>
<path d="M29.1651 22.0655C29.2112 22.2703 29.5001 22.4877 29.5001 22.4877L29.6009 22.5717L29.8946 22.3508L30.1368 22.004C30.1368 22.004 30.1632 21.7737 30.1666 21.6254C30.1694 21.5062 30.16 21.3202 30.16 21.3202C30.16 21.3202 30.0766 21.1348 30.0619 21.0078C30.047 20.8782 30.0882 20.6747 30.0882 20.6747L29.7336 20.8909L29.4019 20.6213C29.4019 20.6213 29.4632 20.9077 29.4118 21.0791C29.3698 21.219 29.2177 21.3992 29.2177 21.3992L29.1938 21.7021C29.1826 21.844 29.1339 21.9266 29.1651 22.0655Z" fill="#E40717" stroke="black" stroke-width="0.133118"/>
<path d="M29.309 16.8738C29.4893 16.8004 29.6694 16.7588 29.8171 16.745C29.891 16.7381 29.9563 16.7382 30.0081 16.7442C30.0419 16.7482 30.0675 16.7551 30.0862 16.762C30.0845 16.7745 30.0805 16.7936 30.0657 16.8198C30.0411 16.8637 29.9976 16.9155 29.9387 16.9706C29.821 17.0807 29.6498 17.1935 29.471 17.2663C29.1498 17.3969 28.9104 17.3568 28.7472 17.3206C28.7493 17.3097 28.7531 17.2957 28.7616 17.2789C28.7812 17.2404 28.8175 17.1945 28.8694 17.1455C28.9726 17.0478 29.1294 16.9469 29.309 16.8738Z" fill="#FEFEFE" stroke="black" stroke-width="0.133118"/>
<path d="M30.8808 16.9688C31.045 17.0731 31.1828 17.1955 31.2791 17.3076C31.3272 17.3636 31.364 17.4163 31.3887 17.4617C31.4052 17.4921 31.4143 17.5174 31.4193 17.5368C31.408 17.5425 31.3898 17.5495 31.3604 17.5525C31.31 17.5577 31.2412 17.5525 31.1618 17.5363C31.0035 17.5039 30.8131 17.4293 30.6505 17.326C30.3581 17.1401 30.2535 16.9226 30.1895 16.7691C30.1997 16.7646 30.2135 16.7597 30.2322 16.7569C30.2752 16.7506 30.3339 16.7538 30.4041 16.7677C30.544 16.7955 30.7173 16.8649 30.8808 16.9688Z" fill="#FEFEFE" stroke="black" stroke-width="0.133118"/>
<path d="M30.1988 15.1993C30.1988 15.1993 29.8374 15.5342 29.7509 15.8196C29.694 16.007 29.7114 16.3193 29.7114 16.3193C29.7114 16.3193 29.726 16.4533 29.7722 16.5221C29.8099 16.5783 29.9011 16.6387 29.9011 16.6387C29.9011 16.6387 30.0616 16.7352 30.1708 16.7207C30.245 16.7108 30.3457 16.6429 30.3457 16.6429C30.3457 16.6429 30.4491 16.5784 30.4938 16.5173C30.5448 16.4473 30.5715 16.31 30.5715 16.31C30.5715 16.31 30.6029 16.0477 30.5745 15.8836C30.5224 15.5837 30.1988 15.1993 30.1988 15.1993Z" stroke="black" stroke-width="0.133118"/>
<defs>
<filter id="filter0_d_1747_1795" x="46.2738" y="53.2246" width="22.8756" height="25.5275" filterUnits="userSpaceOnUse" color-interpolation-filters="sRGB">
<feFlood flood-opacity="0" result="BackgroundImageFix"/>
<feColorMatrix in="SourceAlpha" type="matrix" values="0 0 0 0 0 0 0 0 0 0 0 0 0 0 0 0 0 0 127 0" result="hardAlpha"/>
<feOffset dy="2.37947"/>
<feGaussianBlur stdDeviation="1.18974"/>
<feComposite in2="hardAlpha" operator="out"/>
<feColorMatrix type="matrix" values="0 0 0 0 0 0 0 0 0 0 0 0 0 0 0 0 0 0 0.25 0"/>
<feBlend mode="normal" in2="BackgroundImageFix" result="effect1_dropShadow_1747_1795"/>
<feBlend mode="normal" in="SourceGraphic" in2="effect1_dropShadow_1747_1795" result="shape"/>
</filter>
<filter id="filter1_d_1747_1795" x="24.1567" y="53.2246" width="22.8756" height="25.5275" filterUnits="userSpaceOnUse" color-interpolation-filters="sRGB">
<feFlood flood-opacity="0" result="BackgroundImageFix"/>
<feColorMatrix in="SourceAlpha" type="matrix" values="0 0 0 0 0 0 0 0 0 0 0 0 0 0 0 0 0 0 127 0" result="hardAlpha"/>
<feOffset dy="2.37947"/>
<feGaussianBlur stdDeviation="1.18974"/>
<feComposite in2="hardAlpha" operator="out"/>
<feColorMatrix type="matrix" values="0 0 0 0 0 0 0 0 0 0 0 0 0 0 0 0 0 0 0.25 0"/>
<feBlend mode="normal" in2="BackgroundImageFix" result="effect1_dropShadow_1747_1795"/>
<feBlend mode="normal" in="SourceGraphic" in2="effect1_dropShadow_1747_1795" result="shape"/>
</filter>
</defs>
</svg>
