<svg width="80" height="145" viewBox="0 0 80 145" fill="none" xmlns="http://www.w3.org/2000/svg">
<path d="M64.3125 132.922C64.5461 138.786 56.4179 143.867 46.1575 144.27C35.8972 144.673 27.3902 140.245 27.1566 134.381C26.923 128.516 35.4742 134.054 45.7345 133.651C55.9949 133.248 64.0789 127.057 64.3125 132.922Z" fill="black"/>
<path d="M44.917 29.9814C64.0588 29.9814 79.577 45.3876 79.5771 64.3926C79.5771 72.6576 76.641 80.2417 71.7497 86.1744C71.7447 86.1805 71.7489 86.1898 71.7568 86.19C71.7643 86.1902 71.769 86.1982 71.7647 86.2044C70.3777 88.191 67.264 92.8886 65.8252 95.9033C64.0225 99.6805 64.8301 108.016 63.6621 110.113C62.7607 111.732 60.7772 111.395 58.9746 111.372C49.721 111.252 30.4938 110.94 27.6084 110.652C24.7712 110.369 25.2482 99.679 23.7204 94.0227C23.6699 93.8356 23.5954 93.6595 23.5018 93.4898L21.6592 90.1475L21.2521 89.5943C21.1572 89.4653 21.0504 89.3454 20.9344 89.235C19.4902 87.8601 18.1666 86.3618 16.9787 84.758C16.9786 84.7579 16.9785 84.7578 16.9783 84.7576L16.973 84.7523C16.9729 84.7522 16.973 84.752 16.9732 84.752C16.9734 84.752 16.9735 84.7517 16.9734 84.7516C12.7526 79.0503 10.2578 72.0109 10.2578 64.3926C10.258 45.3877 25.7753 29.9816 44.917 29.9814Z" fill="#FAAE2B"/>
<ellipse cx="11.6069" cy="10.1224" rx="11.6069" ry="10.1224" transform="matrix(0.0288548 0.999584 -0.999595 0.0284443 67.1274 51.3223)" fill="#F27E07"/>
<g filter="url(#filter0_d_1747_1839)">
<ellipse cx="10.3851" cy="9.05686" rx="10.3851" ry="9.05686" transform="matrix(0.0288548 0.999584 -0.999595 0.0284443 66.4653 52.9717)" fill="white"/>
</g>
<ellipse cx="1.01815" cy="0.887928" rx="1.01815" ry="0.887928" transform="matrix(0.0288548 0.999584 -0.999595 0.0284443 58.187 64.9268)" fill="white"/>
<ellipse cx="11.6069" cy="10.1224" rx="11.6069" ry="10.1224" transform="matrix(0.0288548 0.999584 -0.999595 0.0284443 45.0117 51.3223)" fill="#F27E07"/>
<g filter="url(#filter1_d_1747_1839)">
<ellipse cx="10.3851" cy="9.05686" rx="10.3851" ry="9.05686" transform="matrix(0.0288548 0.999584 -0.999595 0.0284443 44.3486 52.9707)" fill="white"/>
</g>
<ellipse cx="6.31251" cy="5.50515" rx="6.31251" ry="5.50515" transform="matrix(0.0288548 0.999584 -0.999595 0.0284443 40.5581 56.9238)" fill="#D27B08"/>
<ellipse cx="6.31251" cy="5.50515" rx="6.31251" ry="5.50515" transform="matrix(0.0288548 0.999584 -0.999595 0.0284443 40.5581 56.9238)" fill="#D27B08"/>
<ellipse cx="6.31251" cy="5.50515" rx="6.31251" ry="5.50515" transform="matrix(0.0288548 0.999584 -0.999595 0.0284443 63.1182 56.9238)" fill="#D27B08"/>
<ellipse cx="4.41271" cy="3.98255" rx="4.41271" ry="3.98255" transform="matrix(0.340579 0.940216 -0.905666 0.423992 37.5244 57.7529)" fill="#381004"/>
<ellipse cx="4.41271" cy="3.98255" rx="4.41271" ry="3.98255" transform="matrix(0.340579 0.940216 -0.905666 0.423992 37.5244 57.7529)" fill="#381004"/>
<ellipse cx="4.41271" cy="3.98255" rx="4.41271" ry="3.98255" transform="matrix(0.340579 0.940216 -0.905666 0.423992 60.0854 57.7529)" fill="#381004"/>
<ellipse cx="1.01815" cy="0.887928" rx="1.01815" ry="0.887928" transform="matrix(0.0288548 0.999584 -0.999595 0.0284443 36.0908 62.2578)" fill="white"/>
<ellipse cx="1.01815" cy="0.887928" rx="1.01815" ry="0.887928" transform="matrix(0.0288548 0.999584 -0.999595 0.0284443 36.0908 62.2578)" fill="white"/>
<ellipse cx="1.01815" cy="0.887928" rx="1.01815" ry="0.887928" transform="matrix(0.0288548 0.999584 -0.999595 0.0284443 58.6519 62.2578)" fill="white"/>
<path d="M59.7072 35.2821C58.8487 36.2634 58.5438 37.6516 58.8595 39.1413C59.1752 40.6309 60.0857 42.1001 61.3906 43.2254C62.6956 44.3508 64.2882 45.0403 65.818 45.1422C67.3478 45.2441 68.6895 44.75 69.548 43.7687L64.6276 39.5254L59.7072 35.2821Z" fill="white"/>
<path d="M76.5014 56.6421C77.4293 55.7252 77.0376 53.5673 75.4124 50.6431C73.7873 47.7189 71.0618 44.268 67.8355 41.0495C64.6093 37.831 61.1465 35.1085 58.2091 33.481C55.2716 31.8536 53.1001 31.4544 52.1722 32.3713L59.9635 36.6501L66.8309 42.8229L72.5913 49.4545L76.5014 56.6421Z" fill="white"/>
<path d="M40.887 46.5544V49.4463L27.4531 49.9885C27.4531 49.9885 30.4981 47.2565 33.364 46.5544C36.1246 45.8782 40.887 46.5544 40.887 46.5544Z" fill="black"/>
<path d="M48.7407 47.0018L49.3705 49.8252L62.7435 47.4402C62.7435 47.4402 59.1441 45.4334 56.1635 45.3697C53.2924 45.3084 48.7407 47.0018 48.7407 47.0018Z" fill="black"/>
<path d="M40.5596 111.61C34.6201 111.45 26.5542 110.889 26.5542 110.889L27.2798 117.755L28.6803 117.835C28.6803 117.835 33.7224 119.058 37.0199 119.404C41.0571 119.827 43.3356 120.287 47.3834 119.997C50.7254 119.757 52.643 119.01 55.9124 118.301C58.9893 117.633 63.6328 116.013 63.6328 116.013L63.6317 111.077C63.6317 111.077 55.127 111.61 49.4848 111.61C46.2606 111.61 43.8617 111.699 40.5596 111.61Z" fill="#B5B5CB" stroke="black" stroke-width="2.33788"/>
<path d="M41.8677 119.931C36.1054 119.777 27.271 117.768 27.271 117.768L27.9738 124.45L29.3324 124.527C29.3324 124.527 34.2238 125.717 37.4229 126.053C41.3395 126.464 43.5807 126.382 47.5077 126.098C50.7501 125.864 52.5798 125.667 55.7518 124.976C58.737 124.326 63.2423 122.748 63.2423 122.748L63.6418 115.863C63.6418 115.863 55.5324 118.922 50.0657 119.603C46.8879 119.999 45.0712 120.017 41.8677 119.931Z" fill="#B5B5CB" stroke="black" stroke-width="2.33788"/>
<path d="M42.0949 126.655C36.5097 126.511 27.98 124.756 27.98 124.756L28.6493 131.436L29.9661 131.511C29.9661 131.511 34.7054 132.692 37.8058 133.022C41.6016 133.427 43.7742 133.341 47.5812 133.05C50.7246 132.811 52.4986 132.61 55.5746 131.914C58.4694 131.258 62.8392 129.672 62.8392 129.672L63.2388 122.788C63.2388 122.788 55.2256 125.611 49.9254 126.302C46.8443 126.703 45.2 126.735 42.0949 126.655Z" fill="#B5B5CB" stroke="black" stroke-width="2.33788"/>
<line x1="45.1274" y1="63.2759" x2="48.3516" y2="63.2759" stroke="black" stroke-width="1.16894"/>
<path d="M33.1039 82.4993C33.0386 84.3548 33.2828 86.2029 33.8225 87.9379C34.3622 89.673 35.1868 91.2611 36.2492 92.6116C37.3116 93.9621 38.6842 94.4334 40.1077 95.1936C41.5311 95.9539 43.3293 96.215 44.8971 96.2693C46.4648 96.3236 47.5524 95.8622 49.1456 95.618C50.619 94.9581 51.9778 94.4704 53.1325 93.1968C54.2872 91.9232 55.2214 90.396 55.8816 88.7025C56.5418 87.0091 56.9152 85.1824 56.9805 83.3269L45.0422 82.9131L33.1039 82.4993Z" fill="#001F34"/>
<path d="M36.8374 82.6592L53.4878 83.16C53.4104 85.6972 51.2892 87.692 48.7501 87.6156L41.2947 87.3914C38.7556 87.315 36.76 85.1963 36.8374 82.6592Z" fill="#FEFEFE"/>
<path d="M43.9885 90.4321C40.4595 89.9759 36.5239 93.1289 36.5239 93.1289C36.5239 93.1289 38.4943 94.5966 39.727 95.1315C41.1051 95.7295 41.8503 95.9488 43.1109 96.2314C44.7664 96.6025 45.7034 96.3735 47.2724 96.1329C48.9369 95.8777 50.9562 95.0286 50.9562 95.0286C50.9562 95.0286 47.4087 90.8743 43.9885 90.4321Z" fill="#E54D24"/>
<path d="M2.62236 43.8599C4.7201 37.4777 14.912 31.7503 14.912 31.7503L15.3601 24.7827L17.4183 17.7334C17.4183 17.7334 18.8121 13.9796 20.35 11.9753C21.9786 9.85288 23.2262 8.86725 25.497 7.44024C27.8527 5.95984 29.404 5.47273 32.0817 4.70191C34.3192 4.05778 35.6285 3.86091 37.9437 3.60292C39.8206 3.39377 42.7736 3.35766 42.7736 3.35766L45.4706 3.48782C45.4706 3.48782 48.3281 4.03138 50.1008 4.58824C52.2039 5.24893 53.3998 5.65332 55.3225 6.72705C56.9507 7.63637 57.77 8.30975 59.23 9.46681C60.7377 10.6616 61.6462 11.2947 62.8967 12.753C64.2973 14.3864 65.827 17.4121 65.827 17.4121C65.827 17.4121 67.2179 20.2041 67.684 22.1258C68.1268 23.9516 68.1993 26.9075 68.1993 26.9075L68.4189 31.1701L68.4113 36.2455L53.1122 34.3971L50.4746 37.9577C50.4746 37.9577 48.461 40.3676 46.8964 41.6117C45.1379 43.0099 41.9354 44.5347 41.9354 44.5347L37.4699 46.6312C37.4699 46.6312 33.9375 47.7485 31.6079 47.7302C30.3314 47.7202 28.3605 47.3609 28.3605 47.3609L24.267 46.2332C24.267 46.2332 22.0538 45.6488 20.7101 45.0783C19.2374 44.4531 18.5387 43.8469 17.112 43.1242C15.941 42.5309 14.0781 41.6756 14.0781 41.6756L13.5414 41.7028C13.5414 41.7028 13.2918 43.2509 12.86 44.1414C12.3118 45.2716 11.8198 45.86 10.8369 46.6481C9.77564 47.4989 9.01309 47.8325 7.68555 48.1436C6.56225 48.4069 4.73395 48.2935 4.73395 48.2935C4.73395 48.2935 3.3427 47.9682 2.80076 47.3233C2.3114 46.7409 2.16804 45.4856 2.16804 45.4856C2.16804 45.4856 2.41648 44.4863 2.62236 43.8599Z" fill="#000080"/>
<path d="M45.4706 3.48782L42.7736 3.35766C42.7736 3.35766 39.8206 3.39377 37.9437 3.60292C35.6285 3.86091 34.3192 4.05778 32.0817 4.70191C29.404 5.47273 27.8527 5.95984 25.497 7.44024C23.2262 8.86725 21.9786 9.85288 20.35 11.9753C18.8121 13.9796 17.4183 17.7334 17.4183 17.7334L15.3601 24.7827L14.912 31.7503C14.912 31.7503 4.7201 37.4777 2.62236 43.8599C2.41648 44.4863 2.16804 45.4856 2.16804 45.4856C2.16804 45.4856 2.3114 46.7409 2.80076 47.3233C3.34269 47.9682 4.73395 48.2935 4.73395 48.2935C4.73395 48.2935 6.56225 48.4069 7.68555 48.1436C9.01309 47.8325 9.77564 47.4989 10.8369 46.6481C11.8198 45.86 12.3118 45.2716 12.86 44.1414C13.2918 43.2509 13.5414 41.7028 13.5414 41.7028L14.0781 41.6756C14.0781 41.6756 15.941 42.5309 17.112 43.1242C18.5387 43.8469 19.2375 44.4531 20.7101 45.0783C22.0538 45.6488 24.267 46.2332 24.267 46.2332L28.3605 47.3609C28.3605 47.3609 30.3314 47.7202 31.6079 47.7302C33.9375 47.7485 37.4699 46.6312 37.4699 46.6312L41.9354 44.5347C41.9354 44.5347 45.1379 43.0099 46.8964 41.6117C48.461 40.3676 50.4745 37.9577 50.4745 37.9577L53.1122 34.3971M45.4706 3.48782C45.4706 3.48782 48.3281 4.03138 50.1008 4.58824C52.2039 5.24893 53.3998 5.65332 55.3225 6.72705C56.9507 7.63637 57.77 8.30975 59.23 9.46681C60.7377 10.6616 61.6462 11.2947 62.8967 12.753C64.2973 14.3864 65.827 17.4121 65.827 17.4121C65.827 17.4121 67.2179 20.2041 67.684 22.1258C68.1268 23.9516 68.1993 26.9075 68.1993 26.9075L68.4189 31.1701L68.4113 36.2455L53.1122 34.3971M45.4706 3.48782C45.4706 3.48782 47.4806 4.96727 48.3048 6.28208C49.1121 7.56985 49.5702 9.95732 49.5702 9.95732L50.636 14.9782C50.636 14.9782 51.1098 19.8459 51.0477 22.9706C50.9616 27.3027 49.732 33.9888 49.732 33.9888M49.732 33.9888L53.1122 34.3971M49.732 33.9888C49.732 33.9888 43.7731 33.0153 39.9625 32.348C34.2232 31.3429 31.5071 30.1063 25.2944 29.6204C23.9346 29.5141 21.8061 29.7975 21.8061 29.7975L17.0174 30.842" stroke="black" stroke-width="0.902645"/>
<path d="M42.6845 1.61628C43.6125 1.5692 44.4425 1.67201 45.0304 1.86286C45.3257 1.95876 45.5401 2.06986 45.6744 2.17924C45.8088 2.28865 45.8298 2.36655 45.8316 2.40202C45.8334 2.43755 45.8201 2.51651 45.6981 2.63859C45.5757 2.761 45.3739 2.89422 45.0899 3.01953C44.5248 3.26891 43.7096 3.45529 42.7817 3.50245C41.8535 3.54958 41.0228 3.4468 40.4348 3.25591C40.1395 3.16002 39.925 3.04794 39.7907 2.93856C39.6569 2.82951 39.6354 2.75227 39.6336 2.71675C39.6317 2.68129 39.6447 2.60162 39.767 2.47921C39.8894 2.3568 40.0913 2.22456 40.3752 2.09925C40.9405 1.84978 41.7562 1.66341 42.6845 1.61628Z" fill="#000080" stroke="black" stroke-width="0.779293"/>
<path d="M14.4957 41.9927C14.4957 41.9927 12.9095 40.9269 11.7438 40.7969C10.4753 40.6554 9.70717 40.9555 8.55129 41.4932C7.65494 41.9102 6.47328 42.9343 6.47328 42.9343C6.47328 42.9343 5.59779 43.5406 5.18654 44.068C4.81204 44.5484 4.57044 44.8454 4.45018 45.441C4.34705 45.9517 4.27759 46.3105 4.51879 46.773C4.72346 47.1655 4.95081 47.3693 5.36495 47.5314C5.85301 47.7224 6.70658 47.4632 6.70658 47.4632" stroke="black" stroke-width="0.779293"/>
<path d="M32.9609 16.9518L33.2435 17.0652L33.6048 17.1543L34.0809 17.3437L34.6742 17.6031L35.1551 17.732L35.6267 17.7839L35.8028 17.6909L35.9676 17.3533L36.1174 16.8165L36.1616 16.2562L36.1624 15.6621L36.0036 15.147L36.486 15.8396L36.8946 16.4961L36.9834 16.7315L37.2371 17.4064L37.2984 17.9901L37.3376 18.4655L37.3006 18.9349L37.1753 19.5498L37.0672 19.6557L36.867 20.1505L36.5976 20.6475L36.2451 21.0315L35.9876 21.3771L35.5953 21.6818L34.9437 21.9663L34.359 22.1798L33.7663 22.3013L32.8758 22.3082L32.1589 22.2524C32.1589 22.2524 31.8936 21.9674 31.6855 21.8347C31.6351 21.8025 31.5535 21.7573 31.5535 21.7573L30.8933 21.9559L30.8523 21.9749C30.8522 21.9749 30.8521 21.975 30.852 21.975C30.7653 22.0152 30.6839 22.0531 30.6076 22.0887L30.8838 22.077L31.4176 22.1185L31.8997 22.2322L32.4111 22.3634L33.0104 22.5472L33.6201 22.7927L34.4656 23.1632L34.3855 24.1777L34.3604 24.4957L33.8469 24.1968L33.4752 24.0459L32.9581 23.7924L32.3026 23.5434L31.8803 23.4496L31.2586 23.3555L30.8761 23.341L30.5181 23.4045L30.2164 23.5334L29.8782 23.7356L29.5176 24.0275L29.1742 23.7113L28.8883 23.4453L28.5354 23.2503L28.2681 23.1381L27.8458 23.0443L26.9998 23.0699L26.3766 23.189L25.7016 23.3802L24.8048 23.6609L24.8263 23.3883L24.9064 22.3738L25.5015 22.222L25.863 22.113L26.2691 22.0227L26.8759 21.9176L27.2796 21.8575L28.2464 21.8566L28.759 21.9726L29.0862 22.1047L29.5022 22.4723L29.1624 22.1107L28.5398 21.8337L28.099 21.5861L27.9959 21.5383C27.872 21.4869 27.6634 21.42 27.5242 21.4805C27.4158 21.5275 27.294 21.6758 27.294 21.6758L27.0356 21.8386L26.578 21.803L26.0442 21.7614L25.3675 21.5869L24.7284 21.3239L24.3193 21.0635L23.8303 20.8427L23.5363 20.4846L23.2025 20.0473L22.9591 19.6322L22.7392 19.1123L22.6097 18.6147L22.5071 18.1649L22.4987 17.4939L22.673 17.0351L22.6849 16.8837L22.7208 16.4294L22.8538 16.1046L23.001 15.7961L23.4782 15.1933L24.2703 14.2951L24.009 15.6612L24.0315 16.3486C24.0315 16.3486 24.0214 16.6634 24.1506 16.7844C24.2497 16.8773 24.4789 16.9014 24.4789 16.9014L25.0433 16.9453L25.6078 16.7911L26.0938 16.6613L26.7311 16.5586L27.0023 16.4273C27.0023 16.4273 27.3877 16.3287 27.5842 16.4421C27.7378 16.5307 27.863 16.799 27.863 16.799L28.1468 17.6743L28.6788 17.35L28.6803 17.1368L28.6288 16.2339L28.4427 15.092L28.3556 14.4453L28.149 13.7589L27.9189 12.9792L27.72 12.5828L27.5726 12.3123L27.3163 12.2543L27.6446 11.9828L28.0884 11.804L28.6937 11.912L28.8229 11.8307L29.2855 11.6076L29.5824 11.5393L29.8875 11.5631L30.4874 11.3507L30.9985 11.68L31.1052 11.6883L31.456 11.7156L31.7796 11.8931L32.1136 12.1324L32.1899 12.1383L32.6627 12.1751L33.079 12.3446L33.4059 12.6748C33.4059 12.6748 33.0879 12.8141 32.9232 12.9572C32.6092 13.23 32.4197 13.8931 32.4197 13.8931L32.0358 14.8687L31.6504 16.0576L31.3828 16.9205L31.347 17.3748L31.5177 17.7385L31.8449 17.8706L32.018 17.427L32.2674 16.9893L32.5751 16.7847L32.9609 16.9518Z" fill="#FEFEFE"/>
<path d="M33.2435 17.0652L32.9089 17.222L32.7501 17.4839L32.7226 17.8322L32.8414 18.4661L33.0738 19.2155L33.2653 19.9008L33.2127 20.567L32.7788 21.2036L31.8993 21.6532L31.5535 21.7573M33.2435 17.0652L32.9609 16.9518L32.5751 16.7847L32.2674 16.9893L32.018 17.427L31.8449 17.8706L31.5177 17.7385L31.347 17.3748L31.3828 16.9205L31.6504 16.0576L32.0358 14.8687L32.4197 13.8931C32.4197 13.8931 32.6092 13.23 32.9232 12.9572C33.0879 12.8141 33.4059 12.6748 33.4059 12.6748L33.079 12.3446L32.6627 12.1751L32.1899 12.1383L32.1136 12.1324M33.2435 17.0652L33.6048 17.1543L34.0809 17.3437L34.6742 17.6031L35.1551 17.732L35.6267 17.7839L35.8028 17.6909L35.9676 17.3533L36.1174 16.8165L36.1616 16.2562L36.1624 15.6621L36.0036 15.147L36.486 15.8396L36.8946 16.4961L36.9834 16.7315L37.2371 17.4064L37.2984 17.9901M32.1136 12.1324L31.9486 12.668L31.8248 13.0698L31.6452 13.6022M32.1136 12.1324L31.7796 11.8931L31.456 11.7156L31.1052 11.6883L30.9985 11.68M31.4983 14.0956L31.6445 13.6042L31.6452 13.6022M31.4983 14.0956L31.4299 14.3798M31.4983 14.0956L31.6452 13.6022M30.9985 11.68L30.9166 12.3287L30.777 13.1254L30.7144 13.5298L30.6562 13.8778L30.5958 14.2539M30.9985 11.68L30.4874 11.3507L29.8875 11.5631M29.8875 11.5631L29.86 11.9114L29.8218 13.1729L29.8003 14.2225M29.8875 11.5631L29.5824 11.5393L29.2855 11.6076L28.8229 11.8307L28.6937 11.912M28.6937 11.912L28.7652 12.367L28.8367 12.8221L28.9142 13.5899L28.9872 14.2202M28.6937 11.912L28.0884 11.804L27.6446 11.9828L27.3163 12.2543L27.5726 12.3123L27.72 12.5828L27.9189 12.9792L28.149 13.7589L28.3556 14.4453L28.4427 15.092L28.6288 16.2339L28.6803 17.1368L28.6788 17.35L28.1468 17.6743L27.863 16.799C27.863 16.799 27.7378 16.5307 27.5842 16.4421C27.3877 16.3287 27.0023 16.4273 27.0023 16.4273L26.7311 16.5586M26.7311 16.5586C26.7311 16.5586 27.087 16.6184 27.22 16.7794C27.341 16.926 27.3519 17.2468 27.3519 17.2468C27.3519 17.2468 27.2923 17.4093 27.2542 17.5134C27.1928 17.6811 27.0975 17.9431 27.0975 17.9431L26.9833 18.2236L26.8374 18.517L26.7043 18.8418L26.5384 19.1946L26.397 19.6254L26.3683 19.9888L26.4897 20.3944L26.834 20.8935L27.5068 21.3115L28.099 21.5861M26.7311 16.5586L26.0938 16.6613L25.6078 16.7911L25.0433 16.9453L24.4789 16.9014C24.4789 16.9014 24.2497 16.8773 24.1506 16.7844C24.0214 16.6634 24.0315 16.3486 24.0315 16.3486L24.009 15.6612L24.2703 14.2951L23.4782 15.1933L23.001 15.7961L22.8538 16.1046L22.7208 16.4294L22.6849 16.8837L22.673 17.0351M28.099 21.5861L28.5398 21.8337L29.1624 22.1107L29.5022 22.4723M28.099 21.5861C28.099 21.5861 27.7334 21.3896 27.5242 21.4805C27.4158 21.5275 27.294 21.6758 27.294 21.6758L27.0356 21.8386L26.578 21.803L26.0442 21.7614L25.3675 21.5869L24.7284 21.3239L24.3193 21.0635M29.5022 22.4723L29.5853 22.5854M29.5022 22.4723L29.0862 22.1047L28.759 21.9726L28.2464 21.8566L27.2796 21.8575L26.8759 21.9176L26.2691 22.0227L25.863 22.113L25.5015 22.222L24.9064 22.3738L24.8263 23.3883M29.5853 22.5854L29.6828 22.5168L30.1447 22.3028M29.5853 22.5854C29.6366 22.5539 29.9618 22.3876 30.8523 21.9749M29.5853 22.5854L29.5041 23.6151M29.5853 22.5854L30.1447 22.3028M22.673 17.0351L22.8731 17.4163L23.1073 17.7545L23.5212 17.9543L24.049 18.0715M22.673 17.0351L22.4987 17.4939L22.5071 18.1649L22.6097 18.6147M22.6097 18.6147L22.9145 18.8365L23.4256 19.1657L23.9534 19.283M22.6097 18.6147L22.7392 19.1123L22.9591 19.6322L23.2025 20.0473M23.2025 20.0473L23.5614 20.1666L23.9929 20.3373L24.7098 20.3931M23.2025 20.0473L23.5363 20.4846L23.8303 20.8426L24.3193 21.0635M24.3193 21.0635L24.7463 21.0967L25.2649 21.1371M37.2984 17.9901L37.2407 18.138L37.183 18.2859L36.9303 18.5709L36.4429 18.9139L36.0649 19.0368L35.68 19.0526M37.2984 17.9901L37.3376 18.4655L37.3006 18.9349L37.1753 19.5498L37.0672 19.6557M35.6209 20.1907L35.9729 20.2028L36.4765 20.0439L36.7178 19.9027L36.9591 19.7615L37.0672 19.6557M37.0672 19.6557L36.867 20.1505L36.5976 20.6475L36.2451 21.0315M36.2451 21.0315L35.8847 21.1253L35.3695 21.2376L34.7289 21.1878M36.2451 21.0315L35.9876 21.3771L35.5953 21.6818L34.9437 21.9663M34.9437 21.9663L34.4885 21.9004L34.031 21.8648M34.9437 21.9663L34.359 22.1798L33.7663 22.3013L32.8758 22.3082L32.1589 22.2524C32.1589 22.2524 31.8936 21.9674 31.6855 21.8347C31.6351 21.8025 31.5535 21.7573 31.5535 21.7573M31.5535 21.7573L30.8933 21.9559L30.8523 21.9749M30.8523 21.9749L30.6066 22.0887M29.5041 23.6151L29.9176 23.2359L30.345 23.0711L30.8073 23.0461L31.3411 23.0877L31.8244 23.1862L32.4096 23.3536L33.084 23.5584L33.695 23.7888L34.2695 24.0925L34.3855 24.1777M29.5041 23.6151L29.1245 23.1742L28.7552 22.9931L28.4585 22.8634L28.0198 22.7836L27.608 22.7515L27.0847 22.7718L26.2889 22.9384L25.6798 23.0738L24.905 23.364L24.8263 23.3883M34.3855 24.1777L34.4656 23.1632L33.6201 22.7927L33.0104 22.5472L32.4111 22.3634L31.8997 22.2322L31.4176 22.1185L30.8838 22.077L30.6066 22.0887M34.3855 24.1777L34.3604 24.4957L33.8469 24.1968L33.4752 24.0459L32.9581 23.7924L32.3026 23.5434L31.8803 23.4496L31.2586 23.3555L30.8761 23.341L30.5181 23.4045L30.2164 23.5334L29.8782 23.7356L29.5176 24.0275L29.1742 23.7113L28.8883 23.4453L28.5354 23.2503L28.2681 23.1381L27.8458 23.0443L26.9998 23.0699L26.3766 23.189L25.7016 23.3802L24.8048 23.6609L24.8263 23.3883M30.6066 22.0887L30.1447 22.3028" stroke="black" stroke-width="0.133118"/>
<path d="M29.5586 18.074L29.9321 17.8136L29.9495 17.9825L29.9689 18.3192L29.9791 18.579L29.9271 18.8492L29.8622 19.0879L29.7552 19.2777C29.7552 19.2777 29.7341 19.3534 29.7621 19.3848C29.7937 19.4204 29.8841 19.3943 29.8841 19.3943C29.8841 19.3943 29.9807 19.3691 30.0273 19.3293C30.1076 19.2608 30.1239 19.0778 30.1239 19.0778L30.163 18.7761L30.1893 18.443L30.1558 18.09L30.087 17.7951L30.0182 17.5003L30.2925 17.7197L30.6017 18.079L30.8266 18.3402L30.9974 18.7039L31.0321 19.0418L30.9669 19.4786L30.8139 19.8628L30.5283 20.1758L30.2394 20.3361L29.9613 20.3602L29.6494 20.2293L29.3787 19.9644L29.2337 19.6637L29.1472 19.398L29.1571 19.0788L29.207 18.6408L29.3376 18.3463L29.5586 18.074Z" fill="#FDEF09" stroke="black" stroke-width="0.133118"/>
<path d="M29.1661 22.0655C29.2122 22.2703 29.5011 22.4877 29.5011 22.4877L29.6019 22.5717L29.8955 22.3508L30.1377 22.004C30.1377 22.004 30.1642 21.7737 30.1676 21.6254C30.1704 21.5062 30.161 21.3202 30.161 21.3202C30.161 21.3202 30.0775 21.1348 30.0629 21.0078C30.0479 20.8782 30.0892 20.6747 30.0892 20.6747L29.7345 20.8909L29.4029 20.6213C29.4029 20.6213 29.4642 20.9077 29.4128 21.0791C29.3708 21.219 29.2187 21.3992 29.2187 21.3992L29.1948 21.7021C29.1836 21.844 29.1349 21.9266 29.1661 22.0655Z" fill="#E40717" stroke="black" stroke-width="0.133118"/>
<path d="M29.31 16.8738C29.4903 16.8004 29.6703 16.7588 29.8181 16.745C29.892 16.7381 29.9573 16.7382 30.0091 16.7442C30.0429 16.7482 30.0685 16.7551 30.0872 16.762C30.0855 16.7745 30.0815 16.7936 30.0667 16.8198C30.042 16.8637 29.9985 16.9155 29.9397 16.9706C29.822 17.0807 29.6508 17.1935 29.472 17.2663C29.1507 17.3969 28.9114 17.3568 28.7481 17.3206C28.7502 17.3097 28.7541 17.2957 28.7626 17.2789C28.7821 17.2404 28.8185 17.1945 28.8703 17.1455C28.9736 17.0478 29.1304 16.9469 29.31 16.8738Z" fill="#FEFEFE" stroke="black" stroke-width="0.133118"/>
<path d="M30.8822 16.9688C31.0465 17.0731 31.1842 17.1955 31.2805 17.3076C31.3286 17.3636 31.3654 17.4163 31.3902 17.4617C31.4067 17.4921 31.4158 17.5174 31.4208 17.5368C31.4095 17.5425 31.3913 17.5495 31.3619 17.5525C31.3114 17.5577 31.2427 17.5525 31.1633 17.5363C31.005 17.5039 30.8145 17.4293 30.652 17.326C30.3595 17.1401 30.255 16.9226 30.191 16.7691C30.2012 16.7646 30.2149 16.7597 30.2337 16.7569C30.2767 16.7506 30.3354 16.7538 30.4056 16.7677C30.5454 16.7956 30.7187 16.8649 30.8822 16.9688Z" fill="#FEFEFE" stroke="black" stroke-width="0.133118"/>
<path d="M30.1998 15.1993C30.1998 15.1993 29.8384 15.5342 29.7518 15.8196C29.695 16.007 29.7124 16.3193 29.7124 16.3193C29.7124 16.3193 29.727 16.4533 29.7731 16.5221C29.8109 16.5783 29.902 16.6387 29.902 16.6387C29.902 16.6387 30.0626 16.7352 30.1718 16.7207C30.246 16.7108 30.3467 16.6429 30.3467 16.6429C30.3467 16.6429 30.4501 16.5784 30.4947 16.5173C30.5458 16.4473 30.5725 16.31 30.5725 16.31C30.5725 16.31 30.6039 16.0477 30.5754 15.8836C30.5234 15.5837 30.1998 15.1993 30.1998 15.1993Z" stroke="black" stroke-width="0.133118"/>
<defs>
<filter id="filter0_d_1747_1839" x="46.2738" y="53.2256" width="22.8756" height="25.5275" filterUnits="userSpaceOnUse" color-interpolation-filters="sRGB">
<feFlood flood-opacity="0" result="BackgroundImageFix"/>
<feColorMatrix in="SourceAlpha" type="matrix" values="0 0 0 0 0 0 0 0 0 0 0 0 0 0 0 0 0 0 127 0" result="hardAlpha"/>
<feOffset dy="2.37947"/>
<feGaussianBlur stdDeviation="1.18974"/>
<feComposite in2="hardAlpha" operator="out"/>
<feColorMatrix type="matrix" values="0 0 0 0 0 0 0 0 0 0 0 0 0 0 0 0 0 0 0.25 0"/>
<feBlend mode="normal" in2="BackgroundImageFix" result="effect1_dropShadow_1747_1839"/>
<feBlend mode="normal" in="SourceGraphic" in2="effect1_dropShadow_1747_1839" result="shape"/>
</filter>
<filter id="filter1_d_1747_1839" x="24.1571" y="53.2246" width="22.8756" height="25.5275" filterUnits="userSpaceOnUse" color-interpolation-filters="sRGB">
<feFlood flood-opacity="0" result="BackgroundImageFix"/>
<feColorMatrix in="SourceAlpha" type="matrix" values="0 0 0 0 0 0 0 0 0 0 0 0 0 0 0 0 0 0 127 0" result="hardAlpha"/>
<feOffset dy="2.37947"/>
<feGaussianBlur stdDeviation="1.18974"/>
<feComposite in2="hardAlpha" operator="out"/>
<feColorMatrix type="matrix" values="0 0 0 0 0 0 0 0 0 0 0 0 0 0 0 0 0 0 0.25 0"/>
<feBlend mode="normal" in2="BackgroundImageFix" result="effect1_dropShadow_1747_1839"/>
<feBlend mode="normal" in="SourceGraphic" in2="effect1_dropShadow_1747_1839" result="shape"/>
</filter>
</defs>
</svg>
