<svg width="32" height="33" viewBox="0 0 32 33" fill="none" xmlns="http://www.w3.org/2000/svg">
<path d="M15.2604 3.65908L7.6641 8.72328C6.56645 9.45505 7.08449 11.166 8.4037 11.166H23.5963C24.9155 11.166 25.4336 9.45505 24.3359 8.72328L16.7396 3.65908C16.2917 3.36051 15.7083 3.36051 15.2604 3.65908Z" fill="#00D4CD"/>
<path d="M6.66699 24.4987V17.832C6.66699 15.6229 8.45785 13.832 10.667 13.832H21.3337C23.5428 13.832 25.3337 15.6229 25.3337 17.832V24.4987C25.3337 26.7078 23.5428 28.4987 21.3337 28.4987H10.667C8.45785 28.4987 6.66699 26.7078 6.66699 24.4987Z" fill="#00D4CD"/>
<path d="M13.333 23.478V25.6002C13.333 27.073 14.5269 28.2669 15.9997 28.2669C17.4724 28.2669 18.6663 27.073 18.6663 25.6002V23.478C18.6663 22.6883 18.4686 21.878 17.8998 21.3302C16.4846 19.9674 15.0749 20.5057 14.125 21.3548C13.5362 21.8811 13.333 22.6883 13.333 23.478Z" fill="white"/>
</svg>
