<svg width="32" height="33" viewBox="0 0 32 33" fill="none" xmlns="http://www.w3.org/2000/svg">
<path d="M15.2604 3.66104L7.6641 8.72524C6.56645 9.457 7.08449 11.168 8.4037 11.168H23.5963C24.9155 11.168 25.4336 9.457 24.3359 8.72524L16.7396 3.66104C16.2917 3.36246 15.7083 3.36246 15.2604 3.66104Z" fill="white" stroke="#9E9E9E" stroke-linecap="round"/>
<path d="M23.1665 3.16797C23.1665 2.89183 22.9426 2.66797 22.6665 2.66797C22.3904 2.66797 22.1665 2.89183 22.1665 3.16797H23.1665ZM22.6665 3.16797H22.1665V7.83464H22.6665H23.1665V3.16797H22.6665Z" fill="#9E9E9E"/>
<path d="M6.66699 24.5006V17.834C6.66699 15.6248 8.45785 13.834 10.667 13.834H21.3337C23.5428 13.834 25.3337 15.6248 25.3337 17.834V24.5007C25.3337 26.7098 23.5428 28.5007 21.3337 28.5007H10.667C8.45785 28.5007 6.66699 26.7098 6.66699 24.5006Z" fill="white" stroke="#9E9E9E"/>
<path d="M13.3335 23.478V25.6002C13.3335 27.073 14.5274 28.2669 16.0001 28.2669C17.4729 28.2669 18.6668 27.073 18.6668 25.6002V23.478C18.6668 22.6883 18.4691 21.878 17.9003 21.3302C16.4851 19.9674 15.0753 20.5057 14.1255 21.3548C13.5367 21.8811 13.3335 22.6883 13.3335 23.478Z" fill="white" stroke="#9E9E9E"/>
</svg>
