<svg width="32" height="33" viewBox="0 0 32 33" fill="none" xmlns="http://www.w3.org/2000/svg">
<path d="M9.33317 13.833H7.99984C6.58535 13.833 5.2288 13.2711 4.2286 12.2709C3.22841 11.2707 2.6665 9.91416 2.6665 8.49967C2.6665 8.14605 2.80698 7.80691 3.05703 7.55687C3.30708 7.30682 3.64622 7.16634 3.99984 7.16634H9.33317M9.33317 7.16634C9.33317 6.81272 9.47365 6.47358 9.7237 6.22353C9.97374 5.97348 10.3129 5.83301 10.6665 5.83301H27.9998C28.3535 5.83301 28.6926 5.97348 28.9426 6.22353C29.1927 6.47358 29.3332 6.81272 29.3332 7.16634C29.3332 9.64169 28.3498 12.0157 26.5995 13.766C24.8492 15.5163 22.4752 16.4997 19.9998 16.4997M9.33317 7.16634V15.1663C9.33317 15.52 9.47365 15.8591 9.7237 16.1091C9.97374 16.3592 10.3129 16.4997 10.6665 16.4997H19.9998M19.9998 16.4997V23.1663M11.9998 16.4997V23.1663M6.6665 27.1663C6.6665 26.1055 7.08793 25.0881 7.83808 24.3379C8.58822 23.5878 9.60564 23.1663 10.6665 23.1663H21.3332C22.394 23.1663 23.4115 23.5878 24.1616 24.3379C24.9117 25.0881 25.3332 26.1055 25.3332 27.1663C25.3332 27.52 25.1927 27.8591 24.9426 28.1091C24.6926 28.3592 24.3535 28.4997 23.9998 28.4997H7.99984C7.64622 28.4997 7.30708 28.3592 7.05703 28.1091C6.80698 27.8591 6.6665 27.52 6.6665 27.1663Z" stroke="#9E9E9E" stroke-linecap="round" stroke-linejoin="round"/>
</svg>
