<svg width="32" height="33" viewBox="0 0 32 33" fill="none" xmlns="http://www.w3.org/2000/svg">
<path d="M9.33317 13.832H7.99984C6.58535 13.832 5.2288 13.2701 4.2286 12.2699C3.22841 11.2697 2.6665 9.91319 2.6665 8.4987C2.6665 8.14508 2.80698 7.80594 3.05703 7.55589C3.30708 7.30584 3.64622 7.16536 3.99984 7.16536H9.33317" fill="#00D4CD"/>
<path d="M9.33317 7.16536C9.33317 6.81174 9.47365 6.4726 9.7237 6.22256C9.97374 5.97251 10.3129 5.83203 10.6665 5.83203H27.9998C28.3535 5.83203 28.6926 5.97251 28.9426 6.22256C29.1927 6.4726 29.3332 6.81174 29.3332 7.16536C29.3332 9.64072 28.3498 12.0147 26.5995 13.765C24.8492 15.5154 22.4752 16.4987 19.9998 16.4987H10.6665C10.3129 16.4987 9.97374 16.3582 9.7237 16.1082C9.47365 15.8581 9.33317 15.519 9.33317 15.1654V7.16536Z" fill="#00D4CD"/>
<path d="M11.9998 16.4987V23.1654V16.4987Z" fill="#00D4CD"/>
<path d="M19.9998 16.4987V23.1654V16.4987Z" fill="#00D4CD"/>
<path d="M6.6665 27.1654C6.6665 26.1045 7.08793 25.0871 7.83808 24.3369C8.58822 23.5868 9.60564 23.1654 10.6665 23.1654H21.3332C22.394 23.1654 23.4115 23.5868 24.1616 24.3369C24.9117 25.0871 25.3332 26.1045 25.3332 27.1654C25.3332 27.519 25.1927 27.8581 24.9426 28.1082C24.6926 28.3582 24.3535 28.4987 23.9998 28.4987H7.99984C7.64622 28.4987 7.30708 28.3582 7.05703 28.1082C6.80698 27.8581 6.6665 27.519 6.6665 27.1654Z" fill="#00D4CD"/>
</svg>
