<svg width="102" height="109" viewBox="0 0 102 109" fill="none" xmlns="http://www.w3.org/2000/svg">
<path d="M50.7825 3L50.7825 14.3043" stroke="#C2C2C2" stroke-width="4.2391" stroke-linecap="round"/>
<path d="M12.3481 17.6953L21.0691 24.8878" stroke="#C2C2C2" stroke-width="4.2391" stroke-linecap="round"/>
<path d="M2.73926 47.8242L13.8369 45.6725" stroke="#C2C2C2" stroke-width="4.2391" stroke-linecap="round"/>
<path d="M13.7607 76.4453L23.8721 71.3908" stroke="#C2C2C2" stroke-width="4.2391" stroke-linecap="round"/>
<path d="M90.5303 17.6953L81.3041 24.227" stroke="#C2C2C2" stroke-width="4.2391" stroke-linecap="round"/>
<path d="M99.2607 47.3867L88.0866 45.6764" stroke="#C2C2C2" stroke-width="4.2391" stroke-linecap="round"/>
<path d="M85.6221 78.7773L77.0648 71.3909" stroke="#C2C2C2" stroke-width="4.2391" stroke-linecap="round"/>
<path d="M52.0911 29.2383C66.4406 29.2384 78.0734 40.8712 78.0735 55.2207C78.0735 61.4617 75.8717 67.1881 72.2043 71.6678C72.2003 71.6727 72.2037 71.68 72.2099 71.6802V71.6802C72.216 71.6804 72.2197 71.6868 72.2162 71.6917C71.1762 73.1922 68.8423 76.7379 67.7639 79.0137C66.4127 81.8655 67.0182 88.1578 66.1428 89.7422C65.4671 90.9644 63.9805 90.711 62.6292 90.6934C55.6926 90.6028 41.2794 90.3677 39.1155 90.1504C36.9773 89.9355 37.3494 81.7784 36.1819 77.5259C36.1555 77.4298 36.1177 77.3397 36.0699 77.2523L34.6555 74.668L34.3141 74.1996C34.2651 74.1324 34.21 74.0699 34.1499 74.0125C33.0537 72.9657 32.0489 71.8243 31.1489 70.6008C31.1487 70.6007 31.1486 70.6005 31.1485 70.6004L31.1422 70.5941C31.1421 70.594 31.1422 70.5938 31.1424 70.5938V70.5938C31.1426 70.5938 31.1427 70.5935 31.1426 70.5934C27.9782 66.2886 26.1086 60.9731 26.1086 55.2207C26.1087 40.8711 37.7414 29.2383 52.0911 29.2383Z" fill="#E0E0E0"/>
<ellipse cx="64.4877" cy="54.0399" rx="8.76362" ry="7.58825" transform="rotate(88.3583 64.4877 54.0399)" fill="#616161"/>
<g filter="url(#filter0_d_474_2368)">
<ellipse cx="64.7631" cy="54.341" rx="7.84113" ry="6.78949" transform="rotate(88.3583 64.7631 54.341)" fill="white"/>
</g>
<ellipse cx="64.5494" cy="56.191" rx="4.76618" ry="4.12695" transform="rotate(88.3583 64.5494 56.191)" fill="#616161"/>
<ellipse cx="3.32903" cy="2.98938" rx="3.32903" ry="2.98938" transform="matrix(0.338425 0.940993 -0.904493 0.426489 66.2632 51.9375)" fill="#404040"/>
<ellipse cx="64.5554" cy="53.3226" rx="0.768738" ry="0.665636" transform="rotate(88.3583 64.5554 53.3226)" fill="white"/>
<path d="M63.1687 102.856C63.1687 106.25 58.3894 109.001 52.4938 109.001C46.5982 109.001 41.8188 106.25 41.8188 102.856C41.8188 99.4621 46.5982 102.856 52.4938 102.856C58.3894 102.856 63.1687 99.4621 63.1687 102.856Z" fill="#616161"/>
<path d="M64.38 93.2689C64.38 99.0269 59.1486 103.695 52.6954 103.695C46.2421 103.695 41.0107 99.0269 41.0107 93.2689C41.0107 87.511 46.2421 89.6124 52.6954 89.6124C59.1486 89.6124 64.38 87.511 64.38 93.2689Z" fill="#B5B5CB"/>
<path d="M39.7939 85.8857C40.4712 85.8857 40.9844 86.022 41.3779 86.2412C41.7697 86.4596 42.0771 86.7791 42.3164 87.1953C42.8078 88.0502 43.0009 89.2943 43.001 90.7861C43.001 92.2782 42.8079 93.5229 42.3164 94.3779C42.0771 94.7942 41.7697 95.1127 41.3779 95.3311C40.9843 95.5504 40.4714 95.6875 39.7939 95.6875C38.4602 95.6874 37.5321 95.1577 36.918 94.3213C36.2862 93.4608 35.9521 92.2241 35.9521 90.7861C35.9522 89.3483 36.2861 88.1114 36.918 87.251C37.5321 86.4148 38.4603 85.8858 39.7939 85.8857Z" fill="white" stroke="#616161" stroke-width="1.20848"/>
<path d="M66.3366 95.0569C65.6594 95.0529 65.1471 94.9136 64.7548 94.6921C64.3643 94.4714 64.0588 94.1501 63.8219 93.7325C63.3356 92.8747 63.1497 91.6295 63.1585 90.1377C63.1673 88.6456 63.3677 87.4021 63.8642 86.55C64.1059 86.1352 64.4152 85.8185 64.8082 85.6024C65.2031 85.3854 65.7168 85.2513 66.3943 85.2553C67.728 85.2632 68.6529 85.7984 69.2622 86.6384C69.8889 87.5026 70.2156 88.7413 70.2072 90.1792C70.1987 91.617 69.8575 92.8519 69.2206 93.7086C68.6015 94.5411 67.6702 95.0646 66.3366 95.0569Z" fill="white" stroke="#616161" stroke-width="1.20848"/>
<path d="M49.0697 41.7543V43.9377L38.999 44.3471C38.999 44.3471 41.2817 42.2843 43.4301 41.7543C45.4996 41.2437 49.0697 41.7543 49.0697 41.7543Z" fill="#616161"/>
<path d="M54.9573 42.09L55.4294 44.2218L65.4544 42.4211C65.4544 42.4211 62.7562 40.9058 60.5217 40.8577C58.3694 40.8114 54.9573 42.09 54.9573 42.09Z" fill="#616161"/>
<path d="M46.0462 65.6562C46.0523 66.6492 46.254 67.6314 46.6396 68.5465C47.0253 69.4616 47.5875 70.2918 48.294 70.9897C49.0005 71.6875 49.8376 72.2394 50.7574 72.6138C51.6772 72.9882 52.6617 73.1777 53.6548 73.1716C54.6478 73.1655 55.63 72.9638 56.5451 72.5781C57.4602 72.1925 58.2904 71.6303 58.9883 70.9238C59.6862 70.2173 60.238 69.3802 60.6124 68.4604C60.9868 67.5406 61.1763 66.556 61.1702 65.563L53.6082 65.6096L46.0462 65.6562Z" fill="#616161"/>
<path d="M57.196 71.6189C57.1968 71.1175 57.0987 70.6208 56.9075 70.1572C56.7163 69.6936 56.4356 69.2722 56.0816 68.9171C55.7275 68.562 55.3069 68.2801 54.8439 68.0875C54.3809 67.8949 53.8845 67.7954 53.3831 67.7947C52.8816 67.794 52.3849 67.892 51.9213 68.0832C51.4577 68.2744 51.0364 68.5551 50.6812 68.9092C50.3261 69.2632 50.0442 69.6838 49.8516 70.1468C49.6591 70.6098 49.5596 71.1062 49.5588 71.6077L53.3774 71.6133L57.196 71.6189Z" fill="#C2C2C2"/>
<path d="M47.4193 44.842C53.6605 47.0333 56.686 53.6715 54.2275 59.6456C51.7689 65.6195 44.7337 68.7243 38.4926 66.533C32.2517 64.3416 29.2266 57.7046 31.685 51.7307C34.1435 45.7567 41.1782 42.6509 47.4193 44.842Z" fill="#D0EDF3" fill-opacity="0.5" stroke="#616161" stroke-width="2.17389"/>
<path d="M44.6458 67.6842L39.2638 89.5733C38.9842 90.7097 37.8271 91.4467 36.6791 91.2197L33.5771 90.6057C32.429 90.3784 31.725 89.273 32.0043 88.1364L37.3863 66.2473L44.6458 67.6842Z" fill="#616161" stroke="#616161" stroke-width="0.108694"/>
<ellipse cx="43.0029" cy="55.7148" rx="9.65507" ry="8.36015" transform="rotate(88.3583 43.0029 55.7148)" fill="#616161"/>
<g filter="url(#filter1_d_474_2368)">
<ellipse cx="43.3061" cy="56.0448" rx="8.63875" ry="7.48013" transform="rotate(88.3583 43.3061 56.0448)" fill="white"/>
</g>
<ellipse cx="43.0699" cy="58.0861" rx="5.251" ry="4.54675" transform="rotate(88.3583 43.0699 58.0861)" fill="#616161"/>
<ellipse cx="3.66766" cy="3.29347" rx="3.66766" ry="3.29347" transform="matrix(0.338425 0.940993 -0.904493 0.426489 44.9585 53.3945)" fill="#404040"/>
<ellipse cx="43.0769" cy="54.9262" rx="0.846936" ry="0.733346" transform="rotate(88.3583 43.0769 54.9262)" fill="white"/>
<circle cx="53.6081" cy="92.3459" r="1.52172" fill="#616161"/>
<circle cx="53.6081" cy="96.26" r="1.52172" fill="#616161"/>
<defs>
<filter id="filter0_d_474_2368" x="56.7427" y="46.5005" width="16.0409" height="18.1406" filterUnits="userSpaceOnUse" color-interpolation-filters="sRGB">
<feFlood flood-opacity="0" result="BackgroundImageFix"/>
<feColorMatrix in="SourceAlpha" type="matrix" values="0 0 0 0 0 0 0 0 0 0 0 0 0 0 0 0 0 0 127 0" result="hardAlpha"/>
<feOffset dy="1.22998"/>
<feGaussianBlur stdDeviation="0.614991"/>
<feComposite in2="hardAlpha" operator="out"/>
<feColorMatrix type="matrix" values="0 0 0 0 0 0 0 0 0 0 0 0 0 0 0 0 0 0 0.25 0"/>
<feBlend mode="normal" in2="BackgroundImageFix" result="effect1_dropShadow_474_2368"/>
<feBlend mode="normal" in="SourceGraphic" in2="effect1_dropShadow_474_2368" result="shape"/>
</filter>
<filter id="filter1_d_474_2368" x="34.4697" y="47.4067" width="17.6727" height="19.9861" filterUnits="userSpaceOnUse" color-interpolation-filters="sRGB">
<feFlood flood-opacity="0" result="BackgroundImageFix"/>
<feColorMatrix in="SourceAlpha" type="matrix" values="0 0 0 0 0 0 0 0 0 0 0 0 0 0 0 0 0 0 127 0" result="hardAlpha"/>
<feOffset dy="1.3551"/>
<feGaussianBlur stdDeviation="0.677549"/>
<feComposite in2="hardAlpha" operator="out"/>
<feColorMatrix type="matrix" values="0 0 0 0 0 0 0 0 0 0 0 0 0 0 0 0 0 0 0.25 0"/>
<feBlend mode="normal" in2="BackgroundImageFix" result="effect1_dropShadow_474_2368"/>
<feBlend mode="normal" in="SourceGraphic" in2="effect1_dropShadow_474_2368" result="shape"/>
</filter>
</defs>
</svg>
