<svg width="20" height="20" viewBox="0 0 20 20" fill="none" xmlns="http://www.w3.org/2000/svg">
<path fill-rule="evenodd" clip-rule="evenodd" d="M12.2689 9.95258C12.2689 8.58314 11.1584 7.47266 9.789 7.47266C8.41957 7.47266 7.30908 8.58314 7.30908 9.95258C7.30908 11.322 8.41957 12.4325 9.789 12.4325C11.1584 12.4325 12.2689 11.322 12.2689 9.95258Z" stroke="#FAAE2B" stroke-width="1.18269" stroke-linecap="round" stroke-linejoin="round"/>
<path fill-rule="evenodd" clip-rule="evenodd" d="M9.78761 16.0247C16.131 16.0247 16.8863 14.1241 16.8863 10.0058C16.8863 7.11921 16.5045 5.57465 14.1001 4.91069C13.8793 4.84097 13.6345 4.70818 13.4361 4.4899C13.1157 4.13882 12.8817 3.06071 12.1082 2.73453C11.3347 2.40919 8.22812 2.42413 7.46704 2.73453C6.7068 3.04577 6.45947 4.13882 6.13911 4.4899C5.94075 4.70818 5.69674 4.84097 5.47514 4.91069C3.07075 5.57465 2.68896 7.11921 2.68896 10.0058C2.68896 14.1241 3.44423 16.0247 9.78761 16.0247Z" stroke="#FAAE2B" stroke-width="1.18269" stroke-linecap="round" stroke-linejoin="round"/>
<path d="M13.6592 7.19501H13.6663" stroke="#FAAE2B" stroke-width="1.18269" stroke-linecap="round" stroke-linejoin="round"/>
</svg>
