<svg width="24" height="25" viewBox="0 0 24 25" fill="none" xmlns="http://www.w3.org/2000/svg">
<path d="M7.50373 20.2891L6.00537 22.9926" stroke="white" stroke-linecap="round" stroke-linejoin="round"/>
<path d="M16.4961 20.2891L17.9945 22.9926" stroke="white" stroke-linecap="round" stroke-linejoin="round"/>
<path d="M11.9998 21.4958C16.966 21.4958 20.9919 17.4699 20.9919 12.5038C20.9919 7.53759 16.966 3.51172 11.9998 3.51172C7.03368 3.51172 3.00781 7.53759 3.00781 12.5038C3.00781 17.4699 7.03368 21.4958 11.9998 21.4958Z" stroke="white" stroke-linecap="round" stroke-linejoin="round"/>
<path d="M3.30878 10.1053C2.61844 9.58792 2.09155 8.88281 1.79098 8.07414C1.4904 7.26548 1.42884 6.38741 1.61362 5.54472C1.79841 4.70202 2.22175 3.93028 2.83312 3.32159C3.44449 2.7129 4.21808 2.29296 5.06158 2.11187C5.90508 1.93079 6.78287 1.99622 7.59021 2.30035C8.39754 2.60447 9.10033 3.13446 9.61471 3.82706" stroke="white" stroke-linecap="round" stroke-linejoin="round"/>
<path d="M12 3.51038L12 2.01172" stroke="white" stroke-linecap="round" stroke-linejoin="round"/>
<path d="M12 8.00781V12.5038" stroke="white" stroke-linecap="round" stroke-linejoin="round"/>
<path d="M12 12.5039L15.1792 15.6831" stroke="white" stroke-linecap="round" stroke-linejoin="round"/>
<path d="M20.6912 10.1053C21.3815 9.58792 21.9084 8.88281 22.209 8.07414C22.5096 7.26548 22.5711 6.38741 22.3863 5.54472C22.2016 4.70202 21.7782 3.93028 21.1668 3.32159C20.5555 2.7129 19.7819 2.29295 18.9384 2.11187C18.0949 1.93079 17.2171 1.99622 16.4098 2.30035C15.6024 2.60447 14.8996 3.13446 14.3853 3.82706" stroke="white" stroke-linecap="round" stroke-linejoin="round"/>
</svg>
