<svg width="24" height="24" viewBox="0 0 24 24" fill="none" xmlns="http://www.w3.org/2000/svg">
<mask id="path-1-inside-1_2057_19199" fill="white">
<path d="M18.4456 11.0583C19.2085 10.2652 19.6627 9.2377 19.7082 8.20171C19.7537 7.16572 19.3868 6.20613 18.6882 5.53406C17.9896 4.86199 17.0166 4.53247 15.9831 4.61801C14.9497 4.70355 13.9405 5.19713 13.1775 5.99017L15.8115 8.52423L18.4456 11.0583Z"/>
</mask>
<path d="M18.4456 11.0583C19.2085 10.2652 19.6627 9.2377 19.7082 8.20171C19.7537 7.16572 19.3868 6.20613 18.6882 5.53406C17.9896 4.86199 17.0166 4.53247 15.9831 4.61801C14.9497 4.70355 13.9405 5.19713 13.1775 5.99017L15.8115 8.52423L18.4456 11.0583Z" stroke="#FAAE2B" stroke-width="2" mask="url(#path-1-inside-1_2057_19199)"/>
<path d="M12.0933 7.80078L3.09326 16.8008V21.3008L8.09326 20.8008L16.5933 12.3008L12.0933 7.80078Z" stroke="#FAAE2B" stroke-linecap="round"/>
</svg>
