<svg width="393" height="176" viewBox="0 0 393 176" fill="none" xmlns="http://www.w3.org/2000/svg">
<circle cx="15" cy="126" r="50" fill="#FDDFAA" fill-opacity="0.5"/>
<circle cx="372" cy="34" r="50" fill="#FDDFAA" fill-opacity="0.5"/>
<path d="M114.088 76.5411C113.432 76.4108 113.508 75.4502 114.176 75.4233L119.781 75.198C127.018 74.9071 133.113 69.6949 134.524 62.5904L135.617 57.0885C135.747 56.4325 136.708 56.5076 136.734 57.1758L136.96 62.7806C137.251 70.018 142.463 76.1132 149.567 77.5241L155.069 78.6167C155.725 78.747 155.65 79.7076 154.982 79.7345L149.377 79.9598C142.14 80.2507 136.044 85.4629 134.634 92.5674L133.541 98.0694C133.411 98.7252 132.45 98.6502 132.423 97.9821L132.198 92.3772C131.907 85.1398 126.695 79.0445 119.59 77.6337L114.088 76.5411Z" fill="#FF6086"/>
<path fill-rule="evenodd" clip-rule="evenodd" d="M276.543 52.87C267.279 64.3788 269.044 81.2082 280.508 90.5046C269.018 81.1875 252.137 82.9657 242.803 94.476C252.067 82.9674 250.303 66.1378 238.839 56.8414C250.328 66.1587 267.209 64.3803 276.543 52.87Z" fill="#4F4F4F"/>
<path d="M48.0068 51.2819C46.0292 43.633 56.3925 39.2224 60.5338 45.9504C62.1176 48.5234 65.194 49.7629 68.1192 49.0067C75.7681 47.0291 80.1787 57.3923 73.4507 61.5337C70.8777 63.1174 69.6382 66.1939 70.3944 69.1191C72.372 76.768 62.0088 81.1786 57.8674 74.4506C56.2837 71.8776 53.2072 70.638 50.282 71.3943C42.6331 73.3719 38.2225 63.0087 44.9505 58.8673C47.5235 57.2835 48.7631 54.2071 48.0068 51.2819Z" fill="#EB5757"/>
<path d="M350.09 105.423C348.224 106.334 346.196 106.869 344.123 106.996C342.05 107.124 339.972 106.842 338.008 106.167C336.044 105.492 334.233 104.436 332.677 103.061C331.12 101.685 329.851 100.017 328.939 98.1506C328.028 96.2844 327.493 94.2569 327.365 92.1839C327.238 90.111 327.52 88.0332 328.195 86.0692C328.87 84.1052 329.926 82.2934 331.301 80.7373C332.677 79.1812 334.345 77.9113 336.211 77L338.491 81.6682C337.238 82.2801 336.117 83.1329 335.193 84.1779C334.27 85.2228 333.561 86.4394 333.108 87.7583C332.654 89.0772 332.465 90.4725 332.551 91.8645C332.636 93.2565 332.996 94.6179 333.607 95.8712C334.219 97.1244 335.072 98.2448 336.117 99.1685C337.162 100.092 338.379 100.801 339.698 101.254C341.016 101.708 342.412 101.897 343.804 101.811C345.196 101.726 346.557 101.366 347.81 100.754L350.09 105.423Z" fill="#9B51E0"/>
</svg>
