<svg width="393" height="176" viewBox="0 0 393 176" fill="none" xmlns="http://www.w3.org/2000/svg">
<circle cx="15" cy="126" r="50" fill="#FDDFAA" fill-opacity="0.5"/>
<circle cx="372" cy="34" r="50" fill="#FDDFAA" fill-opacity="0.5"/>
<path d="M112.007 37.2819C110.029 29.633 120.392 25.2224 124.534 31.9504C126.118 34.5234 129.194 35.7629 132.119 35.0067C139.768 33.0291 144.179 43.3923 137.451 47.5337C134.878 49.1174 133.638 52.1939 134.394 55.1191C136.372 62.768 126.009 67.1786 121.867 60.4506C120.284 57.8776 117.207 56.638 114.282 57.3943C106.633 59.3719 102.222 49.0087 108.951 44.8673C111.524 43.2835 112.763 40.2071 112.007 37.2819Z" fill="#EB5757"/>
<path d="M268.088 140.541C267.432 140.411 267.508 139.45 268.176 139.423L273.781 139.198C281.018 138.907 287.113 133.695 288.524 126.59L289.617 121.088C289.747 120.433 290.708 120.508 290.734 121.176L290.96 126.781C291.251 134.018 296.463 140.113 303.567 141.524L309.069 142.617C309.725 142.747 309.65 143.708 308.982 143.735L303.377 143.96C296.14 144.251 290.044 149.463 288.634 156.567L287.541 162.069C287.411 162.725 286.45 162.65 286.423 161.982L286.198 156.377C285.907 149.14 280.695 143.045 273.59 141.634L268.088 140.541Z" fill="#FF6086"/>
<path fill-rule="evenodd" clip-rule="evenodd" d="M139.937 107.524C130.673 119.033 132.438 135.862 143.901 145.158C132.412 135.841 115.531 137.619 106.197 149.13C115.461 137.621 113.696 120.792 102.233 111.495C113.722 120.812 130.603 119.034 139.937 107.524Z" fill="#4F4F4F"/>
<path fill-rule="evenodd" clip-rule="evenodd" d="M225.978 26.4441C222.729 21.4058 214.957 25.1182 216.834 30.8122C217.755 33.6054 216.133 36.5974 213.29 37.3497C207.494 38.8833 208.623 47.4218 214.618 47.396C217.559 47.3834 219.903 49.8508 219.74 52.7874C219.408 58.7735 227.877 60.3382 229.706 54.6283C230.602 51.8273 233.673 50.3603 236.416 51.4229C242.006 53.5889 246.112 46.0174 241.246 42.5143C238.859 40.7958 238.413 37.4217 240.271 35.1418C244.059 30.4943 238.126 24.2503 233.291 27.7951C230.919 29.5341 227.572 28.9158 225.978 26.4441ZM228.964 44.4496C231.074 43.4417 231.967 40.9143 230.959 38.8044C229.951 36.6945 227.424 35.8011 225.314 36.809C223.204 37.8169 222.311 40.3443 223.319 42.4542C224.327 44.5641 226.854 45.4575 228.964 44.4496Z" fill="#2F80ED"/>
<path d="M310.667 74.2794C310.123 76.2839 309.19 78.1616 307.921 79.8054C306.652 81.4493 305.071 82.827 303.269 83.8599C301.467 84.8929 299.48 85.5608 297.42 85.8257C295.36 86.0905 293.268 85.947 291.264 85.4033C289.259 84.8597 287.381 83.9266 285.738 82.6573C284.094 81.3879 282.716 79.8073 281.683 78.0055C280.65 76.2037 279.982 74.2162 279.717 72.1563C279.453 70.0963 279.596 68.0044 280.14 66L285.154 67.3598C284.788 68.7058 284.692 70.1106 284.87 71.4939C285.048 72.8771 285.496 74.2118 286.19 75.4217C286.884 76.6316 287.809 77.6931 288.913 78.5455C290.016 79.3978 291.277 80.0244 292.623 80.3895C293.969 80.7545 295.374 80.8509 296.757 80.6731C298.141 80.4953 299.475 80.0467 300.685 79.3531C301.895 78.6594 302.957 77.7343 303.809 76.6304C304.661 75.5265 305.288 74.2656 305.653 72.9196L310.667 74.2794Z" fill="#9B51E0"/>
<path d="M40.0899 46.4227C38.2236 47.3339 36.1961 47.8687 34.1232 47.9964C32.0503 48.1242 29.9725 47.8423 28.0085 47.1671C26.0444 46.4918 24.2327 45.4363 22.6766 44.0608C21.1205 42.6854 19.8505 41.0169 18.9392 39.1506C18.028 37.2844 17.4932 35.2569 17.3655 33.1839C17.2377 31.111 17.5196 29.0332 18.1948 27.0692C18.8701 25.1052 19.9256 23.2934 21.3011 21.7373C22.6765 20.1812 24.345 18.9113 26.2113 18L28.4907 22.6682C27.2375 23.2801 26.1171 24.1329 25.1935 25.1779C24.2698 26.2228 23.561 27.4394 23.1076 28.7583C22.6541 30.0772 22.4649 31.4725 22.5506 32.8645C22.6364 34.2565 22.9955 35.6179 23.6074 36.8712C24.2194 38.1244 25.0722 39.2448 26.1171 40.1685C27.1621 41.0921 28.3787 41.8009 29.6976 42.2544C31.0164 42.7078 32.4117 42.8971 33.8037 42.8113C35.1957 42.7255 36.5572 42.3664 37.8104 41.7545L40.0899 46.4227Z" fill="#9B51E0"/>
<path d="M357 146.806L367.759 148.557L369.099 140.321L358.34 138.571C356.287 138.237 354.891 136.306 355.222 134.274C355.552 132.243 357.488 130.854 359.541 131.188L370.3 132.938L371.64 124.703L360.881 122.952C354.267 121.876 348.011 126.346 346.94 132.927C345.87 139.508 350.386 145.73 357 146.806Z" fill="#9B51E0"/>
</svg>
