<svg width="74" height="74" viewBox="0 0 74 74" fill="none" xmlns="http://www.w3.org/2000/svg">
<circle cx="36.6388" cy="36.6406" r="36.3653" transform="rotate(-0.432485 36.6388 36.6406)" fill="#FEF6F6"/>
<g filter="url(#filter0_d_476_3264)">
<path d="M14.3383 42.2506L13.6482 43.7569C13.8592 43.3713 14.5291 42.7326 14.8202 42.5517C15.1391 42.3536 16.3743 42.2534 16.9521 42.2281C17.5299 42.2027 18.7598 42.8846 19.6676 43.5935C20.5931 44.3163 21.0801 44.8245 21.5349 45.8364C22.074 47.0359 22.1807 47.878 21.8216 49.1613C21.4055 50.6481 20.5855 51.3994 19.2675 52.4497C17.9897 53.468 17.0595 53.9208 15.4113 54.3452C13.9816 54.7133 13.096 54.7754 11.6389 54.6373C10.1358 54.4948 9.2962 54.2244 7.99178 53.6004C6.53528 52.9035 4.78985 51.1859 4.78985 51.1859C4.78985 51.1859 2.79344 51.3761 2.30591 50.6274C1.85934 49.9416 2.76045 48.5934 2.76045 48.5934C2.76045 48.5934 2.19049 46.8261 2.31607 45.6667C2.31607 45.6667 2.64181 44.3352 2.96991 43.5089C3.5557 42.0336 4.04521 41.2331 5.04213 39.9194C5.87332 38.8241 6.38605 38.2137 7.48029 37.3035C8.29731 36.624 8.74749 36.1887 9.75142 35.7423C10.6328 35.3504 11.1681 35.0594 12.1336 34.9128C14.0523 34.6214 15.0766 34.1853 17.037 34.1683C18.1705 34.1585 18.8522 34.6126 19.5115 35.3832C19.9853 35.937 20.2219 36.7101 20.2017 37.0562C20.1816 37.4024 19.9846 38.212 19.358 38.6814C18.7313 39.1509 17.8177 39.0712 17.4393 38.9728C17.0608 38.8743 17.9547 37.35 17.1616 37.1436C16.3203 36.9246 16.64 38.5561 15.7709 38.7582C14.8111 38.9815 14.1708 36.9399 13.644 37.6776C13.3067 38.1499 13.8523 39.0495 13.8523 39.0495L14.3383 42.2506Z" fill="#E9365B"/>
</g>
<g filter="url(#filter1_d_476_3264)">
<path d="M59.1159 41.0491L59.8344 42.488C59.6197 42.1227 58.9765 41.5458 58.7033 41.3913C58.4042 41.2221 57.2893 41.2311 56.7692 41.2567C56.2492 41.2824 55.1907 42.0696 54.423 42.8554C53.6403 43.6565 53.2369 44.2054 52.8957 45.2529C52.4912 46.4947 52.451 47.3425 52.858 48.5886C53.3295 50.0323 54.1148 50.7081 55.3667 51.6379C56.5804 52.5392 57.4448 52.9081 58.9517 53.1855C60.2588 53.4261 61.0574 53.41 62.3557 53.1442C63.6948 52.87 64.4303 52.5268 65.5594 51.7906C66.8202 50.9686 68.2728 49.1047 68.2728 49.1047C68.2728 49.1047 70.0766 49.1183 70.4646 48.3299C70.82 47.6078 69.9225 46.3448 69.9225 46.3448C69.9225 46.3448 70.3172 44.535 70.1279 43.3917C70.1279 43.3917 69.7478 42.0947 69.3988 41.3009C68.7758 39.8836 68.2838 39.1296 67.3026 37.9094C66.4845 36.892 65.9842 36.3294 64.9423 35.5196C64.1644 34.915 63.7318 34.5212 62.8016 34.1652C61.9849 33.8526 61.4854 33.6099 60.6094 33.549C58.8687 33.4279 57.9209 33.0838 56.1609 33.2395C55.1433 33.3295 54.5616 33.8417 54.0209 34.667C53.6324 35.2601 53.4712 36.0507 53.5121 36.3935C53.5531 36.7364 53.7832 37.5252 54.3765 37.9374C54.9697 38.3496 55.7841 38.1899 56.1172 38.0585C56.4502 37.9271 55.5476 36.4881 56.2456 36.2128C56.9859 35.9207 56.8068 37.5733 57.5999 37.698C58.4758 37.8358 58.9155 35.7467 59.4369 36.4348C59.7707 36.8753 59.3406 37.8191 59.3406 37.8191L59.1159 41.0491Z" fill="#E9365B"/>
</g>
<path d="M28.7478 60.9667V61.2837H28.4308V60.9667H28.7478ZM28.4308 60.9667V61.2837H28.1139V60.9667H28.4308ZM28.1139 60.9667V61.2837H27.797V60.9667H28.1139ZM27.797 60.9667V61.2837H27.4801V60.9667H27.797ZM27.4801 60.9667V61.2837H27.1631V60.9667H27.4801ZM27.4801 60.6498V60.9667H27.1631V60.6498H27.4801ZM27.4801 60.3329V60.6498H27.1631V60.3329H27.4801ZM27.797 60.3329V60.6498H27.4801V60.3329H27.797ZM27.797 60.016V60.3329H27.4801V60.016H27.797ZM27.797 59.699V60.016H27.4801V59.699H27.797ZM28.1139 59.699V60.016H27.797V59.699H28.1139ZM28.1139 59.3821V59.699H27.797V59.3821H28.1139ZM28.4308 59.3821V59.699H28.1139V59.3821H28.4308ZM28.7478 59.3821V59.699H28.4308V59.3821H28.7478ZM28.7478 59.0652V59.3821H28.4308V59.0652H28.7478ZM29.0647 59.0652V59.3821H28.7478V59.0652H29.0647ZM29.3816 59.0652V59.3821H29.0647V59.0652H29.3816ZM29.6985 59.0652V59.3821H29.3816V59.0652H29.6985ZM30.0155 59.0652V59.3821H29.6985V59.0652H30.0155ZM30.0155 59.3821V59.699H29.6985V59.3821H30.0155ZM30.3324 59.3821V59.699H30.0155V59.3821H30.3324ZM30.6493 59.3821V59.699H30.3324V59.3821H30.6493ZM30.6493 59.0652V59.3821H30.3324V59.0652H30.6493ZM30.9662 59.0652V59.3821H30.6493V59.0652H30.9662ZM30.3324 59.0652V59.3821H30.0155V59.0652H30.3324ZM30.9662 59.3821V59.699H30.6493V59.3821H30.9662ZM31.2832 59.3821V59.699H30.9662V59.3821H31.2832ZM31.6001 59.3821V59.699H31.2832V59.3821H31.6001ZM31.6001 59.699V60.016H31.2832V59.699H31.6001ZM31.917 59.699V60.016H31.6001V59.699H31.917ZM31.917 60.016V60.3329H31.6001V60.016H31.917ZM31.917 60.3329V60.6498H31.6001V60.3329H31.917ZM32.2339 60.3329V60.6498H31.917V60.3329H32.2339ZM32.2339 60.6498V60.9667H31.917V60.6498H32.2339ZM32.2339 60.9667V61.2837H31.917V60.9667H32.2339ZM32.2339 61.2837V61.6006H31.917V61.2837H32.2339ZM32.2339 61.6006V61.9175H31.917V61.6006H32.2339ZM31.917 61.6006V61.9175H31.6001V61.6006H31.917ZM31.6001 61.6006V61.9175H31.2832V61.6006H31.6001ZM31.2832 61.6006V61.9175H30.9662V61.6006H31.2832ZM31.2832 61.2837V61.6006H30.9662V61.2837H31.2832ZM30.9662 61.2837V61.6006H30.6493V61.2837H30.9662ZM30.9662 60.9667V61.2837H30.6493V60.9667H30.9662ZM30.9662 60.6498V60.9667H30.6493V60.6498H30.9662ZM31.2832 60.6498V60.9667H30.9662V60.6498H31.2832ZM31.6001 60.6498V60.9667H31.2832V60.6498H31.6001ZM31.917 60.6498V60.9667H31.6001V60.6498H31.917ZM31.917 60.9667V61.2837H31.6001V60.9667H31.917ZM31.917 61.2837V61.6006H31.6001V61.2837H31.917ZM31.6001 60.9667V61.2837H31.2832V60.9667H31.6001ZM31.2832 60.9667V61.2837H30.9662V60.9667H31.2832ZM31.6001 61.2837V61.6006H31.2832V61.2837H31.6001ZM31.6001 60.3329V60.6498H31.2832V60.3329H31.6001ZM31.2832 60.3329V60.6498H30.9662V60.3329H31.2832ZM30.9662 60.3329V60.6498H30.6493V60.3329H30.9662ZM30.6493 60.3329V60.6498H30.3324V60.3329H30.6493ZM30.6493 60.6498V60.9667H30.3324V60.6498H30.6493ZM30.3324 60.3329V60.6498H30.0155V60.3329H30.3324ZM30.0155 60.3329V60.6498H29.6985V60.3329H30.0155ZM29.6985 60.3329V60.6498H29.3816V60.3329H29.6985ZM29.3816 60.3329V60.6498H29.0647V60.3329H29.3816ZM29.0647 60.3329V60.6498H28.7478V60.3329H29.0647ZM29.0647 60.6498V60.9667H28.7478V60.6498H29.0647ZM28.7478 60.6498V60.9667H28.4308V60.6498H28.7478ZM28.4308 60.6498V60.9667H28.1139V60.6498H28.4308ZM28.1139 60.6498V60.9667H27.797V60.6498H28.1139ZM27.797 60.6498V60.9667H27.4801V60.6498H27.797ZM28.1139 60.3329V60.6498H27.797V60.3329H28.1139ZM28.4308 60.3329V60.6498H28.1139V60.3329H28.4308ZM28.7478 60.3329V60.6498H28.4308V60.3329H28.7478ZM28.1139 60.016V60.3329H27.797V60.016H28.1139ZM28.4308 60.016V60.3329H28.1139V60.016H28.4308ZM28.7478 60.016V60.3329H28.4308V60.016H28.7478ZM29.0647 60.016V60.3329H28.7478V60.016H29.0647ZM29.3816 60.016V60.3329H29.0647V60.016H29.3816ZM29.6985 60.016V60.3329H29.3816V60.016H29.6985ZM30.0155 60.016V60.3329H29.6985V60.016H30.0155ZM30.3324 60.016V60.3329H30.0155V60.016H30.3324ZM30.6493 60.016V60.3329H30.3324V60.016H30.6493ZM30.9662 60.016V60.3329H30.6493V60.016H30.9662ZM31.2832 60.016V60.3329H30.9662V60.016H31.2832ZM31.6001 60.016V60.3329H31.2832V60.016H31.6001ZM31.2832 59.699V60.016H30.9662V59.699H31.2832ZM30.9662 59.699V60.016H30.6493V59.699H30.9662ZM30.6493 59.699V60.016H30.3324V59.699H30.6493ZM30.3324 59.699V60.016H30.0155V59.699H30.3324ZM30.0155 59.699V60.016H29.6985V59.699H30.0155ZM29.6985 59.699V60.016H29.3816V59.699H29.6985ZM29.3816 59.699V60.016H29.0647V59.699H29.3816ZM29.0647 59.699V60.016H28.7478V59.699H29.0647ZM28.7478 59.699V60.016H28.4308V59.699H28.7478ZM28.4308 59.699V60.016H28.1139V59.699H28.4308ZM29.0647 59.3821V59.699H28.7478V59.3821H29.0647ZM29.3816 59.3821V59.699H29.0647V59.3821H29.3816ZM29.6985 59.3821V59.699H29.3816V59.3821H29.6985ZM32.2339 65.4037V65.7206H31.917V65.4037H32.2339ZM32.2339 65.7206V66.0375H31.917V65.7206H32.2339ZM32.2339 66.0375V66.3544H31.917V66.0375H32.2339ZM32.2339 66.3544V66.6714H31.917V66.3544H32.2339ZM32.2339 66.6714V66.9883H31.917V66.6714H32.2339ZM31.917 66.6714V66.9883H31.6001V66.6714H31.917ZM31.6001 66.6714V66.9883H31.2832V66.6714H31.6001ZM31.2832 66.6714V66.9883H30.9662V66.6714H31.2832ZM30.9662 66.6714V66.9883H30.6493V66.6714H30.9662ZM30.6493 66.6714V66.9883H30.3324V66.6714H30.6493ZM30.3324 66.6714V66.9883H30.0155V66.6714H30.3324ZM30.0155 66.6714V66.9883H29.6985V66.6714H30.0155ZM29.6985 66.6714V66.9883H29.3816V66.6714H29.6985ZM29.3816 66.6714V66.9883H29.0647V66.6714H29.3816ZM29.0647 66.6714V66.9883H28.7478V66.6714H29.0647ZM28.7478 66.6714V66.9883H28.4308V66.6714H28.7478ZM28.4308 66.6714V66.9883H28.1139V66.6714H28.4308ZM28.1139 66.6714V66.9883H27.797V66.6714H28.1139ZM27.797 66.6714V66.9883H27.4801V66.6714H27.797ZM27.797 66.3544V66.6714H27.4801V66.3544H27.797ZM27.4801 66.3544V66.6714H27.1631V66.3544H27.4801ZM27.4801 66.6714V66.9883H27.1631V66.6714H27.4801ZM27.4801 66.0375V66.3544H27.1631V66.0375H27.4801ZM27.4801 65.7206V66.0375H27.1631V65.7206H27.4801ZM27.797 65.4037V65.7206H27.4801V65.4037H27.797ZM28.1139 65.4037V65.7206H27.797V65.4037H28.1139ZM28.4308 65.4037V65.7206H28.1139V65.4037H28.4308ZM28.7478 65.4037V65.7206H28.4308V65.4037H28.7478ZM29.0647 65.4037V65.7206H28.7478V65.4037H29.0647ZM29.3816 65.4037V65.7206H29.0647V65.4037H29.3816ZM29.6985 65.4037V65.7206H29.3816V65.4037H29.6985ZM30.0155 65.4037V65.7206H29.6985V65.4037H30.0155ZM30.3324 65.4037V65.7206H30.0155V65.4037H30.3324ZM30.6493 65.4037V65.7206H30.3324V65.4037H30.6493ZM30.9662 65.4037V65.7206H30.6493V65.4037H30.9662ZM31.2832 65.4037V65.7206H30.9662V65.4037H31.2832ZM31.6001 65.4037V65.7206H31.2832V65.4037H31.6001ZM31.6001 65.7206V66.0375H31.2832V65.7206H31.6001ZM31.917 65.7206V66.0375H31.6001V65.7206H31.917ZM31.917 65.4037V65.7206H31.6001V65.4037H31.917ZM31.917 66.0375V66.3544H31.6001V66.0375H31.917ZM31.6001 66.0375V66.3544H31.2832V66.0375H31.6001ZM31.6001 66.3544V66.6714H31.2832V66.3544H31.6001ZM31.917 66.3544V66.6714H31.6001V66.3544H31.917ZM31.2832 66.3544V66.6714H30.9662V66.3544H31.2832ZM30.9662 66.3544V66.6714H30.6493V66.3544H30.9662ZM30.6493 66.3544V66.6714H30.3324V66.3544H30.6493ZM30.3324 66.3544V66.6714H30.0155V66.3544H30.3324ZM30.0155 66.3544V66.6714H29.6985V66.3544H30.0155ZM29.6985 66.3544V66.6714H29.3816V66.3544H29.6985ZM29.3816 66.3544V66.6714H29.0647V66.3544H29.3816ZM29.0647 66.3544V66.6714H28.7478V66.3544H29.0647ZM28.7478 66.3544V66.6714H28.4308V66.3544H28.7478ZM28.4308 66.3544V66.6714H28.1139V66.3544H28.4308ZM28.1139 66.3544V66.6714H27.797V66.3544H28.1139ZM28.1139 66.0375V66.3544H27.797V66.0375H28.1139ZM27.797 66.0375V66.3544H27.4801V66.0375H27.797ZM27.797 65.7206V66.0375H27.4801V65.7206H27.797ZM28.1139 65.7206V66.0375H27.797V65.7206H28.1139ZM28.4308 65.7206V66.0375H28.1139V65.7206H28.4308ZM28.7478 65.7206V66.0375H28.4308V65.7206H28.7478ZM29.0647 65.7206V66.0375H28.7478V65.7206H29.0647ZM29.3816 65.7206V66.0375H29.0647V65.7206H29.3816ZM31.2832 65.7206V66.0375H30.9662V65.7206H31.2832ZM30.9662 65.7206V66.0375H30.6493V65.7206H30.9662ZM30.6493 65.7206V66.0375H30.3324V65.7206H30.6493ZM30.3324 65.7206V66.0375H30.0155V65.7206H30.3324ZM30.0155 65.7206V66.0375H29.6985V65.7206H30.0155ZM29.6985 65.7206V66.0375H29.3816V65.7206H29.6985ZM28.7478 66.0375V66.3544H28.4308V66.0375H28.7478ZM28.4308 66.0375V66.3544H28.1139V66.0375H28.4308ZM29.0647 66.0375V66.3544H28.7478V66.0375H29.0647ZM29.3816 66.0375V66.3544H29.0647V66.0375H29.3816ZM29.6985 66.0375V66.3544H29.3816V66.0375H29.6985ZM30.0155 66.0375V66.3544H29.6985V66.0375H30.0155ZM30.3324 66.0375V66.3544H30.0155V66.0375H30.3324ZM30.6493 66.0375V66.3544H30.3324V66.0375H30.6493ZM30.9662 66.0375V66.3544H30.6493V66.0375H30.9662ZM31.2832 66.0375V66.3544H30.9662V66.0375H31.2832ZM27.4801 64.7698V65.0867H27.1631V64.7698H27.4801ZM27.4801 65.0867V65.4037H27.1631V65.0867H27.4801ZM27.4801 65.4037V65.7206H27.1631V65.4037H27.4801ZM27.797 64.7698V65.0867H27.4801V64.7698H27.797ZM27.797 64.4529V64.7698H27.4801V64.4529H27.797ZM28.1139 64.4529V64.7698H27.797V64.4529H28.1139ZM28.1139 64.136V64.4529H27.797V64.136H28.1139ZM28.4308 64.136V64.4529H28.1139V64.136H28.4308ZM28.7478 63.819V64.136H28.4308V63.819H28.7478ZM28.4308 63.819V64.136H28.1139V63.819H28.4308ZM28.7478 63.5021V63.819H28.4308V63.5021H28.7478ZM29.0647 63.5021V63.819H28.7478V63.5021H29.0647ZM29.3816 63.5021V63.819H29.0647V63.5021H29.3816ZM29.3816 63.1852V63.5021H29.0647V63.1852H29.3816ZM29.0647 63.1852V63.5021H28.7478V63.1852H29.0647ZM29.6985 63.1852V63.5021H29.3816V63.1852H29.6985ZM29.6985 62.8683V63.1852H29.3816V62.8683H29.6985ZM29.3816 62.8683V63.1852H29.0647V62.8683H29.3816ZM29.6985 62.5513V62.8683H29.3816V62.5513H29.6985ZM30.0155 62.5513V62.8683H29.6985V62.5513H30.0155ZM30.0155 62.2344V62.5513H29.6985V62.2344H30.0155ZM30.3324 62.2344V62.5513H30.0155V62.2344H30.3324ZM30.6493 62.2344V62.5513H30.3324V62.2344H30.6493ZM30.6493 61.9175V62.2344H30.3324V61.9175H30.6493ZM30.3324 61.9175V62.2344H30.0155V61.9175H30.3324ZM30.6493 61.6006V61.9175H30.3324V61.6006H30.6493ZM30.9662 61.6006V61.9175H30.6493V61.6006H30.9662ZM31.917 61.9175V62.2344H31.6001V61.9175H31.917ZM31.6001 61.9175V62.2344H31.2832V61.9175H31.6001ZM31.2832 61.9175V62.2344H30.9662V61.9175H31.2832ZM31.2832 62.2344V62.5513H30.9662V62.2344H31.2832ZM31.6001 62.2344V62.5513H31.2832V62.2344H31.6001ZM31.2832 62.5513V62.8683H30.9662V62.5513H31.2832ZM30.9662 62.5513V62.8683H30.6493V62.5513H30.9662ZM30.9662 62.8683V63.1852H30.6493V62.8683H30.9662ZM30.6493 62.8683V63.1852H30.3324V62.8683H30.6493ZM30.6493 63.1852V63.5021H30.3324V63.1852H30.6493ZM30.3324 63.1852V63.5021H30.0155V63.1852H30.3324ZM30.3324 63.5021V63.819H30.0155V63.5021H30.3324ZM30.0155 63.5021V63.819H29.6985V63.5021H30.0155ZM29.6985 63.5021V63.819H29.3816V63.5021H29.6985ZM29.6985 63.819V64.136H29.3816V63.819H29.6985ZM30.0155 63.819V64.136H29.6985V63.819H30.0155ZM29.6985 64.136V64.4529H29.3816V64.136H29.6985ZM29.3816 64.136V64.4529H29.0647V64.136H29.3816ZM29.3816 64.4529V64.7698H29.0647V64.4529H29.3816ZM29.0647 64.4529V64.7698H28.7478V64.4529H29.0647ZM28.7478 64.4529V64.7698H28.4308V64.4529H28.7478ZM28.7478 64.7698V65.0867H28.4308V64.7698H28.7478ZM28.7478 65.0867V65.4037H28.4308V65.0867H28.7478ZM29.0647 64.7698V65.0867H28.7478V64.7698H29.0647ZM28.4308 65.0867V65.4037H28.1139V65.0867H28.4308ZM28.1139 65.0867V65.4037H27.797V65.0867H28.1139ZM27.797 65.0867V65.4037H27.4801V65.0867H27.797ZM28.1139 64.7698V65.0867H27.797V64.7698H28.1139ZM28.4308 64.7698V65.0867H28.1139V64.7698H28.4308ZM28.4308 64.4529V64.7698H28.1139V64.4529H28.4308ZM28.7478 64.136V64.4529H28.4308V64.136H28.7478ZM29.0647 64.136V64.4529H28.7478V64.136H29.0647ZM29.0647 63.819V64.136H28.7478V63.819H29.0647ZM29.3816 63.819V64.136H29.0647V63.819H29.3816ZM30.0155 62.8683V63.1852H29.6985V62.8683H30.0155ZM30.3324 62.8683V63.1852H30.0155V62.8683H30.3324ZM30.3324 62.5513V62.8683H30.0155V62.5513H30.3324ZM30.6493 62.5513V62.8683H30.3324V62.5513H30.6493ZM30.9662 62.2344V62.5513H30.6493V62.2344H30.9662ZM30.0155 63.1852V63.5021H29.6985V63.1852H30.0155ZM30.9662 61.9175V62.2344H30.6493V61.9175H30.9662ZM33.8247 65.4037V65.7206H33.5078V65.4037H33.8247ZM33.8247 65.0867V65.4037H33.5078V65.0867H33.8247ZM33.8247 64.7698V65.0867H33.5078V64.7698H33.8247ZM33.8247 64.4529V64.7698H33.5078V64.4529H33.8247ZM33.8247 64.136V64.4529H33.5078V64.136H33.8247ZM33.8247 63.819V64.136H33.5078V63.819H33.8247ZM33.8247 63.5021V63.819H33.5078V63.5021H33.8247ZM33.8247 63.1852V63.5021H33.5078V63.1852H33.8247ZM33.8247 62.8683V63.1852H33.5078V62.8683H33.8247ZM33.8247 62.5513V62.8683H33.5078V62.5513H33.8247ZM33.8247 62.2344V62.5513H33.5078V62.2344H33.8247ZM34.1417 62.2344V62.5513H33.8247V62.2344H34.1417ZM34.1417 62.5513V62.8683H33.8247V62.5513H34.1417ZM34.1417 62.8683V63.1852H33.8247V62.8683H34.1417ZM34.1417 63.1852V63.5021H33.8247V63.1852H34.1417ZM34.1417 63.5021V63.819H33.8247V63.5021H34.1417ZM34.1417 63.819V64.136H33.8247V63.819H34.1417ZM34.1417 64.136V64.4529H33.8247V64.136H34.1417ZM34.4586 64.4529V64.7698H34.1417V64.4529H34.4586ZM34.4586 64.7698V65.0867H34.1417V64.7698H34.4586ZM34.4586 65.0867V65.4037H34.1417V65.0867H34.4586ZM34.4586 65.4037V65.7206H34.1417V65.4037H34.4586ZM34.4586 65.7206V66.0375H34.1417V65.7206H34.4586ZM34.4586 66.0375V66.3544H34.1417V66.0375H34.4586ZM34.4586 66.3544V66.6714H34.1417V66.3544H34.4586ZM35.0924 66.6714V66.9883H34.7755V66.6714H35.0924ZM35.0924 66.3544V66.6714H34.7755V66.3544H35.0924ZM35.0924 66.0375V66.3544H34.7755V66.0375H35.0924ZM35.0924 65.7206V66.0375H34.7755V65.7206H35.0924ZM35.0924 65.4037V65.7206H34.7755V65.4037H35.0924ZM35.0924 65.0867V65.4037H34.7755V65.0867H35.0924ZM35.0924 64.7698V65.0867H34.7755V64.7698H35.0924ZM35.0924 64.4529V64.7698H34.7755V64.4529H35.0924ZM34.7755 64.4529V64.7698H34.4586V64.4529H34.7755ZM34.7755 64.136V64.4529H34.4586V64.136H34.7755ZM34.7755 64.7698V65.0867H34.4586V64.7698H34.7755ZM34.7755 65.0867V65.4037H34.4586V65.0867H34.7755ZM34.7755 65.4037V65.7206H34.4586V65.4037H34.7755ZM34.7755 65.7206V66.0375H34.4586V65.7206H34.7755ZM34.7755 66.0375V66.3544H34.4586V66.0375H34.7755ZM34.7755 66.3544V66.6714H34.4586V66.3544H34.7755ZM34.1417 66.0375V66.3544H33.8247V66.0375H34.1417ZM34.1417 65.7206V66.0375H33.8247V65.7206H34.1417ZM34.1417 65.4037V65.7206H33.8247V65.4037H34.1417ZM34.1417 65.0867V65.4037H33.8247V65.0867H34.1417ZM34.1417 64.7698V65.0867H33.8247V64.7698H34.1417ZM34.1417 64.4529V64.7698H33.8247V64.4529H34.1417ZM33.8247 61.9175V62.2344H33.5078V61.9175H33.8247ZM34.7755 61.9175V62.2344H34.4586V61.9175H34.7755ZM34.7755 62.2344V62.5513H34.4586V62.2344H34.7755ZM34.7755 62.5513V62.8683H34.4586V62.5513H34.7755ZM34.7755 62.8683V63.1852H34.4586V62.8683H34.7755ZM34.7755 63.1852V63.5021H34.4586V63.1852H34.7755ZM35.0924 63.5021V63.819H34.7755V63.5021H35.0924ZM35.0924 63.819V64.136H34.7755V63.819H35.0924ZM35.0924 64.136V64.4529H34.7755V64.136H35.0924ZM35.0924 63.1852V63.5021H34.7755V63.1852H35.0924ZM35.0924 62.8683V63.1852H34.7755V62.8683H35.0924ZM35.0924 62.5513V62.8683H34.7755V62.5513H35.0924ZM35.0924 62.2344V62.5513H34.7755V62.2344H35.0924ZM35.0924 61.9175V62.2344H34.7755V61.9175H35.0924ZM34.1417 61.9175V62.2344H33.8247V61.9175H34.1417ZM34.4586 61.9175V62.2344H34.1417V61.9175H34.4586ZM34.4586 62.2344V62.5513H34.1417V62.2344H34.4586ZM34.4586 62.5513V62.8683H34.1417V62.5513H34.4586ZM34.4586 62.8683V63.1852H34.1417V62.8683H34.4586ZM34.4586 63.1852V63.5021H34.1417V63.1852H34.4586ZM34.4586 63.5021V63.819H34.1417V63.5021H34.4586ZM34.4586 63.819V64.136H34.1417V63.819H34.4586ZM34.4586 64.136V64.4529H34.1417V64.136H34.4586ZM34.7755 63.819V64.136H34.4586V63.819H34.7755ZM34.7755 63.5021V63.819H34.4586V63.5021H34.7755ZM36.994 66.6714V66.9883H36.677V66.6714H36.994ZM36.994 66.3544V66.6714H36.677V66.3544H36.994ZM36.994 66.0375V66.3544H36.677V66.0375H36.994ZM36.994 65.7206V66.0375H36.677V65.7206H36.994ZM36.994 65.4037V65.7206H36.677V65.4037H36.994ZM36.994 65.0867V65.4037H36.677V65.0867H36.994ZM36.994 64.7698V65.0867H36.677V64.7698H36.994ZM36.994 64.4529V64.7698H36.677V64.4529H36.994ZM36.994 64.136V64.4529H36.677V64.136H36.994ZM36.994 63.819V64.136H36.677V63.819H36.994ZM36.994 63.5021V63.819H36.677V63.5021H36.994ZM36.994 63.1852V63.5021H36.677V63.1852H36.994ZM36.994 62.8683V63.1852H36.677V62.8683H36.994ZM36.994 62.5513V62.8683H36.677V62.5513H36.994ZM36.994 62.2344V62.5513H36.677V62.2344H36.994ZM37.3109 62.2344V62.5513H36.994V62.2344H37.3109ZM37.3109 62.5513V62.8683H36.994V62.5513H37.3109ZM37.3109 62.8683V63.1852H36.994V62.8683H37.3109ZM37.3109 63.1852V63.5021H36.994V63.1852H37.3109ZM37.3109 63.5021V63.819H36.994V63.5021H37.3109ZM37.3109 63.819V64.136H36.994V63.819H37.3109ZM37.3109 64.136V64.4529H36.994V64.136H37.3109ZM37.6278 64.4529V64.7698H37.3109V64.4529H37.6278ZM37.6278 64.7698V65.0867H37.3109V64.7698H37.6278ZM37.6278 65.0867V65.4037H37.3109V65.0867H37.6278ZM37.6278 65.4037V65.7206H37.3109V65.4037H37.6278ZM37.6278 65.7206V66.0375H37.3109V65.7206H37.6278ZM37.6278 66.0375V66.3544H37.3109V66.0375H37.6278ZM37.6278 66.3544V66.6714H37.3109V66.3544H37.6278ZM38.2617 65.4037V65.7206H37.9447V65.4037H38.2617ZM38.2617 65.0867V65.4037H37.9447V65.0867H38.2617ZM38.2617 64.7698V65.0867H37.9447V64.7698H38.2617ZM38.2617 64.4529V64.7698H37.9447V64.4529H38.2617ZM37.9447 64.4529V64.7698H37.6278V64.4529H37.9447ZM37.9447 64.136V64.4529H37.6278V64.136H37.9447ZM37.9447 64.7698V65.0867H37.6278V64.7698H37.9447ZM37.9447 65.0867V65.4037H37.6278V65.0867H37.9447ZM37.9447 65.4037V65.7206H37.6278V65.4037H37.9447ZM37.9447 65.7206V66.0375H37.6278V65.7206H37.9447ZM37.9447 66.0375V66.3544H37.6278V66.0375H37.9447ZM37.3109 66.3544V66.6714H36.994V66.3544H37.3109ZM37.3109 66.0375V66.3544H36.994V66.0375H37.3109ZM37.3109 65.7206V66.0375H36.994V65.7206H37.3109ZM37.3109 65.4037V65.7206H36.994V65.4037H37.3109ZM37.3109 65.0867V65.4037H36.994V65.0867H37.3109ZM37.3109 64.7698V65.0867H36.994V64.7698H37.3109ZM37.3109 64.4529V64.7698H36.994V64.4529H37.3109ZM36.994 61.9175V62.2344H36.677V61.9175H36.994ZM37.9447 61.9175V62.2344H37.6278V61.9175H37.9447ZM37.9447 62.2344V62.5513H37.6278V62.2344H37.9447ZM37.9447 62.5513V62.8683H37.6278V62.5513H37.9447ZM37.9447 62.8683V63.1852H37.6278V62.8683H37.9447ZM37.9447 63.1852V63.5021H37.6278V63.1852H37.9447ZM38.2617 63.5021V63.819H37.9447V63.5021H38.2617ZM38.2617 63.819V64.136H37.9447V63.819H38.2617ZM38.2617 64.136V64.4529H37.9447V64.136H38.2617ZM38.2617 63.1852V63.5021H37.9447V63.1852H38.2617ZM38.2617 62.8683V63.1852H37.9447V62.8683H38.2617ZM38.2617 62.5513V62.8683H37.9447V62.5513H38.2617ZM38.2617 62.2344V62.5513H37.9447V62.2344H38.2617ZM38.2617 61.9175V62.2344H37.9447V61.9175H38.2617ZM37.3109 61.9175V62.2344H36.994V61.9175H37.3109ZM37.6278 61.9175V62.2344H37.3109V61.9175H37.6278ZM37.6278 62.2344V62.5513H37.3109V62.2344H37.6278ZM37.6278 62.5513V62.8683H37.3109V62.5513H37.6278ZM37.6278 62.8683V63.1852H37.3109V62.8683H37.6278ZM37.6278 63.1852V63.5021H37.3109V63.1852H37.6278ZM37.6278 63.5021V63.819H37.3109V63.5021H37.6278ZM37.6278 63.819V64.136H37.3109V63.819H37.6278ZM37.6278 64.136V64.4529H37.3109V64.136H37.6278ZM37.9447 63.819V64.136H37.6278V63.819H37.9447ZM37.9447 63.5021V63.819H37.6278V63.5021H37.9447ZM35.4094 66.6714V66.9883H35.0924V66.6714H35.4094ZM35.7263 66.6714V66.9883H35.4094V66.6714H35.7263ZM36.0432 66.6714V66.9883H35.7263V66.6714H36.0432ZM36.3601 66.6714V66.9883H36.0432V66.6714H36.3601ZM36.677 66.6714V66.9883H36.3601V66.6714H36.677ZM36.677 66.3544V66.6714H36.3601V66.3544H36.677ZM36.3601 66.3544V66.6714H36.0432V66.3544H36.3601ZM36.0432 66.3544V66.6714H35.7263V66.3544H36.0432ZM35.7263 66.3544V66.6714H35.4094V66.3544H35.7263ZM35.4094 66.3544V66.6714H35.0924V66.3544H35.4094ZM35.4094 66.0375V66.3544H35.0924V66.0375H35.4094ZM35.7263 66.0375V66.3544H35.4094V66.0375H35.7263ZM36.0432 66.0375V66.3544H35.7263V66.0375H36.0432ZM36.3601 66.0375V66.3544H36.0432V66.0375H36.3601ZM36.677 66.0375V66.3544H36.3601V66.0375H36.677ZM36.677 65.7206V66.0375H36.3601V65.7206H36.677ZM36.3601 65.7206V66.0375H36.0432V65.7206H36.3601ZM36.0432 65.7206V66.0375H35.7263V65.7206H36.0432ZM35.7263 65.7206V66.0375H35.4094V65.7206H35.7263ZM35.4094 65.7206V66.0375H35.0924V65.7206H35.4094ZM35.4094 65.4037V65.7206H35.0924V65.4037H35.4094ZM36.677 65.4037V65.7206H36.3601V65.4037H36.677ZM37.9447 60.6498V60.3329H38.2617V60.6498H37.9447ZM37.9447 60.9667V60.6498H38.2617V60.9667H37.9447ZM37.9447 61.2837V60.9667H38.2617V61.2837H37.9447ZM37.3109 61.2837V60.9667H37.6278V61.2837H37.3109ZM37.3109 60.9667V60.6498H37.6278V60.9667H37.3109ZM37.3109 60.6498V60.3329H37.6278V60.6498H37.3109ZM37.3109 60.3329V60.016H37.6278V60.3329H37.3109ZM37.3109 60.016V59.699H37.6278V60.016H37.3109ZM37.3109 59.699V59.3821H37.6278V59.699H37.3109ZM36.677 59.3821V59.0652H36.994V59.3821H36.677ZM36.677 59.699V59.3821H36.994V59.699H36.677ZM36.677 60.016V59.699H36.994V60.016H36.677ZM36.677 60.3329V60.016H36.994V60.3329H36.677ZM36.677 60.6498V60.3329H36.994V60.6498H36.677ZM36.677 60.9667V60.6498H36.994V60.9667H36.677ZM36.677 61.2837V60.9667H36.994V61.2837H36.677ZM36.994 61.2837V60.9667H37.3109V61.2837H36.994ZM36.994 60.9667V60.6498H37.3109V60.9667H36.994ZM36.994 60.6498V60.3329H37.3109V60.6498H36.994ZM36.994 60.3329V60.016H37.3109V60.3329H36.994ZM36.994 60.016V59.699H37.3109V60.016H36.994ZM36.994 59.699V59.3821H37.3109V59.699H36.994ZM37.6278 60.016V59.699H37.9447V60.016H37.6278ZM37.6278 60.3329V60.016H37.9447V60.3329H37.6278ZM37.6278 60.6498V60.3329H37.9447V60.6498H37.6278ZM37.6278 60.9667V60.6498H37.9447V60.9667H37.6278ZM37.6278 61.2837V60.9667H37.9447V61.2837H37.6278ZM34.7755 59.3821V59.0652H35.0924V59.3821H34.7755ZM34.7755 59.699V59.3821H35.0924V59.699H34.7755ZM34.7755 60.016V59.699H35.0924V60.016H34.7755ZM34.7755 60.3329V60.016H35.0924V60.3329H34.7755ZM34.7755 60.6498V60.3329H35.0924V60.6498H34.7755ZM34.7755 60.9667V60.6498H35.0924V60.9667H34.7755ZM34.7755 61.2837V60.9667H35.0924V61.2837H34.7755ZM34.1417 61.2837V60.9667H34.4586V61.2837H34.1417ZM34.1417 60.9667V60.6498H34.4586V60.9667H34.1417ZM34.1417 60.6498V60.3329H34.4586V60.6498H34.1417ZM34.1417 60.3329V60.016H34.4586V60.3329H34.1417ZM34.1417 60.016V59.699H34.4586V60.016H34.1417ZM34.1417 59.699V59.3821H34.4586V59.699H34.1417ZM33.5078 60.6498V60.3329H33.8247V60.6498H33.5078ZM33.5078 60.9667V60.6498H33.8247V60.9667H33.5078ZM33.5078 61.2837V60.9667H33.8247V61.2837H33.5078ZM33.8247 61.2837V60.9667H34.1417V61.2837H33.8247ZM33.8247 60.9667V60.6498H34.1417V60.9667H33.8247ZM33.8247 60.6498V60.3329H34.1417V60.6498H33.8247ZM33.8247 60.3329V60.016H34.1417V60.3329H33.8247ZM33.8247 60.016V59.699H34.1417V60.016H33.8247ZM34.4586 59.699V59.3821H34.7755V59.699H34.4586ZM34.4586 60.016V59.699H34.7755V60.016H34.4586ZM34.4586 60.3329V60.016H34.7755V60.3329H34.4586ZM34.4586 60.6498V60.3329H34.7755V60.6498H34.4586ZM34.4586 60.9667V60.6498H34.7755V60.9667H34.4586ZM34.4586 61.2837V60.9667H34.7755V61.2837H34.4586ZM36.3601 59.3821V59.0652H36.677V59.3821H36.3601ZM36.0432 59.3821V59.0652H36.3601V59.3821H36.0432ZM35.7263 59.3821V59.0652H36.0432V59.3821H35.7263ZM35.0924 59.3821V59.0652H35.4094V59.3821H35.0924ZM35.0924 59.699V59.3821H35.4094V59.699H35.0924ZM35.4094 59.699V59.3821H35.7263V59.699H35.4094ZM35.7263 59.699V59.3821H36.0432V59.699H35.7263ZM36.0432 59.699V59.3821H36.3601V59.699H36.0432ZM36.3601 59.699V59.3821H36.677V59.699H36.3601ZM36.3601 60.016V59.699H36.677V60.016H36.3601ZM36.0432 60.016V59.699H36.3601V60.016H36.0432ZM35.7263 60.016V59.699H36.0432V60.016H35.7263ZM35.4094 60.016V59.699H35.7263V60.016H35.4094ZM35.0924 60.016V59.699H35.4094V60.016H35.0924ZM35.0924 60.3329V60.016H35.4094V60.3329H35.0924ZM35.4094 60.3329V60.016H35.7263V60.3329H35.4094ZM35.7263 60.3329V60.016H36.0432V60.3329H35.7263ZM36.0432 60.3329V60.016H36.3601V60.3329H36.0432ZM36.3601 60.3329V60.016H36.677V60.3329H36.3601ZM36.3601 60.6498V60.3329H36.677V60.6498H36.3601ZM35.0924 60.6498V60.3329H35.4094V60.6498H35.0924ZM33.8247 61.6006V61.9175H33.5078V61.6006H33.8247ZM34.1417 61.6006V61.9175H33.8247V61.6006H34.1417ZM33.8247 61.2837V61.6006H33.5078V61.2837H33.8247ZM34.7755 61.2837V61.6006H34.4586V61.2837H34.7755ZM34.7755 61.6006V61.9175H34.4586V61.6006H34.7755ZM35.0924 61.6006V61.9175H34.7755V61.6006H35.0924ZM35.0924 61.2837V61.6006H34.7755V61.2837H35.0924ZM34.1417 61.2837V61.6006H33.8247V61.2837H34.1417ZM34.4586 61.2837V61.6006H34.1417V61.2837H34.4586ZM34.4586 61.6006V61.9175H34.1417V61.6006H34.4586ZM36.994 61.6006V61.9175H36.677V61.6006H36.994ZM37.3109 61.6006V61.9175H36.994V61.6006H37.3109ZM36.994 61.2837V61.6006H36.677V61.2837H36.994ZM37.9447 61.2837V61.6006H37.6278V61.2837H37.9447ZM37.9447 61.6006V61.9175H37.6278V61.6006H37.9447ZM38.2617 61.6006V61.9175H37.9447V61.6006H38.2617ZM38.2617 61.2837V61.6006H37.9447V61.2837H38.2617ZM37.3109 61.2837V61.6006H36.994V61.2837H37.3109ZM37.6278 61.2837V61.6006H37.3109V61.2837H37.6278ZM37.6278 61.6006V61.9175H37.3109V61.6006H37.6278ZM35.7263 65.4037V65.7206H35.4094V65.4037H35.7263ZM36.0432 65.4037V65.7206H35.7263V65.4037H36.0432ZM36.3601 65.4037V65.7206H36.0432V65.4037H36.3601ZM36.677 65.0867V65.4037H36.3601V65.0867H36.677ZM35.4094 65.0867V65.4037H35.0924V65.0867H35.4094ZM35.7263 60.3329V60.6498H35.4094V60.3329H35.7263ZM36.0432 60.3329V60.6498H35.7263V60.3329H36.0432ZM36.3601 60.3329V60.6498H36.0432V60.3329H36.3601ZM36.677 60.6498V60.9667H36.3601V60.6498H36.677ZM35.4094 60.6498V60.9667H35.0924V60.6498H35.4094ZM35.7263 59.0652V59.3821H35.4094V59.0652H35.7263ZM39.8522 65.4037V65.7206H39.5352V65.4037H39.8522ZM39.8522 65.0867V65.4037H39.5352V65.0867H39.8522ZM39.8522 64.7698V65.0867H39.5352V64.7698H39.8522ZM39.8522 64.4529V64.7698H39.5352V64.4529H39.8522ZM39.8522 64.136V64.4529H39.5352V64.136H39.8522ZM39.8522 63.819V64.136H39.5352V63.819H39.8522ZM39.8522 63.5021V63.819H39.5352V63.5021H39.8522ZM39.8522 63.1852V63.5021H39.5352V63.1852H39.8522ZM39.8522 62.8683V63.1852H39.5352V62.8683H39.8522ZM39.8522 62.5513V62.8683H39.5352V62.5513H39.8522ZM39.8522 62.2344V62.5513H39.5352V62.2344H39.8522ZM40.1691 62.2344V62.5513H39.8522V62.2344H40.1691ZM40.1691 62.5513V62.8683H39.8522V62.5513H40.1691ZM40.1691 62.8683V63.1852H39.8522V62.8683H40.1691ZM40.1691 63.1852V63.5021H39.8522V63.1852H40.1691ZM40.1691 63.5021V63.819H39.8522V63.5021H40.1691ZM40.1691 63.819V64.136H39.8522V63.819H40.1691ZM40.1691 64.136V64.4529H39.8522V64.136H40.1691ZM40.486 64.4529V64.7698H40.1691V64.4529H40.486ZM40.486 64.7698V65.0867H40.1691V64.7698H40.486ZM40.486 65.0867V65.4037H40.1691V65.0867H40.486ZM40.486 65.4037V65.7206H40.1691V65.4037H40.486ZM40.486 65.7206V66.0375H40.1691V65.7206H40.486ZM40.486 66.0375V66.3544H40.1691V66.0375H40.486ZM40.486 66.3544V66.6714H40.1691V66.3544H40.486ZM41.1199 66.6714V66.9883H40.8029V66.6714H41.1199ZM41.1199 66.3544V66.6714H40.8029V66.3544H41.1199ZM41.1199 66.0375V66.3544H40.8029V66.0375H41.1199ZM41.1199 65.7206V66.0375H40.8029V65.7206H41.1199ZM41.1199 65.4037V65.7206H40.8029V65.4037H41.1199ZM41.1199 65.0867V65.4037H40.8029V65.0867H41.1199ZM41.1199 64.7698V65.0867H40.8029V64.7698H41.1199ZM41.1199 64.4529V64.7698H40.8029V64.4529H41.1199ZM40.8029 64.4529V64.7698H40.486V64.4529H40.8029ZM40.8029 64.136V64.4529H40.486V64.136H40.8029ZM40.8029 64.7698V65.0867H40.486V64.7698H40.8029ZM40.8029 65.0867V65.4037H40.486V65.0867H40.8029ZM40.8029 65.4037V65.7206H40.486V65.4037H40.8029ZM40.8029 65.7206V66.0375H40.486V65.7206H40.8029ZM40.8029 66.0375V66.3544H40.486V66.0375H40.8029ZM40.8029 66.3544V66.6714H40.486V66.3544H40.8029ZM40.1691 66.0375V66.3544H39.8522V66.0375H40.1691ZM40.1691 65.7206V66.0375H39.8522V65.7206H40.1691ZM40.1691 65.4037V65.7206H39.8522V65.4037H40.1691ZM40.1691 65.0867V65.4037H39.8522V65.0867H40.1691ZM40.1691 64.7698V65.0867H39.8522V64.7698H40.1691ZM40.1691 64.4529V64.7698H39.8522V64.4529H40.1691ZM39.8522 61.9175V62.2344H39.5352V61.9175H39.8522ZM40.8029 61.9175V62.2344H40.486V61.9175H40.8029ZM40.8029 62.2344V62.5513H40.486V62.2344H40.8029ZM40.8029 62.5513V62.8683H40.486V62.5513H40.8029ZM40.8029 62.8683V63.1852H40.486V62.8683H40.8029ZM40.8029 63.1852V63.5021H40.486V63.1852H40.8029ZM41.1199 63.5021V63.819H40.8029V63.5021H41.1199ZM41.1199 63.819V64.136H40.8029V63.819H41.1199ZM41.1199 64.136V64.4529H40.8029V64.136H41.1199ZM41.1199 63.1852V63.5021H40.8029V63.1852H41.1199ZM41.1199 62.8683V63.1852H40.8029V62.8683H41.1199ZM41.1199 62.5513V62.8683H40.8029V62.5513H41.1199ZM41.1199 62.2344V62.5513H40.8029V62.2344H41.1199ZM41.1199 61.9175V62.2344H40.8029V61.9175H41.1199ZM40.1691 61.9175V62.2344H39.8522V61.9175H40.1691ZM40.486 61.9175V62.2344H40.1691V61.9175H40.486ZM40.486 62.2344V62.5513H40.1691V62.2344H40.486ZM40.486 62.5513V62.8683H40.1691V62.5513H40.486ZM40.486 62.8683V63.1852H40.1691V62.8683H40.486ZM40.486 63.1852V63.5021H40.1691V63.1852H40.486ZM40.486 63.5021V63.819H40.1691V63.5021H40.486ZM40.486 63.819V64.136H40.1691V63.819H40.486ZM40.486 64.136V64.4529H40.1691V64.136H40.486ZM40.8029 63.819V64.136H40.486V63.819H40.8029ZM40.8029 63.5021V63.819H40.486V63.5021H40.8029ZM43.0214 66.6714V66.9883H42.7045V66.6714H43.0214ZM43.0214 66.3544V66.6714H42.7045V66.3544H43.0214ZM43.0214 66.0375V66.3544H42.7045V66.0375H43.0214ZM43.0214 65.7206V66.0375H42.7045V65.7206H43.0214ZM43.0214 65.4037V65.7206H42.7045V65.4037H43.0214ZM43.0214 65.0867V65.4037H42.7045V65.0867H43.0214ZM43.0214 64.7698V65.0867H42.7045V64.7698H43.0214ZM43.0214 64.4529V64.7698H42.7045V64.4529H43.0214ZM43.0214 64.136V64.4529H42.7045V64.136H43.0214ZM43.0214 63.819V64.136H42.7045V63.819H43.0214ZM43.0214 63.5021V63.819H42.7045V63.5021H43.0214ZM43.0214 63.1852V63.5021H42.7045V63.1852H43.0214ZM43.0214 62.8683V63.1852H42.7045V62.8683H43.0214ZM43.0214 62.5513V62.8683H42.7045V62.5513H43.0214ZM43.0214 62.2344V62.5513H42.7045V62.2344H43.0214ZM43.3383 62.2344V62.5513H43.0214V62.2344H43.3383ZM43.3383 62.5513V62.8683H43.0214V62.5513H43.3383ZM43.3383 62.8683V63.1852H43.0214V62.8683H43.3383ZM43.3383 63.1852V63.5021H43.0214V63.1852H43.3383ZM43.3383 63.5021V63.819H43.0214V63.5021H43.3383ZM43.3383 63.819V64.136H43.0214V63.819H43.3383ZM43.3383 64.136V64.4529H43.0214V64.136H43.3383ZM43.6553 64.4529V64.7698H43.3383V64.4529H43.6553ZM43.6553 64.7698V65.0867H43.3383V64.7698H43.6553ZM43.6553 65.0867V65.4037H43.3383V65.0867H43.6553ZM43.6553 65.4037V65.7206H43.3383V65.4037H43.6553ZM43.6553 65.7206V66.0375H43.3383V65.7206H43.6553ZM43.6553 66.0375V66.3544H43.3383V66.0375H43.6553ZM43.6553 66.3544V66.6714H43.3383V66.3544H43.6553ZM44.2891 65.4037V65.7206H43.9722V65.4037H44.2891ZM44.2891 65.0867V65.4037H43.9722V65.0867H44.2891ZM44.2891 64.7698V65.0867H43.9722V64.7698H44.2891ZM44.2891 64.4529V64.7698H43.9722V64.4529H44.2891ZM43.9722 64.4529V64.7698H43.6553V64.4529H43.9722ZM43.9722 64.136V64.4529H43.6553V64.136H43.9722ZM43.9722 64.7698V65.0867H43.6553V64.7698H43.9722ZM43.9722 65.0867V65.4037H43.6553V65.0867H43.9722ZM43.9722 65.4037V65.7206H43.6553V65.4037H43.9722ZM43.9722 65.7206V66.0375H43.6553V65.7206H43.9722ZM43.9722 66.0375V66.3544H43.6553V66.0375H43.9722ZM43.3383 66.3544V66.6714H43.0214V66.3544H43.3383ZM43.3383 66.0375V66.3544H43.0214V66.0375H43.3383ZM43.3383 65.7206V66.0375H43.0214V65.7206H43.3383ZM43.3383 65.4037V65.7206H43.0214V65.4037H43.3383ZM43.3383 65.0867V65.4037H43.0214V65.0867H43.3383ZM43.3383 64.7698V65.0867H43.0214V64.7698H43.3383ZM43.3383 64.4529V64.7698H43.0214V64.4529H43.3383ZM43.0214 61.9175V62.2344H42.7045V61.9175H43.0214ZM43.9722 61.9175V62.2344H43.6553V61.9175H43.9722ZM43.9722 62.2344V62.5513H43.6553V62.2344H43.9722ZM43.9722 62.5513V62.8683H43.6553V62.5513H43.9722ZM43.9722 62.8683V63.1852H43.6553V62.8683H43.9722ZM43.9722 63.1852V63.5021H43.6553V63.1852H43.9722ZM44.2891 63.5021V63.819H43.9722V63.5021H44.2891ZM44.2891 63.819V64.136H43.9722V63.819H44.2891ZM44.2891 64.136V64.4529H43.9722V64.136H44.2891ZM44.2891 63.1852V63.5021H43.9722V63.1852H44.2891ZM44.2891 62.8683V63.1852H43.9722V62.8683H44.2891ZM44.2891 62.5513V62.8683H43.9722V62.5513H44.2891ZM44.2891 62.2344V62.5513H43.9722V62.2344H44.2891ZM44.2891 61.9175V62.2344H43.9722V61.9175H44.2891ZM43.3383 61.9175V62.2344H43.0214V61.9175H43.3383ZM43.6553 61.9175V62.2344H43.3383V61.9175H43.6553ZM43.6553 62.2344V62.5513H43.3383V62.2344H43.6553ZM43.6553 62.5513V62.8683H43.3383V62.5513H43.6553ZM43.6553 62.8683V63.1852H43.3383V62.8683H43.6553ZM43.6553 63.1852V63.5021H43.3383V63.1852H43.6553ZM43.6553 63.5021V63.819H43.3383V63.5021H43.6553ZM43.6553 63.819V64.136H43.3383V63.819H43.6553ZM43.6553 64.136V64.4529H43.3383V64.136H43.6553ZM43.9722 63.819V64.136H43.6553V63.819H43.9722ZM43.9722 63.5021V63.819H43.6553V63.5021H43.9722ZM41.4368 66.6714V66.9883H41.1199V66.6714H41.4368ZM41.7537 66.6714V66.9883H41.4368V66.6714H41.7537ZM42.0706 66.6714V66.9883H41.7537V66.6714H42.0706ZM42.3876 66.6714V66.9883H42.0706V66.6714H42.3876ZM42.7045 66.6714V66.9883H42.3876V66.6714H42.7045ZM42.7045 66.3544V66.6714H42.3876V66.3544H42.7045ZM42.3876 66.3544V66.6714H42.0706V66.3544H42.3876ZM42.0706 66.3544V66.6714H41.7537V66.3544H42.0706ZM41.7537 66.3544V66.6714H41.4368V66.3544H41.7537ZM41.4368 66.3544V66.6714H41.1199V66.3544H41.4368ZM41.4368 66.0375V66.3544H41.1199V66.0375H41.4368ZM41.7537 66.0375V66.3544H41.4368V66.0375H41.7537ZM42.0706 66.0375V66.3544H41.7537V66.0375H42.0706ZM42.3876 66.0375V66.3544H42.0706V66.0375H42.3876ZM42.7045 66.0375V66.3544H42.3876V66.0375H42.7045ZM42.7045 65.7206V66.0375H42.3876V65.7206H42.7045ZM42.3876 65.7206V66.0375H42.0706V65.7206H42.3876ZM42.0706 65.7206V66.0375H41.7537V65.7206H42.0706ZM41.7537 65.7206V66.0375H41.4368V65.7206H41.7537ZM41.4368 65.7206V66.0375H41.1199V65.7206H41.4368ZM41.4368 65.4037V65.7206H41.1199V65.4037H41.4368ZM42.7045 65.4037V65.7206H42.3876V65.4037H42.7045ZM43.9722 60.6498V60.3329H44.2891V60.6498H43.9722ZM43.9722 60.9667V60.6498H44.2891V60.9667H43.9722ZM43.9722 61.2837V60.9667H44.2891V61.2837H43.9722ZM43.3383 61.2837V60.9667H43.6553V61.2837H43.3383ZM43.3383 60.9667V60.6498H43.6553V60.9667H43.3383ZM43.3383 60.6498V60.3329H43.6553V60.6498H43.3383ZM43.3383 60.3329V60.016H43.6553V60.3329H43.3383ZM43.3383 60.016V59.699H43.6553V60.016H43.3383ZM43.3383 59.699V59.3821H43.6553V59.699H43.3383ZM42.7045 59.3821V59.0652H43.0214V59.3821H42.7045ZM42.7045 59.699V59.3821H43.0214V59.699H42.7045ZM42.7045 60.016V59.699H43.0214V60.016H42.7045ZM42.7045 60.3329V60.016H43.0214V60.3329H42.7045ZM42.7045 60.6498V60.3329H43.0214V60.6498H42.7045ZM42.7045 60.9667V60.6498H43.0214V60.9667H42.7045ZM42.7045 61.2837V60.9667H43.0214V61.2837H42.7045ZM43.0214 61.2837V60.9667H43.3383V61.2837H43.0214ZM43.0214 60.9667V60.6498H43.3383V60.9667H43.0214ZM43.0214 60.6498V60.3329H43.3383V60.6498H43.0214ZM43.0214 60.3329V60.016H43.3383V60.3329H43.0214ZM43.0214 60.016V59.699H43.3383V60.016H43.0214ZM43.0214 59.699V59.3821H43.3383V59.699H43.0214ZM43.6553 60.016V59.699H43.9722V60.016H43.6553ZM43.6553 60.3329V60.016H43.9722V60.3329H43.6553ZM43.6553 60.6498V60.3329H43.9722V60.6498H43.6553ZM43.6553 60.9667V60.6498H43.9722V60.9667H43.6553ZM43.6553 61.2837V60.9667H43.9722V61.2837H43.6553ZM40.8029 59.3821V59.0652H41.1199V59.3821H40.8029ZM40.8029 59.699V59.3821H41.1199V59.699H40.8029ZM40.8029 60.016V59.699H41.1199V60.016H40.8029ZM40.8029 60.3329V60.016H41.1199V60.3329H40.8029ZM40.8029 60.6498V60.3329H41.1199V60.6498H40.8029ZM40.8029 60.9667V60.6498H41.1199V60.9667H40.8029ZM40.8029 61.2837V60.9667H41.1199V61.2837H40.8029ZM40.1691 61.2837V60.9667H40.486V61.2837H40.1691ZM40.1691 60.9667V60.6498H40.486V60.9667H40.1691ZM40.1691 60.6498V60.3329H40.486V60.6498H40.1691ZM40.1691 60.3329V60.016H40.486V60.3329H40.1691ZM40.1691 60.016V59.699H40.486V60.016H40.1691ZM40.1691 59.699V59.3821H40.486V59.699H40.1691ZM39.5352 60.6498V60.3329H39.8522V60.6498H39.5352ZM39.5352 60.9667V60.6498H39.8522V60.9667H39.5352ZM39.5352 61.2837V60.9667H39.8522V61.2837H39.5352ZM39.8522 61.2837V60.9667H40.1691V61.2837H39.8522ZM39.8522 60.9667V60.6498H40.1691V60.9667H39.8522ZM39.8522 60.6498V60.3329H40.1691V60.6498H39.8522ZM39.8522 60.3329V60.016H40.1691V60.3329H39.8522ZM39.8522 60.016V59.699H40.1691V60.016H39.8522ZM40.486 59.699V59.3821H40.8029V59.699H40.486ZM40.486 60.016V59.699H40.8029V60.016H40.486ZM40.486 60.3329V60.016H40.8029V60.3329H40.486ZM40.486 60.6498V60.3329H40.8029V60.6498H40.486ZM40.486 60.9667V60.6498H40.8029V60.9667H40.486ZM40.486 61.2837V60.9667H40.8029V61.2837H40.486ZM42.3876 59.3821V59.0652H42.7045V59.3821H42.3876ZM42.0706 59.3821V59.0652H42.3876V59.3821H42.0706ZM41.7537 59.3821V59.0652H42.0706V59.3821H41.7537ZM41.1199 59.3821V59.0652H41.4368V59.3821H41.1199ZM41.1199 59.699V59.3821H41.4368V59.699H41.1199ZM41.4368 59.699V59.3821H41.7537V59.699H41.4368ZM41.7537 59.699V59.3821H42.0706V59.699H41.7537ZM42.0706 59.699V59.3821H42.3876V59.699H42.0706ZM42.3876 59.699V59.3821H42.7045V59.699H42.3876ZM42.3876 60.016V59.699H42.7045V60.016H42.3876ZM42.0706 60.016V59.699H42.3876V60.016H42.0706ZM41.7537 60.016V59.699H42.0706V60.016H41.7537ZM41.4368 60.016V59.699H41.7537V60.016H41.4368ZM41.1199 60.016V59.699H41.4368V60.016H41.1199ZM41.1199 60.3329V60.016H41.4368V60.3329H41.1199ZM41.4368 60.3329V60.016H41.7537V60.3329H41.4368ZM41.7537 60.3329V60.016H42.0706V60.3329H41.7537ZM42.0706 60.3329V60.016H42.3876V60.3329H42.0706ZM42.3876 60.3329V60.016H42.7045V60.3329H42.3876ZM42.3876 60.6498V60.3329H42.7045V60.6498H42.3876ZM41.1199 60.6498V60.3329H41.4368V60.6498H41.1199ZM39.8522 61.6006V61.9175H39.5352V61.6006H39.8522ZM40.1691 61.6006V61.9175H39.8522V61.6006H40.1691ZM39.8522 61.2837V61.6006H39.5352V61.2837H39.8522ZM40.8029 61.2837V61.6006H40.486V61.2837H40.8029ZM40.8029 61.6006V61.9175H40.486V61.6006H40.8029ZM41.1199 61.6006V61.9175H40.8029V61.6006H41.1199ZM41.1199 61.2837V61.6006H40.8029V61.2837H41.1199ZM40.1691 61.2837V61.6006H39.8522V61.2837H40.1691ZM40.486 61.2837V61.6006H40.1691V61.2837H40.486ZM40.486 61.6006V61.9175H40.1691V61.6006H40.486ZM43.0214 61.6006V61.9175H42.7045V61.6006H43.0214ZM43.3383 61.6006V61.9175H43.0214V61.6006H43.3383ZM43.0214 61.2837V61.6006H42.7045V61.2837H43.0214ZM43.9722 61.2837V61.6006H43.6553V61.2837H43.9722ZM43.9722 61.6006V61.9175H43.6553V61.6006H43.9722ZM44.2891 61.6006V61.9175H43.9722V61.6006H44.2891ZM44.2891 61.2837V61.6006H43.9722V61.2837H44.2891ZM43.3383 61.2837V61.6006H43.0214V61.2837H43.3383ZM43.6553 61.2837V61.6006H43.3383V61.2837H43.6553ZM43.6553 61.6006V61.9175H43.3383V61.6006H43.6553ZM41.7537 65.4037V65.7206H41.4368V65.4037H41.7537ZM42.0706 65.4037V65.7206H41.7537V65.4037H42.0706ZM42.3876 65.4037V65.7206H42.0706V65.4037H42.3876ZM42.7045 65.0867V65.4037H42.3876V65.0867H42.7045ZM41.4368 65.0867V65.4037H41.1199V65.0867H41.4368ZM41.7537 60.3329V60.6498H41.4368V60.3329H41.7537ZM42.0706 60.3329V60.6498H41.7537V60.3329H42.0706ZM42.3876 60.3329V60.6498H42.0706V60.3329H42.3876ZM42.7045 60.6498V60.9667H42.3876V60.6498H42.7045ZM41.4368 60.6498V60.9667H41.1199V60.6498H41.4368ZM41.7537 59.0652V59.3821H41.4368V59.0652H41.7537Z" fill="#E9365B"/>
<path d="M47.0709 51.4839C47.201 54.7759 42.6709 57.6279 36.9524 57.8541C31.234 58.0802 26.4927 55.5949 26.3626 52.3029C26.2324 49.011 30.9983 52.1196 36.7167 51.8935C42.4351 51.6673 46.9407 48.192 47.0709 51.4839Z" fill="black"/>
<path d="M36.6826 1.94531C47.3508 1.94559 55.999 11.5728 55.999 23.4482C55.999 28.6126 54.3622 33.3507 51.6362 37.0578C51.6335 37.0615 51.636 37.0667 51.6406 37.0669V37.0669C51.645 37.0671 51.6477 37.0717 51.6454 37.0754C50.8726 38.3165 49.1369 41.2527 48.335 43.1367C47.3305 45.4971 47.7798 50.7049 47.1289 52.0156C46.6264 53.0266 45.5212 52.8164 44.5166 52.8018C39.359 52.7268 28.6426 52.5324 27.0352 52.3525C25.4426 52.1744 25.724 45.3992 24.8502 41.8854C24.8336 41.8188 24.8099 41.7561 24.7797 41.6946L23.7197 39.54L23.465 39.1514C23.4318 39.1007 23.394 39.0532 23.3525 39.0091C19.6642 35.0931 17.3653 29.5698 17.3652 23.4482C17.3652 11.5727 26.0142 1.94531 36.6826 1.94531Z" fill="#E9365B"/>
<path d="M44.9249 4.9208C44.4464 5.47166 44.2765 6.25091 44.4524 7.08712C44.6284 7.92334 45.1358 8.74803 45.8632 9.37976C46.5905 10.0115 47.4781 10.3985 48.3307 10.4557C49.1833 10.5129 49.9311 10.2356 50.4095 9.68472L47.6672 7.30276L44.9249 4.9208Z" fill="white"/>
<path d="M54.2853 16.9088C54.8025 16.3941 54.5842 15.1827 53.6784 13.5413C52.7727 11.8998 51.2536 9.96261 49.4555 8.15591C47.6574 6.34922 45.7275 4.82098 44.0904 3.9074C42.4533 2.99382 41.243 2.76973 40.7258 3.28443L45.0682 5.68631L48.8957 9.1514L52.1061 12.874L54.2853 16.9088Z" fill="white"/>
<path d="M31.5241 9.26166L31.8024 10.7605L24.4932 12.4083C24.4932 12.4083 25.8988 10.6825 27.4017 10.027C28.8494 9.39571 31.5241 9.26166 31.5241 9.26166Z" fill="black"/>
<path d="M39.6151 9.37916L39.3874 10.9864L46.8363 12.3491C46.8363 12.3491 45.3534 10.5901 43.8104 9.9735C42.3242 9.37957 39.6151 9.37916 39.6151 9.37916Z" fill="black"/>
<path d="M27.8784 28.0977C27.8784 28.0977 32.859 33.1464 37.0962 32.9243C41.029 32.7181 45.4147 28.0977 45.4147 28.0977" stroke="black" stroke-width="0.112412"/>
<path d="M46.5845 29.1523C46.5845 29.1523 46.0953 28.3863 45.3601 28.076C44.8542 27.8626 43.7281 28.076 43.7281 28.076" stroke="black" stroke-width="0.112412"/>
<path d="M29.4326 28.0078C29.4326 28.0078 28.5477 27.8003 27.8045 28.0911C27.2932 28.2912 26.6355 29.2298 26.6355 29.2298" stroke="black" stroke-width="0.112412"/>
<ellipse cx="40.8928" cy="18.9351" rx="4.99294" ry="4.3233" transform="rotate(88.3583 40.8928 18.9351)" fill="#F27E07"/>
<g filter="url(#filter2_d_476_3264)">
<ellipse cx="41.0499" cy="19.1076" rx="4.46737" ry="3.86821" transform="rotate(88.3583 41.0499 19.1076)" fill="white"/>
</g>
<ellipse cx="40.9277" cy="20.1606" rx="2.71546" ry="2.35127" transform="rotate(88.3583 40.9277 20.1606)" fill="#D27B08"/>
<ellipse cx="1.89667" cy="1.70316" rx="1.89667" ry="1.70316" transform="matrix(0.338426 0.940993 -0.904493 0.426489 41.9043 17.7383)" fill="#381004"/>
<ellipse cx="40.9313" cy="18.5268" rx="0.437978" ry="0.379237" transform="rotate(88.3583 40.9313 18.5268)" fill="white"/>
<ellipse cx="31.4436" cy="18.9351" rx="4.99294" ry="4.3233" transform="rotate(88.3583 31.4436 18.9351)" fill="#F27E07"/>
<g filter="url(#filter3_d_476_3264)">
<ellipse cx="31.6007" cy="19.1076" rx="4.46737" ry="3.86821" transform="rotate(88.3583 31.6007 19.1076)" fill="white"/>
</g>
<ellipse cx="31.4785" cy="20.1606" rx="2.71546" ry="2.35127" transform="rotate(88.3583 31.4785 20.1606)" fill="#D27B08"/>
<ellipse cx="1.89667" cy="1.70316" rx="1.89667" ry="1.70316" transform="matrix(0.338426 0.940993 -0.904493 0.426489 32.4556 17.7383)" fill="#381004"/>
<ellipse cx="31.4821" cy="18.5268" rx="0.437978" ry="0.379237" transform="rotate(88.3583 31.4821 18.5268)" fill="white"/>
<defs>
<filter id="filter0_d_476_3264" x="2.18164" y="34.168" width="20.7488" height="21.4364" filterUnits="userSpaceOnUse" color-interpolation-filters="sRGB">
<feFlood flood-opacity="0" result="BackgroundImageFix"/>
<feColorMatrix in="SourceAlpha" type="matrix" values="0 0 0 0 0 0 0 0 0 0 0 0 0 0 0 0 0 0 127 0" result="hardAlpha"/>
<feOffset dx="0.449649" dy="0.449649"/>
<feGaussianBlur stdDeviation="0.224824"/>
<feComposite in2="hardAlpha" operator="out"/>
<feColorMatrix type="matrix" values="0 0 0 0 0 0 0 0 0 0 0 0 0 0 0 0 0 0 0.25 0"/>
<feBlend mode="normal" in2="BackgroundImageFix" result="effect1_dropShadow_476_3264"/>
<feBlend mode="normal" in="SourceGraphic" in2="effect1_dropShadow_476_3264" result="shape"/>
</filter>
<filter id="filter1_d_476_3264" x="52.5719" y="33.2002" width="18.9877" height="21.0546" filterUnits="userSpaceOnUse" color-interpolation-filters="sRGB">
<feFlood flood-opacity="0" result="BackgroundImageFix"/>
<feColorMatrix in="SourceAlpha" type="matrix" values="0 0 0 0 0 0 0 0 0 0 0 0 0 0 0 0 0 0 127 0" result="hardAlpha"/>
<feOffset dx="0.562061" dy="0.449649"/>
<feGaussianBlur stdDeviation="0.224824"/>
<feComposite in2="hardAlpha" operator="out"/>
<feColorMatrix type="matrix" values="0 0 0 0 0 0 0 0 0 0 0 0 0 0 0 0 0 0 0.25 0"/>
<feBlend mode="normal" in2="BackgroundImageFix" result="effect1_dropShadow_476_3264"/>
<feBlend mode="normal" in="SourceGraphic" in2="effect1_dropShadow_476_3264" result="shape"/>
</filter>
<filter id="filter2_d_476_3264" x="36.4804" y="14.6406" width="9.13908" height="10.3351" filterUnits="userSpaceOnUse" color-interpolation-filters="sRGB">
<feFlood flood-opacity="0" result="BackgroundImageFix"/>
<feColorMatrix in="SourceAlpha" type="matrix" values="0 0 0 0 0 0 0 0 0 0 0 0 0 0 0 0 0 0 127 0" result="hardAlpha"/>
<feOffset dy="0.700764"/>
<feGaussianBlur stdDeviation="0.350382"/>
<feComposite in2="hardAlpha" operator="out"/>
<feColorMatrix type="matrix" values="0 0 0 0 0 0 0 0 0 0 0 0 0 0 0 0 0 0 0.25 0"/>
<feBlend mode="normal" in2="BackgroundImageFix" result="effect1_dropShadow_476_3264"/>
<feBlend mode="normal" in="SourceGraphic" in2="effect1_dropShadow_476_3264" result="shape"/>
</filter>
<filter id="filter3_d_476_3264" x="27.0312" y="14.6406" width="9.13908" height="10.3351" filterUnits="userSpaceOnUse" color-interpolation-filters="sRGB">
<feFlood flood-opacity="0" result="BackgroundImageFix"/>
<feColorMatrix in="SourceAlpha" type="matrix" values="0 0 0 0 0 0 0 0 0 0 0 0 0 0 0 0 0 0 127 0" result="hardAlpha"/>
<feOffset dy="0.700764"/>
<feGaussianBlur stdDeviation="0.350382"/>
<feComposite in2="hardAlpha" operator="out"/>
<feColorMatrix type="matrix" values="0 0 0 0 0 0 0 0 0 0 0 0 0 0 0 0 0 0 0.25 0"/>
<feBlend mode="normal" in2="BackgroundImageFix" result="effect1_dropShadow_476_3264"/>
<feBlend mode="normal" in="SourceGraphic" in2="effect1_dropShadow_476_3264" result="shape"/>
</filter>
</defs>
</svg>
