<svg width="74" height="75" viewBox="0 0 74 75" fill="none" xmlns="http://www.w3.org/2000/svg">
<circle cx="36.9161" cy="37.5507" r="36.3653" transform="rotate(-0.432485 36.9161 37.5507)" fill="#FEF6F6"/>
<g filter="url(#filter0_d_476_3300)">
<path d="M14.6156 43.1608L13.9256 44.667C14.1365 44.2815 14.8065 43.6428 15.0976 43.4619C15.4164 43.2638 16.6517 43.1636 17.2294 43.1382C17.8072 43.1129 19.0371 43.7948 19.9449 44.5037C20.8704 45.2264 21.3574 45.7347 21.8122 46.7465C22.3513 47.9461 22.4581 48.7882 22.0989 50.0715C21.6829 51.5583 20.8628 52.3096 19.5448 53.3599C18.2671 54.3781 17.3369 54.831 15.6886 55.2554C14.2589 55.6235 13.3734 55.6855 11.9162 55.5474C10.4131 55.405 9.57354 55.1346 8.26912 54.5105C6.81262 53.8137 5.06719 52.0961 5.06719 52.0961C5.06719 52.0961 3.07078 52.2862 2.58326 51.5375C2.13669 50.8517 3.03779 49.5036 3.03779 49.5036C3.03779 49.5036 2.46783 47.7362 2.59342 46.5768C2.59342 46.5768 2.91915 45.2454 3.24725 44.4191C3.83305 42.9438 4.32255 42.1432 5.31947 40.8295C6.15067 39.7342 6.66339 39.1238 7.75763 38.2137C8.57466 37.5341 9.02483 37.0989 10.0288 36.6525C10.9101 36.2606 11.4454 35.9695 12.411 35.8229C14.3297 35.5316 15.354 35.0954 17.3143 35.0784C18.4478 35.0686 19.1295 35.5227 19.7889 36.2934C20.2627 36.8472 20.4992 37.6202 20.4791 37.9664C20.4589 38.3125 20.262 39.1222 19.6353 39.5916C19.0087 40.061 18.0951 39.9814 17.7166 39.8829C17.3382 39.7844 18.2321 38.2601 17.4389 38.0537C16.5976 37.8348 16.9173 39.4663 16.0483 39.6684C15.0884 39.8916 14.4481 37.8501 13.9213 38.5878C13.5841 39.0601 14.1296 39.9597 14.1296 39.9597L14.6156 43.1608Z" fill="#00D4CD"/>
</g>
<g filter="url(#filter1_d_476_3300)">
<path d="M59.3931 41.9592L60.1117 43.3982C59.897 43.0329 59.2537 42.4559 58.9806 42.3015C58.6814 42.1323 57.5665 42.1413 57.0464 42.1669C56.5264 42.1925 55.4679 42.9798 54.7002 43.7656C53.9175 44.5666 53.5142 45.1156 53.173 46.1631C52.7684 47.4049 52.7283 48.2527 53.1352 49.4988C53.6067 50.9425 54.3921 51.6183 55.6439 52.548C56.8576 53.4493 57.7221 53.8183 59.2289 54.0957C60.536 54.3363 61.3346 54.3201 62.6329 54.0543C63.9721 53.7801 64.7075 53.437 65.8366 52.7008C67.0974 51.8788 68.5501 50.0149 68.5501 50.0149C68.5501 50.0149 70.3538 50.0284 70.7418 49.2401C71.0972 48.5179 70.1997 47.255 70.1997 47.255C70.1997 47.255 70.5944 45.4451 70.4052 44.3018C70.4052 44.3018 70.025 43.0049 69.6761 42.211C69.0531 40.7937 68.561 40.0398 67.5798 38.8196C66.7618 37.8022 66.2614 37.2396 65.2196 36.4298C64.4416 35.8251 64.009 35.4314 63.0788 35.0753C62.2621 34.7627 61.7626 34.5201 60.8866 34.4592C59.1459 34.338 58.1981 33.9939 56.4382 34.1496C55.4205 34.2397 54.8388 34.7518 54.2982 35.5772C53.9096 36.1703 53.7484 36.9608 53.7893 37.3037C53.8303 37.6465 54.0604 38.4353 54.6537 38.8475C55.2469 39.2597 56.0613 39.1 56.3944 38.9686C56.7274 38.8373 55.8248 37.3983 56.5228 37.1229C57.2632 36.8309 57.0841 38.4834 57.8771 38.6081C58.753 38.7459 59.1928 36.6569 59.7141 37.345C60.0479 37.7855 59.6178 38.7293 59.6178 38.7293L59.3931 41.9592Z" fill="#00D4CD"/>
</g>
<path d="M30.9267 60.2923V60.6092H30.6097V60.2923H30.9267ZM30.9267 60.6092V60.9261H30.6097V60.6092H30.9267ZM30.9267 60.9261V61.243H30.6097V60.9261H30.9267ZM30.9267 61.243V61.56H30.6097V61.243H30.9267ZM30.9267 61.56V61.8769H30.6097V61.56H30.9267ZM30.9267 61.8769V62.1938H30.6097V61.8769H30.9267ZM30.6097 61.8769V62.1938H30.2928V61.8769H30.6097ZM30.6097 61.56V61.8769H30.2928V61.56H30.6097ZM30.6097 61.243V61.56H30.2928V61.243H30.6097ZM30.6097 60.9261V61.243H30.2928V60.9261H30.6097ZM30.6097 60.6092V60.9261H30.2928V60.6092H30.6097ZM30.6097 60.2923V60.6092H30.2928V60.2923H30.6097ZM30.2928 60.9261V61.243H29.9759V60.9261H30.2928ZM30.2928 61.243V61.56H29.9759V61.243H30.2928ZM30.2928 60.6092V60.9261H29.9759V60.6092H30.2928ZM29.9759 60.9261V61.243H29.659V60.9261H29.9759ZM29.9759 61.243V61.56H29.659V61.243H29.9759ZM29.659 61.243V61.56H29.342V61.243H29.659ZM29.659 61.56V61.8769H29.342V61.56H29.659ZM29.342 61.56V61.8769H29.0251V61.56H29.342ZM29.342 61.8769V62.1938H29.0251V61.8769H29.342ZM29.342 62.1938V62.5107H29.0251V62.1938H29.342ZM29.0251 62.1938V62.5107H28.7082V62.1938H29.0251ZM29.0251 62.5107V62.8277H28.7082V62.5107H29.0251ZM28.7082 62.5107V62.8277H28.3913V62.5107H28.7082ZM28.7082 62.8277V63.1446H28.3913V62.8277H28.7082ZM28.3913 62.8277V63.1446H28.0743V62.8277H28.3913ZM28.3913 63.1446V63.4615H28.0743V63.1446H28.3913ZM28.0743 63.1446V63.4615H27.7574V63.1446H28.0743ZM28.0743 63.4615V63.7784H27.7574V63.4615H28.0743ZM27.7574 63.4615V63.7784H27.4405V63.4615H27.7574ZM27.7574 63.1446V63.4615H27.4405V63.1446H27.7574ZM28.0743 62.8277V63.1446H27.7574V62.8277H28.0743ZM28.3913 62.5107V62.8277H28.0743V62.5107H28.3913ZM28.7082 62.1938V62.5107H28.3913V62.1938H28.7082ZM29.0251 61.8769V62.1938H28.7082V61.8769H29.0251ZM30.2928 61.8769V62.1938H29.9759V61.8769H30.2928ZM30.2928 62.1938V62.5107H29.9759V62.1938H30.2928ZM29.9759 62.1938V62.5107H29.659V62.1938H29.9759ZM29.9759 62.5107V62.8277H29.659V62.5107H29.9759ZM29.659 62.5107V62.8277H29.342V62.5107H29.659ZM29.659 62.8277V63.1446H29.342V62.8277H29.659ZM29.342 63.1446V63.4615H29.0251V63.1446H29.342ZM29.0251 63.4615V63.7784H28.7082V63.4615H29.0251ZM29.0251 63.7784V64.0954H28.7082V63.7784H29.0251ZM28.7082 63.7784V64.0954H28.3913V63.7784H28.7082ZM30.2928 61.56V61.8769H29.9759V61.56H30.2928ZM29.9759 61.56V61.8769H29.659V61.56H29.9759ZM29.659 61.8769V62.1938H29.342V61.8769H29.659ZM29.659 62.1938V62.5107H29.342V62.1938H29.659ZM29.9759 61.8769V62.1938H29.659V61.8769H29.9759ZM29.342 62.5107V62.8277H29.0251V62.5107H29.342ZM29.0251 62.8277V63.1446H28.7082V62.8277H29.0251ZM29.0251 63.1446V63.4615H28.7082V63.1446H29.0251ZM28.7082 63.1446V63.4615H28.3913V63.1446H28.7082ZM28.7082 63.4615V63.7784H28.3913V63.4615H28.7082ZM28.3913 63.4615V63.7784H28.0743V63.4615H28.3913ZM28.3913 63.7784V64.0954H28.0743V63.7784H28.3913ZM29.342 62.8277V63.1446H29.0251V62.8277H29.342ZM29.0251 64.0954V64.4123H28.7082V64.0954H29.0251ZM29.0251 64.4123V64.7292H28.7082V64.4123H29.0251ZM29.0251 64.7292V65.0461H28.7082V64.7292H29.0251ZM29.342 64.7292V65.0461H29.0251V64.7292H29.342ZM29.659 64.7292V65.0461H29.342V64.7292H29.659ZM29.9759 64.7292V65.0461H29.659V64.7292H29.9759ZM30.2928 64.7292V65.0461H29.9759V64.7292H30.2928ZM30.6097 64.7292V65.0461H30.2928V64.7292H30.6097ZM30.9267 64.7292V65.0461H30.6097V64.7292H30.9267ZM30.9267 64.4123V64.7292H30.6097V64.4123H30.9267ZM30.9267 64.0954V64.4123H30.6097V64.0954H30.9267ZM30.9267 63.7784V64.0954H30.6097V63.7784H30.9267ZM30.9267 63.4615V63.7784H30.6097V63.4615H30.9267ZM30.9267 63.1446V63.4615H30.6097V63.1446H30.9267ZM30.9267 62.8277V63.1446H30.6097V62.8277H30.9267ZM30.9267 62.5107V62.8277H30.6097V62.5107H30.9267ZM31.2436 62.5107V62.8277H30.9267V62.5107H31.2436ZM31.2436 62.1938V62.5107H30.9267V62.1938H31.2436ZM30.9267 62.1938V62.5107H30.6097V62.1938H30.9267ZM31.2436 59.9753V60.2923H30.9267V59.9753H31.2436ZM31.5605 59.9753V60.2923H31.2436V59.9753H31.5605ZM30.9267 59.9753V60.2923H30.6097V59.9753H30.9267ZM31.8774 59.9753V60.2923H31.5605V59.9753H31.8774ZM32.1943 59.9753V60.2923H31.8774V59.9753H32.1943ZM32.1943 60.2923V60.6092H31.8774V60.2923H32.1943ZM32.1943 60.6092V60.9261H31.8774V60.6092H32.1943ZM32.1943 60.9261V61.243H31.8774V60.9261H32.1943ZM32.1943 61.243V61.56H31.8774V61.243H32.1943ZM32.1943 61.56V61.8769H31.8774V61.56H32.1943ZM32.1943 61.8769V62.1938H31.8774V61.8769H32.1943ZM32.1943 62.1938V62.5107H31.8774V62.1938H32.1943ZM32.1943 62.5107V62.8277H31.8774V62.5107H32.1943ZM32.1943 62.8277V63.1446H31.8774V62.8277H32.1943ZM32.1943 63.1446V63.4615H31.8774V63.1446H32.1943ZM32.1943 63.4615V63.7784H31.8774V63.4615H32.1943ZM32.1943 63.7784V64.0954H31.8774V63.7784H32.1943ZM32.1943 64.0954V64.4123H31.8774V64.0954H32.1943ZM32.1943 64.4123V64.7292H31.8774V64.4123H32.1943ZM32.1943 64.7292V65.0461H31.8774V64.7292H32.1943ZM32.1943 65.0461V65.363H31.8774V65.0461H32.1943ZM32.1943 65.363V65.68H31.8774V65.363H32.1943ZM32.1943 65.68V65.9969H31.8774V65.68H32.1943ZM31.8774 65.68V65.9969H31.5605V65.68H31.8774ZM31.8774 65.9969V66.3138H31.5605V65.9969H31.8774ZM31.5605 65.9969V66.3138H31.2436V65.9969H31.5605ZM31.2436 66.3138V66.6307H30.9267V66.3138H31.2436ZM30.9267 66.3138V66.6307H30.6097V66.3138H30.9267ZM30.9267 65.9969V66.3138H30.6097V65.9969H30.9267ZM30.6097 65.9969V66.3138H30.2928V65.9969H30.6097ZM30.2928 65.9969V66.3138H29.9759V65.9969H30.2928ZM29.9759 65.9969V66.3138H29.659V65.9969H29.9759ZM29.659 65.9969V66.3138H29.342V65.9969H29.659ZM29.342 65.9969V66.3138H29.0251V65.9969H29.342ZM29.0251 65.9969V66.3138H28.7082V65.9969H29.0251ZM28.7082 65.9969V66.3138H28.3913V65.9969H28.7082ZM28.3913 65.9969V66.3138H28.0743V65.9969H28.3913ZM28.0743 65.9969V66.3138H27.7574V65.9969H28.0743ZM27.7574 65.9969V66.3138H27.4405V65.9969H27.7574ZM27.7574 65.68V65.9969H27.4405V65.68H27.7574ZM27.7574 65.363V65.68H27.4405V65.363H27.7574ZM27.7574 65.0461V65.363H27.4405V65.0461H27.7574ZM27.7574 64.7292V65.0461H27.4405V64.7292H27.7574ZM27.7574 64.4123V64.7292H27.4405V64.4123H27.7574ZM28.0743 64.4123V64.7292H27.7574V64.4123H28.0743ZM28.0743 64.0954V64.4123H27.7574V64.0954H28.0743ZM28.0743 63.7784V64.0954H27.7574V63.7784H28.0743ZM27.7574 63.7784V64.0954H27.4405V63.7784H27.7574ZM27.7574 64.0954V64.4123H27.4405V64.0954H27.7574ZM28.3913 64.0954V64.4123H28.0743V64.0954H28.3913ZM28.7082 64.0954V64.4123H28.3913V64.0954H28.7082ZM28.7082 64.4123V64.7292H28.3913V64.4123H28.7082ZM28.7082 64.7292V65.0461H28.3913V64.7292H28.7082ZM28.7082 65.0461V65.363H28.3913V65.0461H28.7082ZM28.3913 65.0461V65.363H28.0743V65.0461H28.3913ZM28.3913 64.7292V65.0461H28.0743V64.7292H28.3913ZM28.3913 64.4123V64.7292H28.0743V64.4123H28.3913ZM28.0743 64.7292V65.0461H27.7574V64.7292H28.0743ZM28.0743 65.0461V65.363H27.7574V65.0461H28.0743ZM28.0743 65.363V65.68H27.7574V65.363H28.0743ZM28.0743 65.68V65.9969H27.7574V65.68H28.0743ZM28.3913 65.68V65.9969H28.0743V65.68H28.3913ZM28.7082 65.68V65.9969H28.3913V65.68H28.7082ZM29.0251 65.68V65.9969H28.7082V65.68H29.0251ZM29.342 65.68V65.9969H29.0251V65.68H29.342ZM29.659 65.68V65.9969H29.342V65.68H29.659ZM29.9759 65.68V65.9969H29.659V65.68H29.9759ZM30.2928 65.68V65.9969H29.9759V65.68H30.2928ZM30.6097 65.68V65.9969H30.2928V65.68H30.6097ZM30.9267 65.68V65.9969H30.6097V65.68H30.9267ZM31.2436 65.68V65.9969H30.9267V65.68H31.2436ZM31.5605 65.68V65.9969H31.2436V65.68H31.5605ZM31.2436 65.9969V66.3138H30.9267V65.9969H31.2436ZM31.8774 65.363V65.68H31.5605V65.363H31.8774ZM31.5605 65.363V65.68H31.2436V65.363H31.5605ZM31.2436 65.363V65.68H30.9267V65.363H31.2436ZM31.2436 65.0461V65.363H30.9267V65.0461H31.2436ZM30.9267 65.0461V65.363H30.6097V65.0461H30.9267ZM30.6097 65.0461V65.363H30.2928V65.0461H30.6097ZM30.2928 65.0461V65.363H29.9759V65.0461H30.2928ZM29.9759 65.0461V65.363H29.659V65.0461H29.9759ZM29.659 65.0461V65.363H29.342V65.0461H29.659ZM29.342 65.0461V65.363H29.0251V65.0461H29.342ZM29.0251 65.0461V65.363H28.7082V65.0461H29.0251ZM28.3913 65.363V65.68H28.0743V65.363H28.3913ZM28.7082 65.363V65.68H28.3913V65.363H28.7082ZM29.0251 65.363V65.68H28.7082V65.363H29.0251ZM29.342 65.363V65.68H29.0251V65.363H29.342ZM29.659 65.363V65.68H29.342V65.363H29.659ZM29.9759 65.363V65.68H29.659V65.363H29.9759ZM30.2928 65.363V65.68H29.9759V65.363H30.2928ZM30.6097 65.363V65.68H30.2928V65.363H30.6097ZM30.9267 65.363V65.68H30.6097V65.363H30.9267ZM31.2436 64.7292V65.0461H30.9267V64.7292H31.2436ZM31.2436 64.4123V64.7292H30.9267V64.4123H31.2436ZM31.2436 64.0954V64.4123H30.9267V64.0954H31.2436ZM31.2436 63.7784V64.0954H30.9267V63.7784H31.2436ZM31.2436 63.4615V63.7784H30.9267V63.4615H31.2436ZM31.2436 63.1446V63.4615H30.9267V63.1446H31.2436ZM31.5605 62.8277V63.1446H31.2436V62.8277H31.5605ZM31.5605 62.5107V62.8277H31.2436V62.5107H31.5605ZM31.5605 62.1938V62.5107H31.2436V62.1938H31.5605ZM31.5605 61.8769V62.1938H31.2436V61.8769H31.5605ZM31.5605 61.56V61.8769H31.2436V61.56H31.5605ZM31.2436 61.56V61.8769H30.9267V61.56H31.2436ZM31.2436 61.243V61.56H30.9267V61.243H31.2436ZM31.2436 60.9261V61.243H30.9267V60.9261H31.2436ZM31.2436 60.6092V60.9261H30.9267V60.6092H31.2436ZM31.2436 60.2923V60.6092H30.9267V60.2923H31.2436ZM31.5605 60.2923V60.6092H31.2436V60.2923H31.5605ZM31.8774 60.2923V60.6092H31.5605V60.2923H31.8774ZM31.8774 60.6092V60.9261H31.5605V60.6092H31.8774ZM31.8774 60.9261V61.243H31.5605V60.9261H31.8774ZM31.8774 61.243V61.56H31.5605V61.243H31.8774ZM31.8774 61.56V61.8769H31.5605V61.56H31.8774ZM31.8774 61.8769V62.1938H31.5605V61.8769H31.8774ZM31.8774 62.1938V62.5107H31.5605V62.1938H31.8774ZM31.8774 62.5107V62.8277H31.5605V62.5107H31.8774ZM31.8774 62.8277V63.1446H31.5605V62.8277H31.8774ZM31.8774 63.1446V63.4615H31.5605V63.1446H31.8774ZM31.8774 63.4615V63.7784H31.5605V63.4615H31.8774ZM31.8774 63.7784V64.0954H31.5605V63.7784H31.8774ZM31.8774 64.0954V64.4123H31.5605V64.0954H31.8774ZM31.8774 64.4123V64.7292H31.5605V64.4123H31.8774ZM31.8774 64.7292V65.0461H31.5605V64.7292H31.8774ZM31.8774 65.0461V65.363H31.5605V65.0461H31.8774ZM31.5605 65.0461V65.363H31.2436V65.0461H31.5605ZM31.5605 64.7292V65.0461H31.2436V64.7292H31.5605ZM31.5605 64.4123V64.7292H31.2436V64.4123H31.5605ZM31.5605 63.7784V64.0954H31.2436V63.7784H31.5605ZM31.5605 64.0954V64.4123H31.2436V64.0954H31.5605ZM31.5605 63.1446V63.4615H31.2436V63.1446H31.5605ZM31.5605 63.4615V63.7784H31.2436V63.4615H31.5605ZM31.2436 61.8769V62.1938H30.9267V61.8769H31.2436ZM31.2436 62.8277V63.1446H30.9267V62.8277H31.2436ZM31.5605 61.243V61.56H31.2436V61.243H31.5605ZM31.5605 60.9261V61.243H31.2436V60.9261H31.5605ZM31.5605 60.6092V60.9261H31.2436V60.6092H31.5605ZM30.9267 66.6307V66.9477H30.6097V66.6307H30.9267ZM30.9267 66.9477V67.2646H30.6097V66.9477H30.9267ZM30.9267 67.2646V67.5815H30.6097V67.2646H30.9267ZM30.9267 67.5815V67.8984H30.6097V67.5815H30.9267ZM31.2436 67.5815V67.8984H30.9267V67.5815H31.2436ZM31.5605 67.5815V67.8984H31.2436V67.5815H31.5605ZM31.8774 67.5815V67.8984H31.5605V67.5815H31.8774ZM32.1943 67.2646V67.5815H31.8774V67.2646H32.1943ZM32.1943 66.9477V67.2646H31.8774V66.9477H32.1943ZM32.1943 67.5815V67.8984H31.8774V67.5815H32.1943ZM32.1943 66.6307V66.9477H31.8774V66.6307H32.1943ZM32.1943 66.3138V66.6307H31.8774V66.3138H32.1943ZM32.1943 65.9969V66.3138H31.8774V65.9969H32.1943ZM31.8774 66.3138V66.6307H31.5605V66.3138H31.8774ZM31.8774 66.6307V66.9477H31.5605V66.6307H31.8774ZM31.5605 66.6307V66.9477H31.2436V66.6307H31.5605ZM31.5605 66.9477V67.2646H31.2436V66.9477H31.5605ZM31.5605 67.2646V67.5815H31.2436V67.2646H31.5605ZM31.8774 67.2646V67.5815H31.5605V67.2646H31.8774ZM31.8774 66.9477V67.2646H31.5605V66.9477H31.8774ZM31.2436 67.2646V67.5815H30.9267V67.2646H31.2436ZM31.5605 66.3138V66.6307H31.2436V66.3138H31.5605ZM31.2436 66.9477V67.2646H30.9267V66.9477H31.2436ZM31.2436 66.6307V66.9477H30.9267V66.6307H31.2436ZM33.7848 66.3138V66.6307H33.4679V66.3138H33.7848ZM33.7848 65.9969V66.3138H33.4679V65.9969H33.7848ZM33.7848 65.68V65.9969H33.4679V65.68H33.7848ZM33.7848 65.363V65.68H33.4679V65.363H33.7848ZM33.7848 65.0461V65.363H33.4679V65.0461H33.7848ZM33.7848 64.7292V65.0461H33.4679V64.7292H33.7848ZM33.7848 64.4123V64.7292H33.4679V64.4123H33.7848ZM33.7848 64.0954V64.4123H33.4679V64.0954H33.7848ZM33.7848 63.7784V64.0954H33.4679V63.7784H33.7848ZM33.7848 63.4615V63.7784H33.4679V63.4615H33.7848ZM33.7848 63.1446V63.4615H33.4679V63.1446H33.7848ZM34.1018 63.1446V63.4615H33.7848V63.1446H34.1018ZM34.1018 63.4615V63.7784H33.7848V63.4615H34.1018ZM34.1018 63.7784V64.0954H33.7848V63.7784H34.1018ZM34.1018 64.0954V64.4123H33.7848V64.0954H34.1018ZM34.1018 64.4123V64.7292H33.7848V64.4123H34.1018ZM34.1018 64.7292V65.0461H33.7848V64.7292H34.1018ZM34.1018 65.0461V65.363H33.7848V65.0461H34.1018ZM34.4187 65.363V65.68H34.1018V65.363H34.4187ZM34.4187 65.68V65.9969H34.1018V65.68H34.4187ZM34.4187 65.9969V66.3138H34.1018V65.9969H34.4187ZM34.4187 66.3138V66.6307H34.1018V66.3138H34.4187ZM34.4187 66.6307V66.9477H34.1018V66.6307H34.4187ZM34.4187 66.9477V67.2646H34.1018V66.9477H34.4187ZM34.4187 67.2646V67.5815H34.1018V67.2646H34.4187ZM35.0525 67.5815V67.8984H34.7356V67.5815H35.0525ZM35.0525 67.2646V67.5815H34.7356V67.2646H35.0525ZM35.0525 66.9477V67.2646H34.7356V66.9477H35.0525ZM35.0525 66.6307V66.9477H34.7356V66.6307H35.0525ZM35.0525 66.3138V66.6307H34.7356V66.3138H35.0525ZM35.0525 65.9969V66.3138H34.7356V65.9969H35.0525ZM35.0525 65.68V65.9969H34.7356V65.68H35.0525ZM35.0525 65.363V65.68H34.7356V65.363H35.0525ZM34.7356 65.363V65.68H34.4187V65.363H34.7356ZM34.7356 65.0461V65.363H34.4187V65.0461H34.7356ZM34.7356 65.68V65.9969H34.4187V65.68H34.7356ZM34.7356 65.9969V66.3138H34.4187V65.9969H34.7356ZM34.7356 66.3138V66.6307H34.4187V66.3138H34.7356ZM34.7356 66.6307V66.9477H34.4187V66.6307H34.7356ZM34.7356 66.9477V67.2646H34.4187V66.9477H34.7356ZM34.7356 67.2646V67.5815H34.4187V67.2646H34.7356ZM34.1018 66.9477V67.2646H33.7848V66.9477H34.1018ZM34.1018 66.6307V66.9477H33.7848V66.6307H34.1018ZM34.1018 66.3138V66.6307H33.7848V66.3138H34.1018ZM34.1018 65.9969V66.3138H33.7848V65.9969H34.1018ZM34.1018 65.68V65.9969H33.7848V65.68H34.1018ZM34.1018 65.363V65.68H33.7848V65.363H34.1018ZM33.7848 62.8277V63.1446H33.4679V62.8277H33.7848ZM34.7356 62.8277V63.1446H34.4187V62.8277H34.7356ZM34.7356 63.1446V63.4615H34.4187V63.1446H34.7356ZM34.7356 63.4615V63.7784H34.4187V63.4615H34.7356ZM34.7356 63.7784V64.0954H34.4187V63.7784H34.7356ZM34.7356 64.0954V64.4123H34.4187V64.0954H34.7356ZM35.0525 64.4123V64.7292H34.7356V64.4123H35.0525ZM35.0525 64.7292V65.0461H34.7356V64.7292H35.0525ZM35.0525 65.0461V65.363H34.7356V65.0461H35.0525ZM35.0525 64.0954V64.4123H34.7356V64.0954H35.0525ZM35.0525 63.7784V64.0954H34.7356V63.7784H35.0525ZM35.0525 63.4615V63.7784H34.7356V63.4615H35.0525ZM35.0525 63.1446V63.4615H34.7356V63.1446H35.0525ZM35.0525 62.8277V63.1446H34.7356V62.8277H35.0525ZM34.1018 62.8277V63.1446H33.7848V62.8277H34.1018ZM34.4187 62.8277V63.1446H34.1018V62.8277H34.4187ZM34.4187 63.1446V63.4615H34.1018V63.1446H34.4187ZM34.4187 63.4615V63.7784H34.1018V63.4615H34.4187ZM34.4187 63.7784V64.0954H34.1018V63.7784H34.4187ZM34.4187 64.0954V64.4123H34.1018V64.0954H34.4187ZM34.4187 64.4123V64.7292H34.1018V64.4123H34.4187ZM34.4187 64.7292V65.0461H34.1018V64.7292H34.4187ZM34.4187 65.0461V65.363H34.1018V65.0461H34.4187ZM34.7356 64.7292V65.0461H34.4187V64.7292H34.7356ZM34.7356 64.4123V64.7292H34.4187V64.4123H34.7356ZM36.9541 67.5815V67.8984H36.6372V67.5815H36.9541ZM36.9541 67.2646V67.5815H36.6372V67.2646H36.9541ZM36.9541 66.9477V67.2646H36.6372V66.9477H36.9541ZM36.9541 66.6307V66.9477H36.6372V66.6307H36.9541ZM36.9541 66.3138V66.6307H36.6372V66.3138H36.9541ZM36.9541 65.9969V66.3138H36.6372V65.9969H36.9541ZM36.9541 65.68V65.9969H36.6372V65.68H36.9541ZM36.9541 65.363V65.68H36.6372V65.363H36.9541ZM36.9541 65.0461V65.363H36.6372V65.0461H36.9541ZM36.9541 64.7292V65.0461H36.6372V64.7292H36.9541ZM36.9541 64.4123V64.7292H36.6372V64.4123H36.9541ZM36.9541 64.0954V64.4123H36.6372V64.0954H36.9541ZM36.9541 63.7784V64.0954H36.6372V63.7784H36.9541ZM36.9541 63.4615V63.7784H36.6372V63.4615H36.9541ZM36.9541 63.1446V63.4615H36.6372V63.1446H36.9541ZM37.271 63.1446V63.4615H36.9541V63.1446H37.271ZM37.271 63.4615V63.7784H36.9541V63.4615H37.271ZM37.271 63.7784V64.0954H36.9541V63.7784H37.271ZM37.271 64.0954V64.4123H36.9541V64.0954H37.271ZM37.271 64.4123V64.7292H36.9541V64.4123H37.271ZM37.271 64.7292V65.0461H36.9541V64.7292H37.271ZM37.271 65.0461V65.363H36.9541V65.0461H37.271ZM37.5879 65.363V65.68H37.271V65.363H37.5879ZM37.5879 65.68V65.9969H37.271V65.68H37.5879ZM37.5879 65.9969V66.3138H37.271V65.9969H37.5879ZM37.5879 66.3138V66.6307H37.271V66.3138H37.5879ZM37.5879 66.6307V66.9477H37.271V66.6307H37.5879ZM37.5879 66.9477V67.2646H37.271V66.9477H37.5879ZM37.5879 67.2646V67.5815H37.271V67.2646H37.5879ZM38.2218 66.3138V66.6307H37.9049V66.3138H38.2218ZM38.2218 65.9969V66.3138H37.9049V65.9969H38.2218ZM38.2218 65.68V65.9969H37.9049V65.68H38.2218ZM38.2218 65.363V65.68H37.9049V65.363H38.2218ZM37.9049 65.363V65.68H37.5879V65.363H37.9049ZM37.9049 65.0461V65.363H37.5879V65.0461H37.9049ZM37.9049 65.68V65.9969H37.5879V65.68H37.9049ZM37.9049 65.9969V66.3138H37.5879V65.9969H37.9049ZM37.9049 66.3138V66.6307H37.5879V66.3138H37.9049ZM37.9049 66.6307V66.9477H37.5879V66.6307H37.9049ZM37.9049 66.9477V67.2646H37.5879V66.9477H37.9049ZM37.271 67.2646V67.5815H36.9541V67.2646H37.271ZM37.271 66.9477V67.2646H36.9541V66.9477H37.271ZM37.271 66.6307V66.9477H36.9541V66.6307H37.271ZM37.271 66.3138V66.6307H36.9541V66.3138H37.271ZM37.271 65.9969V66.3138H36.9541V65.9969H37.271ZM37.271 65.68V65.9969H36.9541V65.68H37.271ZM37.271 65.363V65.68H36.9541V65.363H37.271ZM36.9541 62.8277V63.1446H36.6372V62.8277H36.9541ZM37.9049 62.8277V63.1446H37.5879V62.8277H37.9049ZM37.9049 63.1446V63.4615H37.5879V63.1446H37.9049ZM37.9049 63.4615V63.7784H37.5879V63.4615H37.9049ZM37.9049 63.7784V64.0954H37.5879V63.7784H37.9049ZM37.9049 64.0954V64.4123H37.5879V64.0954H37.9049ZM38.2218 64.4123V64.7292H37.9049V64.4123H38.2218ZM38.2218 64.7292V65.0461H37.9049V64.7292H38.2218ZM38.2218 65.0461V65.363H37.9049V65.0461H38.2218ZM38.2218 64.0954V64.4123H37.9049V64.0954H38.2218ZM38.2218 63.7784V64.0954H37.9049V63.7784H38.2218ZM38.2218 63.4615V63.7784H37.9049V63.4615H38.2218ZM38.2218 63.1446V63.4615H37.9049V63.1446H38.2218ZM38.2218 62.8277V63.1446H37.9049V62.8277H38.2218ZM37.271 62.8277V63.1446H36.9541V62.8277H37.271ZM37.5879 62.8277V63.1446H37.271V62.8277H37.5879ZM37.5879 63.1446V63.4615H37.271V63.1446H37.5879ZM37.5879 63.4615V63.7784H37.271V63.4615H37.5879ZM37.5879 63.7784V64.0954H37.271V63.7784H37.5879ZM37.5879 64.0954V64.4123H37.271V64.0954H37.5879ZM37.5879 64.4123V64.7292H37.271V64.4123H37.5879ZM37.5879 64.7292V65.0461H37.271V64.7292H37.5879ZM37.5879 65.0461V65.363H37.271V65.0461H37.5879ZM37.9049 64.7292V65.0461H37.5879V64.7292H37.9049ZM37.9049 64.4123V64.7292H37.5879V64.4123H37.9049ZM35.3695 67.5815V67.8984H35.0525V67.5815H35.3695ZM35.6864 67.5815V67.8984H35.3695V67.5815H35.6864ZM36.0033 67.5815V67.8984H35.6864V67.5815H36.0033ZM36.3202 67.5815V67.8984H36.0033V67.5815H36.3202ZM36.6372 67.5815V67.8984H36.3202V67.5815H36.6372ZM36.6372 67.2646V67.5815H36.3202V67.2646H36.6372ZM36.3202 67.2646V67.5815H36.0033V67.2646H36.3202ZM36.0033 67.2646V67.5815H35.6864V67.2646H36.0033ZM35.6864 67.2646V67.5815H35.3695V67.2646H35.6864ZM35.3695 67.2646V67.5815H35.0525V67.2646H35.3695ZM35.3695 66.9477V67.2646H35.0525V66.9477H35.3695ZM35.6864 66.9477V67.2646H35.3695V66.9477H35.6864ZM36.0033 66.9477V67.2646H35.6864V66.9477H36.0033ZM36.3202 66.9477V67.2646H36.0033V66.9477H36.3202ZM36.6372 66.9477V67.2646H36.3202V66.9477H36.6372ZM36.6372 66.6307V66.9477H36.3202V66.6307H36.6372ZM36.3202 66.6307V66.9477H36.0033V66.6307H36.3202ZM36.0033 66.6307V66.9477H35.6864V66.6307H36.0033ZM35.6864 66.6307V66.9477H35.3695V66.6307H35.6864ZM35.3695 66.6307V66.9477H35.0525V66.6307H35.3695ZM35.3695 66.3138V66.6307H35.0525V66.3138H35.3695ZM36.6372 66.3138V66.6307H36.3202V66.3138H36.6372ZM37.9049 61.56V61.243H38.2218V61.56H37.9049ZM37.9049 61.8769V61.56H38.2218V61.8769H37.9049ZM37.9049 62.1938V61.8769H38.2218V62.1938H37.9049ZM37.271 62.1938V61.8769H37.5879V62.1938H37.271ZM37.271 61.8769V61.56H37.5879V61.8769H37.271ZM37.271 61.56V61.243H37.5879V61.56H37.271ZM37.271 61.243V60.9261H37.5879V61.243H37.271ZM37.271 60.9261V60.6092H37.5879V60.9261H37.271ZM37.271 60.6092V60.2923H37.5879V60.6092H37.271ZM36.6372 60.2923V59.9753H36.9541V60.2923H36.6372ZM36.6372 60.6092V60.2923H36.9541V60.6092H36.6372ZM36.6372 60.9261V60.6092H36.9541V60.9261H36.6372ZM36.6372 61.243V60.9261H36.9541V61.243H36.6372ZM36.6372 61.56V61.243H36.9541V61.56H36.6372ZM36.6372 61.8769V61.56H36.9541V61.8769H36.6372ZM36.6372 62.1938V61.8769H36.9541V62.1938H36.6372ZM36.9541 62.1938V61.8769H37.271V62.1938H36.9541ZM36.9541 61.8769V61.56H37.271V61.8769H36.9541ZM36.9541 61.56V61.243H37.271V61.56H36.9541ZM36.9541 61.243V60.9261H37.271V61.243H36.9541ZM36.9541 60.9261V60.6092H37.271V60.9261H36.9541ZM36.9541 60.6092V60.2923H37.271V60.6092H36.9541ZM37.5879 60.9261V60.6092H37.9049V60.9261H37.5879ZM37.5879 61.243V60.9261H37.9049V61.243H37.5879ZM37.5879 61.56V61.243H37.9049V61.56H37.5879ZM37.5879 61.8769V61.56H37.9049V61.8769H37.5879ZM37.5879 62.1938V61.8769H37.9049V62.1938H37.5879ZM34.7356 60.2923V59.9753H35.0525V60.2923H34.7356ZM34.7356 60.6092V60.2923H35.0525V60.6092H34.7356ZM34.7356 60.9261V60.6092H35.0525V60.9261H34.7356ZM34.7356 61.243V60.9261H35.0525V61.243H34.7356ZM34.7356 61.56V61.243H35.0525V61.56H34.7356ZM34.7356 61.8769V61.56H35.0525V61.8769H34.7356ZM34.7356 62.1938V61.8769H35.0525V62.1938H34.7356ZM34.1018 62.1938V61.8769H34.4187V62.1938H34.1018ZM34.1018 61.8769V61.56H34.4187V61.8769H34.1018ZM34.1018 61.56V61.243H34.4187V61.56H34.1018ZM34.1018 61.243V60.9261H34.4187V61.243H34.1018ZM34.1018 60.9261V60.6092H34.4187V60.9261H34.1018ZM34.1018 60.6092V60.2923H34.4187V60.6092H34.1018ZM33.4679 61.56V61.243H33.7848V61.56H33.4679ZM33.4679 61.8769V61.56H33.7848V61.8769H33.4679ZM33.4679 62.1938V61.8769H33.7848V62.1938H33.4679ZM33.7848 62.1938V61.8769H34.1018V62.1938H33.7848ZM33.7848 61.8769V61.56H34.1018V61.8769H33.7848ZM33.7848 61.56V61.243H34.1018V61.56H33.7848ZM33.7848 61.243V60.9261H34.1018V61.243H33.7848ZM33.7848 60.9261V60.6092H34.1018V60.9261H33.7848ZM34.4187 60.6092V60.2923H34.7356V60.6092H34.4187ZM34.4187 60.9261V60.6092H34.7356V60.9261H34.4187ZM34.4187 61.243V60.9261H34.7356V61.243H34.4187ZM34.4187 61.56V61.243H34.7356V61.56H34.4187ZM34.4187 61.8769V61.56H34.7356V61.8769H34.4187ZM34.4187 62.1938V61.8769H34.7356V62.1938H34.4187ZM36.3202 60.2923V59.9753H36.6372V60.2923H36.3202ZM36.0033 60.2923V59.9753H36.3202V60.2923H36.0033ZM35.6864 60.2923V59.9753H36.0033V60.2923H35.6864ZM35.0525 60.2923V59.9753H35.3695V60.2923H35.0525ZM35.0525 60.6092V60.2923H35.3695V60.6092H35.0525ZM35.3695 60.6092V60.2923H35.6864V60.6092H35.3695ZM35.6864 60.6092V60.2923H36.0033V60.6092H35.6864ZM36.0033 60.6092V60.2923H36.3202V60.6092H36.0033ZM36.3202 60.6092V60.2923H36.6372V60.6092H36.3202ZM36.3202 60.9261V60.6092H36.6372V60.9261H36.3202ZM36.0033 60.9261V60.6092H36.3202V60.9261H36.0033ZM35.6864 60.9261V60.6092H36.0033V60.9261H35.6864ZM35.3695 60.9261V60.6092H35.6864V60.9261H35.3695ZM35.0525 60.9261V60.6092H35.3695V60.9261H35.0525ZM35.0525 61.243V60.9261H35.3695V61.243H35.0525ZM35.3695 61.243V60.9261H35.6864V61.243H35.3695ZM35.6864 61.243V60.9261H36.0033V61.243H35.6864ZM36.0033 61.243V60.9261H36.3202V61.243H36.0033ZM36.3202 61.243V60.9261H36.6372V61.243H36.3202ZM36.3202 61.56V61.243H36.6372V61.56H36.3202ZM35.0525 61.56V61.243H35.3695V61.56H35.0525ZM33.7848 62.5107V62.8277H33.4679V62.5107H33.7848ZM34.1018 62.5107V62.8277H33.7848V62.5107H34.1018ZM33.7848 62.1938V62.5107H33.4679V62.1938H33.7848ZM34.7356 62.1938V62.5107H34.4187V62.1938H34.7356ZM34.7356 62.5107V62.8277H34.4187V62.5107H34.7356ZM35.0525 62.5107V62.8277H34.7356V62.5107H35.0525ZM35.0525 62.1938V62.5107H34.7356V62.1938H35.0525ZM34.1018 62.1938V62.5107H33.7848V62.1938H34.1018ZM34.4187 62.1938V62.5107H34.1018V62.1938H34.4187ZM34.4187 62.5107V62.8277H34.1018V62.5107H34.4187ZM36.9541 62.5107V62.8277H36.6372V62.5107H36.9541ZM37.271 62.5107V62.8277H36.9541V62.5107H37.271ZM36.9541 62.1938V62.5107H36.6372V62.1938H36.9541ZM37.9049 62.1938V62.5107H37.5879V62.1938H37.9049ZM37.9049 62.5107V62.8277H37.5879V62.5107H37.9049ZM38.2218 62.5107V62.8277H37.9049V62.5107H38.2218ZM38.2218 62.1938V62.5107H37.9049V62.1938H38.2218ZM37.271 62.1938V62.5107H36.9541V62.1938H37.271ZM37.5879 62.1938V62.5107H37.271V62.1938H37.5879ZM37.5879 62.5107V62.8277H37.271V62.5107H37.5879ZM35.6864 66.3138V66.6307H35.3695V66.3138H35.6864ZM36.0033 66.3138V66.6307H35.6864V66.3138H36.0033ZM36.3202 66.3138V66.6307H36.0033V66.3138H36.3202ZM36.6372 65.9969V66.3138H36.3202V65.9969H36.6372ZM35.3695 65.9969V66.3138H35.0525V65.9969H35.3695ZM35.6864 61.243V61.56H35.3695V61.243H35.6864ZM36.0033 61.243V61.56H35.6864V61.243H36.0033ZM36.3202 61.243V61.56H36.0033V61.243H36.3202ZM36.6372 61.56V61.8769H36.3202V61.56H36.6372ZM35.3695 61.56V61.8769H35.0525V61.56H35.3695ZM35.6864 59.9753V60.2923H35.3695V59.9753H35.6864ZM39.8123 66.3138V66.6307H39.4954V66.3138H39.8123ZM39.8123 65.9969V66.3138H39.4954V65.9969H39.8123ZM39.8123 65.68V65.9969H39.4954V65.68H39.8123ZM39.8123 65.363V65.68H39.4954V65.363H39.8123ZM39.8123 65.0461V65.363H39.4954V65.0461H39.8123ZM39.8123 64.7292V65.0461H39.4954V64.7292H39.8123ZM39.8123 64.4123V64.7292H39.4954V64.4123H39.8123ZM39.8123 64.0954V64.4123H39.4954V64.0954H39.8123ZM39.8123 63.7784V64.0954H39.4954V63.7784H39.8123ZM39.8123 63.4615V63.7784H39.4954V63.4615H39.8123ZM39.8123 63.1446V63.4615H39.4954V63.1446H39.8123ZM40.1292 63.1446V63.4615H39.8123V63.1446H40.1292ZM40.1292 63.4615V63.7784H39.8123V63.4615H40.1292ZM40.1292 63.7784V64.0954H39.8123V63.7784H40.1292ZM40.1292 64.0954V64.4123H39.8123V64.0954H40.1292ZM40.1292 64.4123V64.7292H39.8123V64.4123H40.1292ZM40.1292 64.7292V65.0461H39.8123V64.7292H40.1292ZM40.1292 65.0461V65.363H39.8123V65.0461H40.1292ZM40.4461 65.363V65.68H40.1292V65.363H40.4461ZM40.4461 65.68V65.9969H40.1292V65.68H40.4461ZM40.4461 65.9969V66.3138H40.1292V65.9969H40.4461ZM40.4461 66.3138V66.6307H40.1292V66.3138H40.4461ZM40.4461 66.6307V66.9477H40.1292V66.6307H40.4461ZM40.4461 66.9477V67.2646H40.1292V66.9477H40.4461ZM40.4461 67.2646V67.5815H40.1292V67.2646H40.4461ZM41.08 67.5815V67.8984H40.7631V67.5815H41.08ZM41.08 67.2646V67.5815H40.7631V67.2646H41.08ZM41.08 66.9477V67.2646H40.7631V66.9477H41.08ZM41.08 66.6307V66.9477H40.7631V66.6307H41.08ZM41.08 66.3138V66.6307H40.7631V66.3138H41.08ZM41.08 65.9969V66.3138H40.7631V65.9969H41.08ZM41.08 65.68V65.9969H40.7631V65.68H41.08ZM41.08 65.363V65.68H40.7631V65.363H41.08ZM40.7631 65.363V65.68H40.4461V65.363H40.7631ZM40.7631 65.0461V65.363H40.4461V65.0461H40.7631ZM40.7631 65.68V65.9969H40.4461V65.68H40.7631ZM40.7631 65.9969V66.3138H40.4461V65.9969H40.7631ZM40.7631 66.3138V66.6307H40.4461V66.3138H40.7631ZM40.7631 66.6307V66.9477H40.4461V66.6307H40.7631ZM40.7631 66.9477V67.2646H40.4461V66.9477H40.7631ZM40.7631 67.2646V67.5815H40.4461V67.2646H40.7631ZM40.1292 66.9477V67.2646H39.8123V66.9477H40.1292ZM40.1292 66.6307V66.9477H39.8123V66.6307H40.1292ZM40.1292 66.3138V66.6307H39.8123V66.3138H40.1292ZM40.1292 65.9969V66.3138H39.8123V65.9969H40.1292ZM40.1292 65.68V65.9969H39.8123V65.68H40.1292ZM40.1292 65.363V65.68H39.8123V65.363H40.1292ZM39.8123 62.8277V63.1446H39.4954V62.8277H39.8123ZM40.7631 62.8277V63.1446H40.4461V62.8277H40.7631ZM40.7631 63.1446V63.4615H40.4461V63.1446H40.7631ZM40.7631 63.4615V63.7784H40.4461V63.4615H40.7631ZM40.7631 63.7784V64.0954H40.4461V63.7784H40.7631ZM40.7631 64.0954V64.4123H40.4461V64.0954H40.7631ZM41.08 64.4123V64.7292H40.7631V64.4123H41.08ZM41.08 64.7292V65.0461H40.7631V64.7292H41.08ZM41.08 65.0461V65.363H40.7631V65.0461H41.08ZM41.08 64.0954V64.4123H40.7631V64.0954H41.08ZM41.08 63.7784V64.0954H40.7631V63.7784H41.08ZM41.08 63.4615V63.7784H40.7631V63.4615H41.08ZM41.08 63.1446V63.4615H40.7631V63.1446H41.08ZM41.08 62.8277V63.1446H40.7631V62.8277H41.08ZM40.1292 62.8277V63.1446H39.8123V62.8277H40.1292ZM40.4461 62.8277V63.1446H40.1292V62.8277H40.4461ZM40.4461 63.1446V63.4615H40.1292V63.1446H40.4461ZM40.4461 63.4615V63.7784H40.1292V63.4615H40.4461ZM40.4461 63.7784V64.0954H40.1292V63.7784H40.4461ZM40.4461 64.0954V64.4123H40.1292V64.0954H40.4461ZM40.4461 64.4123V64.7292H40.1292V64.4123H40.4461ZM40.4461 64.7292V65.0461H40.1292V64.7292H40.4461ZM40.4461 65.0461V65.363H40.1292V65.0461H40.4461ZM40.7631 64.7292V65.0461H40.4461V64.7292H40.7631ZM40.7631 64.4123V64.7292H40.4461V64.4123H40.7631ZM42.9815 67.5815V67.8984H42.6646V67.5815H42.9815ZM42.9815 67.2646V67.5815H42.6646V67.2646H42.9815ZM42.9815 66.9477V67.2646H42.6646V66.9477H42.9815ZM42.9815 66.6307V66.9477H42.6646V66.6307H42.9815ZM42.9815 66.3138V66.6307H42.6646V66.3138H42.9815ZM42.9815 65.9969V66.3138H42.6646V65.9969H42.9815ZM42.9815 65.68V65.9969H42.6646V65.68H42.9815ZM42.9815 65.363V65.68H42.6646V65.363H42.9815ZM42.9815 65.0461V65.363H42.6646V65.0461H42.9815ZM42.9815 64.7292V65.0461H42.6646V64.7292H42.9815ZM42.9815 64.4123V64.7292H42.6646V64.4123H42.9815ZM42.9815 64.0954V64.4123H42.6646V64.0954H42.9815ZM42.9815 63.7784V64.0954H42.6646V63.7784H42.9815ZM42.9815 63.4615V63.7784H42.6646V63.4615H42.9815ZM42.9815 63.1446V63.4615H42.6646V63.1446H42.9815ZM43.2984 63.1446V63.4615H42.9815V63.1446H43.2984ZM43.2984 63.4615V63.7784H42.9815V63.4615H43.2984ZM43.2984 63.7784V64.0954H42.9815V63.7784H43.2984ZM43.2984 64.0954V64.4123H42.9815V64.0954H43.2984ZM43.2984 64.4123V64.7292H42.9815V64.4123H43.2984ZM43.2984 64.7292V65.0461H42.9815V64.7292H43.2984ZM43.2984 65.0461V65.363H42.9815V65.0461H43.2984ZM43.6154 65.363V65.68H43.2984V65.363H43.6154ZM43.6154 65.68V65.9969H43.2984V65.68H43.6154ZM43.6154 65.9969V66.3138H43.2984V65.9969H43.6154ZM43.6154 66.3138V66.6307H43.2984V66.3138H43.6154ZM43.6154 66.6307V66.9477H43.2984V66.6307H43.6154ZM43.6154 66.9477V67.2646H43.2984V66.9477H43.6154ZM43.6154 67.2646V67.5815H43.2984V67.2646H43.6154ZM44.2492 66.3138V66.6307H43.9323V66.3138H44.2492ZM44.2492 65.9969V66.3138H43.9323V65.9969H44.2492ZM44.2492 65.68V65.9969H43.9323V65.68H44.2492ZM44.2492 65.363V65.68H43.9323V65.363H44.2492ZM43.9323 65.363V65.68H43.6154V65.363H43.9323ZM43.9323 65.0461V65.363H43.6154V65.0461H43.9323ZM43.9323 65.68V65.9969H43.6154V65.68H43.9323ZM43.9323 65.9969V66.3138H43.6154V65.9969H43.9323ZM43.9323 66.3138V66.6307H43.6154V66.3138H43.9323ZM43.9323 66.6307V66.9477H43.6154V66.6307H43.9323ZM43.9323 66.9477V67.2646H43.6154V66.9477H43.9323ZM43.2984 67.2646V67.5815H42.9815V67.2646H43.2984ZM43.2984 66.9477V67.2646H42.9815V66.9477H43.2984ZM43.2984 66.6307V66.9477H42.9815V66.6307H43.2984ZM43.2984 66.3138V66.6307H42.9815V66.3138H43.2984ZM43.2984 65.9969V66.3138H42.9815V65.9969H43.2984ZM43.2984 65.68V65.9969H42.9815V65.68H43.2984ZM43.2984 65.363V65.68H42.9815V65.363H43.2984ZM42.9815 62.8277V63.1446H42.6646V62.8277H42.9815ZM43.9323 62.8277V63.1446H43.6154V62.8277H43.9323ZM43.9323 63.1446V63.4615H43.6154V63.1446H43.9323ZM43.9323 63.4615V63.7784H43.6154V63.4615H43.9323ZM43.9323 63.7784V64.0954H43.6154V63.7784H43.9323ZM43.9323 64.0954V64.4123H43.6154V64.0954H43.9323ZM44.2492 64.4123V64.7292H43.9323V64.4123H44.2492ZM44.2492 64.7292V65.0461H43.9323V64.7292H44.2492ZM44.2492 65.0461V65.363H43.9323V65.0461H44.2492ZM44.2492 64.0954V64.4123H43.9323V64.0954H44.2492ZM44.2492 63.7784V64.0954H43.9323V63.7784H44.2492ZM44.2492 63.4615V63.7784H43.9323V63.4615H44.2492ZM44.2492 63.1446V63.4615H43.9323V63.1446H44.2492ZM44.2492 62.8277V63.1446H43.9323V62.8277H44.2492ZM43.2984 62.8277V63.1446H42.9815V62.8277H43.2984ZM43.6154 62.8277V63.1446H43.2984V62.8277H43.6154ZM43.6154 63.1446V63.4615H43.2984V63.1446H43.6154ZM43.6154 63.4615V63.7784H43.2984V63.4615H43.6154ZM43.6154 63.7784V64.0954H43.2984V63.7784H43.6154ZM43.6154 64.0954V64.4123H43.2984V64.0954H43.6154ZM43.6154 64.4123V64.7292H43.2984V64.4123H43.6154ZM43.6154 64.7292V65.0461H43.2984V64.7292H43.6154ZM43.6154 65.0461V65.363H43.2984V65.0461H43.6154ZM43.9323 64.7292V65.0461H43.6154V64.7292H43.9323ZM43.9323 64.4123V64.7292H43.6154V64.4123H43.9323ZM41.3969 67.5815V67.8984H41.08V67.5815H41.3969ZM41.7138 67.5815V67.8984H41.3969V67.5815H41.7138ZM42.0307 67.5815V67.8984H41.7138V67.5815H42.0307ZM42.3477 67.5815V67.8984H42.0307V67.5815H42.3477ZM42.6646 67.5815V67.8984H42.3477V67.5815H42.6646ZM42.6646 67.2646V67.5815H42.3477V67.2646H42.6646ZM42.3477 67.2646V67.5815H42.0307V67.2646H42.3477ZM42.0307 67.2646V67.5815H41.7138V67.2646H42.0307ZM41.7138 67.2646V67.5815H41.3969V67.2646H41.7138ZM41.3969 67.2646V67.5815H41.08V67.2646H41.3969ZM41.3969 66.9477V67.2646H41.08V66.9477H41.3969ZM41.7138 66.9477V67.2646H41.3969V66.9477H41.7138ZM42.0307 66.9477V67.2646H41.7138V66.9477H42.0307ZM42.3477 66.9477V67.2646H42.0307V66.9477H42.3477ZM42.6646 66.9477V67.2646H42.3477V66.9477H42.6646ZM42.6646 66.6307V66.9477H42.3477V66.6307H42.6646ZM42.3477 66.6307V66.9477H42.0307V66.6307H42.3477ZM42.0307 66.6307V66.9477H41.7138V66.6307H42.0307ZM41.7138 66.6307V66.9477H41.3969V66.6307H41.7138ZM41.3969 66.6307V66.9477H41.08V66.6307H41.3969ZM41.3969 66.3138V66.6307H41.08V66.3138H41.3969ZM42.6646 66.3138V66.6307H42.3477V66.3138H42.6646ZM43.9323 61.56V61.243H44.2492V61.56H43.9323ZM43.9323 61.8769V61.56H44.2492V61.8769H43.9323ZM43.9323 62.1938V61.8769H44.2492V62.1938H43.9323ZM43.2984 62.1938V61.8769H43.6154V62.1938H43.2984ZM43.2984 61.8769V61.56H43.6154V61.8769H43.2984ZM43.2984 61.56V61.243H43.6154V61.56H43.2984ZM43.2984 61.243V60.9261H43.6154V61.243H43.2984ZM43.2984 60.9261V60.6092H43.6154V60.9261H43.2984ZM43.2984 60.6092V60.2923H43.6154V60.6092H43.2984ZM42.6646 60.2923V59.9753H42.9815V60.2923H42.6646ZM42.6646 60.6092V60.2923H42.9815V60.6092H42.6646ZM42.6646 60.9261V60.6092H42.9815V60.9261H42.6646ZM42.6646 61.243V60.9261H42.9815V61.243H42.6646ZM42.6646 61.56V61.243H42.9815V61.56H42.6646ZM42.6646 61.8769V61.56H42.9815V61.8769H42.6646ZM42.6646 62.1938V61.8769H42.9815V62.1938H42.6646ZM42.9815 62.1938V61.8769H43.2984V62.1938H42.9815ZM42.9815 61.8769V61.56H43.2984V61.8769H42.9815ZM42.9815 61.56V61.243H43.2984V61.56H42.9815ZM42.9815 61.243V60.9261H43.2984V61.243H42.9815ZM42.9815 60.9261V60.6092H43.2984V60.9261H42.9815ZM42.9815 60.6092V60.2923H43.2984V60.6092H42.9815ZM43.6154 60.9261V60.6092H43.9323V60.9261H43.6154ZM43.6154 61.243V60.9261H43.9323V61.243H43.6154ZM43.6154 61.56V61.243H43.9323V61.56H43.6154ZM43.6154 61.8769V61.56H43.9323V61.8769H43.6154ZM43.6154 62.1938V61.8769H43.9323V62.1938H43.6154ZM40.7631 60.2923V59.9753H41.08V60.2923H40.7631ZM40.7631 60.6092V60.2923H41.08V60.6092H40.7631ZM40.7631 60.9261V60.6092H41.08V60.9261H40.7631ZM40.7631 61.243V60.9261H41.08V61.243H40.7631ZM40.7631 61.56V61.243H41.08V61.56H40.7631ZM40.7631 61.8769V61.56H41.08V61.8769H40.7631ZM40.7631 62.1938V61.8769H41.08V62.1938H40.7631ZM40.1292 62.1938V61.8769H40.4461V62.1938H40.1292ZM40.1292 61.8769V61.56H40.4461V61.8769H40.1292ZM40.1292 61.56V61.243H40.4461V61.56H40.1292ZM40.1292 61.243V60.9261H40.4461V61.243H40.1292ZM40.1292 60.9261V60.6092H40.4461V60.9261H40.1292ZM40.1292 60.6092V60.2923H40.4461V60.6092H40.1292ZM39.4954 61.56V61.243H39.8123V61.56H39.4954ZM39.4954 61.8769V61.56H39.8123V61.8769H39.4954ZM39.4954 62.1938V61.8769H39.8123V62.1938H39.4954ZM39.8123 62.1938V61.8769H40.1292V62.1938H39.8123ZM39.8123 61.8769V61.56H40.1292V61.8769H39.8123ZM39.8123 61.56V61.243H40.1292V61.56H39.8123ZM39.8123 61.243V60.9261H40.1292V61.243H39.8123ZM39.8123 60.9261V60.6092H40.1292V60.9261H39.8123ZM40.4461 60.6092V60.2923H40.7631V60.6092H40.4461ZM40.4461 60.9261V60.6092H40.7631V60.9261H40.4461ZM40.4461 61.243V60.9261H40.7631V61.243H40.4461ZM40.4461 61.56V61.243H40.7631V61.56H40.4461ZM40.4461 61.8769V61.56H40.7631V61.8769H40.4461ZM40.4461 62.1938V61.8769H40.7631V62.1938H40.4461ZM42.3477 60.2923V59.9753H42.6646V60.2923H42.3477ZM42.0307 60.2923V59.9753H42.3477V60.2923H42.0307ZM41.7138 60.2923V59.9753H42.0307V60.2923H41.7138ZM41.08 60.2923V59.9753H41.3969V60.2923H41.08ZM41.08 60.6092V60.2923H41.3969V60.6092H41.08ZM41.3969 60.6092V60.2923H41.7138V60.6092H41.3969ZM41.7138 60.6092V60.2923H42.0307V60.6092H41.7138ZM42.0307 60.6092V60.2923H42.3477V60.6092H42.0307ZM42.3477 60.6092V60.2923H42.6646V60.6092H42.3477ZM42.3477 60.9261V60.6092H42.6646V60.9261H42.3477ZM42.0307 60.9261V60.6092H42.3477V60.9261H42.0307ZM41.7138 60.9261V60.6092H42.0307V60.9261H41.7138ZM41.3969 60.9261V60.6092H41.7138V60.9261H41.3969ZM41.08 60.9261V60.6092H41.3969V60.9261H41.08ZM41.08 61.243V60.9261H41.3969V61.243H41.08ZM41.3969 61.243V60.9261H41.7138V61.243H41.3969ZM41.7138 61.243V60.9261H42.0307V61.243H41.7138ZM42.0307 61.243V60.9261H42.3477V61.243H42.0307ZM42.3477 61.243V60.9261H42.6646V61.243H42.3477ZM42.3477 61.56V61.243H42.6646V61.56H42.3477ZM41.08 61.56V61.243H41.3969V61.56H41.08ZM39.8123 62.5107V62.8277H39.4954V62.5107H39.8123ZM40.1292 62.5107V62.8277H39.8123V62.5107H40.1292ZM39.8123 62.1938V62.5107H39.4954V62.1938H39.8123ZM40.7631 62.1938V62.5107H40.4461V62.1938H40.7631ZM40.7631 62.5107V62.8277H40.4461V62.5107H40.7631ZM41.08 62.5107V62.8277H40.7631V62.5107H41.08ZM41.08 62.1938V62.5107H40.7631V62.1938H41.08ZM40.1292 62.1938V62.5107H39.8123V62.1938H40.1292ZM40.4461 62.1938V62.5107H40.1292V62.1938H40.4461ZM40.4461 62.5107V62.8277H40.1292V62.5107H40.4461ZM42.9815 62.5107V62.8277H42.6646V62.5107H42.9815ZM43.2984 62.5107V62.8277H42.9815V62.5107H43.2984ZM42.9815 62.1938V62.5107H42.6646V62.1938H42.9815ZM43.9323 62.1938V62.5107H43.6154V62.1938H43.9323ZM43.9323 62.5107V62.8277H43.6154V62.5107H43.9323ZM44.2492 62.5107V62.8277H43.9323V62.5107H44.2492ZM44.2492 62.1938V62.5107H43.9323V62.1938H44.2492ZM43.2984 62.1938V62.5107H42.9815V62.1938H43.2984ZM43.6154 62.1938V62.5107H43.2984V62.1938H43.6154ZM43.6154 62.5107V62.8277H43.2984V62.5107H43.6154ZM41.7138 66.3138V66.6307H41.3969V66.3138H41.7138ZM42.0307 66.3138V66.6307H41.7138V66.3138H42.0307ZM42.3477 66.3138V66.6307H42.0307V66.3138H42.3477ZM42.6646 65.9969V66.3138H42.3477V65.9969H42.6646ZM41.3969 65.9969V66.3138H41.08V65.9969H41.3969ZM41.7138 61.243V61.56H41.3969V61.243H41.7138ZM42.0307 61.243V61.56H41.7138V61.243H42.0307ZM42.3477 61.243V61.56H42.0307V61.243H42.3477ZM42.6646 61.56V61.8769H42.3477V61.56H42.6646ZM41.3969 61.56V61.8769H41.08V61.56H41.3969ZM41.7138 59.9753V60.2923H41.3969V59.9753H41.7138Z" fill="#00D4CD"/>
<path d="M47.3482 52.3941C47.4784 55.6861 42.9482 58.5381 37.2298 58.7642C31.5113 58.9904 26.7701 56.5051 26.6399 53.2131C26.5097 49.9211 31.2756 53.0298 36.994 52.8036C42.7125 52.5775 47.218 49.1021 47.3482 52.3941Z" fill="black"/>
<path d="M36.96 2.85547C47.6282 2.85572 56.2764 12.483 56.2764 24.3584C56.2763 29.5227 54.6396 34.2609 51.9136 37.9679C51.9109 37.9716 51.9134 37.9769 51.9179 37.9771V37.9771C51.9223 37.9773 51.9251 37.9818 51.9227 37.9856C51.1499 39.2266 49.4143 42.1629 48.6123 44.0469C47.6078 46.4073 48.0572 51.6151 47.4062 52.9258C46.9038 53.9368 45.7985 53.7265 44.7939 53.7119C39.6363 53.637 28.92 53.4425 27.3125 53.2627C25.7199 53.0845 26.0013 46.3094 25.1275 42.7955C25.1109 42.729 25.0873 42.6663 25.057 42.6047L23.9971 40.4502L23.7423 40.0616C23.7091 40.0109 23.6714 39.9634 23.6298 39.9192C19.9416 36.0033 17.6427 30.4799 17.6426 24.3584C17.6426 12.4828 26.2915 2.85547 36.96 2.85547Z" fill="#00D4CD"/>
<path d="M45.2023 5.83096C44.7238 6.38182 44.5538 7.16106 44.7298 7.99728C44.9057 8.8335 45.4132 9.65818 46.1405 10.2899C46.8678 10.9217 47.7554 11.3087 48.608 11.3659C49.4606 11.4231 50.2084 11.1457 50.6869 10.5949L47.9446 8.21292L45.2023 5.83096Z" fill="white"/>
<path d="M54.5622 17.8228C55.0794 17.3081 54.861 16.0968 53.9553 14.4553C53.0495 12.8138 51.5305 10.8767 49.7324 9.06998C47.9343 7.26328 46.0044 5.73504 44.3673 4.82146C42.7301 3.90788 41.5198 3.6838 41.0027 4.1985L45.345 6.60038L49.1725 10.0655L52.383 13.7881L54.5622 17.8228Z" fill="white"/>
<path d="M31.8014 10.1718L32.0797 11.6706L24.7705 13.3184C24.7705 13.3184 26.1761 11.5926 27.6791 10.9372C29.1267 10.3059 31.8014 10.1718 31.8014 10.1718Z" fill="black"/>
<path d="M39.892 10.2932L39.6643 11.9005L47.1132 13.2632C47.1132 13.2632 45.6302 11.5042 44.0873 10.8876C42.601 10.2936 39.892 10.2932 39.892 10.2932Z" fill="black"/>
<path d="M28.1558 29.0078C28.1558 29.0078 33.1364 34.0566 37.3736 33.8344C41.3063 33.6282 45.6921 29.0078 45.6921 29.0078" stroke="black" stroke-width="0.112412"/>
<path d="M46.8623 30.0586C46.8623 30.0586 46.3732 29.2925 45.6379 28.9823C45.132 28.7688 44.006 28.9823 44.006 28.9823" stroke="black" stroke-width="0.112412"/>
<path d="M29.71 28.9141C29.71 28.9141 28.8251 28.7066 28.0819 28.9974C27.5706 29.1974 26.9128 30.1361 26.9128 30.1361" stroke="black" stroke-width="0.112412"/>
<ellipse cx="41.1702" cy="19.8491" rx="4.99294" ry="4.3233" transform="rotate(88.3583 41.1702 19.8491)" fill="#F27E07"/>
<g filter="url(#filter2_d_476_3300)">
<ellipse cx="41.3273" cy="20.0178" rx="4.46737" ry="3.86821" transform="rotate(88.3583 41.3273 20.0178)" fill="white"/>
</g>
<ellipse cx="41.205" cy="21.0747" rx="2.71546" ry="2.35127" transform="rotate(88.3583 41.205 21.0747)" fill="#D27B08"/>
<ellipse cx="1.89667" cy="1.70316" rx="1.89667" ry="1.70316" transform="matrix(0.338426 0.940993 -0.904493 0.426489 42.1816 18.6484)" fill="#381004"/>
<ellipse cx="41.2087" cy="19.4408" rx="0.437978" ry="0.379237" transform="rotate(88.3583 41.2087 19.4408)" fill="white"/>
<ellipse cx="31.7209" cy="19.8491" rx="4.99294" ry="4.3233" transform="rotate(88.3583 31.7209 19.8491)" fill="#F27E07"/>
<g filter="url(#filter3_d_476_3300)">
<ellipse cx="31.8781" cy="20.0178" rx="4.46737" ry="3.86821" transform="rotate(88.3583 31.8781 20.0178)" fill="white"/>
</g>
<ellipse cx="31.7558" cy="21.0747" rx="2.71546" ry="2.35127" transform="rotate(88.3583 31.7558 21.0747)" fill="#D27B08"/>
<ellipse cx="1.89667" cy="1.70316" rx="1.89667" ry="1.70316" transform="matrix(0.338426 0.940993 -0.904493 0.426489 32.7329 18.6484)" fill="#381004"/>
<ellipse cx="31.7594" cy="19.4408" rx="0.437978" ry="0.379237" transform="rotate(88.3583 31.7594 19.4408)" fill="white"/>
<defs>
<filter id="filter0_d_476_3300" x="2.45898" y="35.0781" width="20.7488" height="21.4364" filterUnits="userSpaceOnUse" color-interpolation-filters="sRGB">
<feFlood flood-opacity="0" result="BackgroundImageFix"/>
<feColorMatrix in="SourceAlpha" type="matrix" values="0 0 0 0 0 0 0 0 0 0 0 0 0 0 0 0 0 0 127 0" result="hardAlpha"/>
<feOffset dx="0.449649" dy="0.449649"/>
<feGaussianBlur stdDeviation="0.224824"/>
<feComposite in2="hardAlpha" operator="out"/>
<feColorMatrix type="matrix" values="0 0 0 0 0 0 0 0 0 0 0 0 0 0 0 0 0 0 0.25 0"/>
<feBlend mode="normal" in2="BackgroundImageFix" result="effect1_dropShadow_476_3300"/>
<feBlend mode="normal" in="SourceGraphic" in2="effect1_dropShadow_476_3300" result="shape"/>
</filter>
<filter id="filter1_d_476_3300" x="52.8491" y="34.1104" width="18.9877" height="21.0546" filterUnits="userSpaceOnUse" color-interpolation-filters="sRGB">
<feFlood flood-opacity="0" result="BackgroundImageFix"/>
<feColorMatrix in="SourceAlpha" type="matrix" values="0 0 0 0 0 0 0 0 0 0 0 0 0 0 0 0 0 0 127 0" result="hardAlpha"/>
<feOffset dx="0.562061" dy="0.449649"/>
<feGaussianBlur stdDeviation="0.224824"/>
<feComposite in2="hardAlpha" operator="out"/>
<feColorMatrix type="matrix" values="0 0 0 0 0 0 0 0 0 0 0 0 0 0 0 0 0 0 0.25 0"/>
<feBlend mode="normal" in2="BackgroundImageFix" result="effect1_dropShadow_476_3300"/>
<feBlend mode="normal" in="SourceGraphic" in2="effect1_dropShadow_476_3300" result="shape"/>
</filter>
<filter id="filter2_d_476_3300" x="36.7577" y="15.5508" width="9.13908" height="10.3351" filterUnits="userSpaceOnUse" color-interpolation-filters="sRGB">
<feFlood flood-opacity="0" result="BackgroundImageFix"/>
<feColorMatrix in="SourceAlpha" type="matrix" values="0 0 0 0 0 0 0 0 0 0 0 0 0 0 0 0 0 0 127 0" result="hardAlpha"/>
<feOffset dy="0.700764"/>
<feGaussianBlur stdDeviation="0.350382"/>
<feComposite in2="hardAlpha" operator="out"/>
<feColorMatrix type="matrix" values="0 0 0 0 0 0 0 0 0 0 0 0 0 0 0 0 0 0 0.25 0"/>
<feBlend mode="normal" in2="BackgroundImageFix" result="effect1_dropShadow_476_3300"/>
<feBlend mode="normal" in="SourceGraphic" in2="effect1_dropShadow_476_3300" result="shape"/>
</filter>
<filter id="filter3_d_476_3300" x="27.3085" y="15.5508" width="9.13908" height="10.3351" filterUnits="userSpaceOnUse" color-interpolation-filters="sRGB">
<feFlood flood-opacity="0" result="BackgroundImageFix"/>
<feColorMatrix in="SourceAlpha" type="matrix" values="0 0 0 0 0 0 0 0 0 0 0 0 0 0 0 0 0 0 127 0" result="hardAlpha"/>
<feOffset dy="0.700764"/>
<feGaussianBlur stdDeviation="0.350382"/>
<feComposite in2="hardAlpha" operator="out"/>
<feColorMatrix type="matrix" values="0 0 0 0 0 0 0 0 0 0 0 0 0 0 0 0 0 0 0.25 0"/>
<feBlend mode="normal" in2="BackgroundImageFix" result="effect1_dropShadow_476_3300"/>
<feBlend mode="normal" in="SourceGraphic" in2="effect1_dropShadow_476_3300" result="shape"/>
</filter>
</defs>
</svg>
