<svg width="74" height="74" viewBox="0 0 74 74" fill="none" xmlns="http://www.w3.org/2000/svg">
<circle cx="37.1935" cy="37.3554" r="36.3653" transform="rotate(-0.432485 37.1935 37.3554)" fill="#FEF6F6"/>
<g filter="url(#filter0_d_476_3336)">
<path d="M14.893 42.9733L14.2029 44.4795C14.4138 44.094 15.0838 43.4553 15.3749 43.2744C15.6938 43.0763 16.929 42.9761 17.5068 42.9507C18.0845 42.9254 19.3145 43.6073 20.2223 44.3162C21.1478 45.0389 21.6348 45.5472 22.0895 46.559C22.6287 47.7586 22.7354 48.6007 22.3763 49.884C21.9602 51.3708 21.1401 52.1221 19.8221 53.1724C18.5444 54.1906 17.6142 54.6435 15.966 55.0679C14.5363 55.436 13.6507 55.498 12.1935 55.3599C10.6905 55.2175 9.85089 54.9471 8.54647 54.323C7.08997 53.6262 5.34454 51.9086 5.34454 51.9086C5.34454 51.9086 3.34813 52.0987 2.8606 51.35C2.41403 50.6642 3.31514 49.3161 3.31514 49.3161C3.31514 49.3161 2.74518 47.5487 2.87076 46.3893C2.87076 46.3893 3.19649 45.0579 3.5246 44.2316C4.11039 42.7563 4.5999 41.9557 5.59681 40.642C6.42801 39.5467 6.94074 38.9363 8.03497 38.0262C8.852 37.3466 9.30218 36.9114 10.3061 36.465C11.1875 36.0731 11.7228 35.782 12.6883 35.6354C14.607 35.3441 15.6313 34.9079 17.5916 34.8909C18.7251 34.8811 19.4069 35.3352 20.0662 36.1059C20.54 36.6597 20.7766 37.4327 20.7564 37.7789C20.7363 38.125 20.5393 38.9347 19.9127 39.4041C19.286 39.8735 18.3724 39.7939 17.994 39.6954C17.6155 39.5969 18.5094 38.0726 17.7162 37.8662C16.875 37.6473 17.1946 39.2788 16.3256 39.4809C15.3658 39.7041 14.7254 37.6626 14.1986 38.4003C13.8614 38.8726 14.4069 39.7722 14.4069 39.7722L14.893 42.9733Z" fill="#FAAE2B"/>
</g>
<g filter="url(#filter1_d_476_3336)">
<path d="M59.6704 41.7678L60.389 43.2068C60.1743 42.8415 59.531 42.2645 59.2579 42.1101C58.9587 41.9409 57.8438 41.9498 57.3238 41.9755C56.8037 42.0011 55.7452 42.7884 54.9775 43.5741C54.1949 44.3752 53.7915 44.9242 53.4503 45.9717C53.0458 47.2134 53.0056 48.0613 53.4126 49.3074C53.884 50.7511 54.6694 51.4269 55.9213 52.3566C57.1349 53.2579 57.9994 53.6269 59.5062 53.9043C60.8133 54.1449 61.612 54.1287 62.9102 53.8629C64.2494 53.5887 64.9848 53.2456 66.114 52.5094C67.3748 51.6873 68.8274 49.8235 68.8274 49.8235C68.8274 49.8235 70.6312 49.837 71.0191 49.0487C71.3745 48.3265 70.477 47.0636 70.477 47.0636C70.477 47.0636 70.8717 45.2537 70.6825 44.1104C70.6825 44.1104 70.3023 42.8134 69.9534 42.0196C69.3304 40.6023 68.8384 39.8484 67.8572 38.6282C67.0391 37.6108 66.5388 37.0482 65.4969 36.2384C64.719 35.6337 64.2864 35.24 63.3561 34.8839C62.5395 34.5713 62.04 34.3287 61.164 34.2677C59.4233 34.1466 58.4755 33.8025 56.7155 33.9582C55.6979 34.0483 55.1162 34.5604 54.5755 35.3858C54.187 35.9789 54.0258 36.7694 54.0667 37.1123C54.1076 37.4551 54.3378 38.2439 54.931 38.6561C55.5243 39.0683 56.3387 38.9086 56.6717 38.7772C57.0048 38.6459 56.1021 37.2069 56.8002 36.9315C57.5405 36.6395 57.3614 38.292 58.1544 38.4167C59.0304 38.5545 59.4701 36.4654 59.9915 37.1536C60.3252 37.5941 59.8952 38.5378 59.8952 38.5378L59.6704 41.7678Z" fill="#FAAE2B"/>
</g>
<path d="M32.7886 61.6894V62.0063H32.4717V61.6894H32.7886ZM32.7886 61.3725V61.6894H32.4717V61.3725H32.7886ZM32.7886 61.0555V61.3725H32.4717V61.0555H32.7886ZM32.4717 61.0555V61.3725H32.1548V61.0555H32.4717ZM32.4717 60.7386V61.0555H32.1548V60.7386H32.4717ZM32.4717 60.4217V60.7386H32.1548V60.4217H32.4717ZM32.1548 60.4217V60.7386H31.8378V60.4217H32.1548ZM31.8378 60.4217V60.7386H31.5209V60.4217H31.8378ZM31.8378 60.1048V60.4217H31.5209V60.1048H31.8378ZM32.1548 60.1048V60.4217H31.8378V60.1048H32.1548ZM31.5209 60.1048V60.4217H31.204V60.1048H31.5209ZM31.5209 59.7878V60.1048H31.204V59.7878H31.5209ZM31.204 59.7878V60.1048H30.8871V59.7878H31.204ZM30.8871 59.7878V60.1048H30.5701V59.7878H30.8871ZM30.5701 59.7878V60.1048H30.2532V59.7878H30.5701ZM30.2532 59.7878V60.1048H29.9363V59.7878H30.2532ZM29.9363 59.7878V60.1048H29.6194V59.7878H29.9363ZM29.6194 59.7878V60.1048H29.3025V59.7878H29.6194ZM29.3025 59.7878V60.1048H28.9855V59.7878H29.3025ZM29.3025 60.1048V60.4217H28.9855V60.1048H29.3025ZM28.9855 60.1048V60.4217H28.6686V60.1048H28.9855ZM28.6686 60.1048V60.4217H28.3517V60.1048H28.6686ZM28.6686 60.4217V60.7386H28.3517V60.4217H28.6686ZM28.6686 60.7386V61.0555H28.3517V60.7386H28.6686ZM28.3517 60.4217V60.7386H28.0348V60.4217H28.3517ZM28.3517 60.7386V61.0555H28.0348V60.7386H28.3517ZM28.3517 61.0555V61.3725H28.0348V61.0555H28.3517ZM28.0348 61.0555V61.3725H27.7178V61.0555H28.0348ZM28.6686 61.0555V61.3725H28.3517V61.0555H28.6686ZM28.9855 61.0555V61.3725H28.6686V61.0555H28.9855ZM29.3025 61.0555V61.3725H28.9855V61.0555H29.3025ZM29.6194 61.0555V61.3725H29.3025V61.0555H29.6194ZM29.9363 61.0555V61.3725H29.6194V61.0555H29.9363ZM30.2532 61.0555V61.3725H29.9363V61.0555H30.2532ZM30.5701 61.0555V61.3725H30.2532V61.0555H30.5701ZM30.5701 60.7386V61.0555H30.2532V60.7386H30.5701ZM30.8871 60.7386V61.0555H30.5701V60.7386H30.8871ZM31.204 60.7386V61.0555H30.8871V60.7386H31.204ZM31.5209 60.7386V61.0555H31.204V60.7386H31.5209ZM31.8378 60.7386V61.0555H31.5209V60.7386H31.8378ZM31.8378 61.0555V61.3725H31.5209V61.0555H31.8378ZM32.1548 61.0555V61.3725H31.8378V61.0555H32.1548ZM31.5209 61.0555V61.3725H31.204V61.0555H31.5209ZM31.204 61.0555V61.3725H30.8871V61.0555H31.204ZM30.8871 61.0555V61.3725H30.5701V61.0555H30.8871ZM32.1548 60.7386V61.0555H31.8378V60.7386H32.1548ZM31.5209 61.3725V61.6894H31.204V61.3725H31.5209ZM31.204 61.3725V61.6894H30.8871V61.3725H31.204ZM31.8378 61.3725V61.6894H31.5209V61.3725H31.8378ZM32.1548 61.3725V61.6894H31.8378V61.3725H32.1548ZM32.4717 61.3725V61.6894H32.1548V61.3725H32.4717ZM32.4717 61.6894V62.0063H32.1548V61.6894H32.4717ZM32.1548 61.6894V62.0063H31.8378V61.6894H32.1548ZM31.8378 61.6894V62.0063H31.5209V61.6894H31.8378ZM31.5209 61.6894V62.0063H31.204V61.6894H31.5209ZM31.5209 60.4217V60.7386H31.204V60.4217H31.5209ZM31.204 60.4217V60.7386H30.8871V60.4217H31.204ZM31.204 60.1048V60.4217H30.8871V60.1048H31.204ZM30.8871 60.1048V60.4217H30.5701V60.1048H30.8871ZM30.5701 60.1048V60.4217H30.2532V60.1048H30.5701ZM30.5701 60.4217V60.7386H30.2532V60.4217H30.5701ZM30.8871 60.4217V60.7386H30.5701V60.4217H30.8871ZM30.2532 60.4217V60.7386H29.9363V60.4217H30.2532ZM30.2532 60.7386V61.0555H29.9363V60.7386H30.2532ZM29.9363 60.7386V61.0555H29.6194V60.7386H29.9363ZM29.6194 60.7386V61.0555H29.3025V60.7386H29.6194ZM29.3025 60.7386V61.0555H28.9855V60.7386H29.3025ZM28.9855 60.7386V61.0555H28.6686V60.7386H28.9855ZM28.9855 60.4217V60.7386H28.6686V60.4217H28.9855ZM29.3025 60.4217V60.7386H28.9855V60.4217H29.3025ZM29.6194 60.4217V60.7386H29.3025V60.4217H29.6194ZM29.9363 60.4217V60.7386H29.6194V60.4217H29.9363ZM30.2532 60.1048V60.4217H29.9363V60.1048H30.2532ZM29.9363 60.1048V60.4217H29.6194V60.1048H29.9363ZM29.6194 60.1048V60.4217H29.3025V60.1048H29.6194ZM28.0348 61.3725V61.6894H27.7178V61.3725H28.0348ZM28.3517 61.3725V61.6894H28.0348V61.3725H28.3517ZM28.6686 61.3725V61.6894H28.3517V61.3725H28.6686ZM28.9855 61.3725V61.6894H28.6686V61.3725H28.9855ZM29.3025 61.3725V61.6894H28.9855V61.3725H29.3025ZM29.6194 61.3725V61.6894H29.3025V61.3725H29.6194ZM29.3025 61.6894V62.0063H28.9855V61.6894H29.3025ZM29.3025 62.0063V62.3232H28.9855V62.0063H29.3025ZM29.3025 62.3232V62.6402H28.9855V62.3232H29.3025ZM28.9855 62.3232V62.6402H28.6686V62.3232H28.9855ZM28.6686 62.3232V62.6402H28.3517V62.3232H28.6686ZM28.6686 62.0063V62.3232H28.3517V62.0063H28.6686ZM28.6686 61.6894V62.0063H28.3517V61.6894H28.6686ZM28.9855 61.6894V62.0063H28.6686V61.6894H28.9855ZM28.9855 62.0063V62.3232H28.6686V62.0063H28.9855ZM28.3517 62.3232V62.6402H28.0348V62.3232H28.3517ZM28.0348 62.0063V62.3232H27.7178V62.0063H28.0348ZM28.0348 61.6894V62.0063H27.7178V61.6894H28.0348ZM28.3517 61.6894V62.0063H28.0348V61.6894H28.3517ZM28.3517 62.0063V62.3232H28.0348V62.0063H28.3517ZM28.0348 62.3232V62.6402H27.7178V62.3232H28.0348ZM28.0348 62.6402V62.9571H27.7178V62.6402H28.0348ZM28.0348 62.9571V63.274H27.7178V62.9571H28.0348ZM28.0348 63.274V63.5909H27.7178V63.274H28.0348ZM28.0348 63.5909V63.9079H27.7178V63.5909H28.0348ZM28.0348 63.9079V64.2248H27.7178V63.9079H28.0348ZM28.0348 64.2248V64.5417H27.7178V64.2248H28.0348ZM28.0348 64.5417V64.8586H27.7178V64.5417H28.0348ZM28.0348 64.8586V65.1755H27.7178V64.8586H28.0348ZM28.0348 65.1755V65.4925H27.7178V65.1755H28.0348ZM28.0348 65.4925V65.8094H27.7178V65.4925H28.0348ZM28.0348 65.8094V66.1263H27.7178V65.8094H28.0348ZM28.0348 66.1263V66.4432H27.7178V66.1263H28.0348ZM28.3517 66.1263V66.4432H28.0348V66.1263H28.3517ZM28.3517 66.4432V66.7602H28.0348V66.4432H28.3517ZM28.3517 66.7602V67.0771H28.0348V66.7602H28.3517ZM28.6686 66.7602V67.0771H28.3517V66.7602H28.6686ZM28.9855 66.7602V67.0771H28.6686V66.7602H28.9855ZM28.9855 67.0771V67.394H28.6686V67.0771H28.9855ZM28.6686 67.0771V67.394H28.3517V67.0771H28.6686ZM29.3025 67.0771V67.394H28.9855V67.0771H29.3025ZM29.3025 67.394V67.7109H28.9855V67.394H29.3025ZM29.6194 67.394V67.7109H29.3025V67.394H29.6194ZM29.9363 67.394V67.7109H29.6194V67.394H29.9363ZM30.2532 67.394V67.7109H29.9363V67.394H30.2532ZM30.5701 67.394V67.7109H30.2532V67.394H30.5701ZM30.8871 67.394V67.7109H30.5701V67.394H30.8871ZM31.204 67.394V67.7109H30.8871V67.394H31.204ZM31.5209 67.394V67.7109H31.204V67.394H31.5209ZM31.5209 67.0771V67.394H31.204V67.0771H31.5209ZM31.8378 67.0771V67.394H31.5209V67.0771H31.8378ZM32.1548 67.0771V67.394H31.8378V67.0771H32.1548ZM32.1548 66.7602V67.0771H31.8378V66.7602H32.1548ZM32.4717 66.7602V67.0771H32.1548V66.7602H32.4717ZM32.4717 66.4432V66.7602H32.1548V66.4432H32.4717ZM32.4717 66.1263V66.4432H32.1548V66.1263H32.4717ZM32.1548 66.1263V66.4432H31.8378V66.1263H32.1548ZM32.7886 66.1263V66.4432H32.4717V66.1263H32.7886ZM32.7886 65.8094V66.1263H32.4717V65.8094H32.7886ZM32.7886 65.4925V65.8094H32.4717V65.4925H32.7886ZM32.7886 65.1755V65.4925H32.4717V65.1755H32.7886ZM32.7886 64.8586V65.1755H32.4717V64.8586H32.7886ZM32.7886 64.5417V64.8586H32.4717V64.5417H32.7886ZM32.7886 64.2248V64.5417H32.4717V64.2248H32.7886ZM32.7886 63.9079V64.2248H32.4717V63.9079H32.7886ZM32.4717 63.9079V64.2248H32.1548V63.9079H32.4717ZM32.4717 63.5909V63.9079H32.1548V63.5909H32.4717ZM32.4717 63.274V63.5909H32.1548V63.274H32.4717ZM32.1548 63.274V63.5909H31.8378V63.274H32.1548ZM31.8378 63.274V63.5909H31.5209V63.274H31.8378ZM31.8378 62.9571V63.274H31.5209V62.9571H31.8378ZM32.1548 62.9571V63.274H31.8378V62.9571H32.1548ZM31.5209 62.9571V63.274H31.204V62.9571H31.5209ZM31.5209 62.6402V62.9571H31.204V62.6402H31.5209ZM31.204 62.6402V62.9571H30.8871V62.6402H31.204ZM30.8871 62.6402V62.9571H30.5701V62.6402H30.8871ZM30.5701 62.6402V62.9571H30.2532V62.6402H30.5701ZM30.2532 62.6402V62.9571H29.9363V62.6402H30.2532ZM29.9363 62.6402V62.9571H29.6194V62.6402H29.9363ZM29.6194 62.6402V62.9571H29.3025V62.6402H29.6194ZM29.3025 62.6402V62.9571H28.9855V62.6402H29.3025ZM28.9855 62.6402V62.9571H28.6686V62.6402H28.9855ZM28.6686 62.6402V62.9571H28.3517V62.6402H28.6686ZM28.3517 62.6402V62.9571H28.0348V62.6402H28.3517ZM28.3517 62.9571V63.274H28.0348V62.9571H28.3517ZM28.3517 63.274V63.5909H28.0348V63.274H28.3517ZM28.3517 63.5909V63.9079H28.0348V63.5909H28.3517ZM28.3517 63.9079V64.2248H28.0348V63.9079H28.3517ZM28.6686 63.9079V64.2248H28.3517V63.9079H28.6686ZM28.6686 63.5909V63.9079H28.3517V63.5909H28.6686ZM28.9855 63.5909V63.9079H28.6686V63.5909H28.9855ZM28.9855 63.274V63.5909H28.6686V63.274H28.9855ZM28.9855 62.9571V63.274H28.6686V62.9571H28.9855ZM28.6686 62.9571V63.274H28.3517V62.9571H28.6686ZM28.6686 63.274V63.5909H28.3517V63.274H28.6686ZM29.3025 63.5909V63.9079H28.9855V63.5909H29.3025ZM29.3025 63.274V63.5909H28.9855V63.274H29.3025ZM29.3025 62.9571V63.274H28.9855V62.9571H29.3025ZM29.6194 62.9571V63.274H29.3025V62.9571H29.6194ZM29.9363 62.9571V63.274H29.6194V62.9571H29.9363ZM29.9363 63.274V63.5909H29.6194V63.274H29.9363ZM30.2532 63.274V63.5909H29.9363V63.274H30.2532ZM30.5701 63.274V63.5909H30.2532V63.274H30.5701ZM30.8871 63.274V63.5909H30.5701V63.274H30.8871ZM31.204 63.274V63.5909H30.8871V63.274H31.204ZM31.204 63.5909V63.9079H30.8871V63.5909H31.204ZM31.5209 63.5909V63.9079H31.204V63.5909H31.5209ZM31.5209 63.274V63.5909H31.204V63.274H31.5209ZM31.204 62.9571V63.274H30.8871V62.9571H31.204ZM30.8871 62.9571V63.274H30.5701V62.9571H30.8871ZM30.5701 62.9571V63.274H30.2532V62.9571H30.5701ZM30.2532 62.9571V63.274H29.9363V62.9571H30.2532ZM29.6194 63.274V63.5909H29.3025V63.274H29.6194ZM29.6194 63.5909V63.9079H29.3025V63.5909H29.6194ZM29.3025 63.9079V64.2248H28.9855V63.9079H29.3025ZM29.6194 63.9079V64.2248H29.3025V63.9079H29.6194ZM29.6194 64.2248V64.5417H29.3025V64.2248H29.6194ZM29.3025 64.2248V64.5417H28.9855V64.2248H29.3025ZM29.3025 64.5417V64.8586H28.9855V64.5417H29.3025ZM29.3025 64.8586V65.1755H28.9855V64.8586H29.3025ZM29.3025 65.1755V65.4925H28.9855V65.1755H29.3025ZM29.3025 65.4925V65.8094H28.9855V65.4925H29.3025ZM29.3025 65.8094V66.1263H28.9855V65.8094H29.3025ZM29.6194 65.8094V66.1263H29.3025V65.8094H29.6194ZM29.6194 66.1263V66.4432H29.3025V66.1263H29.6194ZM29.6194 66.4432V66.7602H29.3025V66.4432H29.6194ZM29.9363 66.4432V66.7602H29.6194V66.4432H29.9363ZM30.2532 66.1263V66.4432H29.9363V66.1263H30.2532ZM30.5701 66.1263V66.4432H30.2532V66.1263H30.5701ZM30.8871 66.1263V66.4432H30.5701V66.1263H30.8871ZM31.204 66.1263V66.4432H30.8871V66.1263H31.204ZM30.5701 66.4432V66.7602H30.2532V66.4432H30.5701ZM30.2532 66.4432V66.7602H29.9363V66.4432H30.2532ZM29.9363 66.1263V66.4432H29.6194V66.1263H29.9363ZM31.204 65.8094V66.1263H30.8871V65.8094H31.204ZM31.5209 65.8094V66.1263H31.204V65.8094H31.5209ZM31.5209 65.4925V65.8094H31.204V65.4925H31.5209ZM31.5209 65.1755V65.4925H31.204V65.1755H31.5209ZM31.5209 64.8586V65.1755H31.204V64.8586H31.5209ZM31.5209 64.5417V64.8586H31.204V64.5417H31.5209ZM31.5209 64.2248V64.5417H31.204V64.2248H31.5209ZM31.204 64.2248V64.5417H30.8871V64.2248H31.204ZM31.204 63.9079V64.2248H30.8871V63.9079H31.204ZM30.8871 63.9079V64.2248H30.5701V63.9079H30.8871ZM30.5701 63.9079V64.2248H30.2532V63.9079H30.5701ZM30.2532 63.9079V64.2248H29.9363V63.9079H30.2532ZM29.9363 63.9079V64.2248H29.6194V63.9079H29.9363ZM29.9363 63.5909V63.9079H29.6194V63.5909H29.9363ZM30.2532 63.5909V63.9079H29.9363V63.5909H30.2532ZM30.5701 63.5909V63.9079H30.2532V63.5909H30.5701ZM30.8871 63.5909V63.9079H30.5701V63.5909H30.8871ZM31.5209 63.9079V64.2248H31.204V63.9079H31.5209ZM31.8378 63.9079V64.2248H31.5209V63.9079H31.8378ZM32.1548 63.9079V64.2248H31.8378V63.9079H32.1548ZM32.1548 63.5909V63.9079H31.8378V63.5909H32.1548ZM31.8378 63.5909V63.9079H31.5209V63.5909H31.8378ZM31.8378 64.2248V64.5417H31.5209V64.2248H31.8378ZM31.8378 64.5417V64.8586H31.5209V64.5417H31.8378ZM31.8378 64.8586V65.1755H31.5209V64.8586H31.8378ZM31.8378 65.1755V65.4925H31.5209V65.1755H31.8378ZM31.8378 65.4925V65.8094H31.5209V65.4925H31.8378ZM31.8378 65.8094V66.1263H31.5209V65.8094H31.8378ZM32.1548 65.8094V66.1263H31.8378V65.8094H32.1548ZM32.1548 65.4925V65.8094H31.8378V65.4925H32.1548ZM32.4717 65.4925V65.8094H32.1548V65.4925H32.4717ZM32.4717 65.1755V65.4925H32.1548V65.1755H32.4717ZM32.4717 64.8586V65.1755H32.1548V64.8586H32.4717ZM32.4717 64.5417V64.8586H32.1548V64.5417H32.4717ZM32.4717 64.2248V64.5417H32.1548V64.2248H32.4717ZM32.1548 64.2248V64.5417H31.8378V64.2248H32.1548ZM32.1548 64.5417V64.8586H31.8378V64.5417H32.1548ZM32.1548 65.1755V65.4925H31.8378V65.1755H32.1548ZM32.4717 65.8094V66.1263H32.1548V65.8094H32.4717ZM32.1548 64.8586V65.1755H31.8378V64.8586H32.1548ZM31.8378 66.1263V66.4432H31.5209V66.1263H31.8378ZM31.8378 66.4432V66.7602H31.5209V66.4432H31.8378ZM31.8378 66.7602V67.0771H31.5209V66.7602H31.8378ZM32.1548 66.4432V66.7602H31.8378V66.4432H32.1548ZM31.5209 66.7602V67.0771H31.204V66.7602H31.5209ZM31.204 67.0771V67.394H30.8871V67.0771H31.204ZM31.204 66.7602V67.0771H30.8871V66.7602H31.204ZM31.204 66.4432V66.7602H30.8871V66.4432H31.204ZM31.5209 66.4432V66.7602H31.204V66.4432H31.5209ZM31.5209 66.1263V66.4432H31.204V66.1263H31.5209ZM30.8871 66.4432V66.7602H30.5701V66.4432H30.8871ZM30.8871 66.7602V67.0771H30.5701V66.7602H30.8871ZM30.8871 67.0771V67.394H30.5701V67.0771H30.8871ZM30.5701 67.0771V67.394H30.2532V67.0771H30.5701ZM30.2532 67.0771V67.394H29.9363V67.0771H30.2532ZM29.9363 67.0771V67.394H29.6194V67.0771H29.9363ZM29.6194 67.0771V67.394H29.3025V67.0771H29.6194ZM29.6194 66.7602V67.0771H29.3025V66.7602H29.6194ZM29.9363 66.7602V67.0771H29.6194V66.7602H29.9363ZM30.2532 66.7602V67.0771H29.9363V66.7602H30.2532ZM30.5701 66.7602V67.0771H30.2532V66.7602H30.5701ZM28.9855 66.4432V66.7602H28.6686V66.4432H28.9855ZM29.3025 66.4432V66.7602H28.9855V66.4432H29.3025ZM29.3025 66.7602V67.0771H28.9855V66.7602H29.3025ZM29.3025 66.1263V66.4432H28.9855V66.1263H29.3025ZM28.6686 66.4432V66.7602H28.3517V66.4432H28.6686ZM28.6686 66.1263V66.4432H28.3517V66.1263H28.6686ZM28.9855 66.1263V66.4432H28.6686V66.1263H28.9855ZM28.9855 65.8094V66.1263H28.6686V65.8094H28.9855ZM28.6686 65.4925V65.8094H28.3517V65.4925H28.6686ZM28.6686 65.8094V66.1263H28.3517V65.8094H28.6686ZM28.3517 65.8094V66.1263H28.0348V65.8094H28.3517ZM28.3517 65.4925V65.8094H28.0348V65.4925H28.3517ZM28.3517 65.1755V65.4925H28.0348V65.1755H28.3517ZM28.3517 64.8586V65.1755H28.0348V64.8586H28.3517ZM28.6686 64.8586V65.1755H28.3517V64.8586H28.6686ZM28.6686 64.5417V64.8586H28.3517V64.5417H28.6686ZM28.6686 64.2248V64.5417H28.3517V64.2248H28.6686ZM28.9855 63.9079V64.2248H28.6686V63.9079H28.9855ZM28.9855 64.2248V64.5417H28.6686V64.2248H28.9855ZM28.9855 64.5417V64.8586H28.6686V64.5417H28.9855ZM28.6686 65.1755V65.4925H28.3517V65.1755H28.6686ZM28.9855 65.1755V65.4925H28.6686V65.1755H28.9855ZM28.9855 64.8586V65.1755H28.6686V64.8586H28.9855ZM28.9855 65.4925V65.8094H28.6686V65.4925H28.9855ZM28.3517 64.5417V64.8586H28.0348V64.5417H28.3517ZM28.3517 64.2248V64.5417H28.0348V64.2248H28.3517ZM34.3794 66.1263V66.4432H34.0625V66.1263H34.3794ZM34.3794 65.8094V66.1263H34.0625V65.8094H34.3794ZM34.3794 65.4925V65.8094H34.0625V65.4925H34.3794ZM34.3794 65.1755V65.4925H34.0625V65.1755H34.3794ZM34.3794 64.8586V65.1755H34.0625V64.8586H34.3794ZM34.3794 64.5417V64.8586H34.0625V64.5417H34.3794ZM34.3794 64.2248V64.5417H34.0625V64.2248H34.3794ZM34.3794 63.9079V64.2248H34.0625V63.9079H34.3794ZM34.3794 63.5909V63.9079H34.0625V63.5909H34.3794ZM34.3794 63.274V63.5909H34.0625V63.274H34.3794ZM34.3794 62.9571V63.274H34.0625V62.9571H34.3794ZM34.6963 62.9571V63.274H34.3794V62.9571H34.6963ZM34.6963 63.274V63.5909H34.3794V63.274H34.6963ZM34.6963 63.5909V63.9079H34.3794V63.5909H34.6963ZM34.6963 63.9079V64.2248H34.3794V63.9079H34.6963ZM34.6963 64.2248V64.5417H34.3794V64.2248H34.6963ZM34.6963 64.5417V64.8586H34.3794V64.5417H34.6963ZM34.6963 64.8586V65.1755H34.3794V64.8586H34.6963ZM35.0133 65.1755V65.4925H34.6963V65.1755H35.0133ZM35.0133 65.4925V65.8094H34.6963V65.4925H35.0133ZM35.0133 65.8094V66.1263H34.6963V65.8094H35.0133ZM35.0133 66.1263V66.4432H34.6963V66.1263H35.0133ZM35.0133 66.4432V66.7602H34.6963V66.4432H35.0133ZM35.0133 66.7602V67.0771H34.6963V66.7602H35.0133ZM35.0133 67.0771V67.394H34.6963V67.0771H35.0133ZM35.6471 67.394V67.7109H35.3302V67.394H35.6471ZM35.6471 67.0771V67.394H35.3302V67.0771H35.6471ZM35.6471 66.7602V67.0771H35.3302V66.7602H35.6471ZM35.6471 66.4432V66.7602H35.3302V66.4432H35.6471ZM35.6471 66.1263V66.4432H35.3302V66.1263H35.6471ZM35.6471 65.8094V66.1263H35.3302V65.8094H35.6471ZM35.6471 65.4925V65.8094H35.3302V65.4925H35.6471ZM35.6471 65.1755V65.4925H35.3302V65.1755H35.6471ZM35.3302 65.1755V65.4925H35.0133V65.1755H35.3302ZM35.3302 64.8586V65.1755H35.0133V64.8586H35.3302ZM35.3302 65.4925V65.8094H35.0133V65.4925H35.3302ZM35.3302 65.8094V66.1263H35.0133V65.8094H35.3302ZM35.3302 66.1263V66.4432H35.0133V66.1263H35.3302ZM35.3302 66.4432V66.7602H35.0133V66.4432H35.3302ZM35.3302 66.7602V67.0771H35.0133V66.7602H35.3302ZM35.3302 67.0771V67.394H35.0133V67.0771H35.3302ZM34.6963 66.7602V67.0771H34.3794V66.7602H34.6963ZM34.6963 66.4432V66.7602H34.3794V66.4432H34.6963ZM34.6963 66.1263V66.4432H34.3794V66.1263H34.6963ZM34.6963 65.8094V66.1263H34.3794V65.8094H34.6963ZM34.6963 65.4925V65.8094H34.3794V65.4925H34.6963ZM34.6963 65.1755V65.4925H34.3794V65.1755H34.6963ZM34.3794 62.6402V62.9571H34.0625V62.6402H34.3794ZM35.3302 62.6402V62.9571H35.0133V62.6402H35.3302ZM35.3302 62.9571V63.274H35.0133V62.9571H35.3302ZM35.3302 63.274V63.5909H35.0133V63.274H35.3302ZM35.3302 63.5909V63.9079H35.0133V63.5909H35.3302ZM35.3302 63.9079V64.2248H35.0133V63.9079H35.3302ZM35.6471 64.2248V64.5417H35.3302V64.2248H35.6471ZM35.6471 64.5417V64.8586H35.3302V64.5417H35.6471ZM35.6471 64.8586V65.1755H35.3302V64.8586H35.6471ZM35.6471 63.9079V64.2248H35.3302V63.9079H35.6471ZM35.6471 63.5909V63.9079H35.3302V63.5909H35.6471ZM35.6471 63.274V63.5909H35.3302V63.274H35.6471ZM35.6471 62.9571V63.274H35.3302V62.9571H35.6471ZM35.6471 62.6402V62.9571H35.3302V62.6402H35.6471ZM34.6963 62.6402V62.9571H34.3794V62.6402H34.6963ZM35.0133 62.6402V62.9571H34.6963V62.6402H35.0133ZM35.0133 62.9571V63.274H34.6963V62.9571H35.0133ZM35.0133 63.274V63.5909H34.6963V63.274H35.0133ZM35.0133 63.5909V63.9079H34.6963V63.5909H35.0133ZM35.0133 63.9079V64.2248H34.6963V63.9079H35.0133ZM35.0133 64.2248V64.5417H34.6963V64.2248H35.0133ZM35.0133 64.5417V64.8586H34.6963V64.5417H35.0133ZM35.0133 64.8586V65.1755H34.6963V64.8586H35.0133ZM35.3302 64.5417V64.8586H35.0133V64.5417H35.3302ZM35.3302 64.2248V64.5417H35.0133V64.2248H35.3302ZM37.5487 67.394V67.7109H37.2317V67.394H37.5487ZM37.5487 67.0771V67.394H37.2317V67.0771H37.5487ZM37.5487 66.7602V67.0771H37.2317V66.7602H37.5487ZM37.5487 66.4432V66.7602H37.2317V66.4432H37.5487ZM37.5487 66.1263V66.4432H37.2317V66.1263H37.5487ZM37.5487 65.8094V66.1263H37.2317V65.8094H37.5487ZM37.5487 65.4925V65.8094H37.2317V65.4925H37.5487ZM37.5487 65.1755V65.4925H37.2317V65.1755H37.5487ZM37.5487 64.8586V65.1755H37.2317V64.8586H37.5487ZM37.5487 64.5417V64.8586H37.2317V64.5417H37.5487ZM37.5487 64.2248V64.5417H37.2317V64.2248H37.5487ZM37.5487 63.9079V64.2248H37.2317V63.9079H37.5487ZM37.5487 63.5909V63.9079H37.2317V63.5909H37.5487ZM37.5487 63.274V63.5909H37.2317V63.274H37.5487ZM37.5487 62.9571V63.274H37.2317V62.9571H37.5487ZM37.8656 62.9571V63.274H37.5487V62.9571H37.8656ZM37.8656 63.274V63.5909H37.5487V63.274H37.8656ZM37.8656 63.5909V63.9079H37.5487V63.5909H37.8656ZM37.8656 63.9079V64.2248H37.5487V63.9079H37.8656ZM37.8656 64.2248V64.5417H37.5487V64.2248H37.8656ZM37.8656 64.5417V64.8586H37.5487V64.5417H37.8656ZM37.8656 64.8586V65.1755H37.5487V64.8586H37.8656ZM38.1825 65.1755V65.4925H37.8656V65.1755H38.1825ZM38.1825 65.4925V65.8094H37.8656V65.4925H38.1825ZM38.1825 65.8094V66.1263H37.8656V65.8094H38.1825ZM38.1825 66.1263V66.4432H37.8656V66.1263H38.1825ZM38.1825 66.4432V66.7602H37.8656V66.4432H38.1825ZM38.1825 66.7602V67.0771H37.8656V66.7602H38.1825ZM38.1825 67.0771V67.394H37.8656V67.0771H38.1825ZM38.8164 66.1263V66.4432H38.4994V66.1263H38.8164ZM38.8164 65.8094V66.1263H38.4994V65.8094H38.8164ZM38.8164 65.4925V65.8094H38.4994V65.4925H38.8164ZM38.8164 65.1755V65.4925H38.4994V65.1755H38.8164ZM38.4994 65.1755V65.4925H38.1825V65.1755H38.4994ZM38.4994 64.8586V65.1755H38.1825V64.8586H38.4994ZM38.4994 65.4925V65.8094H38.1825V65.4925H38.4994ZM38.4994 65.8094V66.1263H38.1825V65.8094H38.4994ZM38.4994 66.1263V66.4432H38.1825V66.1263H38.4994ZM38.4994 66.4432V66.7602H38.1825V66.4432H38.4994ZM38.4994 66.7602V67.0771H38.1825V66.7602H38.4994ZM37.8656 67.0771V67.394H37.5487V67.0771H37.8656ZM37.8656 66.7602V67.0771H37.5487V66.7602H37.8656ZM37.8656 66.4432V66.7602H37.5487V66.4432H37.8656ZM37.8656 66.1263V66.4432H37.5487V66.1263H37.8656ZM37.8656 65.8094V66.1263H37.5487V65.8094H37.8656ZM37.8656 65.4925V65.8094H37.5487V65.4925H37.8656ZM37.8656 65.1755V65.4925H37.5487V65.1755H37.8656ZM37.5487 62.6402V62.9571H37.2317V62.6402H37.5487ZM38.4994 62.6402V62.9571H38.1825V62.6402H38.4994ZM38.4994 62.9571V63.274H38.1825V62.9571H38.4994ZM38.4994 63.274V63.5909H38.1825V63.274H38.4994ZM38.4994 63.5909V63.9079H38.1825V63.5909H38.4994ZM38.4994 63.9079V64.2248H38.1825V63.9079H38.4994ZM38.8164 64.2248V64.5417H38.4994V64.2248H38.8164ZM38.8164 64.5417V64.8586H38.4994V64.5417H38.8164ZM38.8164 64.8586V65.1755H38.4994V64.8586H38.8164ZM38.8164 63.9079V64.2248H38.4994V63.9079H38.8164ZM38.8164 63.5909V63.9079H38.4994V63.5909H38.8164ZM38.8164 63.274V63.5909H38.4994V63.274H38.8164ZM38.8164 62.9571V63.274H38.4994V62.9571H38.8164ZM38.8164 62.6402V62.9571H38.4994V62.6402H38.8164ZM37.8656 62.6402V62.9571H37.5487V62.6402H37.8656ZM38.1825 62.6402V62.9571H37.8656V62.6402H38.1825ZM38.1825 62.9571V63.274H37.8656V62.9571H38.1825ZM38.1825 63.274V63.5909H37.8656V63.274H38.1825ZM38.1825 63.5909V63.9079H37.8656V63.5909H38.1825ZM38.1825 63.9079V64.2248H37.8656V63.9079H38.1825ZM38.1825 64.2248V64.5417H37.8656V64.2248H38.1825ZM38.1825 64.5417V64.8586H37.8656V64.5417H38.1825ZM38.1825 64.8586V65.1755H37.8656V64.8586H38.1825ZM38.4994 64.5417V64.8586H38.1825V64.5417H38.4994ZM38.4994 64.2248V64.5417H38.1825V64.2248H38.4994ZM35.964 67.394V67.7109H35.6471V67.394H35.964ZM36.281 67.394V67.7109H35.964V67.394H36.281ZM36.5979 67.394V67.7109H36.281V67.394H36.5979ZM36.9148 67.394V67.7109H36.5979V67.394H36.9148ZM37.2317 67.394V67.7109H36.9148V67.394H37.2317ZM37.2317 67.0771V67.394H36.9148V67.0771H37.2317ZM36.9148 67.0771V67.394H36.5979V67.0771H36.9148ZM36.5979 67.0771V67.394H36.281V67.0771H36.5979ZM36.281 67.0771V67.394H35.964V67.0771H36.281ZM35.964 67.0771V67.394H35.6471V67.0771H35.964ZM35.964 66.7602V67.0771H35.6471V66.7602H35.964ZM36.281 66.7602V67.0771H35.964V66.7602H36.281ZM36.5979 66.7602V67.0771H36.281V66.7602H36.5979ZM36.9148 66.7602V67.0771H36.5979V66.7602H36.9148ZM37.2317 66.7602V67.0771H36.9148V66.7602H37.2317ZM37.2317 66.4432V66.7602H36.9148V66.4432H37.2317ZM36.9148 66.4432V66.7602H36.5979V66.4432H36.9148ZM36.5979 66.4432V66.7602H36.281V66.4432H36.5979ZM36.281 66.4432V66.7602H35.964V66.4432H36.281ZM35.964 66.4432V66.7602H35.6471V66.4432H35.964ZM35.964 66.1263V66.4432H35.6471V66.1263H35.964ZM37.2317 66.1263V66.4432H36.9148V66.1263H37.2317ZM38.4994 61.3725V61.0555H38.8164V61.3725H38.4994ZM38.4994 61.6894V61.3725H38.8164V61.6894H38.4994ZM38.4994 62.0063V61.6894H38.8164V62.0063H38.4994ZM37.8656 62.0063V61.6894H38.1825V62.0063H37.8656ZM37.8656 61.6894V61.3725H38.1825V61.6894H37.8656ZM37.8656 61.3725V61.0555H38.1825V61.3725H37.8656ZM37.8656 61.0555V60.7386H38.1825V61.0555H37.8656ZM37.8656 60.7386V60.4217H38.1825V60.7386H37.8656ZM37.8656 60.4217V60.1048H38.1825V60.4217H37.8656ZM37.2317 60.1048V59.7878H37.5487V60.1048H37.2317ZM37.2317 60.4217V60.1048H37.5487V60.4217H37.2317ZM37.2317 60.7386V60.4217H37.5487V60.7386H37.2317ZM37.2317 61.0555V60.7386H37.5487V61.0555H37.2317ZM37.2317 61.3725V61.0555H37.5487V61.3725H37.2317ZM37.2317 61.6894V61.3725H37.5487V61.6894H37.2317ZM37.2317 62.0063V61.6894H37.5487V62.0063H37.2317ZM37.5487 62.0063V61.6894H37.8656V62.0063H37.5487ZM37.5487 61.6894V61.3725H37.8656V61.6894H37.5487ZM37.5487 61.3725V61.0555H37.8656V61.3725H37.5487ZM37.5487 61.0555V60.7386H37.8656V61.0555H37.5487ZM37.5487 60.7386V60.4217H37.8656V60.7386H37.5487ZM37.5487 60.4217V60.1048H37.8656V60.4217H37.5487ZM38.1825 60.7386V60.4217H38.4994V60.7386H38.1825ZM38.1825 61.0555V60.7386H38.4994V61.0555H38.1825ZM38.1825 61.3725V61.0555H38.4994V61.3725H38.1825ZM38.1825 61.6894V61.3725H38.4994V61.6894H38.1825ZM38.1825 62.0063V61.6894H38.4994V62.0063H38.1825ZM35.3302 60.1048V59.7878H35.6471V60.1048H35.3302ZM35.3302 60.4217V60.1048H35.6471V60.4217H35.3302ZM35.3302 60.7386V60.4217H35.6471V60.7386H35.3302ZM35.3302 61.0555V60.7386H35.6471V61.0555H35.3302ZM35.3302 61.3725V61.0555H35.6471V61.3725H35.3302ZM35.3302 61.6894V61.3725H35.6471V61.6894H35.3302ZM35.3302 62.0063V61.6894H35.6471V62.0063H35.3302ZM34.6963 62.0063V61.6894H35.0133V62.0063H34.6963ZM34.6963 61.6894V61.3725H35.0133V61.6894H34.6963ZM34.6963 61.3725V61.0555H35.0133V61.3725H34.6963ZM34.6963 61.0555V60.7386H35.0133V61.0555H34.6963ZM34.6963 60.7386V60.4217H35.0133V60.7386H34.6963ZM34.6963 60.4217V60.1048H35.0133V60.4217H34.6963ZM34.0625 61.3725V61.0555H34.3794V61.3725H34.0625ZM34.0625 61.6894V61.3725H34.3794V61.6894H34.0625ZM34.0625 62.0063V61.6894H34.3794V62.0063H34.0625ZM34.3794 62.0063V61.6894H34.6963V62.0063H34.3794ZM34.3794 61.6894V61.3725H34.6963V61.6894H34.3794ZM34.3794 61.3725V61.0555H34.6963V61.3725H34.3794ZM34.3794 61.0555V60.7386H34.6963V61.0555H34.3794ZM34.3794 60.7386V60.4217H34.6963V60.7386H34.3794ZM35.0133 60.4217V60.1048H35.3302V60.4217H35.0133ZM35.0133 60.7386V60.4217H35.3302V60.7386H35.0133ZM35.0133 61.0555V60.7386H35.3302V61.0555H35.0133ZM35.0133 61.3725V61.0555H35.3302V61.3725H35.0133ZM35.0133 61.6894V61.3725H35.3302V61.6894H35.0133ZM35.0133 62.0063V61.6894H35.3302V62.0063H35.0133ZM36.9148 60.1048V59.7878H37.2317V60.1048H36.9148ZM36.5979 60.1048V59.7878H36.9148V60.1048H36.5979ZM36.281 60.1048V59.7878H36.5979V60.1048H36.281ZM35.6471 60.1048V59.7878H35.964V60.1048H35.6471ZM35.6471 60.4217V60.1048H35.964V60.4217H35.6471ZM35.964 60.4217V60.1048H36.281V60.4217H35.964ZM36.281 60.4217V60.1048H36.5979V60.4217H36.281ZM36.5979 60.4217V60.1048H36.9148V60.4217H36.5979ZM36.9148 60.4217V60.1048H37.2317V60.4217H36.9148ZM36.9148 60.7386V60.4217H37.2317V60.7386H36.9148ZM36.5979 60.7386V60.4217H36.9148V60.7386H36.5979ZM36.281 60.7386V60.4217H36.5979V60.7386H36.281ZM35.964 60.7386V60.4217H36.281V60.7386H35.964ZM35.6471 60.7386V60.4217H35.964V60.7386H35.6471ZM35.6471 61.0555V60.7386H35.964V61.0555H35.6471ZM35.964 61.0555V60.7386H36.281V61.0555H35.964ZM36.281 61.0555V60.7386H36.5979V61.0555H36.281ZM36.5979 61.0555V60.7386H36.9148V61.0555H36.5979ZM36.9148 61.0555V60.7386H37.2317V61.0555H36.9148ZM36.9148 61.3725V61.0555H37.2317V61.3725H36.9148ZM35.6471 61.3725V61.0555H35.964V61.3725H35.6471ZM34.3794 62.3232V62.6402H34.0625V62.3232H34.3794ZM34.6963 62.3232V62.6402H34.3794V62.3232H34.6963ZM34.3794 62.0063V62.3232H34.0625V62.0063H34.3794ZM35.3302 62.0063V62.3232H35.0133V62.0063H35.3302ZM35.3302 62.3232V62.6402H35.0133V62.3232H35.3302ZM35.6471 62.3232V62.6402H35.3302V62.3232H35.6471ZM35.6471 62.0063V62.3232H35.3302V62.0063H35.6471ZM34.6963 62.0063V62.3232H34.3794V62.0063H34.6963ZM35.0133 62.0063V62.3232H34.6963V62.0063H35.0133ZM35.0133 62.3232V62.6402H34.6963V62.3232H35.0133ZM37.5487 62.3232V62.6402H37.2317V62.3232H37.5487ZM37.8656 62.3232V62.6402H37.5487V62.3232H37.8656ZM37.5487 62.0063V62.3232H37.2317V62.0063H37.5487ZM38.4994 62.0063V62.3232H38.1825V62.0063H38.4994ZM38.4994 62.3232V62.6402H38.1825V62.3232H38.4994ZM38.8164 62.3232V62.6402H38.4994V62.3232H38.8164ZM38.8164 62.0063V62.3232H38.4994V62.0063H38.8164ZM37.8656 62.0063V62.3232H37.5487V62.0063H37.8656ZM38.1825 62.0063V62.3232H37.8656V62.0063H38.1825ZM38.1825 62.3232V62.6402H37.8656V62.3232H38.1825ZM36.281 66.1263V66.4432H35.964V66.1263H36.281ZM36.5979 66.1263V66.4432H36.281V66.1263H36.5979ZM36.9148 66.1263V66.4432H36.5979V66.1263H36.9148ZM37.2317 65.8094V66.1263H36.9148V65.8094H37.2317ZM35.964 65.8094V66.1263H35.6471V65.8094H35.964ZM36.281 61.0555V61.3725H35.964V61.0555H36.281ZM36.5979 61.0555V61.3725H36.281V61.0555H36.5979ZM36.9148 61.0555V61.3725H36.5979V61.0555H36.9148ZM37.2317 61.3725V61.6894H36.9148V61.3725H37.2317ZM35.964 61.3725V61.6894H35.6471V61.3725H35.964ZM36.281 59.7878V60.1048H35.964V59.7878H36.281ZM40.4069 66.1263V66.4432H40.0899V66.1263H40.4069ZM40.4069 65.8094V66.1263H40.0899V65.8094H40.4069ZM40.4069 65.4925V65.8094H40.0899V65.4925H40.4069ZM40.4069 65.1755V65.4925H40.0899V65.1755H40.4069ZM40.4069 64.8586V65.1755H40.0899V64.8586H40.4069ZM40.4069 64.5417V64.8586H40.0899V64.5417H40.4069ZM40.4069 64.2248V64.5417H40.0899V64.2248H40.4069ZM40.4069 63.9079V64.2248H40.0899V63.9079H40.4069ZM40.4069 63.5909V63.9079H40.0899V63.5909H40.4069ZM40.4069 63.274V63.5909H40.0899V63.274H40.4069ZM40.4069 62.9571V63.274H40.0899V62.9571H40.4069ZM40.7238 62.9571V63.274H40.4069V62.9571H40.7238ZM40.7238 63.274V63.5909H40.4069V63.274H40.7238ZM40.7238 63.5909V63.9079H40.4069V63.5909H40.7238ZM40.7238 63.9079V64.2248H40.4069V63.9079H40.7238ZM40.7238 64.2248V64.5417H40.4069V64.2248H40.7238ZM40.7238 64.5417V64.8586H40.4069V64.5417H40.7238ZM40.7238 64.8586V65.1755H40.4069V64.8586H40.7238ZM41.0407 65.1755V65.4925H40.7238V65.1755H41.0407ZM41.0407 65.4925V65.8094H40.7238V65.4925H41.0407ZM41.0407 65.8094V66.1263H40.7238V65.8094H41.0407ZM41.0407 66.1263V66.4432H40.7238V66.1263H41.0407ZM41.0407 66.4432V66.7602H40.7238V66.4432H41.0407ZM41.0407 66.7602V67.0771H40.7238V66.7602H41.0407ZM41.0407 67.0771V67.394H40.7238V67.0771H41.0407ZM41.6746 67.394V67.7109H41.3576V67.394H41.6746ZM41.6746 67.0771V67.394H41.3576V67.0771H41.6746ZM41.6746 66.7602V67.0771H41.3576V66.7602H41.6746ZM41.6746 66.4432V66.7602H41.3576V66.4432H41.6746ZM41.6746 66.1263V66.4432H41.3576V66.1263H41.6746ZM41.6746 65.8094V66.1263H41.3576V65.8094H41.6746ZM41.6746 65.4925V65.8094H41.3576V65.4925H41.6746ZM41.6746 65.1755V65.4925H41.3576V65.1755H41.6746ZM41.3576 65.1755V65.4925H41.0407V65.1755H41.3576ZM41.3576 64.8586V65.1755H41.0407V64.8586H41.3576ZM41.3576 65.4925V65.8094H41.0407V65.4925H41.3576ZM41.3576 65.8094V66.1263H41.0407V65.8094H41.3576ZM41.3576 66.1263V66.4432H41.0407V66.1263H41.3576ZM41.3576 66.4432V66.7602H41.0407V66.4432H41.3576ZM41.3576 66.7602V67.0771H41.0407V66.7602H41.3576ZM41.3576 67.0771V67.394H41.0407V67.0771H41.3576ZM40.7238 66.7602V67.0771H40.4069V66.7602H40.7238ZM40.7238 66.4432V66.7602H40.4069V66.4432H40.7238ZM40.7238 66.1263V66.4432H40.4069V66.1263H40.7238ZM40.7238 65.8094V66.1263H40.4069V65.8094H40.7238ZM40.7238 65.4925V65.8094H40.4069V65.4925H40.7238ZM40.7238 65.1755V65.4925H40.4069V65.1755H40.7238ZM40.4069 62.6402V62.9571H40.0899V62.6402H40.4069ZM41.3576 62.6402V62.9571H41.0407V62.6402H41.3576ZM41.3576 62.9571V63.274H41.0407V62.9571H41.3576ZM41.3576 63.274V63.5909H41.0407V63.274H41.3576ZM41.3576 63.5909V63.9079H41.0407V63.5909H41.3576ZM41.3576 63.9079V64.2248H41.0407V63.9079H41.3576ZM41.6746 64.2248V64.5417H41.3576V64.2248H41.6746ZM41.6746 64.5417V64.8586H41.3576V64.5417H41.6746ZM41.6746 64.8586V65.1755H41.3576V64.8586H41.6746ZM41.6746 63.9079V64.2248H41.3576V63.9079H41.6746ZM41.6746 63.5909V63.9079H41.3576V63.5909H41.6746ZM41.6746 63.274V63.5909H41.3576V63.274H41.6746ZM41.6746 62.9571V63.274H41.3576V62.9571H41.6746ZM41.6746 62.6402V62.9571H41.3576V62.6402H41.6746ZM40.7238 62.6402V62.9571H40.4069V62.6402H40.7238ZM41.0407 62.6402V62.9571H40.7238V62.6402H41.0407ZM41.0407 62.9571V63.274H40.7238V62.9571H41.0407ZM41.0407 63.274V63.5909H40.7238V63.274H41.0407ZM41.0407 63.5909V63.9079H40.7238V63.5909H41.0407ZM41.0407 63.9079V64.2248H40.7238V63.9079H41.0407ZM41.0407 64.2248V64.5417H40.7238V64.2248H41.0407ZM41.0407 64.5417V64.8586H40.7238V64.5417H41.0407ZM41.0407 64.8586V65.1755H40.7238V64.8586H41.0407ZM41.3576 64.5417V64.8586H41.0407V64.5417H41.3576ZM41.3576 64.2248V64.5417H41.0407V64.2248H41.3576ZM43.5761 67.394V67.7109H43.2592V67.394H43.5761ZM43.5761 67.0771V67.394H43.2592V67.0771H43.5761ZM43.5761 66.7602V67.0771H43.2592V66.7602H43.5761ZM43.5761 66.4432V66.7602H43.2592V66.4432H43.5761ZM43.5761 66.1263V66.4432H43.2592V66.1263H43.5761ZM43.5761 65.8094V66.1263H43.2592V65.8094H43.5761ZM43.5761 65.4925V65.8094H43.2592V65.4925H43.5761ZM43.5761 65.1755V65.4925H43.2592V65.1755H43.5761ZM43.5761 64.8586V65.1755H43.2592V64.8586H43.5761ZM43.5761 64.5417V64.8586H43.2592V64.5417H43.5761ZM43.5761 64.2248V64.5417H43.2592V64.2248H43.5761ZM43.5761 63.9079V64.2248H43.2592V63.9079H43.5761ZM43.5761 63.5909V63.9079H43.2592V63.5909H43.5761ZM43.5761 63.274V63.5909H43.2592V63.274H43.5761ZM43.5761 62.9571V63.274H43.2592V62.9571H43.5761ZM43.893 62.9571V63.274H43.5761V62.9571H43.893ZM43.893 63.274V63.5909H43.5761V63.274H43.893ZM43.893 63.5909V63.9079H43.5761V63.5909H43.893ZM43.893 63.9079V64.2248H43.5761V63.9079H43.893ZM43.893 64.2248V64.5417H43.5761V64.2248H43.893ZM43.893 64.5417V64.8586H43.5761V64.5417H43.893ZM43.893 64.8586V65.1755H43.5761V64.8586H43.893ZM44.2099 65.1755V65.4925H43.893V65.1755H44.2099ZM44.2099 65.4925V65.8094H43.893V65.4925H44.2099ZM44.2099 65.8094V66.1263H43.893V65.8094H44.2099ZM44.2099 66.1263V66.4432H43.893V66.1263H44.2099ZM44.2099 66.4432V66.7602H43.893V66.4432H44.2099ZM44.2099 66.7602V67.0771H43.893V66.7602H44.2099ZM44.2099 67.0771V67.394H43.893V67.0771H44.2099ZM44.8438 66.1263V66.4432H44.5269V66.1263H44.8438ZM44.8438 65.8094V66.1263H44.5269V65.8094H44.8438ZM44.8438 65.4925V65.8094H44.5269V65.4925H44.8438ZM44.8438 65.1755V65.4925H44.5269V65.1755H44.8438ZM44.5269 65.1755V65.4925H44.2099V65.1755H44.5269ZM44.5269 64.8586V65.1755H44.2099V64.8586H44.5269ZM44.5269 65.4925V65.8094H44.2099V65.4925H44.5269ZM44.5269 65.8094V66.1263H44.2099V65.8094H44.5269ZM44.5269 66.1263V66.4432H44.2099V66.1263H44.5269ZM44.5269 66.4432V66.7602H44.2099V66.4432H44.5269ZM44.5269 66.7602V67.0771H44.2099V66.7602H44.5269ZM43.893 67.0771V67.394H43.5761V67.0771H43.893ZM43.893 66.7602V67.0771H43.5761V66.7602H43.893ZM43.893 66.4432V66.7602H43.5761V66.4432H43.893ZM43.893 66.1263V66.4432H43.5761V66.1263H43.893ZM43.893 65.8094V66.1263H43.5761V65.8094H43.893ZM43.893 65.4925V65.8094H43.5761V65.4925H43.893ZM43.893 65.1755V65.4925H43.5761V65.1755H43.893ZM43.5761 62.6402V62.9571H43.2592V62.6402H43.5761ZM44.5269 62.6402V62.9571H44.2099V62.6402H44.5269ZM44.5269 62.9571V63.274H44.2099V62.9571H44.5269ZM44.5269 63.274V63.5909H44.2099V63.274H44.5269ZM44.5269 63.5909V63.9079H44.2099V63.5909H44.5269ZM44.5269 63.9079V64.2248H44.2099V63.9079H44.5269ZM44.8438 64.2248V64.5417H44.5269V64.2248H44.8438ZM44.8438 64.5417V64.8586H44.5269V64.5417H44.8438ZM44.8438 64.8586V65.1755H44.5269V64.8586H44.8438ZM44.8438 63.9079V64.2248H44.5269V63.9079H44.8438ZM44.8438 63.5909V63.9079H44.5269V63.5909H44.8438ZM44.8438 63.274V63.5909H44.5269V63.274H44.8438ZM44.8438 62.9571V63.274H44.5269V62.9571H44.8438ZM44.8438 62.6402V62.9571H44.5269V62.6402H44.8438ZM43.893 62.6402V62.9571H43.5761V62.6402H43.893ZM44.2099 62.6402V62.9571H43.893V62.6402H44.2099ZM44.2099 62.9571V63.274H43.893V62.9571H44.2099ZM44.2099 63.274V63.5909H43.893V63.274H44.2099ZM44.2099 63.5909V63.9079H43.893V63.5909H44.2099ZM44.2099 63.9079V64.2248H43.893V63.9079H44.2099ZM44.2099 64.2248V64.5417H43.893V64.2248H44.2099ZM44.2099 64.5417V64.8586H43.893V64.5417H44.2099ZM44.2099 64.8586V65.1755H43.893V64.8586H44.2099ZM44.5269 64.5417V64.8586H44.2099V64.5417H44.5269ZM44.5269 64.2248V64.5417H44.2099V64.2248H44.5269ZM41.9915 67.394V67.7109H41.6746V67.394H41.9915ZM42.3084 67.394V67.7109H41.9915V67.394H42.3084ZM42.6253 67.394V67.7109H42.3084V67.394H42.6253ZM42.9422 67.394V67.7109H42.6253V67.394H42.9422ZM43.2592 67.394V67.7109H42.9422V67.394H43.2592ZM43.2592 67.0771V67.394H42.9422V67.0771H43.2592ZM42.9422 67.0771V67.394H42.6253V67.0771H42.9422ZM42.6253 67.0771V67.394H42.3084V67.0771H42.6253ZM42.3084 67.0771V67.394H41.9915V67.0771H42.3084ZM41.9915 67.0771V67.394H41.6746V67.0771H41.9915ZM41.9915 66.7602V67.0771H41.6746V66.7602H41.9915ZM42.3084 66.7602V67.0771H41.9915V66.7602H42.3084ZM42.6253 66.7602V67.0771H42.3084V66.7602H42.6253ZM42.9422 66.7602V67.0771H42.6253V66.7602H42.9422ZM43.2592 66.7602V67.0771H42.9422V66.7602H43.2592ZM43.2592 66.4432V66.7602H42.9422V66.4432H43.2592ZM42.9422 66.4432V66.7602H42.6253V66.4432H42.9422ZM42.6253 66.4432V66.7602H42.3084V66.4432H42.6253ZM42.3084 66.4432V66.7602H41.9915V66.4432H42.3084ZM41.9915 66.4432V66.7602H41.6746V66.4432H41.9915ZM41.9915 66.1263V66.4432H41.6746V66.1263H41.9915ZM43.2592 66.1263V66.4432H42.9422V66.1263H43.2592ZM44.5269 61.3725V61.0555H44.8438V61.3725H44.5269ZM44.5269 61.6894V61.3725H44.8438V61.6894H44.5269ZM44.5269 62.0063V61.6894H44.8438V62.0063H44.5269ZM43.893 62.0063V61.6894H44.2099V62.0063H43.893ZM43.893 61.6894V61.3725H44.2099V61.6894H43.893ZM43.893 61.3725V61.0555H44.2099V61.3725H43.893ZM43.893 61.0555V60.7386H44.2099V61.0555H43.893ZM43.893 60.7386V60.4217H44.2099V60.7386H43.893ZM43.893 60.4217V60.1048H44.2099V60.4217H43.893ZM43.2592 60.1048V59.7878H43.5761V60.1048H43.2592ZM43.2592 60.4217V60.1048H43.5761V60.4217H43.2592ZM43.2592 60.7386V60.4217H43.5761V60.7386H43.2592ZM43.2592 61.0555V60.7386H43.5761V61.0555H43.2592ZM43.2592 61.3725V61.0555H43.5761V61.3725H43.2592ZM43.2592 61.6894V61.3725H43.5761V61.6894H43.2592ZM43.2592 62.0063V61.6894H43.5761V62.0063H43.2592ZM43.5761 62.0063V61.6894H43.893V62.0063H43.5761ZM43.5761 61.6894V61.3725H43.893V61.6894H43.5761ZM43.5761 61.3725V61.0555H43.893V61.3725H43.5761ZM43.5761 61.0555V60.7386H43.893V61.0555H43.5761ZM43.5761 60.7386V60.4217H43.893V60.7386H43.5761ZM43.5761 60.4217V60.1048H43.893V60.4217H43.5761ZM44.2099 60.7386V60.4217H44.5269V60.7386H44.2099ZM44.2099 61.0555V60.7386H44.5269V61.0555H44.2099ZM44.2099 61.3725V61.0555H44.5269V61.3725H44.2099ZM44.2099 61.6894V61.3725H44.5269V61.6894H44.2099ZM44.2099 62.0063V61.6894H44.5269V62.0063H44.2099ZM41.3576 60.1048V59.7878H41.6746V60.1048H41.3576ZM41.3576 60.4217V60.1048H41.6746V60.4217H41.3576ZM41.3576 60.7386V60.4217H41.6746V60.7386H41.3576ZM41.3576 61.0555V60.7386H41.6746V61.0555H41.3576ZM41.3576 61.3725V61.0555H41.6746V61.3725H41.3576ZM41.3576 61.6894V61.3725H41.6746V61.6894H41.3576ZM41.3576 62.0063V61.6894H41.6746V62.0063H41.3576ZM40.7238 62.0063V61.6894H41.0407V62.0063H40.7238ZM40.7238 61.6894V61.3725H41.0407V61.6894H40.7238ZM40.7238 61.3725V61.0555H41.0407V61.3725H40.7238ZM40.7238 61.0555V60.7386H41.0407V61.0555H40.7238ZM40.7238 60.7386V60.4217H41.0407V60.7386H40.7238ZM40.7238 60.4217V60.1048H41.0407V60.4217H40.7238ZM40.0899 61.3725V61.0555H40.4069V61.3725H40.0899ZM40.0899 61.6894V61.3725H40.4069V61.6894H40.0899ZM40.0899 62.0063V61.6894H40.4069V62.0063H40.0899ZM40.4069 62.0063V61.6894H40.7238V62.0063H40.4069ZM40.4069 61.6894V61.3725H40.7238V61.6894H40.4069ZM40.4069 61.3725V61.0555H40.7238V61.3725H40.4069ZM40.4069 61.0555V60.7386H40.7238V61.0555H40.4069ZM40.4069 60.7386V60.4217H40.7238V60.7386H40.4069ZM41.0407 60.4217V60.1048H41.3576V60.4217H41.0407ZM41.0407 60.7386V60.4217H41.3576V60.7386H41.0407ZM41.0407 61.0555V60.7386H41.3576V61.0555H41.0407ZM41.0407 61.3725V61.0555H41.3576V61.3725H41.0407ZM41.0407 61.6894V61.3725H41.3576V61.6894H41.0407ZM41.0407 62.0063V61.6894H41.3576V62.0063H41.0407ZM42.9422 60.1048V59.7878H43.2592V60.1048H42.9422ZM42.6253 60.1048V59.7878H42.9422V60.1048H42.6253ZM42.3084 60.1048V59.7878H42.6253V60.1048H42.3084ZM41.6746 60.1048V59.7878H41.9915V60.1048H41.6746ZM41.6746 60.4217V60.1048H41.9915V60.4217H41.6746ZM41.9915 60.4217V60.1048H42.3084V60.4217H41.9915ZM42.3084 60.4217V60.1048H42.6253V60.4217H42.3084ZM42.6253 60.4217V60.1048H42.9422V60.4217H42.6253ZM42.9422 60.4217V60.1048H43.2592V60.4217H42.9422ZM42.9422 60.7386V60.4217H43.2592V60.7386H42.9422ZM42.6253 60.7386V60.4217H42.9422V60.7386H42.6253ZM42.3084 60.7386V60.4217H42.6253V60.7386H42.3084ZM41.9915 60.7386V60.4217H42.3084V60.7386H41.9915ZM41.6746 60.7386V60.4217H41.9915V60.7386H41.6746ZM41.6746 61.0555V60.7386H41.9915V61.0555H41.6746ZM41.9915 61.0555V60.7386H42.3084V61.0555H41.9915ZM42.3084 61.0555V60.7386H42.6253V61.0555H42.3084ZM42.6253 61.0555V60.7386H42.9422V61.0555H42.6253ZM42.9422 61.0555V60.7386H43.2592V61.0555H42.9422ZM42.9422 61.3725V61.0555H43.2592V61.3725H42.9422ZM41.6746 61.3725V61.0555H41.9915V61.3725H41.6746ZM40.4069 62.3232V62.6402H40.0899V62.3232H40.4069ZM40.7238 62.3232V62.6402H40.4069V62.3232H40.7238ZM40.4069 62.0063V62.3232H40.0899V62.0063H40.4069ZM41.3576 62.0063V62.3232H41.0407V62.0063H41.3576ZM41.3576 62.3232V62.6402H41.0407V62.3232H41.3576ZM41.6746 62.3232V62.6402H41.3576V62.3232H41.6746ZM41.6746 62.0063V62.3232H41.3576V62.0063H41.6746ZM40.7238 62.0063V62.3232H40.4069V62.0063H40.7238ZM41.0407 62.0063V62.3232H40.7238V62.0063H41.0407ZM41.0407 62.3232V62.6402H40.7238V62.3232H41.0407ZM43.5761 62.3232V62.6402H43.2592V62.3232H43.5761ZM43.893 62.3232V62.6402H43.5761V62.3232H43.893ZM43.5761 62.0063V62.3232H43.2592V62.0063H43.5761ZM44.5269 62.0063V62.3232H44.2099V62.0063H44.5269ZM44.5269 62.3232V62.6402H44.2099V62.3232H44.5269ZM44.8438 62.3232V62.6402H44.5269V62.3232H44.8438ZM44.8438 62.0063V62.3232H44.5269V62.0063H44.8438ZM43.893 62.0063V62.3232H43.5761V62.0063H43.893ZM44.2099 62.0063V62.3232H43.893V62.0063H44.2099ZM44.2099 62.3232V62.6402H43.893V62.3232H44.2099ZM42.3084 66.1263V66.4432H41.9915V66.1263H42.3084ZM42.6253 66.1263V66.4432H42.3084V66.1263H42.6253ZM42.9422 66.1263V66.4432H42.6253V66.1263H42.9422ZM43.2592 65.8094V66.1263H42.9422V65.8094H43.2592ZM41.9915 65.8094V66.1263H41.6746V65.8094H41.9915ZM42.3084 61.0555V61.3725H41.9915V61.0555H42.3084ZM42.6253 61.0555V61.3725H42.3084V61.0555H42.6253ZM42.9422 61.0555V61.3725H42.6253V61.0555H42.9422ZM43.2592 61.3725V61.6894H42.9422V61.3725H43.2592ZM41.9915 61.3725V61.6894H41.6746V61.3725H41.9915ZM42.3084 59.7878V60.1048H41.9915V59.7878H42.3084Z" fill="#FAAE2B"/>
<path d="M47.6255 52.2027C47.7557 55.4947 43.2256 58.3467 37.5071 58.5728C31.7887 58.799 27.0474 56.3137 26.9172 53.0217C26.787 49.7297 31.553 52.8384 37.2714 52.6122C42.9898 52.3861 47.4953 48.9107 47.6255 52.2027Z" fill="black"/>
<path d="M37.2374 2.66797C47.9056 2.66818 56.5536 12.2947 56.5538 24.1699C56.5538 29.3344 54.9172 34.0733 52.191 37.7804C52.1883 37.7841 52.1908 37.7894 52.1954 37.7896V37.7896C52.1998 37.7898 52.2025 37.7943 52.2002 37.7981C51.4274 39.0391 49.6918 41.9754 48.8898 43.8594C47.8853 46.2198 48.3347 51.4276 47.6837 52.7383C47.1813 53.7493 46.076 53.539 45.0714 53.5244C39.9138 53.4495 29.1975 53.255 27.59 53.0752C25.9974 52.897 26.2788 46.1219 25.405 42.608C25.3884 42.5415 25.3647 42.4788 25.3345 42.4172L24.2745 40.2627L24.0198 39.8741C23.9866 39.8234 23.9489 39.7759 23.9073 39.7317C20.219 35.8157 17.92 30.2917 17.92 24.1699C17.9203 12.2945 26.5691 2.66797 37.2374 2.66797Z" fill="#FAAE2B"/>
<path d="M45.4796 5.63955C45.0011 6.19041 44.8312 6.96966 45.0071 7.80587C45.1831 8.64209 45.6905 9.46678 46.4178 10.0985C47.1452 10.7302 48.0327 11.1173 48.8854 11.1745C49.738 11.2317 50.4858 10.9543 50.9642 10.4035L48.2219 8.02151L45.4796 5.63955Z" fill="white"/>
<path d="M54.8395 17.6314C55.3567 17.1167 55.1384 15.9054 54.2326 14.2639C53.3269 12.6224 51.8078 10.6853 50.0097 8.87857C48.2116 7.07187 46.2817 5.54364 44.6446 4.63006C43.0075 3.71648 41.7972 3.49239 41.28 4.00709L45.6224 6.40897L49.4499 9.87405L52.6603 13.5967L54.8395 17.6314Z" fill="white"/>
<path d="M32.0788 9.98041L32.357 11.4792L25.0479 13.127C25.0479 13.127 26.4535 11.4012 27.9564 10.7458C29.404 10.1145 32.0788 9.98041 32.0788 9.98041Z" fill="black"/>
<path d="M40.1693 10.1018L39.9416 11.7091L47.3905 13.0718C47.3905 13.0718 45.9076 11.3128 44.3646 10.6962C42.8784 10.1022 40.1693 10.1018 40.1693 10.1018Z" fill="black"/>
<path d="M28.4326 28.8203C28.4326 28.8203 33.4132 33.8691 37.6504 33.6469C41.5832 33.4407 45.9689 28.8203 45.9689 28.8203" stroke="black" stroke-width="0.112412"/>
<path d="M47.1392 29.8711C47.1392 29.8711 46.65 29.105 45.9148 28.7948C45.4089 28.5813 44.2828 28.7948 44.2828 28.7948" stroke="black" stroke-width="0.112412"/>
<path d="M29.9868 28.7266C29.9868 28.7266 29.1019 28.5191 28.3587 28.8099C27.8474 29.0099 27.1897 29.9486 27.1897 29.9486" stroke="black" stroke-width="0.112412"/>
<ellipse cx="41.4475" cy="19.6577" rx="4.99294" ry="4.3233" transform="rotate(88.3583 41.4475 19.6577)" fill="#F27E07"/>
<g filter="url(#filter2_d_476_3336)">
<ellipse cx="41.6047" cy="19.8303" rx="4.46737" ry="3.86821" transform="rotate(88.3583 41.6047 19.8303)" fill="white"/>
</g>
<ellipse cx="41.4824" cy="20.8833" rx="2.71546" ry="2.35127" transform="rotate(88.3583 41.4824 20.8833)" fill="#D27B08"/>
<ellipse cx="1.89667" cy="1.70316" rx="1.89667" ry="1.70316" transform="matrix(0.338426 0.940993 -0.904493 0.426489 42.4592 18.457)" fill="#381004"/>
<ellipse cx="41.486" cy="19.2494" rx="0.437978" ry="0.379237" transform="rotate(88.3583 41.486 19.2494)" fill="white"/>
<ellipse cx="31.9983" cy="19.6577" rx="4.99294" ry="4.3233" transform="rotate(88.3583 31.9983 19.6577)" fill="#F27E07"/>
<g filter="url(#filter3_d_476_3336)">
<ellipse cx="32.1553" cy="19.8303" rx="4.46737" ry="3.86821" transform="rotate(88.3583 32.1553 19.8303)" fill="white"/>
</g>
<ellipse cx="32.0332" cy="20.8833" rx="2.71546" ry="2.35127" transform="rotate(88.3583 32.0332 20.8833)" fill="#D27B08"/>
<ellipse cx="1.89667" cy="1.70316" rx="1.89667" ry="1.70316" transform="matrix(0.338426 0.940993 -0.904493 0.426489 33.0099 18.457)" fill="#381004"/>
<ellipse cx="32.0368" cy="19.2494" rx="0.437978" ry="0.379237" transform="rotate(88.3583 32.0368 19.2494)" fill="white"/>
<defs>
<filter id="filter0_d_476_3336" x="2.73633" y="34.8906" width="20.7488" height="21.4364" filterUnits="userSpaceOnUse" color-interpolation-filters="sRGB">
<feFlood flood-opacity="0" result="BackgroundImageFix"/>
<feColorMatrix in="SourceAlpha" type="matrix" values="0 0 0 0 0 0 0 0 0 0 0 0 0 0 0 0 0 0 127 0" result="hardAlpha"/>
<feOffset dx="0.449649" dy="0.449649"/>
<feGaussianBlur stdDeviation="0.224824"/>
<feComposite in2="hardAlpha" operator="out"/>
<feColorMatrix type="matrix" values="0 0 0 0 0 0 0 0 0 0 0 0 0 0 0 0 0 0 0.25 0"/>
<feBlend mode="normal" in2="BackgroundImageFix" result="effect1_dropShadow_476_3336"/>
<feBlend mode="normal" in="SourceGraphic" in2="effect1_dropShadow_476_3336" result="shape"/>
</filter>
<filter id="filter1_d_476_3336" x="53.1265" y="33.9189" width="18.9877" height="21.0546" filterUnits="userSpaceOnUse" color-interpolation-filters="sRGB">
<feFlood flood-opacity="0" result="BackgroundImageFix"/>
<feColorMatrix in="SourceAlpha" type="matrix" values="0 0 0 0 0 0 0 0 0 0 0 0 0 0 0 0 0 0 127 0" result="hardAlpha"/>
<feOffset dx="0.562061" dy="0.449649"/>
<feGaussianBlur stdDeviation="0.224824"/>
<feComposite in2="hardAlpha" operator="out"/>
<feColorMatrix type="matrix" values="0 0 0 0 0 0 0 0 0 0 0 0 0 0 0 0 0 0 0.25 0"/>
<feBlend mode="normal" in2="BackgroundImageFix" result="effect1_dropShadow_476_3336"/>
<feBlend mode="normal" in="SourceGraphic" in2="effect1_dropShadow_476_3336" result="shape"/>
</filter>
<filter id="filter2_d_476_3336" x="37.0352" y="15.3633" width="9.13908" height="10.3351" filterUnits="userSpaceOnUse" color-interpolation-filters="sRGB">
<feFlood flood-opacity="0" result="BackgroundImageFix"/>
<feColorMatrix in="SourceAlpha" type="matrix" values="0 0 0 0 0 0 0 0 0 0 0 0 0 0 0 0 0 0 127 0" result="hardAlpha"/>
<feOffset dy="0.700764"/>
<feGaussianBlur stdDeviation="0.350382"/>
<feComposite in2="hardAlpha" operator="out"/>
<feColorMatrix type="matrix" values="0 0 0 0 0 0 0 0 0 0 0 0 0 0 0 0 0 0 0.25 0"/>
<feBlend mode="normal" in2="BackgroundImageFix" result="effect1_dropShadow_476_3336"/>
<feBlend mode="normal" in="SourceGraphic" in2="effect1_dropShadow_476_3336" result="shape"/>
</filter>
<filter id="filter3_d_476_3336" x="27.5857" y="15.3633" width="9.13908" height="10.3351" filterUnits="userSpaceOnUse" color-interpolation-filters="sRGB">
<feFlood flood-opacity="0" result="BackgroundImageFix"/>
<feColorMatrix in="SourceAlpha" type="matrix" values="0 0 0 0 0 0 0 0 0 0 0 0 0 0 0 0 0 0 127 0" result="hardAlpha"/>
<feOffset dy="0.700764"/>
<feGaussianBlur stdDeviation="0.350382"/>
<feComposite in2="hardAlpha" operator="out"/>
<feColorMatrix type="matrix" values="0 0 0 0 0 0 0 0 0 0 0 0 0 0 0 0 0 0 0.25 0"/>
<feBlend mode="normal" in2="BackgroundImageFix" result="effect1_dropShadow_476_3336"/>
<feBlend mode="normal" in="SourceGraphic" in2="effect1_dropShadow_476_3336" result="shape"/>
</filter>
</defs>
</svg>
