<svg width="302" height="79" viewBox="0 0 302 79" fill="none" xmlns="http://www.w3.org/2000/svg">
<path d="M20.9975 54.1265C20.3345 54.1265 19.777 53.9004 19.325 53.4484C18.8729 52.9964 18.6469 52.4388 18.6469 51.7758V21.1724C18.6469 20.4792 18.8729 19.9217 19.325 19.4998C19.777 19.0478 20.3345 18.8218 20.9975 18.8218H30.0384C32.2987 18.8218 34.3027 19.319 36.0506 20.3135C37.7986 21.308 39.1547 22.6943 40.1191 24.4723C41.1136 26.2202 41.6108 28.2394 41.6108 30.5297C41.6108 32.7297 41.1136 34.6885 40.1191 36.4063C39.1547 38.1241 37.7986 39.4651 36.0506 40.4295C34.3027 41.3939 32.2987 41.876 30.0384 41.876H23.3482V51.7758C23.3482 52.4388 23.1222 52.9964 22.6701 53.4484C22.2482 53.9004 21.6907 54.1265 20.9975 54.1265ZM23.3482 37.5364H30.0384C31.4247 37.5364 32.6452 37.235 33.7 36.6323C34.7548 36.0296 35.5835 35.2008 36.1863 34.1461C36.789 33.0913 37.0904 31.8859 37.0904 30.5297C37.0904 29.0832 36.789 27.8174 36.1863 26.7325C35.5835 25.6175 34.7548 24.7435 33.7 24.1107C32.6452 23.4778 31.4247 23.1614 30.0384 23.1614H23.3482V37.5364ZM56.7564 54.3525C54.677 54.3525 52.8086 53.9155 51.1511 53.0416C49.5237 52.1375 48.2278 50.8265 47.2635 49.1088C46.3293 47.391 45.8621 45.2815 45.8621 42.7801V31.6598C45.8621 30.9968 46.0731 30.4544 46.495 30.0325C46.9471 29.5804 47.5046 29.3544 48.1676 29.3544C48.8306 29.3544 49.373 29.5804 49.7949 30.0325C50.247 30.4544 50.473 30.9968 50.473 31.6598V42.7801C50.473 44.4678 50.7894 45.8691 51.4223 46.9842C52.0552 48.0691 52.914 48.8827 53.999 49.4252C55.0839 49.9375 56.3044 50.1937 57.6605 50.1937C58.9564 50.1937 60.1016 49.9375 61.0961 49.4252C62.1207 48.9129 62.9344 48.2197 63.5371 47.3458C64.1398 46.4718 64.4412 45.4924 64.4412 44.4075H67.2891C67.2891 46.2759 66.822 47.9636 65.8877 49.4704C64.9836 50.9772 63.733 52.1676 62.1358 53.0416C60.5687 53.9155 58.7756 54.3525 56.7564 54.3525ZM66.7466 54.1265C66.0836 54.1265 65.5261 53.9155 65.0741 53.4936C64.6521 53.0416 64.4412 52.484 64.4412 51.821V31.6598C64.4412 30.9667 64.6521 30.4092 65.0741 29.9873C65.5261 29.5654 66.0836 29.3544 66.7466 29.3544C67.4398 29.3544 67.9973 29.5654 68.4192 29.9873C68.8411 30.4092 69.0521 30.9667 69.0521 31.6598V51.821C69.0521 52.484 68.8411 53.0416 68.4192 53.4936C67.9973 53.9155 67.4398 54.1265 66.7466 54.1265ZM86.1683 54.1265C84.6615 54.1265 83.3054 53.7498 82.0999 52.9964C80.8945 52.2128 79.9452 51.158 79.252 49.832C78.5589 48.506 78.2123 47.0143 78.2123 45.3568V23.7942C78.2123 23.1312 78.4233 22.5888 78.8452 22.1669C79.2671 21.745 79.8095 21.534 80.4725 21.534C81.1355 21.534 81.678 21.745 82.0999 22.1669C82.5218 22.5888 82.7328 23.1312 82.7328 23.7942V45.3568C82.7328 46.5622 83.0643 47.5718 83.7273 48.3855C84.3903 49.1992 85.2039 49.606 86.1683 49.606H87.7053C88.2477 49.606 88.6998 49.817 89.0614 50.2389C89.4532 50.6608 89.6491 51.2032 89.6491 51.8662C89.6491 52.5292 89.3929 53.0717 88.8806 53.4936C88.3984 53.9155 87.7655 54.1265 86.982 54.1265H86.1683ZM76.1329 34.1913C75.5 34.1913 74.9877 34.0105 74.596 33.6488C74.2042 33.2872 74.0083 32.8351 74.0083 32.2927C74.0083 31.69 74.2042 31.2078 74.596 30.8461C74.9877 30.4845 75.5 30.3037 76.1329 30.3037H86.5752C87.208 30.3037 87.7203 30.4845 88.1121 30.8461C88.5039 31.2078 88.6998 31.69 88.6998 32.2927C88.6998 32.8351 88.5039 33.2872 88.1121 33.6488C87.7203 34.0105 87.208 34.1913 86.5752 34.1913H76.1329ZM105.623 54.3073C103.423 54.3073 101.449 53.7648 99.7011 52.6799C97.9531 51.5649 96.5669 50.0731 95.5422 48.2047C94.5477 46.3061 94.0505 44.1664 94.0505 41.7856C94.0505 39.4049 94.5929 37.2652 95.6779 35.3666C96.7929 33.468 98.2846 31.9763 100.153 30.8914C102.052 29.7763 104.176 29.2188 106.527 29.2188C108.878 29.2188 110.987 29.7763 112.856 30.8914C114.724 31.9763 116.201 33.468 117.286 35.3666C118.401 37.2652 118.958 39.4049 118.958 41.7856H117.195C117.195 44.1664 116.683 46.3061 115.658 48.2047C114.664 50.0731 113.293 51.5649 111.545 52.6799C109.797 53.7648 107.823 54.3073 105.623 54.3073ZM106.527 50.2389C108.064 50.2389 109.435 49.8772 110.641 49.154C111.846 48.4006 112.795 47.391 113.488 46.1253C114.182 44.8294 114.528 43.3829 114.528 41.7856C114.528 40.1583 114.182 38.7117 113.488 37.446C112.795 36.1501 111.846 35.1406 110.641 34.4173C109.435 33.6639 108.064 33.2872 106.527 33.2872C105.02 33.2872 103.649 33.6639 102.413 34.4173C101.208 35.1406 100.244 36.1501 99.5202 37.446C98.8271 38.7117 98.4805 40.1583 98.4805 41.7856C98.4805 43.3829 98.8271 44.8294 99.5202 46.1253C100.244 47.391 101.208 48.4006 102.413 49.154C103.649 49.8772 105.02 50.2389 106.527 50.2389ZM116.653 54.1717C115.99 54.1717 115.432 53.9607 114.98 53.5388C114.558 53.0868 114.347 52.5292 114.347 51.8662V44.95L115.206 40.1583L118.958 41.7856V51.8662C118.958 52.5292 118.732 53.0868 118.28 53.5388C117.858 53.9607 117.316 54.1717 116.653 54.1717ZM128.035 38.6665C128.035 36.8583 128.472 35.2461 129.346 33.8296C130.25 32.3831 131.456 31.2379 132.963 30.3941C134.47 29.5503 136.127 29.1284 137.935 29.1284C139.743 29.1284 141.084 29.4297 141.958 30.0325C142.863 30.6051 143.209 31.2982 142.998 32.1119C142.908 32.5338 142.727 32.8653 142.456 33.1064C142.215 33.3173 141.928 33.4529 141.597 33.5132C141.265 33.5735 140.904 33.5584 140.512 33.468C138.583 33.0762 136.85 33.0461 135.313 33.3776C133.776 33.7091 132.556 34.3269 131.652 35.231C130.778 36.1351 130.341 37.2803 130.341 38.6665H128.035ZM128.081 54.1265C127.357 54.1265 126.8 53.9456 126.408 53.584C126.016 53.1922 125.82 52.6196 125.82 51.8662V31.6598C125.82 30.9366 126.016 30.379 126.408 29.9873C126.8 29.5955 127.357 29.3996 128.081 29.3996C128.834 29.3996 129.392 29.5955 129.753 29.9873C130.145 30.3489 130.341 30.9064 130.341 31.6598V51.8662C130.341 52.5895 130.145 53.147 129.753 53.5388C129.392 53.9306 128.834 54.1265 128.081 54.1265Z" fill="#00D4CD"/>
<path d="M150.607 54.1265C149.944 54.1265 149.387 53.9004 148.935 53.4484C148.483 52.9964 148.257 52.4388 148.257 51.7758V21.1724C148.257 20.4792 148.483 19.9217 148.935 19.4998C149.387 19.0478 149.944 18.8218 150.607 18.8218H159.648C161.908 18.8218 163.913 19.319 165.66 20.3135C167.408 21.308 168.764 22.6943 169.729 24.4723C170.723 26.2202 171.221 28.2394 171.221 30.5297C171.221 32.7297 170.723 34.6885 169.729 36.4063C168.764 38.1241 167.408 39.4651 165.66 40.4295C163.913 41.3939 161.908 41.876 159.648 41.876H152.958V51.7758C152.958 52.4388 152.732 52.9964 152.28 53.4484C151.858 53.9004 151.3 54.1265 150.607 54.1265ZM152.958 37.5364H159.648C161.034 37.5364 162.255 37.235 163.31 36.6323C164.365 36.0296 165.193 35.2008 165.796 34.1461C166.399 33.0913 166.7 31.8859 166.7 30.5297C166.7 29.0832 166.399 27.8174 165.796 26.7325C165.193 25.6175 164.365 24.7435 163.31 24.1107C162.255 23.4778 161.034 23.1614 159.648 23.1614H152.958V37.5364ZM178.727 54.1265C178.064 54.1265 177.506 53.9155 177.054 53.4936C176.632 53.0416 176.421 52.484 176.421 51.821V31.705C176.421 31.0119 176.632 30.4544 177.054 30.0325C177.506 29.6106 178.064 29.3996 178.727 29.3996C179.42 29.3996 179.977 29.6106 180.399 30.0325C180.821 30.4544 181.032 31.0119 181.032 31.705V51.821C181.032 52.484 180.821 53.0416 180.399 53.4936C179.977 53.9155 179.42 54.1265 178.727 54.1265ZM178.727 25.3764C177.913 25.3764 177.205 25.0901 176.602 24.5175C176.029 23.9148 175.743 23.2066 175.743 22.3929C175.743 21.5792 176.029 20.8861 176.602 20.3135C177.205 19.7108 177.913 19.4094 178.727 19.4094C179.54 19.4094 180.233 19.7108 180.806 20.3135C181.409 20.8861 181.71 21.5792 181.71 22.3929C181.71 23.2066 181.409 23.9148 180.806 24.5175C180.233 25.0901 179.54 25.3764 178.727 25.3764ZM210.494 54.1717C209.831 54.1717 209.274 53.9607 208.822 53.5388C208.4 53.0868 208.189 52.5292 208.189 51.8662V40.7459C208.189 39.0282 207.873 37.6268 207.24 36.5419C206.607 35.457 205.748 34.6584 204.663 34.1461C203.608 33.6036 202.388 33.3324 201.002 33.3324C199.736 33.3324 198.591 33.5886 197.566 34.1009C196.541 34.6132 195.728 35.3063 195.125 36.1803C194.522 37.0241 194.221 38.0035 194.221 39.1186H191.373C191.373 37.22 191.825 35.5323 192.729 34.0557C193.663 32.5488 194.929 31.3585 196.526 30.4845C198.123 29.6106 199.917 29.1736 201.906 29.1736C203.985 29.1736 205.838 29.6256 207.466 30.5297C209.123 31.4037 210.419 32.6995 211.353 34.4173C212.318 36.1351 212.8 38.2446 212.8 40.7459V51.8662C212.8 52.5292 212.574 53.0868 212.122 53.5388C211.7 53.9607 211.157 54.1717 210.494 54.1717ZM191.915 54.1717C191.252 54.1717 190.695 53.9607 190.243 53.5388C189.821 53.0868 189.61 52.5292 189.61 51.8662V31.705C189.61 31.0119 189.821 30.4544 190.243 30.0325C190.695 29.6106 191.252 29.3996 191.915 29.3996C192.609 29.3996 193.166 29.6106 193.588 30.0325C194.01 30.4544 194.221 31.0119 194.221 31.705V51.8662C194.221 52.5292 194.01 53.0868 193.588 53.5388C193.166 53.9607 192.609 54.1717 191.915 54.1717ZM229.419 54.1265C227.912 54.1265 226.556 53.7498 225.35 52.9964C224.145 52.2128 223.196 51.158 222.503 49.832C221.809 48.506 221.463 47.0143 221.463 45.3568V23.7942C221.463 23.1312 221.674 22.5888 222.096 22.1669C222.518 21.745 223.06 21.534 223.723 21.534C224.386 21.534 224.929 21.745 225.35 22.1669C225.772 22.5888 225.983 23.1312 225.983 23.7942V45.3568C225.983 46.5622 226.315 47.5718 226.978 48.3855C227.641 49.1992 228.455 49.606 229.419 49.606H230.956C231.498 49.606 231.95 49.817 232.312 50.2389C232.704 50.6608 232.9 51.2032 232.9 51.8662C232.9 52.5292 232.643 53.0717 232.131 53.4936C231.649 53.9155 231.016 54.1265 230.233 54.1265H229.419ZM219.383 34.1913C218.751 34.1913 218.238 34.0105 217.847 33.6488C217.455 33.2872 217.259 32.8351 217.259 32.2927C217.259 31.69 217.455 31.2078 217.847 30.8461C218.238 30.4845 218.751 30.3037 219.383 30.3037H229.826C230.459 30.3037 230.971 30.4845 231.363 30.8461C231.754 31.2078 231.95 31.69 231.95 32.2927C231.95 32.8351 231.754 33.2872 231.363 33.6488C230.971 34.0105 230.459 34.1913 229.826 34.1913H219.383ZM248.873 54.3073C246.673 54.3073 244.7 53.7648 242.952 52.6799C241.204 51.5649 239.817 50.0731 238.793 48.2047C237.798 46.3061 237.301 44.1664 237.301 41.7856C237.301 39.4049 237.844 37.2652 238.928 35.3666C240.043 33.468 241.535 31.9763 243.404 30.8914C245.302 29.7763 247.427 29.2188 249.778 29.2188C252.128 29.2188 254.238 29.7763 256.106 30.8914C257.975 31.9763 259.451 33.468 260.536 35.3666C261.651 37.2652 262.209 39.4049 262.209 41.7856H260.446C260.446 44.1664 259.933 46.3061 258.909 48.2047C257.914 50.0731 256.543 51.5649 254.795 52.6799C253.047 53.7648 251.073 54.3073 248.873 54.3073ZM249.778 50.2389C251.314 50.2389 252.686 49.8772 253.891 49.154C255.097 48.4006 256.046 47.391 256.739 46.1253C257.432 44.8294 257.779 43.3829 257.779 41.7856C257.779 40.1583 257.432 38.7117 256.739 37.446C256.046 36.1501 255.097 35.1406 253.891 34.4173C252.686 33.6639 251.314 33.2872 249.778 33.2872C248.271 33.2872 246.899 33.6639 245.664 34.4173C244.458 35.1406 243.494 36.1501 242.771 37.446C242.078 38.7117 241.731 40.1583 241.731 41.7856C241.731 43.3829 242.078 44.8294 242.771 46.1253C243.494 47.391 244.458 48.4006 245.664 49.154C246.899 49.8772 248.271 50.2389 249.778 50.2389ZM259.903 54.1717C259.24 54.1717 258.683 53.9607 258.231 53.5388C257.809 53.0868 257.598 52.5292 257.598 51.8662V44.95L258.457 40.1583L262.209 41.7856V51.8662C262.209 52.5292 261.983 53.0868 261.531 53.5388C261.109 53.9607 260.566 54.1717 259.903 54.1717ZM271.286 38.6665C271.286 36.8583 271.723 35.2461 272.597 33.8296C273.501 32.3831 274.707 31.2379 276.213 30.3941C277.72 29.5503 279.378 29.1284 281.186 29.1284C282.994 29.1284 284.335 29.4297 285.209 30.0325C286.113 30.6051 286.46 31.2982 286.249 32.1119C286.158 32.5338 285.977 32.8653 285.706 33.1064C285.465 33.3173 285.179 33.4529 284.847 33.5132C284.516 33.5735 284.154 33.5584 283.762 33.468C281.834 33.0762 280.101 33.0461 278.564 33.3776C277.027 33.7091 275.806 34.3269 274.902 35.231C274.028 36.1351 273.591 37.2803 273.591 38.6665H271.286ZM271.331 54.1265C270.608 54.1265 270.05 53.9456 269.659 53.584C269.267 53.1922 269.071 52.6196 269.071 51.8662V31.6598C269.071 30.9366 269.267 30.379 269.659 29.9873C270.05 29.5955 270.608 29.3996 271.331 29.3996C272.085 29.3996 272.642 29.5955 273.004 29.9873C273.396 30.3489 273.591 30.9064 273.591 31.6598V51.8662C273.591 52.5895 273.396 53.147 273.004 53.5388C272.642 53.9306 272.085 54.1265 271.331 54.1265Z" fill="#FAAE2B"/>
</svg>
