<svg width="223" height="158" viewBox="0 0 223 158" fill="none" xmlns="http://www.w3.org/2000/svg">
<path opacity="0.71333" d="M202.662 16.7632C202.81 16.1553 203.705 16.2637 203.703 16.8893L203.69 22.1373C203.674 28.914 208.303 34.8192 214.887 36.4212L219.987 37.6618C220.595 37.8098 220.486 38.7047 219.861 38.7032L214.612 38.6903C207.836 38.6737 201.931 43.3027 200.329 49.8872L199.088 54.9865C198.94 55.5944 198.045 55.486 198.047 54.8604L198.06 49.6123C198.076 42.8358 193.447 36.9305 186.863 35.3285L181.763 34.0879C181.155 33.9399 181.264 33.045 181.889 33.0465L187.137 33.0594C193.914 33.0761 199.819 28.447 201.421 21.8624L202.662 16.7632Z" fill="#F2994A"/>
<path opacity="0.436899" fill-rule="evenodd" clip-rule="evenodd" d="M56.3516 130.029C43.3384 124.982 28.691 131.387 23.6018 144.369C28.7023 131.358 22.2702 116.668 9.23543 111.558C22.2486 116.606 36.8961 110.2 41.9853 97.2183C36.8846 110.229 43.3169 124.919 56.3516 130.029Z" fill="#4F4F4F"/>
<path d="M116.955 1.58008C145.097 1.58012 167.91 24.3935 167.91 52.5352C167.91 64.7736 163.594 76.0029 156.403 84.7878C156.395 84.7967 156.401 84.8102 156.413 84.8106C156.424 84.811 156.431 84.8227 156.424 84.8318C154.386 87.7732 149.809 94.7302 147.693 99.1943C145.043 104.787 146.23 117.128 144.513 120.234C143.188 122.631 140.272 122.133 137.622 122.099C124.018 121.921 95.7488 121.459 91.5078 121.033C87.3146 120.612 88.0449 104.616 85.7552 96.2766C85.7035 96.0883 85.6294 95.9116 85.5357 95.7402L82.7617 90.6709L82.0983 89.762C82.0024 89.6306 81.8945 89.5083 81.7768 89.396C79.6225 87.3393 77.6494 85.0952 75.8811 82.6908C75.8809 82.6905 75.8808 82.6903 75.8806 82.6901L75.8719 82.6814C75.8716 82.6811 75.8718 82.6807 75.8722 82.6807C75.8725 82.6807 75.8727 82.6803 75.8725 82.68C69.6677 74.238 66 63.8154 66 52.5352C66 24.3935 88.8134 1.58008 116.955 1.58008Z" fill="#FAAE2B"/>
<ellipse cx="135.224" cy="50.7861" rx="17.1867" ry="14.8816" transform="rotate(88.3583 135.224 50.7861)" fill="#F27E07"/>
<g filter="url(#filter0_d_2875_37336)">
<ellipse cx="135.765" cy="51.3743" rx="15.3775" ry="13.3151" transform="rotate(88.3583 135.765 51.3743)" fill="white"/>
</g>
<ellipse cx="135.344" cy="55.0029" rx="9.34713" ry="8.09351" transform="rotate(88.3583 135.344 55.0029)" fill="#D27B08"/>
<ellipse cx="6.52868" cy="5.86259" rx="6.52868" ry="5.86259" transform="matrix(0.338425 0.940993 -0.904493 0.426489 138.706 46.6558)" fill="#381004"/>
<ellipse cx="135.356" cy="49.3793" rx="1.5076" ry="1.3054" transform="rotate(88.3583 135.356 49.3793)" fill="white"/>
<ellipse cx="102.698" cy="50.7861" rx="17.1867" ry="14.8816" transform="rotate(88.3583 102.698 50.7861)" fill="#F27E07"/>
<g filter="url(#filter1_d_2875_37336)">
<ellipse cx="103.239" cy="51.3743" rx="15.3775" ry="13.3151" transform="rotate(88.3583 103.239 51.3743)" fill="white"/>
</g>
<ellipse cx="102.818" cy="55.0029" rx="9.34713" ry="8.09351" transform="rotate(88.3583 102.818 55.0029)" fill="#D27B08"/>
<ellipse cx="6.52868" cy="5.86259" rx="6.52868" ry="5.86259" transform="matrix(0.338425 0.940993 -0.904493 0.426489 106.181 46.6558)" fill="#381004"/>
<ellipse cx="102.831" cy="49.3793" rx="1.5076" ry="1.3054" transform="rotate(88.3583 102.831 49.3793)" fill="white"/>
<path d="M138.698 9.42886C137.436 10.8819 136.988 12.9375 137.452 15.1433C137.916 17.3491 139.254 19.5245 141.173 21.1909C143.091 22.8573 145.433 23.8782 147.682 24.0291C149.931 24.18 151.903 23.4484 153.166 21.9953L145.932 15.7121L138.698 9.42886Z" fill="white"/>
<path d="M163.388 41.0581C164.753 39.7004 164.177 36.5051 161.787 32.1751C159.398 27.8451 155.391 22.7352 150.648 17.9694C145.905 13.2036 140.814 9.17239 136.496 6.76251C132.177 4.35263 128.985 3.76152 127.62 5.11922L139.075 11.455L149.171 20.5953L157.64 30.415L163.388 41.0581Z" fill="white"/>
<path d="M138.68 145.948C138.68 152.604 129.307 158 117.745 158C106.183 158 96.8101 152.604 96.8101 145.948C96.8101 139.292 106.183 145.949 117.745 145.949C129.307 145.949 138.68 139.292 138.68 145.948Z" fill="black"/>
<path d="M141.05 140.092C141.05 144.237 130.793 147.597 118.14 147.597C105.487 147.597 95.23 144.237 95.23 140.092C95.23 135.948 105.487 137.46 118.14 137.46C130.793 137.46 141.05 135.948 141.05 140.092Z" fill="#CEDAEA"/>
<rect x="83.7748" y="102.305" width="64.78" height="35.55" rx="2.765" fill="#B5B2C3" stroke="black" stroke-width="2.37"/>
<path d="M81.8306 110.205C83.1591 110.205 84.1651 110.474 84.937 110.904C85.7052 111.332 86.3066 111.957 86.7759 112.773C87.7399 114.45 88.1196 116.89 88.1196 119.817C88.1196 122.743 87.7399 125.184 86.7759 126.861C86.3066 127.677 85.7052 128.302 84.937 128.73C84.1651 129.16 83.1591 129.428 81.8306 129.428C79.2145 129.428 77.3935 128.39 76.189 126.75C74.9498 125.062 74.2945 122.637 74.2944 119.817C74.2944 116.997 74.9497 114.571 76.189 112.883C77.3935 111.243 79.2146 110.205 81.8306 110.205Z" fill="white" stroke="black" stroke-width="2.37"/>
<path d="M150.112 129.473C148.783 129.465 147.779 129.19 147.009 128.755C146.244 128.322 145.646 127.694 145.181 126.875C144.227 125.193 143.862 122.75 143.879 119.824C143.896 116.897 144.29 114.459 145.264 112.788C145.738 111.974 146.343 111.353 147.114 110.929C147.889 110.504 148.896 110.242 150.225 110.249C152.841 110.265 154.656 111.314 155.85 112.961C157.08 114.656 157.721 117.085 157.704 119.905C157.688 122.725 157.018 125.147 155.769 126.827C154.555 128.46 152.728 129.488 150.112 129.473Z" fill="white" stroke="black" stroke-width="2.37"/>
<path d="M111.03 26.1198V30.4019L91.2798 31.2048C91.2798 31.2048 95.7563 27.1594 99.9698 26.1198C104.028 25.1185 111.03 26.1198 111.03 26.1198Z" fill="black"/>
<path d="M122.576 26.7837L123.502 30.9645L143.162 27.4329C143.162 27.4329 137.87 24.4613 133.488 24.367C129.267 24.2762 122.576 26.7837 122.576 26.7837Z" fill="black"/>
<path d="M98.5134 74.1129C98.5297 76.7583 99.0669 79.3746 100.094 81.8124C101.122 84.2503 102.619 86.4619 104.501 88.3209C106.384 90.18 108.613 91.6502 111.064 92.6475C113.514 93.6448 116.137 94.1497 118.782 94.1334C121.428 94.1171 124.044 93.5799 126.482 92.5525C128.92 91.5251 131.131 90.0275 132.99 88.1454C134.849 86.2633 136.319 84.0334 137.317 81.5831C138.314 79.1328 138.819 76.5101 138.803 73.8647L118.658 73.9888L98.5134 74.1129Z" fill="#77290F"/>
<path d="M128.215 89.9925C128.217 88.6567 127.956 87.3335 127.447 86.0985C126.937 84.8636 126.19 83.7411 125.246 82.7951C124.303 81.8491 123.183 81.0982 121.949 80.5851C120.716 80.0721 119.394 79.807 118.058 79.8051C116.722 79.8031 115.399 80.0642 114.164 80.5736C112.929 81.083 111.806 81.8307 110.86 82.7739C109.914 83.7171 109.163 84.8374 108.65 86.0708C108.137 87.3042 107.872 88.6266 107.87 89.9625L118.043 89.9775L128.215 89.9925Z" fill="#FD6A81"/>
<rect x="112.61" y="105.375" width="3.95" height="35.2939" transform="rotate(-28.511 112.61 105.375)" fill="#D9D9D9"/>
<rect x="120.51" y="105.375" width="3.95" height="35.2939" transform="rotate(-28.511 120.51 105.375)" fill="#D9D9D9"/>
<rect x="104.71" y="105.375" width="3.95" height="35.2939" transform="rotate(-28.511 104.71 105.375)" fill="#D9D9D9"/>
<rect x="96.8101" y="105.375" width="3.95" height="35.2939" transform="rotate(-28.511 96.8101 105.375)" fill="#D9D9D9"/>
<defs>
<filter id="filter0_d_2875_37336" x="120.036" y="35.998" width="31.4581" height="35.5768" filterUnits="userSpaceOnUse" color-interpolation-filters="sRGB">
<feFlood flood-opacity="0" result="BackgroundImageFix"/>
<feColorMatrix in="SourceAlpha" type="matrix" values="0 0 0 0 0 0 0 0 0 0 0 0 0 0 0 0 0 0 127 0" result="hardAlpha"/>
<feOffset dy="2.41216"/>
<feGaussianBlur stdDeviation="1.20608"/>
<feComposite in2="hardAlpha" operator="out"/>
<feColorMatrix type="matrix" values="0 0 0 0 0 0 0 0 0 0 0 0 0 0 0 0 0 0 0.25 0"/>
<feBlend mode="normal" in2="BackgroundImageFix" result="effect1_dropShadow_2875_37336"/>
<feBlend mode="normal" in="SourceGraphic" in2="effect1_dropShadow_2875_37336" result="shape"/>
</filter>
<filter id="filter1_d_2875_37336" x="87.5102" y="35.998" width="31.4581" height="35.5768" filterUnits="userSpaceOnUse" color-interpolation-filters="sRGB">
<feFlood flood-opacity="0" result="BackgroundImageFix"/>
<feColorMatrix in="SourceAlpha" type="matrix" values="0 0 0 0 0 0 0 0 0 0 0 0 0 0 0 0 0 0 127 0" result="hardAlpha"/>
<feOffset dy="2.41216"/>
<feGaussianBlur stdDeviation="1.20608"/>
<feComposite in2="hardAlpha" operator="out"/>
<feColorMatrix type="matrix" values="0 0 0 0 0 0 0 0 0 0 0 0 0 0 0 0 0 0 0.25 0"/>
<feBlend mode="normal" in2="BackgroundImageFix" result="effect1_dropShadow_2875_37336"/>
<feBlend mode="normal" in="SourceGraphic" in2="effect1_dropShadow_2875_37336" result="shape"/>
</filter>
</defs>
</svg>
