<svg width="229" height="197" viewBox="0 0 229 197" fill="none" xmlns="http://www.w3.org/2000/svg">
<path d="M144.491 176.379C144.885 186.325 131.199 194.941 113.923 195.624C96.6479 196.307 82.3245 188.799 81.9312 178.854C81.5378 168.909 95.9358 178.3 113.211 177.617C130.487 176.933 144.098 166.434 144.491 176.379Z" fill="black"/>
<path d="M111.835 1.80957C144.065 1.80957 170.193 27.9365 170.193 60.166C170.193 74.1824 165.25 87.0439 157.014 97.1049C157.006 97.1151 157.013 97.1305 157.026 97.1309C157.039 97.1313 157.046 97.1446 157.039 97.155C154.704 100.524 149.461 108.491 147.039 113.604C144.003 120.009 145.363 134.143 143.396 137.7C141.878 140.445 138.54 139.876 135.504 139.836C119.923 139.633 87.5484 139.103 82.6919 138.615C77.8896 138.133 78.7263 119.814 76.104 110.263C76.0448 110.047 75.9599 109.844 75.8525 109.648L72.6753 103.843L71.9164 102.804C71.8067 102.654 71.6833 102.514 71.5487 102.386C69.0782 100.027 66.815 97.454 64.7877 94.6964C64.7876 94.6963 64.7876 94.6963 64.7875 94.6962L64.7841 94.6928C64.7839 94.6926 64.784 94.6924 64.7842 94.6924C64.7844 94.6924 64.7845 94.6922 64.7844 94.692C57.6779 85.0236 53.479 73.0853 53.479 60.166C53.4791 27.9366 79.606 1.80975 111.835 1.80957Z" fill="#FAAE2B"/>
<ellipse cx="132.759" cy="58.1634" rx="19.6832" ry="17.0434" transform="rotate(88.3583 132.759 58.1634)" fill="#F27E07"/>
<g filter="url(#filter0_d_1571_1604)">
<ellipse cx="133.379" cy="58.8369" rx="17.6113" ry="15.2493" transform="rotate(88.3583 133.379 58.8369)" fill="white"/>
</g>
<ellipse cx="132.896" cy="62.9934" rx="10.7049" ry="9.2692" transform="rotate(88.3583 132.896 62.9934)" fill="#D27B08"/>
<ellipse cx="7.47706" cy="6.7142" rx="7.47706" ry="6.7142" transform="matrix(0.338425 0.940993 -0.904493 0.426489 136.747 53.4336)" fill="#381004"/>
<ellipse cx="132.832" cy="61.4836" rx="1.7266" ry="1.49503" transform="rotate(88.3583 132.832 61.4836)" fill="white"/>
<ellipse cx="95.5085" cy="58.1634" rx="19.6832" ry="17.0434" transform="rotate(88.3583 95.5085 58.1634)" fill="#F27E07"/>
<g filter="url(#filter1_d_1571_1604)">
<ellipse cx="96.1282" cy="58.8369" rx="17.6113" ry="15.2493" transform="rotate(88.3583 96.1282 58.8369)" fill="white"/>
</g>
<ellipse cx="95.6458" cy="62.9934" rx="10.7049" ry="9.2692" transform="rotate(88.3583 95.6458 62.9934)" fill="#D27B08"/>
<ellipse cx="7.47706" cy="6.7142" rx="7.47706" ry="6.7142" transform="matrix(0.338425 0.940993 -0.904493 0.426489 99.4961 53.4336)" fill="#381004"/>
<ellipse cx="95.7372" cy="60.5773" rx="1.7266" ry="1.49503" transform="rotate(88.3583 95.7372 60.5773)" fill="white"/>
<path d="M136.737 10.7983C135.292 12.4624 134.779 14.8166 135.31 17.3428C135.842 19.869 137.375 22.3604 139.572 24.2689C141.769 26.1774 144.45 27.3466 147.026 27.5194C149.602 27.6922 151.861 26.8543 153.307 25.1902L145.022 17.9942L136.737 10.7983Z" fill="white"/>
<path d="M165.015 47.0223C166.577 45.4673 165.917 41.8079 163.181 36.8489C160.445 31.89 155.856 26.0378 150.424 20.5797C144.992 15.1216 139.161 10.5048 134.215 7.74485C129.27 4.9849 125.613 4.30793 124.051 5.86285L137.169 13.119L148.732 23.5871L158.431 34.8332L165.015 47.0223Z" fill="white"/>
<path d="M105.05 29.9149V34.8191L82.4312 35.7386C82.4312 35.7386 87.558 31.1055 92.3835 29.9149C97.0315 28.7682 105.05 29.9149 105.05 29.9149Z" fill="black"/>
<path d="M118.274 30.6734L119.334 35.4615L141.85 31.4169C141.85 31.4169 135.79 28.0136 130.771 27.9056C125.937 27.8016 118.274 30.6734 118.274 30.6734Z" fill="black"/>
<path d="M90.7156 84.8794C90.7343 87.9091 91.3495 90.9055 92.5262 93.6974C93.7028 96.4894 95.4179 99.0222 97.5734 101.151C99.729 103.28 102.283 104.964 105.089 106.106C107.895 107.249 110.899 107.827 113.929 107.808C116.958 107.789 119.955 107.174 122.747 105.998C125.539 104.821 128.071 103.106 130.201 100.95C132.33 98.7948 134.013 96.241 135.156 93.4348C136.298 90.6286 136.876 87.6248 136.857 84.5951L113.786 84.7373L90.7156 84.8794Z" fill="#77290F"/>
<path d="M124.732 103.064C124.734 101.534 124.435 100.019 123.852 98.6048C123.268 97.1905 122.412 95.9049 121.332 94.8215C120.252 93.7381 118.968 92.878 117.556 92.2905C116.143 91.7029 114.629 91.3993 113.099 91.3971C111.569 91.3948 110.054 91.6939 108.639 92.2773C107.225 92.8607 105.939 93.7169 104.856 94.7972C103.773 95.8774 102.912 97.1604 102.325 98.573C101.737 99.9856 101.434 101.5 101.432 103.03L113.082 103.047L124.732 103.064Z" fill="#FD6A81"/>
<path d="M104.498 140.238C94.498 139.967 80.9171 139.016 80.9171 139.016L82.139 150.658L84.497 150.794C84.497 150.794 92.9865 152.869 98.5386 153.455C105.336 154.173 109.172 154.953 115.988 154.46C121.615 154.054 124.843 152.787 130.348 151.584C135.529 150.452 143.347 147.704 143.347 147.704L143.345 139.333C143.345 139.333 129.026 140.238 119.526 140.238C114.097 140.238 110.058 140.388 104.498 140.238Z" fill="#B5B5CB" stroke="black" stroke-width="2.71427"/>
<path d="M106.702 154.35C96.9999 154.088 82.1251 150.681 82.1251 150.681L83.3084 162.012L85.596 162.144C85.596 162.144 93.8318 164.161 99.2181 164.731C105.813 165.428 109.586 165.289 116.198 164.808C121.657 164.411 124.738 164.077 130.079 162.905C135.105 161.802 142.691 159.126 142.691 159.126L143.363 147.451C143.363 147.451 129.709 152.639 120.505 153.793C115.154 154.464 112.096 154.495 106.702 154.35Z" fill="#B5B5CB" stroke="black" stroke-width="2.71427"/>
<path d="M107.084 165.752C97.6797 165.508 83.318 162.531 83.318 162.531L84.4449 173.86L86.6622 173.987C86.6622 173.987 94.6418 175.99 99.8619 176.55C106.253 177.236 109.911 177.09 116.321 176.597C121.614 176.191 124.601 175.851 129.78 174.67C134.654 173.558 142.011 170.869 142.011 170.869L142.684 159.194C142.684 159.194 129.192 163.982 120.268 165.153C115.08 165.833 112.312 165.888 107.084 165.752Z" fill="#B5B5CB" stroke="black" stroke-width="2.71427"/>
<path d="M170.193 125.006C161.128 127.667 145.312 125.006 145.312 125.006L144.407 133.904L143.955 142.499C143.955 142.499 164.7 145.49 176.073 142.549C186.378 139.883 198.692 130.166 198.692 130.166L187.383 113.999C187.383 113.999 178.38 122.602 170.193 125.006Z" fill="#FAAE2B" stroke="black" stroke-width="0.904758"/>
<path d="M56.5428 143.404C64.7733 138.767 80.7826 137.792 80.7826 137.792L76.8259 120.702C76.8259 120.702 57.2734 122.209 46.8568 127.64C37.4189 132.561 27.6136 144.805 27.6136 144.805L42.278 158.005C42.278 158.005 49.1086 147.592 56.5428 143.404Z" fill="#FAAE2B" stroke="black" stroke-width="0.904758"/>
<path d="M18.5943 150.859C19.0239 151.885 20.7197 152.695 20.7197 152.695C20.7197 152.695 17.3277 151.994 15.2214 152.616C13.8146 153.032 11.8486 154.373 11.8486 154.373C11.8486 154.373 7.73716 155.963 6.14127 158.117C4.40888 160.455 4.02996 162.45 4.33055 165.226C4.65245 168.198 6.19661 169.453 7.99394 171.725C10.1537 174.456 14.7244 177.539 14.7244 177.539L22.3965 180.829C22.3965 180.829 26.0312 182.025 28.2491 181.214C31.744 179.935 33.4569 173.036 33.4569 173.036L34.6075 166.691C34.6075 166.691 36.7095 168.244 38.0772 167.687C39.846 166.966 39.2254 164.887 39.6305 163.024C40.0995 160.867 42.6914 161.307 42.1701 159.237C41.3013 155.788 38.0127 154.722 35.3843 152.451C33.5859 150.898 27.2415 144.761 27.2415 144.761C27.2415 144.761 25.2763 145.139 22.8847 145.892C20.493 146.644 17.6636 148.636 18.5943 150.859Z" fill="#FFFBFE" stroke="black" stroke-width="0.904758"/>
<path d="M192.901 103.243L191.41 110.621C191.41 110.621 188.057 110.195 187.477 111.676C187.159 112.488 187.664 113.902 187.664 113.902L190.545 119.43L195.069 125.91C195.069 125.91 199.836 134.298 202.519 131.446C203.887 129.993 203.684 126.47 203.684 126.47L213.616 123.501C213.616 123.501 222.392 122.528 222.664 118.073C222.859 114.866 215.938 114.563 215.938 114.563C215.938 114.563 223.291 109.902 221.706 106.299C219.898 102.191 210.413 108.433 210.413 108.433C210.413 108.433 215.172 101.228 212.568 97.9672C209.185 93.7315 201.316 106.097 201.316 106.097C201.316 106.097 201.599 98.6936 198.349 98.2367C195.488 97.8344 192.901 103.243 192.901 103.243Z" fill="#FFFDF4" stroke="black" stroke-width="0.766201"/>
<defs>
<filter id="filter0_d_1571_1604" x="115.364" y="41.2275" width="36.0285" height="40.7439" filterUnits="userSpaceOnUse" color-interpolation-filters="sRGB">
<feFlood flood-opacity="0" result="BackgroundImageFix"/>
<feColorMatrix in="SourceAlpha" type="matrix" values="0 0 0 0 0 0 0 0 0 0 0 0 0 0 0 0 0 0 127 0" result="hardAlpha"/>
<feOffset dy="2.76256"/>
<feGaussianBlur stdDeviation="1.38128"/>
<feComposite in2="hardAlpha" operator="out"/>
<feColorMatrix type="matrix" values="0 0 0 0 0 0 0 0 0 0 0 0 0 0 0 0 0 0 0.25 0"/>
<feBlend mode="normal" in2="BackgroundImageFix" result="effect1_dropShadow_1571_1604"/>
<feBlend mode="normal" in="SourceGraphic" in2="effect1_dropShadow_1571_1604" result="shape"/>
</filter>
<filter id="filter1_d_1571_1604" x="78.1139" y="41.2275" width="36.0285" height="40.7439" filterUnits="userSpaceOnUse" color-interpolation-filters="sRGB">
<feFlood flood-opacity="0" result="BackgroundImageFix"/>
<feColorMatrix in="SourceAlpha" type="matrix" values="0 0 0 0 0 0 0 0 0 0 0 0 0 0 0 0 0 0 127 0" result="hardAlpha"/>
<feOffset dy="2.76256"/>
<feGaussianBlur stdDeviation="1.38128"/>
<feComposite in2="hardAlpha" operator="out"/>
<feColorMatrix type="matrix" values="0 0 0 0 0 0 0 0 0 0 0 0 0 0 0 0 0 0 0.25 0"/>
<feBlend mode="normal" in2="BackgroundImageFix" result="effect1_dropShadow_1571_1604"/>
<feBlend mode="normal" in="SourceGraphic" in2="effect1_dropShadow_1571_1604" result="shape"/>
</filter>
</defs>
</svg>
