<svg width="119" height="127" viewBox="0 0 119 127" fill="none" xmlns="http://www.w3.org/2000/svg">
<path d="M59.2456 3L59.2456 16.224" stroke="#FAAE2A" stroke-width="4.96877" stroke-linecap="round"/>
<path d="M14.249 20.1914L24.4589 28.6053" stroke="#FAAE2B" stroke-width="4.96877" stroke-linecap="round"/>
<path d="M3 55.4375L15.9937 52.9231" stroke="#FAAE2B" stroke-width="4.96877" stroke-linecap="round"/>
<path d="M15.9023 88.918L27.7399 83.0051" stroke="#FAAE2B" stroke-width="4.96877" stroke-linecap="round"/>
<path d="M105.779 20.1914L94.9779 27.8324" stroke="#FAAE2A" stroke-width="4.96877" stroke-linecap="round"/>
<path d="M116 54.9219L102.918 52.921" stroke="#FAAE2B" stroke-width="4.96877" stroke-linecap="round"/>
<path d="M100.033 91.6445L90.015 83.0037" stroke="#FAAE2A" stroke-width="4.96877" stroke-linecap="round"/>
<path d="M60.7773 33.6992C77.5768 33.6992 91.1962 47.3073 91.1963 64.0938C91.1963 71.394 88.619 78.0924 84.3261 83.3326C84.3218 83.338 84.3254 83.346 84.3323 83.3462C84.3389 83.3464 84.343 83.3534 84.3392 83.3588C83.1221 85.1134 80.3898 89.2629 79.127 91.9258C77.5449 95.2619 78.2534 102.623 77.2285 104.477C76.4375 105.906 74.6972 105.61 73.1152 105.589C64.9938 105.483 48.1173 105.207 45.5859 104.953C43.0833 104.701 43.5191 95.1607 42.1524 90.1861C42.1215 90.0735 42.0772 89.9678 42.021 89.8654L40.3652 86.8418L39.9679 86.2984C39.9106 86.2201 39.8463 86.1472 39.7761 86.0803C38.4911 84.8544 37.3137 83.5171 36.2588 82.084L36.2526 82.0769C36.2524 82.0766 36.2526 82.0762 36.253 82.0762C36.2534 82.0762 36.2536 82.0757 36.2534 82.0754C32.5492 77.0397 30.3594 70.8226 30.3594 64.0938C30.3595 47.3074 43.978 33.6994 60.7773 33.6992Z" fill="#FAAE2B"/>
<ellipse cx="10.2519" cy="8.88376" rx="10.2519" ry="8.88376" transform="matrix(0.0286709 0.999589 -0.99959 0.0286266 83.877 52.209)" fill="#F27E07"/>
<g filter="url(#filter0_d_1959_3955)">
<ellipse cx="9.17272" cy="7.94863" rx="9.17272" ry="7.94863" transform="matrix(0.0286709 0.999589 -0.99959 0.0286266 83.2959 53.666)" fill="white"/>
</g>
<ellipse cx="5.57557" cy="4.83152" rx="5.57557" ry="4.83152" transform="matrix(0.0286709 0.999589 -0.99959 0.0286266 80.0322 59.5156)" fill="#D27B08"/>
<ellipse cx="3.89466" cy="3.49931" rx="3.89466" ry="3.49931" transform="matrix(0.338662 0.940922 -0.904605 0.426212 77.3696 60.2461)" fill="#381004"/>
<ellipse cx="0.899286" cy="0.779277" rx="0.899286" ry="0.779277" transform="matrix(0.0286709 0.999589 -0.99959 0.0286266 76.123 60.9492)" fill="white"/>
<path d="M73.7463 119.811C73.7463 123.782 68.151 127 61.2489 127C54.3467 127 48.7515 123.782 48.7515 119.811C48.7515 115.841 54.3467 119.811 61.2489 119.811C68.151 119.811 73.7463 115.841 73.7463 119.811Z" fill="black"/>
<path d="M75.1642 108.598C75.1642 115.334 69.0397 120.794 61.4847 120.794C53.9297 120.794 47.8052 115.334 47.8052 108.598C47.8052 101.862 53.9297 104.32 61.4847 104.32C69.0397 104.32 75.1642 101.862 75.1642 108.598Z" fill="#B5B5CB"/>
<path d="M46.3813 99.9619C47.1742 99.962 47.7742 100.122 48.2349 100.379C48.6934 100.634 49.0535 101.006 49.3335 101.493C49.9088 102.493 50.1353 103.949 50.1353 105.694C50.1352 107.44 49.9086 108.895 49.3335 109.895C49.0535 110.381 48.6934 110.754 48.2349 111.01C47.7743 111.266 47.1741 111.426 46.3813 111.426C44.8199 111.426 43.733 110.807 43.0142 109.829C42.2747 108.823 41.8833 107.376 41.8833 105.694C41.8833 104.012 42.2746 102.566 43.0142 101.56C43.733 100.581 44.8197 99.9619 46.3813 99.9619Z" fill="white" stroke="black" stroke-width="1.41649"/>
<path d="M77.454 110.691C76.6611 110.686 76.0621 110.522 75.6029 110.263C75.1459 110.005 74.788 109.631 74.5109 109.143C73.9415 108.139 73.7236 106.682 73.7339 104.937C73.7442 103.192 73.9794 101.738 74.5603 100.741C74.8432 100.256 75.2055 99.8852 75.6655 99.6325C76.1276 99.3789 76.7287 99.2228 77.5214 99.2274C79.0829 99.2366 80.1661 99.8617 80.8792 100.844C81.6127 101.854 81.9955 103.303 81.9857 104.985C81.9758 106.667 81.5759 108.111 80.8305 109.113C80.1059 110.087 79.0155 110.7 77.454 110.691Z" fill="white" stroke="black" stroke-width="1.41649"/>
<path d="M57.2402 48.3338V50.8881L45.4502 51.367C45.4502 51.367 48.1225 48.9539 50.6378 48.3338C53.0606 47.7365 57.2402 48.3338 57.2402 48.3338Z" fill="black"/>
<path d="M64.1325 48.7318L64.6852 51.2256L76.4218 49.1191C76.4218 49.1191 73.2629 47.3465 70.647 47.2903C68.1272 47.2361 64.1325 48.7318 64.1325 48.7318Z" fill="black"/>
<path d="M53.7003 76.2921C53.7075 77.4538 53.9435 78.6027 54.3951 79.6732C54.8466 80.7438 55.5047 81.715 56.3319 82.5313C57.159 83.3477 58.139 83.9933 59.2158 84.4313C60.2927 84.8692 61.4453 85.091 62.6079 85.0838C63.7705 85.0766 64.9203 84.8407 65.9917 84.3896C67.063 83.9384 68.0349 83.2808 68.852 82.4543C69.669 81.6278 70.3151 80.6486 70.7534 79.5725C71.1917 78.4965 71.4136 77.3448 71.4064 76.1831L62.5533 76.2376L53.7003 76.2921Z" fill="#77290F"/>
<path d="M66.7543 83.2654C66.7552 82.6788 66.6404 82.0977 66.4165 81.5554C66.1927 81.0131 65.8641 80.5202 65.4496 80.1048C65.0351 79.6894 64.5427 79.3596 64.0007 79.1343C63.4586 78.909 62.8774 78.7926 62.2904 78.7917C61.7033 78.7909 61.1218 78.9056 60.5791 79.1293C60.0363 79.353 59.543 79.6813 59.1273 80.0955C58.7115 80.5097 58.3815 81.0016 58.1561 81.5433C57.9306 82.0849 57.8141 82.6656 57.8132 83.2522L62.2838 83.2588L66.7543 83.2654Z" fill="#FD6A81"/>
<path d="M55.3082 51.9515C62.6148 54.5149 66.1553 62.2788 63.2778 69.2655C60.4003 76.2522 52.166 79.885 44.8594 77.3216C37.5532 74.7581 34.0133 66.9945 36.8908 60.008C39.7682 53.0214 48.0018 49.3884 55.3082 51.9515Z" fill="#D0EDF3" fill-opacity="0.5" stroke="#174552" stroke-width="2.54807"/>
<path d="M43.5156 76.9141L52.1398 78.6197L45.8249 104.283C45.4887 105.65 44.097 106.536 42.7164 106.263L39.0916 105.546C37.711 105.273 36.8645 103.944 37.2007 102.577L43.5156 76.9141Z" fill="#174552"/>
<ellipse cx="11.2947" cy="9.78744" rx="11.2947" ry="9.78744" transform="matrix(0.0286709 0.999589 -0.99959 0.0286266 59.5967 53.0977)" fill="#F27E07"/>
<g filter="url(#filter1_d_1959_3955)">
<ellipse cx="10.1058" cy="8.75718" rx="10.1058" ry="8.75718" transform="matrix(0.0286709 0.999589 -0.99959 0.0286266 58.9565 54.7031)" fill="white"/>
</g>
<ellipse cx="6.14273" cy="5.32299" rx="6.14273" ry="5.32299" transform="matrix(0.0286709 0.999589 -0.99959 0.0286266 55.3613 61.1465)" fill="#D27B08"/>
<ellipse cx="4.29083" cy="3.85527" rx="4.29083" ry="3.85527" transform="matrix(0.338662 0.940922 -0.904605 0.426212 52.4272 61.9531)" fill="#381004"/>
<ellipse cx="0.990763" cy="0.858547" rx="0.990763" ry="0.858547" transform="matrix(0.0286709 0.999589 -0.99959 0.0286266 51.0537 62.7285)" fill="white"/>
<ellipse cx="62.5535" cy="107.518" rx="1.78152" ry="1.78014" fill="#FAAE2B"/>
<ellipse cx="62.5535" cy="112.098" rx="1.78152" ry="1.78014" fill="#FAAE2B"/>
<defs>
<filter id="filter0_d_1959_3955" x="66.2219" y="53.8906" width="18.7833" height="21.2271" filterUnits="userSpaceOnUse" color-interpolation-filters="sRGB">
<feFlood flood-opacity="0" result="BackgroundImageFix"/>
<feColorMatrix in="SourceAlpha" type="matrix" values="0 0 0 0 0 0 0 0 0 0 0 0 0 0 0 0 0 0 127 0" result="hardAlpha"/>
<feOffset dy="1.44169"/>
<feGaussianBlur stdDeviation="0.720847"/>
<feComposite in2="hardAlpha" operator="out"/>
<feColorMatrix type="matrix" values="0 0 0 0 0 0 0 0 0 0 0 0 0 0 0 0 0 0 0.25 0"/>
<feBlend mode="normal" in2="BackgroundImageFix" result="effect1_dropShadow_1959_3955"/>
<feBlend mode="normal" in="SourceGraphic" in2="effect1_dropShadow_1959_3955" result="shape"/>
</filter>
<filter id="filter1_d_1959_3955" x="40.146" y="54.9512" width="20.6933" height="23.3857" filterUnits="userSpaceOnUse" color-interpolation-filters="sRGB">
<feFlood flood-opacity="0" result="BackgroundImageFix"/>
<feColorMatrix in="SourceAlpha" type="matrix" values="0 0 0 0 0 0 0 0 0 0 0 0 0 0 0 0 0 0 127 0" result="hardAlpha"/>
<feOffset dy="1.58835"/>
<feGaussianBlur stdDeviation="0.794174"/>
<feComposite in2="hardAlpha" operator="out"/>
<feColorMatrix type="matrix" values="0 0 0 0 0 0 0 0 0 0 0 0 0 0 0 0 0 0 0.25 0"/>
<feBlend mode="normal" in2="BackgroundImageFix" result="effect1_dropShadow_1959_3955"/>
<feBlend mode="normal" in="SourceGraphic" in2="effect1_dropShadow_1959_3955" result="shape"/>
</filter>
</defs>
</svg>
