<svg width="363" height="694" viewBox="0 0 363 694" fill="none" xmlns="http://www.w3.org/2000/svg">
<path d="M54.9975 362.126C54.3345 362.126 53.777 361.9 53.325 361.448C52.8729 360.996 52.6469 360.439 52.6469 359.776V329.172C52.6469 328.479 52.8729 327.922 53.325 327.5C53.777 327.048 54.3345 326.822 54.9975 326.822H64.0384C66.2987 326.822 68.3027 327.319 70.0506 328.313C71.7986 329.308 73.1547 330.694 74.1191 332.472C75.1136 334.22 75.6108 336.239 75.6108 338.53C75.6108 340.73 75.1136 342.689 74.1191 344.406C73.1547 346.124 71.7986 347.465 70.0506 348.43C68.3027 349.394 66.2987 349.876 64.0384 349.876H57.3482V359.776C57.3482 360.439 57.1222 360.996 56.6701 361.448C56.2482 361.9 55.6907 362.126 54.9975 362.126ZM57.3482 345.536H64.0384C65.4247 345.536 66.6452 345.235 67.7 344.632C68.7548 344.03 69.5835 343.201 70.1863 342.146C70.789 341.091 71.0904 339.886 71.0904 338.53C71.0904 337.083 70.789 335.817 70.1863 334.733C69.5835 333.617 68.7548 332.744 67.7 332.111C66.6452 331.478 65.4247 331.161 64.0384 331.161H57.3482V345.536ZM90.7564 362.352C88.677 362.352 86.8086 361.916 85.1511 361.042C83.5237 360.137 82.2278 358.827 81.2635 357.109C80.3293 355.391 79.8621 353.281 79.8621 350.78V339.66C79.8621 338.997 80.0731 338.454 80.495 338.032C80.9471 337.58 81.5046 337.354 82.1676 337.354C82.8306 337.354 83.373 337.58 83.7949 338.032C84.247 338.454 84.473 338.997 84.473 339.66V350.78C84.473 352.468 84.7894 353.869 85.4223 354.984C86.0552 356.069 86.914 356.883 87.999 357.425C89.0839 357.938 90.3044 358.194 91.6605 358.194C92.9564 358.194 94.1016 357.938 95.0961 357.425C96.1207 356.913 96.9344 356.22 97.5371 355.346C98.1398 354.472 98.4412 353.492 98.4412 352.407H101.289C101.289 354.276 100.822 355.964 99.8877 357.47C98.9836 358.977 97.733 360.168 96.1358 361.042C94.5687 361.916 92.7756 362.352 90.7564 362.352ZM100.747 362.126C100.084 362.126 99.5261 361.916 99.0741 361.494C98.6521 361.042 98.4412 360.484 98.4412 359.821V339.66C98.4412 338.967 98.6521 338.409 99.0741 337.987C99.5261 337.565 100.084 337.354 100.747 337.354C101.44 337.354 101.997 337.565 102.419 337.987C102.841 338.409 103.052 338.967 103.052 339.66V359.821C103.052 360.484 102.841 361.042 102.419 361.494C101.997 361.916 101.44 362.126 100.747 362.126ZM120.168 362.126C118.661 362.126 117.305 361.75 116.1 360.996C114.894 360.213 113.945 359.158 113.252 357.832C112.559 356.506 112.212 355.014 112.212 353.357V331.794C112.212 331.131 112.423 330.589 112.845 330.167C113.267 329.745 113.81 329.534 114.473 329.534C115.136 329.534 115.678 329.745 116.1 330.167C116.522 330.589 116.733 331.131 116.733 331.794V353.357C116.733 354.562 117.064 355.572 117.727 356.385C118.39 357.199 119.204 357.606 120.168 357.606H121.705C122.248 357.606 122.7 357.817 123.061 358.239C123.453 358.661 123.649 359.203 123.649 359.866C123.649 360.529 123.393 361.072 122.881 361.494C122.398 361.916 121.766 362.126 120.982 362.126H120.168ZM110.133 342.191C109.5 342.191 108.988 342.01 108.596 341.649C108.204 341.287 108.008 340.835 108.008 340.293C108.008 339.69 108.204 339.208 108.596 338.846C108.988 338.485 109.5 338.304 110.133 338.304H120.575C121.208 338.304 121.72 338.485 122.112 338.846C122.504 339.208 122.7 339.69 122.7 340.293C122.7 340.835 122.504 341.287 122.112 341.649C121.72 342.01 121.208 342.191 120.575 342.191H110.133ZM139.623 362.307C137.423 362.307 135.449 361.765 133.701 360.68C131.953 359.565 130.567 358.073 129.542 356.205C128.548 354.306 128.05 352.166 128.05 349.786C128.05 347.405 128.593 345.265 129.678 343.367C130.793 341.468 132.285 339.976 134.153 338.891C136.052 337.776 138.176 337.219 140.527 337.219C142.878 337.219 144.987 337.776 146.856 338.891C148.724 339.976 150.201 341.468 151.286 343.367C152.401 345.265 152.958 347.405 152.958 349.786H151.195C151.195 352.166 150.683 354.306 149.658 356.205C148.664 358.073 147.293 359.565 145.545 360.68C143.797 361.765 141.823 362.307 139.623 362.307ZM140.527 358.239C142.064 358.239 143.435 357.877 144.641 357.154C145.846 356.401 146.795 355.391 147.488 354.125C148.182 352.829 148.528 351.383 148.528 349.786C148.528 348.158 148.182 346.712 147.488 345.446C146.795 344.15 145.846 343.141 144.641 342.417C143.435 341.664 142.064 341.287 140.527 341.287C139.02 341.287 137.649 341.664 136.413 342.417C135.208 343.141 134.244 344.15 133.52 345.446C132.827 346.712 132.481 348.158 132.481 349.786C132.481 351.383 132.827 352.829 133.52 354.125C134.244 355.391 135.208 356.401 136.413 357.154C137.649 357.877 139.02 358.239 140.527 358.239ZM150.653 362.172C149.99 362.172 149.432 361.961 148.98 361.539C148.558 361.087 148.347 360.529 148.347 359.866V352.95L149.206 348.158L152.958 349.786V359.866C152.958 360.529 152.732 361.087 152.28 361.539C151.858 361.961 151.316 362.172 150.653 362.172ZM162.035 346.667C162.035 344.858 162.472 343.246 163.346 341.83C164.25 340.383 165.456 339.238 166.963 338.394C168.47 337.55 170.127 337.128 171.935 337.128C173.743 337.128 175.084 337.43 175.958 338.032C176.863 338.605 177.209 339.298 176.998 340.112C176.908 340.534 176.727 340.865 176.456 341.106C176.215 341.317 175.928 341.453 175.597 341.513C175.265 341.573 174.904 341.558 174.512 341.468C172.583 341.076 170.85 341.046 169.313 341.378C167.776 341.709 166.556 342.327 165.652 343.231C164.778 344.135 164.341 345.28 164.341 346.667H162.035ZM162.081 362.126C161.357 362.126 160.8 361.946 160.408 361.584C160.016 361.192 159.82 360.62 159.82 359.866V339.66C159.82 338.937 160.016 338.379 160.408 337.987C160.8 337.595 161.357 337.4 162.081 337.4C162.834 337.4 163.392 337.595 163.753 337.987C164.145 338.349 164.341 338.906 164.341 339.66V359.866C164.341 360.59 164.145 361.147 163.753 361.539C163.392 361.931 162.834 362.126 162.081 362.126Z" fill="#00D4CD"/>
<path d="M184.607 362.126C183.944 362.126 183.387 361.9 182.935 361.448C182.483 360.996 182.257 360.439 182.257 359.776V329.172C182.257 328.479 182.483 327.922 182.935 327.5C183.387 327.048 183.944 326.822 184.607 326.822H193.648C195.908 326.822 197.913 327.319 199.66 328.313C201.408 329.308 202.764 330.694 203.729 332.472C204.723 334.22 205.221 336.239 205.221 338.53C205.221 340.73 204.723 342.689 203.729 344.406C202.764 346.124 201.408 347.465 199.66 348.43C197.913 349.394 195.908 349.876 193.648 349.876H186.958V359.776C186.958 360.439 186.732 360.996 186.28 361.448C185.858 361.9 185.3 362.126 184.607 362.126ZM186.958 345.536H193.648C195.034 345.536 196.255 345.235 197.31 344.632C198.365 344.03 199.193 343.201 199.796 342.146C200.399 341.091 200.7 339.886 200.7 338.53C200.7 337.083 200.399 335.817 199.796 334.733C199.193 333.617 198.365 332.744 197.31 332.111C196.255 331.478 195.034 331.161 193.648 331.161H186.958V345.536ZM212.727 362.126C212.064 362.126 211.506 361.916 211.054 361.494C210.632 361.042 210.421 360.484 210.421 359.821V339.705C210.421 339.012 210.632 338.454 211.054 338.032C211.506 337.611 212.064 337.4 212.727 337.4C213.42 337.4 213.977 337.611 214.399 338.032C214.821 338.454 215.032 339.012 215.032 339.705V359.821C215.032 360.484 214.821 361.042 214.399 361.494C213.977 361.916 213.42 362.126 212.727 362.126ZM212.727 333.376C211.913 333.376 211.205 333.09 210.602 332.518C210.029 331.915 209.743 331.207 209.743 330.393C209.743 329.579 210.029 328.886 210.602 328.313C211.205 327.711 211.913 327.409 212.727 327.409C213.54 327.409 214.233 327.711 214.806 328.313C215.409 328.886 215.71 329.579 215.71 330.393C215.71 331.207 215.409 331.915 214.806 332.518C214.233 333.09 213.54 333.376 212.727 333.376ZM244.494 362.172C243.831 362.172 243.274 361.961 242.822 361.539C242.4 361.087 242.189 360.529 242.189 359.866V348.746C242.189 347.028 241.873 345.627 241.24 344.542C240.607 343.457 239.748 342.658 238.663 342.146C237.608 341.604 236.388 341.332 235.002 341.332C233.736 341.332 232.591 341.589 231.566 342.101C230.541 342.613 229.728 343.306 229.125 344.18C228.522 345.024 228.221 346.004 228.221 347.119H225.373C225.373 345.22 225.825 343.532 226.729 342.056C227.663 340.549 228.929 339.358 230.526 338.485C232.123 337.611 233.917 337.174 235.906 337.174C237.985 337.174 239.838 337.626 241.466 338.53C243.123 339.404 244.419 340.7 245.353 342.417C246.318 344.135 246.8 346.245 246.8 348.746V359.866C246.8 360.529 246.574 361.087 246.122 361.539C245.7 361.961 245.157 362.172 244.494 362.172ZM225.915 362.172C225.252 362.172 224.695 361.961 224.243 361.539C223.821 361.087 223.61 360.529 223.61 359.866V339.705C223.61 339.012 223.821 338.454 224.243 338.032C224.695 337.611 225.252 337.4 225.915 337.4C226.609 337.4 227.166 337.611 227.588 338.032C228.01 338.454 228.221 339.012 228.221 339.705V359.866C228.221 360.529 228.01 361.087 227.588 361.539C227.166 361.961 226.609 362.172 225.915 362.172ZM263.419 362.126C261.912 362.126 260.556 361.75 259.35 360.996C258.145 360.213 257.196 359.158 256.503 357.832C255.809 356.506 255.463 355.014 255.463 353.357V331.794C255.463 331.131 255.674 330.589 256.096 330.167C256.518 329.745 257.06 329.534 257.723 329.534C258.386 329.534 258.929 329.745 259.35 330.167C259.772 330.589 259.983 331.131 259.983 331.794V353.357C259.983 354.562 260.315 355.572 260.978 356.385C261.641 357.199 262.455 357.606 263.419 357.606H264.956C265.498 357.606 265.95 357.817 266.312 358.239C266.704 358.661 266.9 359.203 266.9 359.866C266.9 360.529 266.643 361.072 266.131 361.494C265.649 361.916 265.016 362.126 264.233 362.126H263.419ZM253.383 342.191C252.751 342.191 252.238 342.01 251.847 341.649C251.455 341.287 251.259 340.835 251.259 340.293C251.259 339.69 251.455 339.208 251.847 338.846C252.238 338.485 252.751 338.304 253.383 338.304H263.826C264.459 338.304 264.971 338.485 265.363 338.846C265.754 339.208 265.95 339.69 265.95 340.293C265.95 340.835 265.754 341.287 265.363 341.649C264.971 342.01 264.459 342.191 263.826 342.191H253.383ZM282.873 362.307C280.673 362.307 278.7 361.765 276.952 360.68C275.204 359.565 273.817 358.073 272.793 356.205C271.798 354.306 271.301 352.166 271.301 349.786C271.301 347.405 271.844 345.265 272.928 343.367C274.043 341.468 275.535 339.976 277.404 338.891C279.302 337.776 281.427 337.219 283.778 337.219C286.128 337.219 288.238 337.776 290.106 338.891C291.975 339.976 293.451 341.468 294.536 343.367C295.651 345.265 296.209 347.405 296.209 349.786H294.446C294.446 352.166 293.933 354.306 292.909 356.205C291.914 358.073 290.543 359.565 288.795 360.68C287.047 361.765 285.073 362.307 282.873 362.307ZM283.778 358.239C285.314 358.239 286.686 357.877 287.891 357.154C289.097 356.401 290.046 355.391 290.739 354.125C291.432 352.829 291.779 351.383 291.779 349.786C291.779 348.158 291.432 346.712 290.739 345.446C290.046 344.15 289.097 343.141 287.891 342.417C286.686 341.664 285.314 341.287 283.778 341.287C282.271 341.287 280.899 341.664 279.664 342.417C278.458 343.141 277.494 344.15 276.771 345.446C276.078 346.712 275.731 348.158 275.731 349.786C275.731 351.383 276.078 352.829 276.771 354.125C277.494 355.391 278.458 356.401 279.664 357.154C280.899 357.877 282.271 358.239 283.778 358.239ZM293.903 362.172C293.24 362.172 292.683 361.961 292.231 361.539C291.809 361.087 291.598 360.529 291.598 359.866V352.95L292.457 348.158L296.209 349.786V359.866C296.209 360.529 295.983 361.087 295.531 361.539C295.109 361.961 294.566 362.172 293.903 362.172ZM305.286 346.667C305.286 344.858 305.723 343.246 306.597 341.83C307.501 340.383 308.707 339.238 310.213 338.394C311.72 337.55 313.378 337.128 315.186 337.128C316.994 337.128 318.335 337.43 319.209 338.032C320.113 338.605 320.46 339.298 320.249 340.112C320.158 340.534 319.977 340.865 319.706 341.106C319.465 341.317 319.179 341.453 318.847 341.513C318.516 341.573 318.154 341.558 317.762 341.468C315.834 341.076 314.101 341.046 312.564 341.378C311.027 341.709 309.806 342.327 308.902 343.231C308.028 344.135 307.591 345.28 307.591 346.667H305.286ZM305.331 362.126C304.608 362.126 304.05 361.946 303.659 361.584C303.267 361.192 303.071 360.62 303.071 359.866V339.66C303.071 338.937 303.267 338.379 303.659 337.987C304.05 337.595 304.608 337.4 305.331 337.4C306.085 337.4 306.642 337.595 307.004 337.987C307.396 338.349 307.591 338.906 307.591 339.66V359.866C307.591 360.59 307.396 361.147 307.004 361.539C306.642 361.931 306.085 362.126 305.331 362.126Z" fill="#FAAE2B"/>
<path opacity="0.84184" d="M265.05 37.7867L245.136 71.1426L270.958 86.5586L290.872 53.2027C294.672 46.8377 302.96 44.7809 309.329 48.5836C315.698 52.3856 317.82 60.6575 314.02 67.0225L294.107 100.378L319.929 115.794L339.843 82.4385C352.085 61.933 345.29 35.228 324.657 22.9096C304.023 10.5911 277.292 17.2812 265.05 37.7867Z" fill="#E9365B"/>
<path d="M32.2499 608.198L11 608.264L11.2635 693.264L96.2631 693L96.1972 671.75L74.9473 671.816L74.8815 650.566L53.6316 650.632L53.5657 629.382L32.3158 629.448L32.2499 608.198Z" fill="#FAAE2B"/>
<path d="M20.0178 202.74C17.6447 190.748 34.0462 184.859 39.8438 195.621C42.061 199.736 46.7028 201.925 51.2889 201.018C63.2807 198.645 69.1703 215.046 58.4083 220.844C54.2925 223.061 52.1036 227.703 53.0111 232.289C55.3843 244.281 38.9828 250.17 33.1851 239.408C30.9679 235.293 26.3261 233.104 21.7401 234.011C9.7483 236.384 3.85863 219.983 14.6207 214.185C18.7365 211.968 20.9254 207.326 20.0178 202.74Z" fill="#00D4CD"/>
<rect x="194" y="501" width="76" height="29.0035" rx="14.5017" transform="rotate(-40 194 501)" fill="#00D4CD"/>
</svg>
