<svg width="321" height="258" viewBox="0 0 321 258" fill="none" xmlns="http://www.w3.org/2000/svg">
<path d="M125.992 252V235.2H129.208L136.36 247.056H134.656L141.688 235.2H144.88L144.928 252H141.28L141.256 240.792H141.928L136.312 250.224H134.56L128.824 240.792H129.64V252H125.992ZM156.57 252V249.48L156.33 248.928V244.416C156.33 243.616 156.082 242.992 155.586 242.544C155.106 242.096 154.362 241.872 153.354 241.872C152.666 241.872 151.986 241.984 151.314 242.208C150.658 242.416 150.098 242.704 149.634 243.072L148.29 240.456C148.994 239.96 149.842 239.576 150.834 239.304C151.826 239.032 152.834 238.896 153.858 238.896C155.826 238.896 157.354 239.36 158.442 240.288C159.53 241.216 160.074 242.664 160.074 244.632V252H156.57ZM152.634 252.192C151.626 252.192 150.762 252.024 150.042 251.688C149.322 251.336 148.77 250.864 148.386 250.272C148.002 249.68 147.81 249.016 147.81 248.28C147.81 247.512 147.994 246.84 148.362 246.264C148.746 245.688 149.346 245.24 150.162 244.92C150.978 244.584 152.042 244.416 153.354 244.416H156.786V246.6H153.762C152.882 246.6 152.274 246.744 151.938 247.032C151.618 247.32 151.458 247.68 151.458 248.112C151.458 248.592 151.642 248.976 152.01 249.264C152.394 249.536 152.914 249.672 153.57 249.672C154.194 249.672 154.754 249.528 155.25 249.24C155.746 248.936 156.106 248.496 156.33 247.92L156.906 249.648C156.634 250.48 156.138 251.112 155.418 251.544C154.698 251.976 153.77 252.192 152.634 252.192ZM167.806 252.192C166.702 252.192 165.638 252.064 164.614 251.808C163.606 251.536 162.806 251.2 162.214 250.8L163.462 248.112C164.054 248.48 164.75 248.784 165.55 249.024C166.366 249.248 167.166 249.36 167.95 249.36C168.814 249.36 169.422 249.256 169.774 249.048C170.142 248.84 170.326 248.552 170.326 248.184C170.326 247.88 170.182 247.656 169.894 247.512C169.622 247.352 169.254 247.232 168.79 247.152C168.326 247.072 167.814 246.992 167.254 246.912C166.71 246.832 166.158 246.728 165.598 246.6C165.038 246.456 164.526 246.248 164.062 245.976C163.598 245.704 163.222 245.336 162.934 244.872C162.662 244.408 162.526 243.808 162.526 243.072C162.526 242.256 162.758 241.536 163.222 240.912C163.702 240.288 164.39 239.8 165.286 239.448C166.182 239.08 167.254 238.896 168.502 238.896C169.382 238.896 170.278 238.992 171.19 239.184C172.102 239.376 172.862 239.656 173.47 240.024L172.222 242.688C171.598 242.32 170.966 242.072 170.326 241.944C169.702 241.8 169.094 241.728 168.502 241.728C167.67 241.728 167.062 241.84 166.678 242.064C166.294 242.288 166.102 242.576 166.102 242.928C166.102 243.248 166.238 243.488 166.51 243.648C166.798 243.808 167.174 243.936 167.638 244.032C168.102 244.128 168.606 244.216 169.15 244.296C169.71 244.36 170.27 244.464 170.83 244.608C171.39 244.752 171.894 244.96 172.342 245.232C172.806 245.488 173.182 245.848 173.47 246.312C173.758 246.76 173.902 247.352 173.902 248.088C173.902 248.888 173.662 249.6 173.182 250.224C172.702 250.832 172.006 251.312 171.094 251.664C170.198 252.016 169.102 252.192 167.806 252.192ZM181.66 252.192C180.588 252.192 179.628 251.984 178.78 251.568C177.948 251.152 177.3 250.52 176.836 249.672C176.372 248.808 176.14 247.712 176.14 246.384V239.088H179.884V245.832C179.884 246.904 180.108 247.696 180.556 248.208C181.02 248.704 181.668 248.952 182.5 248.952C183.076 248.952 183.588 248.832 184.036 248.592C184.484 248.336 184.836 247.952 185.092 247.44C185.348 246.912 185.476 246.256 185.476 245.472V239.088H189.22V252H185.668V248.448L186.316 249.48C185.884 250.376 185.244 251.056 184.396 251.52C183.564 251.968 182.652 252.192 181.66 252.192ZM195.785 249.36L195.881 244.8L201.905 239.088H206.369L200.585 244.968L198.641 246.552L195.785 249.36ZM192.689 252V234.192H196.433V252H192.689ZM202.313 252L197.945 246.576L200.297 243.672L206.849 252H202.313Z" fill="black"/>
<path opacity="0.71333" d="M246.662 64.7632C246.81 64.1553 247.705 64.2637 247.703 64.8893L247.69 70.1373C247.674 76.914 252.303 82.8192 258.887 84.4212L263.987 85.6618C264.595 85.8098 264.486 86.7047 263.861 86.7032L258.612 86.6903C251.836 86.6737 245.931 91.3027 244.329 97.8872L243.088 102.987C242.94 103.594 242.045 103.486 242.047 102.86L242.06 97.6123C242.076 90.8358 237.447 84.9305 230.863 83.3285L225.763 82.0879C225.155 81.9399 225.264 81.045 225.889 81.0465L231.137 81.0594C237.914 81.0761 243.819 76.447 245.421 69.8624L246.662 64.7632Z" fill="#F2994A"/>
<path opacity="0.436899" fill-rule="evenodd" clip-rule="evenodd" d="M100.352 178.029C87.3384 172.982 72.691 179.387 67.6018 192.369C72.7023 179.358 66.2702 164.668 53.2354 159.558C66.2486 164.606 80.8961 158.2 85.9853 145.218C80.8846 158.229 87.3169 172.919 100.352 178.029Z" fill="#4F4F4F"/>
<path opacity="0.617831" d="M172 31.6382C172.89 27.4834 174.59 23.5446 177.002 20.0467C179.414 16.5488 182.492 13.5602 186.059 11.2517C189.626 8.94317 193.613 7.35986 197.792 6.59216C201.971 5.82447 206.261 5.88743 210.416 6.77744C214.57 7.66746 218.509 9.3671 222.007 11.7793C225.505 14.1916 228.494 17.2691 230.802 20.8363C233.111 24.4035 234.694 28.3905 235.462 32.5696C236.229 36.7487 236.166 41.0381 235.276 45.1929L224.884 42.9666C225.481 40.1766 225.524 37.2962 225.008 34.4899C224.493 31.6836 223.429 29.0062 221.879 26.6108C220.329 24.2154 218.322 22.1487 215.973 20.5289C213.624 18.909 210.979 17.7677 208.189 17.17C205.399 16.5724 202.519 16.5301 199.713 17.0456C196.906 17.5611 194.229 18.6244 191.834 20.1746C189.438 21.7248 187.372 23.7316 185.752 26.0806C184.132 28.4295 182.99 31.0744 182.393 33.8644L172 31.6382Z" fill="#9B51E0"/>
<path opacity="0.98067" d="M20.6112 49.7415C13.1356 39.0446 26.6291 26.2366 36.9221 34.2593C40.8585 37.3274 46.3354 37.4702 50.4262 34.6113C61.1232 27.1357 73.9312 40.6292 65.9085 50.9222C62.8403 54.8586 62.6976 60.3355 65.5565 64.4263C73.0321 75.1233 59.5385 87.9313 49.2455 79.9086C45.3092 76.8404 39.8323 76.6977 35.7414 79.5566C25.0445 87.0322 12.2364 73.5387 20.2592 63.2456C23.3273 59.3093 23.4701 53.8324 20.6112 49.7415Z" fill="#EB5757"/>
<path opacity="0.965814" fill-rule="evenodd" clip-rule="evenodd" d="M264.193 138.597C255.368 130.076 241.617 141.099 248.014 151.567C251.152 156.702 249.317 163.42 244.004 166.245C233.172 172.005 239.407 188.489 251.339 185.64C257.192 184.242 263.014 188.064 264.06 193.99C266.191 206.071 283.794 205.236 284.772 193.007C285.251 187.008 290.685 182.652 296.644 183.489C308.792 185.196 313.437 168.196 302.11 163.487C296.552 161.178 294.089 154.664 296.726 149.255C302.103 138.228 287.371 128.557 279.392 137.876C275.478 142.447 268.522 142.777 264.193 138.597ZM278.544 173.075C282.277 170.082 282.877 164.63 279.884 160.897C276.892 157.164 271.44 156.564 267.707 159.557C263.974 162.549 263.373 168.001 266.366 171.734C269.358 175.467 274.811 176.068 278.544 173.075Z" fill="#2F80ED"/>
<path d="M174.955 59.5801C203.097 59.5801 225.91 82.3935 225.91 110.535C225.91 122.774 221.594 134.003 214.403 142.788C214.395 142.797 214.401 142.81 214.413 142.811C214.424 142.811 214.431 142.823 214.424 142.832C212.386 145.773 207.809 152.73 205.693 157.194C203.043 162.787 204.23 175.128 202.513 178.234C201.188 180.631 198.272 180.133 195.622 180.099C182.018 179.921 153.749 179.459 149.508 179.033C145.315 178.612 146.045 162.616 143.755 154.277C143.703 154.088 143.629 153.912 143.536 153.74L140.762 148.671L140.098 147.762C140.002 147.631 139.894 147.508 139.777 147.396C137.622 145.339 135.649 143.095 133.881 140.691C133.881 140.691 133.881 140.69 133.881 140.69L133.872 140.681C133.872 140.681 133.872 140.681 133.872 140.681C133.873 140.681 133.873 140.68 133.873 140.68C127.668 132.238 124 121.815 124 110.535C124 82.3935 146.813 59.5801 174.955 59.5801Z" fill="#FAAE2B"/>
<ellipse cx="193.224" cy="108.786" rx="17.1867" ry="14.8816" transform="rotate(88.3583 193.224 108.786)" fill="#F27E07"/>
<g filter="url(#filter0_d_1582_1097)">
<ellipse cx="193.765" cy="109.374" rx="15.3775" ry="13.3151" transform="rotate(88.3583 193.765 109.374)" fill="white"/>
</g>
<ellipse cx="193.344" cy="113.003" rx="9.34713" ry="8.09351" transform="rotate(88.3583 193.344 113.003)" fill="#D27B08"/>
<ellipse cx="6.52868" cy="5.86259" rx="6.52868" ry="5.86259" transform="matrix(0.338425 0.940993 -0.904493 0.426489 196.706 104.656)" fill="#381004"/>
<ellipse cx="193.356" cy="107.379" rx="1.5076" ry="1.3054" transform="rotate(88.3583 193.356 107.379)" fill="white"/>
<ellipse cx="160.698" cy="108.786" rx="17.1867" ry="14.8816" transform="rotate(88.3583 160.698 108.786)" fill="#F27E07"/>
<g filter="url(#filter1_d_1582_1097)">
<ellipse cx="161.239" cy="109.374" rx="15.3775" ry="13.3151" transform="rotate(88.3583 161.239 109.374)" fill="white"/>
</g>
<ellipse cx="160.818" cy="113.003" rx="9.34713" ry="8.09351" transform="rotate(88.3583 160.818 113.003)" fill="#D27B08"/>
<ellipse cx="6.52868" cy="5.86259" rx="6.52868" ry="5.86259" transform="matrix(0.338425 0.940993 -0.904493 0.426489 164.181 104.656)" fill="#381004"/>
<ellipse cx="160.831" cy="107.379" rx="1.5076" ry="1.3054" transform="rotate(88.3583 160.831 107.379)" fill="white"/>
<path d="M196.698 67.4289C195.436 68.8819 194.988 70.9375 195.452 73.1433C195.916 75.3491 197.254 77.5245 199.173 79.1909C201.091 80.8573 203.433 81.8782 205.682 82.0291C207.931 82.18 209.903 81.4484 211.166 79.9953L203.932 73.7121L196.698 67.4289Z" fill="white"/>
<path d="M221.388 99.0581C222.753 97.7004 222.177 94.5051 219.787 90.1751C217.398 85.8451 213.391 80.7352 208.648 75.9694C203.905 71.2036 198.814 67.1724 194.496 64.7625C190.177 62.3526 186.985 61.7615 185.62 63.1192L197.075 69.455L207.171 78.5953L215.64 88.415L221.388 99.0581Z" fill="white"/>
<path d="M196.68 203.948C196.68 210.604 187.307 216 175.745 216C164.183 216 154.81 210.604 154.81 203.948C154.81 197.292 164.183 203.949 175.745 203.949C187.307 203.949 196.68 197.292 196.68 203.948Z" fill="black"/>
<path d="M199.05 198.092C199.05 202.237 188.793 205.597 176.14 205.597C163.487 205.597 153.23 202.237 153.23 198.092C153.23 193.948 163.487 195.46 176.14 195.46C188.793 195.46 199.05 193.948 199.05 198.092Z" fill="#CEDAEA"/>
<rect x="141.775" y="160.305" width="64.78" height="35.55" rx="2.765" fill="#B5B2C3" stroke="black" stroke-width="2.37"/>
<path d="M139.831 168.205C141.159 168.205 142.165 168.474 142.937 168.904C143.705 169.332 144.307 169.957 144.776 170.773C145.74 172.45 146.12 174.89 146.12 177.817C146.12 180.743 145.74 183.184 144.776 184.861C144.307 185.677 143.705 186.302 142.937 186.73C142.165 187.16 141.159 187.428 139.831 187.428C137.215 187.428 135.394 186.39 134.189 184.75C132.95 183.062 132.294 180.637 132.294 177.817C132.294 174.997 132.95 172.571 134.189 170.883C135.394 169.243 137.215 168.205 139.831 168.205Z" fill="white" stroke="black" stroke-width="2.37"/>
<path d="M208.112 187.473C206.783 187.465 205.779 187.19 205.009 186.755C204.244 186.322 203.646 185.694 203.181 184.875C202.227 183.193 201.862 180.75 201.879 177.824C201.896 174.897 202.29 172.459 203.264 170.788C203.738 169.974 204.343 169.353 205.114 168.929C205.889 168.504 206.896 168.242 208.225 168.249C210.841 168.265 212.656 169.314 213.85 170.961C215.08 172.656 215.721 175.085 215.704 177.905C215.688 180.725 215.018 183.147 213.769 184.827C212.555 186.46 210.728 187.488 208.112 187.473Z" fill="white" stroke="black" stroke-width="2.37"/>
<path d="M169.03 84.1198V88.4019L149.28 89.2048C149.28 89.2048 153.756 85.1594 157.97 84.1198C162.028 83.1185 169.03 84.1198 169.03 84.1198Z" fill="black"/>
<path d="M180.576 84.7837L181.502 88.9645L201.162 85.4329C201.162 85.4329 195.87 82.4613 191.488 82.367C187.267 82.2762 180.576 84.7837 180.576 84.7837Z" fill="black"/>
<path d="M156.513 132.113C156.53 134.758 157.067 137.375 158.094 139.812C159.122 142.25 160.619 144.462 162.501 146.321C164.384 148.18 166.613 149.65 169.064 150.647C171.514 151.645 174.137 152.15 176.782 152.133C179.428 152.117 182.044 151.58 184.482 150.552C186.92 149.525 189.131 148.028 190.99 146.145C192.849 144.263 194.319 142.033 195.317 139.583C196.314 137.133 196.819 134.51 196.803 131.865L176.658 131.989L156.513 132.113Z" fill="#77290F"/>
<path d="M186.215 147.993C186.217 146.657 185.956 145.333 185.447 144.099C184.937 142.864 184.19 141.741 183.246 140.795C182.303 139.849 181.183 139.098 179.949 138.585C178.716 138.072 177.394 137.807 176.058 137.805C174.722 137.803 173.399 138.064 172.164 138.574C170.929 139.083 169.806 139.831 168.86 140.774C167.914 141.717 167.163 142.837 166.65 144.071C166.137 145.304 165.872 146.627 165.87 147.962L176.043 147.978L186.215 147.993Z" fill="#FD6A81"/>
<rect x="170.61" y="163.375" width="3.95" height="35.2939" transform="rotate(-28.511 170.61 163.375)" fill="#D9D9D9"/>
<rect x="178.51" y="163.375" width="3.95" height="35.2939" transform="rotate(-28.511 178.51 163.375)" fill="#D9D9D9"/>
<rect x="162.71" y="163.375" width="3.95" height="35.2939" transform="rotate(-28.511 162.71 163.375)" fill="#D9D9D9"/>
<rect x="154.81" y="163.375" width="3.95" height="35.2939" transform="rotate(-28.511 154.81 163.375)" fill="#D9D9D9"/>
<defs>
<filter id="filter0_d_1582_1097" x="178.036" y="93.998" width="31.4581" height="35.5768" filterUnits="userSpaceOnUse" color-interpolation-filters="sRGB">
<feFlood flood-opacity="0" result="BackgroundImageFix"/>
<feColorMatrix in="SourceAlpha" type="matrix" values="0 0 0 0 0 0 0 0 0 0 0 0 0 0 0 0 0 0 127 0" result="hardAlpha"/>
<feOffset dy="2.41216"/>
<feGaussianBlur stdDeviation="1.20608"/>
<feComposite in2="hardAlpha" operator="out"/>
<feColorMatrix type="matrix" values="0 0 0 0 0 0 0 0 0 0 0 0 0 0 0 0 0 0 0.25 0"/>
<feBlend mode="normal" in2="BackgroundImageFix" result="effect1_dropShadow_1582_1097"/>
<feBlend mode="normal" in="SourceGraphic" in2="effect1_dropShadow_1582_1097" result="shape"/>
</filter>
<filter id="filter1_d_1582_1097" x="145.51" y="93.998" width="31.4581" height="35.5768" filterUnits="userSpaceOnUse" color-interpolation-filters="sRGB">
<feFlood flood-opacity="0" result="BackgroundImageFix"/>
<feColorMatrix in="SourceAlpha" type="matrix" values="0 0 0 0 0 0 0 0 0 0 0 0 0 0 0 0 0 0 127 0" result="hardAlpha"/>
<feOffset dy="2.41216"/>
<feGaussianBlur stdDeviation="1.20608"/>
<feComposite in2="hardAlpha" operator="out"/>
<feColorMatrix type="matrix" values="0 0 0 0 0 0 0 0 0 0 0 0 0 0 0 0 0 0 0.25 0"/>
<feBlend mode="normal" in2="BackgroundImageFix" result="effect1_dropShadow_1582_1097"/>
<feBlend mode="normal" in="SourceGraphic" in2="effect1_dropShadow_1582_1097" result="shape"/>
</filter>
</defs>
</svg>
