<svg width="261" height="231" viewBox="0 0 261 231" fill="none" xmlns="http://www.w3.org/2000/svg">
<path d="M97.9905 226V209.2H105.623C107.447 209.2 109.055 209.552 110.447 210.256C111.839 210.944 112.927 211.912 113.711 213.16C114.495 214.408 114.887 215.888 114.887 217.6C114.887 219.296 114.495 220.776 113.711 222.04C112.927 223.288 111.839 224.264 110.447 224.968C109.055 225.656 107.447 226 105.623 226H97.9905ZM101.879 222.808H105.431C106.551 222.808 107.519 222.6 108.335 222.184C109.167 221.752 109.807 221.144 110.255 220.36C110.719 219.576 110.951 218.656 110.951 217.6C110.951 216.528 110.719 215.608 110.255 214.84C109.807 214.056 109.167 213.456 108.335 213.04C107.519 212.608 106.551 212.392 105.431 212.392H101.879V222.808ZM125.475 226V223.48L125.235 222.928V218.416C125.235 217.616 124.987 216.992 124.491 216.544C124.011 216.096 123.267 215.872 122.259 215.872C121.571 215.872 120.891 215.984 120.219 216.208C119.563 216.416 119.003 216.704 118.539 217.072L117.195 214.456C117.899 213.96 118.747 213.576 119.739 213.304C120.731 213.032 121.739 212.896 122.763 212.896C124.731 212.896 126.259 213.36 127.347 214.288C128.435 215.216 128.979 216.664 128.979 218.632V226H125.475ZM121.539 226.192C120.531 226.192 119.667 226.024 118.947 225.688C118.227 225.336 117.675 224.864 117.291 224.272C116.907 223.68 116.715 223.016 116.715 222.28C116.715 221.512 116.899 220.84 117.267 220.264C117.651 219.688 118.251 219.24 119.067 218.92C119.883 218.584 120.947 218.416 122.259 218.416H125.691V220.6H122.667C121.787 220.6 121.179 220.744 120.843 221.032C120.523 221.32 120.363 221.68 120.363 222.112C120.363 222.592 120.547 222.976 120.915 223.264C121.299 223.536 121.819 223.672 122.475 223.672C123.099 223.672 123.659 223.528 124.155 223.24C124.651 222.936 125.011 222.496 125.235 221.92L125.811 223.648C125.539 224.48 125.043 225.112 124.323 225.544C123.603 225.976 122.675 226.192 121.539 226.192ZM132.823 226V212.8C132.823 211.344 133.255 210.184 134.119 209.32C134.983 208.44 136.215 208 137.815 208C138.359 208 138.879 208.056 139.375 208.168C139.887 208.28 140.319 208.456 140.671 208.696L139.687 211.408C139.479 211.264 139.247 211.152 138.991 211.072C138.735 210.992 138.463 210.952 138.175 210.952C137.631 210.952 137.207 211.112 136.903 211.432C136.615 211.736 136.471 212.2 136.471 212.824V214.024L136.567 215.632V226H132.823ZM130.831 216.256V213.376H139.783V216.256H130.831ZM146.928 226.192C145.408 226.192 144.224 225.808 143.376 225.04C142.528 224.256 142.104 223.096 142.104 221.56V210.232H145.848V221.512C145.848 222.056 145.992 222.48 146.28 222.784C146.568 223.072 146.96 223.216 147.456 223.216C148.048 223.216 148.552 223.056 148.968 222.736L149.976 225.376C149.592 225.648 149.128 225.856 148.584 226C148.056 226.128 147.504 226.192 146.928 226.192ZM140.112 216.256V213.376H149.064V216.256H140.112ZM159.998 226V223.48L159.758 222.928V218.416C159.758 217.616 159.51 216.992 159.014 216.544C158.534 216.096 157.79 215.872 156.782 215.872C156.094 215.872 155.414 215.984 154.742 216.208C154.086 216.416 153.526 216.704 153.062 217.072L151.718 214.456C152.422 213.96 153.27 213.576 154.262 213.304C155.254 213.032 156.262 212.896 157.286 212.896C159.254 212.896 160.782 213.36 161.87 214.288C162.958 215.216 163.502 216.664 163.502 218.632V226H159.998ZM156.062 226.192C155.054 226.192 154.19 226.024 153.47 225.688C152.75 225.336 152.198 224.864 151.814 224.272C151.43 223.68 151.238 223.016 151.238 222.28C151.238 221.512 151.422 220.84 151.79 220.264C152.174 219.688 152.774 219.24 153.59 218.92C154.406 218.584 155.47 218.416 156.782 218.416H160.214V220.6H157.19C156.31 220.6 155.702 220.744 155.366 221.032C155.046 221.32 154.886 221.68 154.886 222.112C154.886 222.592 155.07 222.976 155.438 223.264C155.822 223.536 156.342 223.672 156.998 223.672C157.622 223.672 158.182 223.528 158.678 223.24C159.174 222.936 159.534 222.496 159.758 221.92L160.334 223.648C160.062 224.48 159.566 225.112 158.846 225.544C158.126 225.976 157.198 226.192 156.062 226.192ZM166.891 226V213.088H170.467V216.736L169.963 215.68C170.347 214.768 170.963 214.08 171.811 213.616C172.659 213.136 173.691 212.896 174.907 212.896V216.352C174.747 216.336 174.603 216.328 174.475 216.328C174.347 216.312 174.211 216.304 174.067 216.304C173.043 216.304 172.211 216.6 171.571 217.192C170.947 217.768 170.635 218.672 170.635 219.904V226H166.891Z" fill="black"/>
<path d="M138.393 32.5317C165.673 32.5317 187.788 54.6464 187.788 81.9263C187.788 93.7899 183.603 104.675 176.632 113.191C176.625 113.2 176.631 113.213 176.642 113.213C176.653 113.214 176.66 113.225 176.654 113.234C174.677 116.086 170.239 122.828 168.189 127.156C165.62 132.578 166.771 144.541 165.106 147.552C163.821 149.876 160.995 149.393 158.426 149.36C145.238 149.188 117.835 148.74 113.724 148.327C109.66 147.917 110.368 132.413 108.149 124.328C108.099 124.146 108.027 123.974 107.936 123.808L105.247 118.894L104.601 118.01C104.508 117.882 104.404 117.763 104.289 117.654C102.203 115.662 100.291 113.489 98.5779 111.16C98.5777 111.16 98.5775 111.16 98.5773 111.159L98.568 111.15C98.5676 111.15 98.5679 111.149 98.5685 111.149C98.5691 111.149 98.5694 111.148 98.569 111.148C92.5541 102.964 88.9986 92.8611 88.9985 81.9263C88.9985 54.6464 111.113 32.5318 138.393 32.5317Z" fill="#FAAE2B"/>
<ellipse cx="156.103" cy="80.2309" rx="16.6603" ry="14.4259" transform="rotate(88.3583 156.103 80.2309)" fill="#F27E07"/>
<g filter="url(#filter0_d_1582_1099)">
<ellipse cx="156.627" cy="80.8006" rx="14.9066" ry="12.9074" transform="rotate(88.3583 156.627 80.8006)" fill="white"/>
</g>
<ellipse cx="156.22" cy="84.3181" rx="9.06089" ry="7.84566" transform="rotate(88.3583 156.22 84.3181)" fill="#D27B08"/>
<ellipse cx="6.32875" cy="5.68305" rx="6.32875" ry="5.68305" transform="matrix(0.338425 0.940993 -0.904493 0.426489 159.479 76.2266)" fill="#381004"/>
<ellipse cx="156.231" cy="78.8667" rx="1.46143" ry="1.26543" transform="rotate(88.3583 156.231 78.8667)" fill="white"/>
<ellipse cx="124.571" cy="80.2304" rx="16.6603" ry="14.4259" transform="rotate(88.3583 124.571 80.2304)" fill="#F27E07"/>
<g filter="url(#filter1_d_1582_1099)">
<ellipse cx="125.095" cy="80.801" rx="14.9066" ry="12.9074" transform="rotate(88.3583 125.095 80.801)" fill="white"/>
</g>
<ellipse cx="124.688" cy="84.3176" rx="9.06089" ry="7.84566" transform="rotate(88.3583 124.688 84.3176)" fill="#D27B08"/>
<ellipse cx="6.32875" cy="5.68305" rx="6.32875" ry="5.68305" transform="matrix(0.338425 0.940993 -0.904493 0.426489 127.947 76.2266)" fill="#381004"/>
<ellipse cx="124.699" cy="78.8662" rx="1.46143" ry="1.26543" transform="rotate(88.3583 124.699 78.8662)" fill="white"/>
<path d="M159.471 40.1397C158.247 41.5483 157.813 43.5408 158.263 45.6791C158.713 47.8174 160.01 49.9261 161.87 51.5415C163.73 53.1569 165.999 54.1466 168.18 54.2928C170.36 54.439 172.272 53.7299 173.495 52.3213L166.483 46.2305L159.471 40.1397Z" fill="white"/>
<path d="M183.405 70.8007C184.727 69.4846 184.169 66.3871 181.853 62.1898C179.537 57.9924 175.652 53.039 171.055 48.4191C166.457 43.7993 161.522 39.8915 157.336 37.5554C153.149 35.2193 150.055 34.6463 148.732 35.9624L159.836 42.1042L169.623 50.9646L177.832 60.4836L183.405 70.8007Z" fill="white"/>
<path d="M159.453 172.479C159.453 178.931 150.367 184.162 139.159 184.162C127.951 184.162 118.865 178.931 118.865 172.479C118.865 166.027 127.951 172.479 139.159 172.479C150.367 172.479 159.453 166.027 159.453 172.479Z" fill="black"/>
<path d="M161.75 166.802C161.75 170.82 151.807 174.077 139.542 174.077C127.277 174.077 117.333 170.82 117.333 166.802C117.333 162.784 127.277 164.25 139.542 164.25C151.807 164.25 161.75 162.784 161.75 166.802Z" fill="#CEDAEA"/>
<rect x="116.135" y="123.06" width="43.4014" height="51.4024" rx="1.89526" transform="rotate(-3.48006 116.135 123.06)" fill="white"/>
<ellipse cx="150.041" cy="138.178" rx="3.41146" ry="2.576" transform="rotate(-13.7243 150.041 138.178)" fill="#FF6086"/>
<ellipse cx="153.025" cy="145.768" rx="0.582222" ry="0.535007" transform="rotate(-13.7243 153.025 145.768)" fill="#085090"/>
<ellipse cx="154.228" cy="124.886" rx="0.582222" ry="0.535007" transform="rotate(-13.7243 154.228 124.886)" fill="#01458B"/>
<ellipse cx="134.058" cy="129.523" rx="0.582222" ry="0.535007" transform="rotate(-13.7243 134.058 129.523)" fill="#01458B"/>
<ellipse cx="148.154" cy="128.628" rx="0.582222" ry="0.535007" transform="rotate(-13.7243 148.154 128.628)" fill="#FF6086"/>
<ellipse cx="124.757" cy="149.463" rx="0.582222" ry="0.535007" transform="rotate(-13.7243 124.757 149.463)" fill="#FF6086"/>
<ellipse cx="123.01" cy="127.783" rx="0.582222" ry="0.535007" transform="rotate(-13.7243 123.01 127.783)" fill="#FF6086"/>
<ellipse cx="138.804" cy="159.844" rx="0.582222" ry="0.535007" transform="rotate(-13.7243 138.804 159.844)" fill="#085090"/>
<ellipse cx="147.23" cy="163.902" rx="0.582222" ry="0.535007" transform="rotate(-13.7243 147.23 163.902)" fill="#FF6086"/>
<ellipse cx="131.994" cy="168.833" rx="0.582222" ry="0.535007" transform="rotate(-13.7243 131.994 168.833)" fill="#FF6086"/>
<ellipse cx="131.714" cy="140.586" rx="3.41146" ry="2.576" transform="rotate(-13.7243 131.714 140.586)" fill="#FF6086"/>
<mask id="path-29-inside-1_1582_1099" fill="white">
<path d="M149.663 134.315C149.674 133.806 149.59 133.302 149.415 132.837C149.24 132.372 148.98 131.957 148.652 131.62C148.324 131.284 147.936 131.035 147.516 130.89C147.095 130.744 146.652 130.707 146.216 130.78C145.78 130.853 145.363 131.034 144.993 131.311C144.623 131.589 144.309 131.955 144.073 132.386C143.837 132.817 143.685 133.301 143.626 133.805C143.568 134.309 143.605 134.822 143.734 135.306L144.645 134.974C144.556 134.642 144.53 134.291 144.57 133.945C144.61 133.599 144.715 133.267 144.877 132.971C145.039 132.676 145.254 132.425 145.508 132.234C145.762 132.044 146.048 131.92 146.347 131.87C146.645 131.82 146.95 131.846 147.238 131.945C147.527 132.045 147.792 132.216 148.017 132.446C148.242 132.677 148.421 132.962 148.541 133.281C148.66 133.6 148.719 133.946 148.711 134.294L149.663 134.315Z"/>
</mask>
<path d="M149.663 134.315C149.674 133.806 149.59 133.302 149.415 132.837C149.24 132.372 148.98 131.957 148.652 131.62C148.324 131.284 147.936 131.035 147.516 130.89C147.095 130.744 146.652 130.707 146.216 130.78C145.78 130.853 145.363 131.034 144.993 131.311C144.623 131.589 144.309 131.955 144.073 132.386C143.837 132.817 143.685 133.301 143.626 133.805C143.568 134.309 143.605 134.822 143.734 135.306L144.645 134.974C144.556 134.642 144.53 134.291 144.57 133.945C144.61 133.599 144.715 133.267 144.877 132.971C145.039 132.676 145.254 132.425 145.508 132.234C145.762 132.044 146.048 131.92 146.347 131.87C146.645 131.82 146.95 131.846 147.238 131.945C147.527 132.045 147.792 132.216 148.017 132.446C148.242 132.677 148.421 132.962 148.541 133.281C148.66 133.6 148.719 133.946 148.711 134.294L149.663 134.315Z" stroke="#01458B" stroke-width="1.57134" mask="url(#path-29-inside-1_1582_1099)"/>
<mask id="path-30-inside-2_1582_1099" fill="white">
<path d="M136.843 135.544C136.82 135.036 136.701 134.539 136.495 134.087C136.29 133.634 136.002 133.238 135.652 132.924C135.302 132.611 134.898 132.388 134.469 132.272C134.039 132.155 133.594 132.148 133.165 132.25C132.735 132.352 132.331 132.561 131.981 132.863C131.63 133.165 131.342 133.552 131.135 133.997C130.929 134.443 130.809 134.936 130.785 135.443C130.761 135.95 130.832 136.459 130.995 136.934L131.88 136.541C131.769 136.216 131.72 135.867 131.736 135.519C131.753 135.171 131.835 134.833 131.977 134.527C132.118 134.222 132.316 133.956 132.556 133.749C132.797 133.542 133.074 133.399 133.369 133.329C133.663 133.259 133.969 133.264 134.263 133.344C134.558 133.424 134.835 133.576 135.075 133.791C135.315 134.006 135.512 134.278 135.653 134.588C135.794 134.899 135.875 135.24 135.891 135.588L136.843 135.544Z"/>
</mask>
<path d="M136.843 135.544C136.82 135.036 136.701 134.539 136.495 134.087C136.29 133.634 136.002 133.238 135.652 132.924C135.302 132.611 134.898 132.388 134.469 132.272C134.039 132.155 133.594 132.148 133.165 132.25C132.735 132.352 132.331 132.561 131.981 132.863C131.63 133.165 131.342 133.552 131.135 133.997C130.929 134.443 130.809 134.936 130.785 135.443C130.761 135.95 130.832 136.459 130.995 136.934L131.88 136.541C131.769 136.216 131.72 135.867 131.736 135.519C131.753 135.171 131.835 134.833 131.977 134.527C132.118 134.222 132.316 133.956 132.556 133.749C132.797 133.542 133.074 133.399 133.369 133.329C133.663 133.259 133.969 133.264 134.263 133.344C134.558 133.424 134.835 133.576 135.075 133.791C135.315 134.006 135.512 134.278 135.653 134.588C135.794 134.899 135.875 135.24 135.891 135.588L136.843 135.544Z" stroke="#01458B" stroke-width="1.57134" mask="url(#path-30-inside-2_1582_1099)"/>
<mask id="path-31-inside-3_1582_1099" fill="white">
<path d="M138.058 143.719C138.048 144.227 138.155 144.732 138.371 145.198C138.587 145.664 138.908 146.08 139.311 146.417C139.714 146.755 140.189 147.005 140.704 147.152C141.219 147.299 141.762 147.338 142.294 147.266C142.826 147.195 143.335 147.015 143.786 146.739C144.236 146.463 144.618 146.097 144.904 145.667C145.19 145.237 145.374 144.754 145.442 144.249C145.511 143.745 145.462 143.233 145.301 142.748L144.19 143.077C144.301 143.409 144.334 143.761 144.287 144.107C144.24 144.452 144.114 144.784 143.918 145.079C143.722 145.374 143.46 145.625 143.151 145.814C142.842 146.003 142.493 146.127 142.128 146.176C141.763 146.225 141.391 146.198 141.038 146.097C140.684 145.997 140.358 145.825 140.082 145.593C139.805 145.362 139.585 145.077 139.437 144.757C139.289 144.438 139.216 144.092 139.223 143.743L138.058 143.719Z"/>
</mask>
<path d="M138.058 143.719C138.048 144.227 138.155 144.732 138.371 145.198C138.587 145.664 138.908 146.08 139.311 146.417C139.714 146.755 140.189 147.005 140.704 147.152C141.219 147.299 141.762 147.338 142.294 147.266C142.826 147.195 143.335 147.015 143.786 146.739C144.236 146.463 144.618 146.097 144.904 145.667C145.19 145.237 145.374 144.754 145.442 144.249C145.511 143.745 145.462 143.233 145.301 142.748L144.19 143.077C144.301 143.409 144.334 143.761 144.287 144.107C144.24 144.452 144.114 144.784 143.918 145.079C143.722 145.374 143.46 145.625 143.151 145.814C142.842 146.003 142.493 146.127 142.128 146.176C141.763 146.225 141.391 146.198 141.038 146.097C140.684 145.997 140.358 145.825 140.082 145.593C139.805 145.362 139.585 145.077 139.437 144.757C139.289 144.438 139.216 144.092 139.223 143.743L138.058 143.719Z" stroke="#01458B" stroke-width="1.57134" mask="url(#path-31-inside-3_1582_1099)"/>
<rect x="131.109" y="118.119" width="16.6027" height="6.15443" rx="0.715632" transform="rotate(-1.39705 131.109 118.119)" fill="#F0A9B1"/>
<path d="M131.279 123.615L147.877 123.21L147.908 124.466C147.917 124.861 147.605 125.189 147.21 125.199L132.043 125.569C131.648 125.578 131.32 125.266 131.31 124.871L131.279 123.615Z" fill="#FF6489"/>
<path d="M139.555 150.656C140.098 150.584 140.474 151.184 140.173 151.641L136.858 156.679C136.602 157.068 136.03 157.062 135.782 156.667L133.118 152.42C132.871 152.025 133.115 151.507 133.576 151.446L139.555 150.656Z" fill="#FFA3AD"/>
<rect x="109.14" y="166.304" width="28.4012" height="6.39667" transform="rotate(-31.4446 109.14 166.304)" fill="#FFD64B"/>
<line x1="112.57" y1="166.654" x2="134.424" y2="153.198" stroke="#FF7F51" stroke-width="0.895534"/>
<line x1="113.858" y1="168.492" x2="135.592" y2="155.178" stroke="#FE8745" stroke-width="0.895534"/>
<path d="M108.974 167.799C108.605 167.197 108.795 166.409 109.398 166.041L111.667 164.653L115.094 170.257L112.825 171.645C112.222 172.013 111.435 171.824 111.066 171.221L108.974 167.799Z" fill="#FD6186"/>
<rect x="164.605" y="166.076" width="2.28159" height="7.69617" transform="rotate(52.0836 164.605 166.076)" fill="#A589ED"/>
<rect x="155.227" y="154.015" width="15.2836" height="7.72491" transform="rotate(52.0836 155.227 154.015)" fill="#085090"/>
<rect x="153.952" y="152.343" width="2.28159" height="7.74827" transform="rotate(52.0836 153.952 152.343)" fill="#A589ED"/>
<path d="M166.025 167.848L167.104 169.233C167.65 169.934 167.524 170.945 166.823 171.491L163.274 174.256C162.573 174.802 161.562 174.676 161.016 173.975L159.937 172.59L166.025 167.848Z" fill="#FFD540"/>
<path d="M153.971 152.402L153.331 151.581C152.785 150.88 151.774 150.755 151.073 151.301L147.456 154.118C146.755 154.664 146.629 155.675 147.176 156.376L147.815 157.197L153.971 152.402Z" fill="#FFD540"/>
<ellipse cx="0.66334" cy="0.379051" rx="0.66334" ry="0.379051" transform="matrix(-0.990325 -0.138768 -0.138768 0.990325 156.17 164.436)" fill="white"/>
<path d="M151.972 160.716L154.58 163.952" stroke="white" stroke-width="0.379051" stroke-linecap="round"/>
<path d="M115.016 140.219C116.304 140.219 117.279 140.48 118.027 140.897C118.772 141.312 119.356 141.917 119.811 142.708C120.745 144.334 121.113 146.7 121.113 149.537C121.113 152.373 120.745 154.739 119.811 156.365C119.356 157.156 118.772 157.762 118.027 158.177C117.279 158.594 116.304 158.854 115.016 158.854C112.48 158.854 110.715 157.847 109.548 156.257C108.347 154.621 107.711 152.27 107.711 149.537C107.711 146.803 108.347 144.452 109.548 142.816C110.715 141.226 112.48 140.219 115.016 140.219Z" fill="white" stroke="black" stroke-width="2.29742"/>
<path d="M165.474 157.657C164.186 157.649 163.212 157.383 162.466 156.961C161.724 156.542 161.144 155.933 160.693 155.139C159.769 153.509 159.414 151.141 159.431 148.304C159.448 145.467 159.83 143.103 160.774 141.483C161.233 140.695 161.82 140.092 162.568 139.681C163.318 139.269 164.295 139.015 165.583 139.022C168.119 139.037 169.877 140.054 171.036 141.651C172.227 143.294 172.849 145.649 172.833 148.383C172.817 151.116 172.168 153.464 170.957 155.092C169.78 156.675 168.009 157.672 165.474 157.657Z" fill="white" stroke="black" stroke-width="2.29742"/>
<path d="M132.65 56.3201V60.471L113.504 61.2493C113.504 61.2493 117.844 57.3278 121.928 56.3201C125.862 55.3494 132.65 56.3201 132.65 56.3201Z" fill="black"/>
<path d="M143.842 56.9634L144.739 61.0162L163.798 57.5927C163.798 57.5927 158.668 54.7121 154.42 54.6207C150.329 54.5327 143.842 56.9634 143.842 56.9634Z" fill="black"/>
<path d="M126.902 101.758C126.914 103.646 127.297 105.513 128.03 107.253C128.764 108.993 129.832 110.571 131.175 111.898C132.519 113.224 134.11 114.273 135.858 114.985C137.607 115.697 139.479 116.057 141.367 116.046C143.255 116.034 145.122 115.651 146.861 114.917C148.601 114.184 150.179 113.116 151.506 111.772C152.833 110.429 153.882 108.838 154.594 107.089C155.305 105.341 155.666 103.469 155.654 101.581L141.278 101.67L126.902 101.758Z" fill="#77290F"/>
<path d="M148.099 113.09C148.1 112.137 147.914 111.193 147.55 110.312C147.187 109.43 146.653 108.629 145.98 107.954C145.307 107.279 144.507 106.743 143.627 106.377C142.747 106.011 141.803 105.822 140.85 105.82C139.896 105.819 138.952 106.005 138.071 106.369C137.19 106.732 136.389 107.266 135.713 107.939C135.038 108.612 134.502 109.412 134.136 110.292C133.77 111.172 133.581 112.116 133.58 113.069L140.839 113.08L148.099 113.09Z" fill="#FD6A81"/>
<path opacity="0.416254" fill-rule="evenodd" clip-rule="evenodd" d="M29.8304 173.688C39.7152 157.198 34.4331 135.82 17.9952 125.885C34.4698 135.842 55.9116 130.533 65.8866 114.028C56.0016 130.518 61.2839 151.896 77.7219 161.831C61.247 151.874 39.8054 157.183 29.8304 173.688Z" fill="#4F4F4F"/>
<path opacity="0.403297" d="M197.817 145.128C192.083 133.727 206.938 123.225 215.774 132.433C219.153 135.955 224.433 136.861 228.793 134.668C240.193 128.934 250.695 143.789 241.487 152.625C237.966 156.004 237.059 161.284 239.252 165.644C244.986 177.044 230.131 187.546 221.295 178.338C217.917 174.817 212.636 173.91 208.277 176.103C196.876 181.837 186.374 166.982 195.582 158.147C199.103 154.768 200.01 149.488 197.817 145.128Z" fill="#EB5757"/>
<path opacity="0.621183" fill-rule="evenodd" clip-rule="evenodd" d="M193.765 9.00876C190.688 3.69215 182.552 7.10748 184.191 13.0272C184.996 15.9313 183.188 18.913 180.241 19.5425C174.234 20.8257 174.968 29.6195 181.104 29.8893C184.115 30.0217 186.392 32.6625 186.08 35.6598C185.444 41.7694 194.034 43.789 196.187 38.036C197.243 35.2137 200.459 33.8641 203.213 35.087C208.827 37.5798 213.402 30.0341 208.596 26.2088C206.238 24.3322 205.948 20.8572 207.962 18.6158C212.068 14.0468 206.306 7.36373 201.182 10.7525C198.669 12.415 195.274 11.6169 193.765 9.00876ZM195.931 27.5826C198.14 26.6554 199.179 24.113 198.252 21.904C197.325 19.695 194.782 18.6559 192.573 19.5832C190.364 20.5104 189.325 23.0528 190.252 25.2618C191.18 27.4708 193.722 28.5098 195.931 27.5826Z" fill="#2F80ED"/>
<path opacity="0.527343" d="M66.8384 57.0061L80.6211 40.5581L68.0307 30.0079L54.248 46.4559C51.6179 49.5945 46.9465 50.0145 43.8408 47.4121C40.7357 44.8101 40.3312 40.1368 42.9613 36.9981L56.7439 20.5501L44.1535 9.99992L30.3708 26.4479C21.8979 36.5593 23.1717 51.6418 33.2323 60.0721C43.2929 68.5024 58.3655 67.1175 66.8384 57.0061Z" fill="#9B51E0"/>
<path d="M209.464 79.7631C209.129 80.0397 209.468 80.5655 209.858 80.3749L213.13 78.7758C217.355 76.7109 222.445 77.8102 225.441 81.4348L227.762 84.2419C228.038 84.5765 228.564 84.2375 228.374 83.8474L226.775 80.5753C224.71 76.3502 225.809 71.2605 229.434 68.2643L232.241 65.9439C232.575 65.6672 232.236 65.1414 231.846 65.332L228.574 66.9311C224.349 68.996 219.259 67.8967 216.263 64.2721L213.943 61.465C213.666 61.1304 213.14 61.4694 213.331 61.8595L214.93 65.1316C216.995 69.3567 215.895 74.4464 212.271 77.4427L209.464 79.7631Z" fill="#F2994A"/>
<defs>
<filter id="filter0_d_1582_1099" x="141.379" y="65.8955" width="30.4949" height="34.4866" filterUnits="userSpaceOnUse" color-interpolation-filters="sRGB">
<feFlood flood-opacity="0" result="BackgroundImageFix"/>
<feColorMatrix in="SourceAlpha" type="matrix" values="0 0 0 0 0 0 0 0 0 0 0 0 0 0 0 0 0 0 127 0" result="hardAlpha"/>
<feOffset dy="2.33829"/>
<feGaussianBlur stdDeviation="1.16915"/>
<feComposite in2="hardAlpha" operator="out"/>
<feColorMatrix type="matrix" values="0 0 0 0 0 0 0 0 0 0 0 0 0 0 0 0 0 0 0.25 0"/>
<feBlend mode="normal" in2="BackgroundImageFix" result="effect1_dropShadow_1582_1099"/>
<feBlend mode="normal" in="SourceGraphic" in2="effect1_dropShadow_1582_1099" result="shape"/>
</filter>
<filter id="filter1_d_1582_1099" x="109.848" y="65.896" width="30.4949" height="34.4866" filterUnits="userSpaceOnUse" color-interpolation-filters="sRGB">
<feFlood flood-opacity="0" result="BackgroundImageFix"/>
<feColorMatrix in="SourceAlpha" type="matrix" values="0 0 0 0 0 0 0 0 0 0 0 0 0 0 0 0 0 0 127 0" result="hardAlpha"/>
<feOffset dy="2.33829"/>
<feGaussianBlur stdDeviation="1.16915"/>
<feComposite in2="hardAlpha" operator="out"/>
<feColorMatrix type="matrix" values="0 0 0 0 0 0 0 0 0 0 0 0 0 0 0 0 0 0 0.25 0"/>
<feBlend mode="normal" in2="BackgroundImageFix" result="effect1_dropShadow_1582_1099"/>
<feBlend mode="normal" in="SourceGraphic" in2="effect1_dropShadow_1582_1099" result="shape"/>
</filter>
</defs>
</svg>
