<svg width="226" height="210" viewBox="0 0 226 210" fill="none" xmlns="http://www.w3.org/2000/svg">
<path d="M128.147 0C165.907 0 196.517 30.628 196.517 68.4092C196.517 84.84 190.727 99.9172 181.078 111.711C181.068 111.723 181.076 111.741 181.092 111.741C181.106 111.742 181.115 111.757 181.107 111.769C178.371 115.718 172.229 125.057 169.391 131.051C165.835 138.56 167.427 155.127 165.124 159.298C163.346 162.516 159.433 161.847 155.877 161.801C137.623 161.562 99.6944 160.943 94.0034 160.371C88.3771 159.805 89.3577 138.33 86.2854 127.134C86.216 126.881 86.1167 126.644 85.9909 126.414L82.2681 119.608L81.3826 118.394C81.2538 118.218 81.1089 118.054 80.9508 117.903C67.9056 105.445 59.7779 87.8771 59.7778 68.4092C59.7778 30.6281 90.3875 0.000206146 128.147 0Z" fill="#FAAE2B"/>
<ellipse cx="23.0737" cy="19.9677" rx="23.0737" ry="19.9677" transform="matrix(0.0286324 0.99959 -0.999589 0.0286651 180.068 41.665)" fill="#F27E07"/>
<g filter="url(#filter0_d_2014_5460)">
<ellipse cx="20.6449" cy="17.8659" rx="20.6449" ry="17.8659" transform="matrix(0.0286324 0.99959 -0.999589 0.0286651 178.762 44.9434)" fill="white"/>
</g>
<ellipse cx="12.5489" cy="10.8596" rx="12.5489" ry="10.8596" transform="matrix(0.0286324 0.99959 -0.999589 0.0286651 171.426 58.1084)" fill="#D27B08"/>
<ellipse cx="8.76451" cy="7.86697" rx="8.76451" ry="7.86697" transform="matrix(0.338251 0.941046 -0.90441 0.426694 165.441 59.7568)" fill="#381004"/>
<ellipse cx="2.02401" cy="1.75156" rx="2.02401" ry="1.75156" transform="matrix(0.0286324 0.99959 -0.999589 0.0286651 162.639 61.3389)" fill="white"/>
<path d="M157.297 193.82C157.297 202.756 144.721 210 129.207 210C113.693 210 101.117 202.756 101.117 193.82C101.117 184.884 113.693 193.82 129.207 193.82C144.721 193.82 157.297 184.884 157.297 193.82Z" fill="black"/>
<path d="M160.485 168.583C160.485 183.743 146.719 196.033 129.738 196.033C112.757 196.033 98.9912 183.743 98.9912 168.583C98.9912 153.423 112.757 158.956 129.738 158.956C146.719 158.956 160.485 153.423 160.485 168.583Z" fill="white"/>
<path d="M120.198 32.9461V38.695L93.6982 39.7729C93.6982 39.7729 99.7048 34.3417 105.358 32.9461C110.804 31.6018 120.198 32.9461 120.198 32.9461Z" fill="black"/>
<path d="M135.69 33.836L136.933 39.4489L163.312 34.7076C163.312 34.7076 156.212 30.7181 150.332 30.5915C144.669 30.4696 135.69 33.836 135.69 33.836Z" fill="black"/>
<path d="M112.242 95.8744C112.258 98.489 112.788 101.075 113.803 103.484C114.818 105.894 116.297 108.08 118.157 109.917C120.016 111.754 122.218 113.207 124.639 114.193C127.059 115.179 129.65 115.678 132.263 115.662C134.876 115.646 137.46 115.115 139.869 114.099C142.277 113.084 144.461 111.604 146.298 109.743C148.134 107.883 149.586 105.679 150.571 103.258C151.556 100.836 152.055 98.2437 152.039 95.629L132.14 95.7517L112.242 95.8744Z" fill="#77290F"/>
<path d="M141.582 111.57C141.584 110.25 141.326 108.942 140.822 107.721C140.319 106.501 139.581 105.391 138.649 104.456C137.717 103.521 136.611 102.779 135.392 102.272C134.174 101.765 132.868 101.503 131.548 101.501C130.229 101.499 128.922 101.757 127.702 102.261C126.482 102.764 125.373 103.503 124.439 104.435C123.504 105.368 122.762 106.475 122.256 107.694C121.749 108.913 121.487 110.22 121.485 111.54L131.533 111.555L141.582 111.57Z" fill="#FD6A81"/>
<path d="M131.038 63.1192C137.177 79.4164 128.913 96.752 112.712 101.904C96.5114 107.055 78.3517 98.1218 72.2124 81.8246C66.0733 65.5275 74.3375 48.1927 90.5384 43.041C106.739 37.8894 124.899 46.8221 131.038 63.1192Z" fill="#D0EDF3" fill-opacity="0.5" stroke="#174552" stroke-width="5.72036"/>
<path d="M70.9824 78.915L80.503 96.2405L27.1465 122.493C24.3122 123.888 20.7809 122.774 19.2593 120.005L15.249 112.707C13.7274 109.938 14.7915 106.563 17.6259 105.168L70.9824 78.915Z" fill="#174552"/>
<ellipse cx="25.4208" cy="21.9989" rx="25.4208" ry="21.9989" transform="matrix(0.0286324 0.99959 -0.999589 0.0286651 125.495 43.668)" fill="#F27E07"/>
<g filter="url(#filter1_d_2014_5460)">
<ellipse cx="22.7449" cy="19.6832" rx="22.7449" ry="19.6832" transform="matrix(0.0286324 0.99959 -0.999589 0.0286651 124.055 47.2793)" fill="white"/>
</g>
<ellipse cx="13.8254" cy="11.9643" rx="13.8254" ry="11.9643" transform="matrix(0.0286324 0.99959 -0.999589 0.0286651 115.975 61.7842)" fill="#D27B08"/>
<ellipse cx="9.65605" cy="8.66722" rx="9.65605" ry="8.66722" transform="matrix(0.338251 0.941046 -0.90441 0.426694 109.38 63.5996)" fill="#381004"/>
<ellipse cx="2.2299" cy="1.92973" rx="2.2299" ry="1.92973" transform="matrix(0.0286324 0.99959 -0.999589 0.0286651 106.293 65.3438)" fill="white"/>
<ellipse cx="132.14" cy="166.154" rx="4.00425" ry="4.00654" fill="#FAAE2B"/>
<ellipse cx="132.14" cy="176.457" rx="4.00425" ry="4.00654" fill="#FAAE2B"/>
<path d="M94.0999 145.548L38.8984 111.492" stroke="black" stroke-width="14.3009"/>
<path d="M52.831 98.5163C54.7398 100.117 55.8613 101.715 56.4523 103.263C57.0406 104.804 57.1534 106.428 56.8448 108.166C56.2109 111.738 53.8172 115.703 50.2937 119.91C46.7702 124.117 43.2869 127.168 39.8829 128.417C38.2258 129.025 36.6088 129.198 34.9894 128.888C33.3623 128.576 31.5945 127.75 29.6857 126.15C25.9274 122.998 24.5614 119.312 24.8059 115.503C25.0574 111.584 27.0363 107.309 30.4317 103.255C33.8272 99.2011 37.6884 96.5041 41.5007 95.5711C45.2063 94.6642 49.0727 95.3648 52.831 98.5163Z" fill="white" stroke="black" stroke-width="4.44232"/>
<path d="M157.364 104.732C157.364 104.732 227.507 101.928 216.91 124.924C207.01 146.404 165.048 148.982 165.048 148.982" stroke="black" stroke-width="14.3009"/>
<path d="M155.47 87.0393C157.588 87.5603 159.087 88.3829 160.149 89.3718C161.205 90.3561 161.92 91.5886 162.348 93.0747C163.228 96.1276 162.877 100.169 161.73 104.837C160.583 109.505 159.021 113.249 156.826 115.546C155.758 116.664 154.554 117.424 153.162 117.806C151.763 118.19 150.054 118.223 147.936 117.702C143.766 116.677 141.27 114.307 139.993 111.218C138.679 108.04 138.586 103.914 139.691 99.4153C140.797 94.9171 142.791 91.3053 145.428 89.0994C147.991 86.9552 151.301 86.0135 155.47 87.0393Z" fill="white" stroke="black" stroke-width="3.89045"/>
<defs>
<filter id="filter0_d_2014_5460" x="140.389" y="45.4492" width="42.21" height="47.7583" filterUnits="userSpaceOnUse" color-interpolation-filters="sRGB">
<feFlood flood-opacity="0" result="BackgroundImageFix"/>
<feColorMatrix in="SourceAlpha" type="matrix" values="0 0 0 0 0 0 0 0 0 0 0 0 0 0 0 0 0 0 127 0" result="hardAlpha"/>
<feOffset dy="3.23657"/>
<feGaussianBlur stdDeviation="1.61828"/>
<feComposite in2="hardAlpha" operator="out"/>
<feColorMatrix type="matrix" values="0 0 0 0 0 0 0 0 0 0 0 0 0 0 0 0 0 0 0.25 0"/>
<feBlend mode="normal" in2="BackgroundImageFix" result="effect1_dropShadow_2014_5460"/>
<feBlend mode="normal" in="SourceGraphic" in2="effect1_dropShadow_2014_5460" result="shape"/>
</filter>
<filter id="filter1_d_2014_5460" x="81.7794" y="47.8359" width="46.5037" height="52.6179" filterUnits="userSpaceOnUse" color-interpolation-filters="sRGB">
<feFlood flood-opacity="0" result="BackgroundImageFix"/>
<feColorMatrix in="SourceAlpha" type="matrix" values="0 0 0 0 0 0 0 0 0 0 0 0 0 0 0 0 0 0 127 0" result="hardAlpha"/>
<feOffset dy="3.5658"/>
<feGaussianBlur stdDeviation="1.7829"/>
<feComposite in2="hardAlpha" operator="out"/>
<feColorMatrix type="matrix" values="0 0 0 0 0 0 0 0 0 0 0 0 0 0 0 0 0 0 0.25 0"/>
<feBlend mode="normal" in2="BackgroundImageFix" result="effect1_dropShadow_2014_5460"/>
<feBlend mode="normal" in="SourceGraphic" in2="effect1_dropShadow_2014_5460" result="shape"/>
</filter>
</defs>
</svg>
