<svg width="314" height="247" viewBox="0 0 314 247" fill="none" xmlns="http://www.w3.org/2000/svg">
<path d="M93.1561 52.7253L98.4047 64.0252" stroke="#FAAE2A" stroke-width="4.67225" stroke-linecap="round"/>
<path d="M135.544 41L135.631 53.459" stroke="#FAAE2A" stroke-width="4.67225" stroke-linecap="round"/>
<path d="M64.4954 88.5513L76.5524 91.6918" stroke="#FAAE2B" stroke-width="4.67225" stroke-linecap="round"/>
<path d="M178.958 52.7253L172.768 63.5383" stroke="#FAAE2A" stroke-width="4.67225" stroke-linecap="round"/>
<path d="M217.776 83.7749L207.003 90.0347" stroke="#FAAE2B" stroke-width="4.67225" stroke-linecap="round"/>
<path d="M170.144 228.231C170.49 236.982 158.448 244.563 143.246 245.164C128.045 245.766 115.441 239.159 115.095 230.408C114.749 221.657 127.418 229.92 142.619 229.319C157.821 228.718 169.798 219.479 170.144 228.231Z" fill="black"/>
<path d="M141.409 74.6191C169.769 74.6191 192.76 97.6096 192.76 125.97C192.76 138.303 188.41 149.62 181.163 158.473C181.155 158.482 181.162 158.496 181.173 158.496V158.496C181.185 158.497 181.191 158.508 181.185 158.518C179.13 161.482 174.518 168.493 172.386 172.991C169.715 178.628 170.911 191.065 169.181 194.195C167.845 196.611 164.907 196.109 162.236 196.074C148.526 195.895 120.039 195.429 115.765 195C111.539 194.575 112.275 178.456 109.968 170.051C109.916 169.861 109.841 169.683 109.746 169.51L106.95 164.402L106.279 163.483C106.183 163.35 106.074 163.227 105.955 163.113C103.785 161.041 101.796 158.78 100.015 156.358C100.015 156.358 100.015 156.357 100.015 156.357L100.008 156.35C100.007 156.35 100.008 156.35 100.008 156.35V156.35C100.008 156.35 100.009 156.349 100.008 156.349C93.7552 147.841 90.0587 137.338 90.0587 125.97C90.0587 97.6096 113.049 74.6192 141.409 74.6191Z" fill="#FAAE2B"/>
<path d="M128.518 168.943C133.972 169.809 139.537 169.4 144.69 167.753C149.843 166.107 154.415 163.278 157.977 159.531L155.462 157.516C152.261 160.883 148.152 163.426 143.522 164.905C138.891 166.385 133.891 166.753 128.99 165.974L128.518 168.943Z" fill="black"/>
<ellipse cx="159.821" cy="124.207" rx="17.3201" ry="14.9972" transform="rotate(88.3583 159.821 124.207)" fill="#F27E07"/>
<g filter="url(#filter0_d_399_321)">
<ellipse cx="160.366" cy="124.8" rx="15.4969" ry="13.4185" transform="rotate(88.3583 160.366 124.8)" fill="white"/>
</g>
<ellipse cx="159.798" cy="128.322" rx="1.51931" ry="1.31554" transform="rotate(88.3583 159.798 128.322)" fill="white"/>
<ellipse cx="127.054" cy="124.207" rx="17.3201" ry="14.9972" transform="rotate(88.3583 127.054 124.207)" fill="#F27E07"/>
<g filter="url(#filter1_d_399_321)">
<ellipse cx="127.597" cy="124.8" rx="15.4969" ry="13.4185" transform="rotate(88.3583 127.597 124.8)" fill="white"/>
</g>
<ellipse cx="127.067" cy="124.473" rx="9.41971" ry="8.15635" transform="rotate(88.3583 127.067 124.473)" fill="#D27B08"/>
<ellipse cx="127.067" cy="124.473" rx="9.41971" ry="8.15635" transform="rotate(88.3583 127.067 124.473)" fill="#D27B08"/>
<ellipse cx="160.492" cy="124.473" rx="9.41971" ry="8.15635" transform="rotate(88.3583 160.492 124.473)" fill="#D27B08"/>
<ellipse cx="6.57938" cy="5.90811" rx="6.57938" ry="5.90811" transform="matrix(0.338425 0.940993 -0.904493 0.426489 130.456 116.061)" fill="#381004"/>
<ellipse cx="6.57938" cy="5.90811" rx="6.57938" ry="5.90811" transform="matrix(0.338425 0.940993 -0.904493 0.426489 130.456 116.061)" fill="#381004"/>
<ellipse cx="6.57938" cy="5.90811" rx="6.57938" ry="5.90811" transform="matrix(0.338425 0.940993 -0.904493 0.426489 163.881 116.061)" fill="#381004"/>
<ellipse cx="127.061" cy="124.338" rx="1.51931" ry="1.31554" transform="rotate(88.3583 127.061 124.338)" fill="white"/>
<ellipse cx="127.061" cy="124.338" rx="1.51931" ry="1.31554" transform="rotate(88.3583 127.061 124.338)" fill="white"/>
<ellipse cx="160.486" cy="124.339" rx="1.51931" ry="1.31554" transform="rotate(88.3583 160.486 124.339)" fill="white"/>
<path d="M163.321 82.529C162.049 83.9933 161.598 86.0648 162.065 88.2878C162.533 90.5107 163.882 92.703 165.815 94.3823C167.749 96.0617 170.108 97.0906 172.375 97.2426C174.641 97.3946 176.629 96.6574 177.901 95.193L170.611 88.861L163.321 82.529Z" fill="white"/>
<path d="M188.203 114.404C189.578 113.035 188.998 109.815 186.59 105.452C184.182 101.088 180.144 95.9386 175.364 91.1358C170.584 86.333 165.454 82.2705 161.102 79.8419C156.75 77.4133 153.532 76.8176 152.158 78.1858L163.701 84.5708L173.876 93.7821L182.41 103.678L188.203 114.404Z" fill="white"/>
<path d="M135.438 99.3496V103.665L115.535 104.474C115.535 104.474 120.046 100.397 124.292 99.3496C128.382 98.3405 135.438 99.3496 135.438 99.3496Z" fill="black"/>
<path d="M147.074 100.018L148.007 104.232L167.82 100.673C167.82 100.673 162.487 97.6779 158.071 97.5829C153.818 97.4914 147.074 100.018 147.074 100.018Z" fill="black"/>
<path d="M134.953 196.428C126.153 196.189 114.203 195.352 114.203 195.352L115.278 205.597L117.353 205.717C117.353 205.717 124.823 207.542 129.709 208.058C135.69 208.69 139.066 209.376 145.063 208.943C150.015 208.585 152.856 207.471 157.7 206.412C162.258 205.416 169.138 202.998 169.138 202.998L169.136 195.632C169.136 195.632 156.536 196.428 148.176 196.428C143.4 196.428 139.845 196.56 134.953 196.428Z" fill="#B5B5CB" stroke="black" stroke-width="2.3884"/>
<path d="M136.892 208.845C128.354 208.614 115.266 205.617 115.266 205.617L116.307 215.588L118.32 215.704C118.32 215.704 125.567 217.479 130.306 217.98C136.109 218.594 139.43 218.471 145.248 218.048C150.052 217.699 152.763 217.404 157.462 216.373C161.885 215.403 168.56 213.048 168.56 213.048L169.152 202.775C169.152 202.775 157.137 207.34 149.038 208.355C144.329 208.946 141.638 208.973 136.892 208.845Z" fill="#B5B5CB" stroke="black" stroke-width="2.3884"/>
<path d="M137.228 218.878C128.953 218.663 116.315 216.044 116.315 216.044L117.307 226.012L119.258 226.125C119.258 226.125 126.28 227.887 130.873 228.38C136.497 228.983 139.716 228.855 145.356 228.421C150.013 228.064 152.642 227.764 157.199 226.725C161.488 225.747 167.962 223.381 167.962 223.381L168.554 213.108C168.554 213.108 156.682 217.321 148.829 218.351C144.264 218.949 141.828 218.998 137.228 218.878Z" fill="#B5B5CB" stroke="black" stroke-width="2.3884"/>
<path d="M192.76 183.025C184.784 185.367 170.866 183.025 170.866 183.025L170.07 190.855L169.672 198.418C169.672 198.418 187.927 201.05 197.935 198.462C207.002 196.116 217.838 187.565 217.838 187.565L207.886 173.34C207.886 173.34 199.964 180.91 192.76 183.025Z" fill="#FAAE2B" stroke="black" stroke-width="0.796134"/>
<path d="M92.7548 199.214C99.9972 195.134 114.084 194.276 114.084 194.276L110.603 179.237C110.603 179.237 93.3977 180.563 84.2317 185.343C75.9269 189.673 67.2988 200.447 67.2988 200.447L80.2026 212.062C80.2026 212.062 86.2132 202.9 92.7548 199.214Z" fill="#FAAE2B" stroke="black" stroke-width="0.796134"/>
<path d="M59.3617 205.774C59.7397 206.677 61.232 207.39 61.232 207.39C61.232 207.39 58.2471 206.773 56.3938 207.32C55.1558 207.686 53.4258 208.866 53.4258 208.866C53.4258 208.866 49.8081 210.265 48.4038 212.16C46.8794 214.218 46.5459 215.974 46.8104 218.416C47.0937 221.031 48.4525 222.136 50.034 224.135C51.9345 226.538 55.9564 229.251 55.9564 229.251L62.7074 232.146C62.7074 232.146 65.9057 233.199 67.8573 232.485C70.9327 231.36 72.4399 225.289 72.4399 225.289L73.4524 219.706C73.4524 219.706 75.302 221.072 76.5055 220.581C78.0619 219.947 77.5159 218.118 77.8724 216.478C78.2851 214.581 80.5657 214.967 80.107 213.146C79.3426 210.112 76.4487 209.173 74.1359 207.175C72.5534 205.808 66.9707 200.408 66.9707 200.408C66.9707 200.408 65.2415 200.741 63.137 201.403C61.0325 202.065 58.5427 203.818 59.3617 205.774Z" fill="#FFFBFE" stroke="black" stroke-width="1.1942"/>
<path d="M212.827 167.703C212.827 167.703 214.74 148.533 219.779 152.409C221.926 154.061 220.4 159.928 220.4 159.928C220.4 159.928 232.054 138.63 236.192 144.424C239.623 149.227 231.585 160.655 231.585 160.655L229.986 162.648L235.239 176.711C235.427 176.592 235.613 176.472 235.797 176.351C237.046 175.309 240.051 172.811 239.66 173.25C238.779 174.238 237.392 175.304 235.797 176.351C235.475 176.62 235.269 176.792 235.269 176.792L235.239 176.711C230.354 179.816 223.932 182.655 223.932 182.655C223.932 182.655 225.065 186.314 224.083 188.301C222.058 192.394 215.793 184.871 215.793 184.871L213.269 181.841L210.744 177.297L207.778 173.257L207.21 171.743C207.21 171.743 206.043 170.319 206.349 169.4C207.063 167.254 212.827 167.703 212.827 167.703Z" fill="#FFFBFE"/>
<path d="M212.827 167.703C212.827 167.703 214.74 148.533 219.779 152.409C221.926 154.061 220.4 159.928 220.4 159.928C220.4 159.928 232.054 138.63 236.192 144.424C239.623 149.227 231.585 160.655 231.585 160.655L229.986 162.648L235.269 176.792C235.269 176.792 240.152 172.698 239.66 173.25C236.054 177.297 223.932 182.655 223.932 182.655C223.932 182.655 225.065 186.314 224.083 188.301C222.058 192.394 215.793 184.871 215.793 184.871L213.269 181.841L210.744 177.297L207.778 173.257L207.21 171.743C207.21 171.743 206.043 170.319 206.349 169.4C207.063 167.254 212.827 167.703 212.827 167.703Z" stroke="black" stroke-width="1.51481"/>
<path d="M237.103 159.868C238.083 160.147 238.347 160.448 238.445 160.732C238.575 161.111 238.528 161.744 238.197 162.94C237.314 164.266 236.098 165.843 234.865 167.018C234.231 167.621 233.621 168.092 233.074 168.376C232.516 168.664 232.122 168.709 231.86 168.634C231.142 168.43 230.377 167.595 229.871 166.33C229.376 165.095 229.231 163.688 229.528 162.641C229.639 162.25 229.973 161.821 230.57 161.398C231.157 160.981 231.926 160.62 232.766 160.343C233.602 160.067 234.48 159.882 235.265 159.803C236.066 159.721 236.708 159.756 237.103 159.868Z" fill="#FFFBFE" stroke="black" stroke-width="1.51481"/>
<path d="M240.215 168.81C240.59 169.09 240.791 169.346 240.897 169.568C240.999 169.781 241.039 170.016 241.012 170.307C240.953 170.929 240.597 171.715 239.969 172.771C238.741 173.821 237.106 175.303 235.596 176.208C234.815 176.676 234.162 176.929 233.68 176.944C233.452 176.952 233.295 176.905 233.182 176.835C233.083 176.773 232.975 176.664 232.871 176.458C232.731 175.851 232.573 175.304 232.424 174.808C232.264 174.273 232.122 173.812 232.017 173.358C231.823 172.518 231.765 171.743 232.013 170.799C232.262 170.439 232.741 170.042 233.436 169.672C234.167 169.284 235.06 168.961 235.979 168.742C236.899 168.522 237.819 168.413 238.599 168.433C239.41 168.454 239.951 168.613 240.215 168.81Z" fill="#FFFBFE" stroke="black" stroke-width="1.51481"/>
<line x1="141.72" y1="124.576" x2="146.497" y2="124.576" stroke="black" stroke-width="1.1942"/>
<path opacity="0.436899" fill-rule="evenodd" clip-rule="evenodd" d="M245.352 42.029C232.338 36.9818 217.691 43.3869 212.602 56.3688C217.702 43.358 211.27 28.6681 198.235 23.5581C211.249 28.6055 225.896 22.2001 230.985 9.21833C225.885 22.2293 232.317 36.919 245.352 42.029Z" fill="#4F4F4F"/>
<path opacity="0.935171" d="M3.79932 129.032L0 138.376L37.3766 153.574L52.5739 116.197L43.2297 112.398L39.4304 121.742L30.0863 117.943L26.2869 127.287L16.9428 123.487L13.1435 132.832L3.79932 129.032Z" fill="#27AE60"/>
<rect opacity="0.722984" x="84.3538" y="27.0454" width="35.5584" height="13.553" rx="6.7765" transform="rotate(141.599 84.3538 27.0454)" fill="#EB5757"/>
<path opacity="0.991705" d="M306.685 198.489C307.833 198.827 307.545 200.527 306.35 200.467L296.326 199.966C283.383 199.319 271.683 207.625 268.026 220.057L265.193 229.685C264.855 230.833 263.155 230.544 263.215 229.349L263.716 219.326C264.363 206.383 256.057 194.683 243.625 191.025L233.997 188.193C232.849 187.855 233.138 186.155 234.333 186.215L244.356 186.716C257.299 187.363 268.999 179.057 272.657 166.625L275.489 156.997C275.827 155.849 277.527 156.137 277.467 157.332L276.966 167.356C276.319 180.298 284.625 191.999 297.057 195.656L306.685 198.489Z" fill="#F2994A"/>
<defs>
<filter id="filter0_d_399_321" x="144.514" y="109.305" width="31.7028" height="35.8525" filterUnits="userSpaceOnUse" color-interpolation-filters="sRGB">
<feFlood flood-opacity="0" result="BackgroundImageFix"/>
<feColorMatrix in="SourceAlpha" type="matrix" values="0 0 0 0 0 0 0 0 0 0 0 0 0 0 0 0 0 0 127 0" result="hardAlpha"/>
<feOffset dy="2.43089"/>
<feGaussianBlur stdDeviation="1.21545"/>
<feComposite in2="hardAlpha" operator="out"/>
<feColorMatrix type="matrix" values="0 0 0 0 0 0 0 0 0 0 0 0 0 0 0 0 0 0 0.25 0"/>
<feBlend mode="normal" in2="BackgroundImageFix" result="effect1_dropShadow_399_321"/>
<feBlend mode="normal" in="SourceGraphic" in2="effect1_dropShadow_399_321" result="shape"/>
</filter>
<filter id="filter1_d_399_321" x="111.746" y="109.304" width="31.7028" height="35.8525" filterUnits="userSpaceOnUse" color-interpolation-filters="sRGB">
<feFlood flood-opacity="0" result="BackgroundImageFix"/>
<feColorMatrix in="SourceAlpha" type="matrix" values="0 0 0 0 0 0 0 0 0 0 0 0 0 0 0 0 0 0 127 0" result="hardAlpha"/>
<feOffset dy="2.43089"/>
<feGaussianBlur stdDeviation="1.21545"/>
<feComposite in2="hardAlpha" operator="out"/>
<feColorMatrix type="matrix" values="0 0 0 0 0 0 0 0 0 0 0 0 0 0 0 0 0 0 0.25 0"/>
<feBlend mode="normal" in2="BackgroundImageFix" result="effect1_dropShadow_399_321"/>
<feBlend mode="normal" in="SourceGraphic" in2="effect1_dropShadow_399_321" result="shape"/>
</filter>
</defs>
</svg>
