<svg width="321" height="213" viewBox="0 0 321 213" fill="none" xmlns="http://www.w3.org/2000/svg">
<path d="M150.427 39.697C180.655 39.697 205.159 64.2011 205.159 94.4285C205.159 107.574 200.523 119.636 192.799 129.072C192.791 129.082 192.798 129.096 192.81 129.096V129.096C192.822 129.097 192.829 129.109 192.822 129.119C190.632 132.279 185.716 139.751 183.444 144.546C180.597 150.553 181.872 163.81 180.028 167.146C178.605 169.721 175.473 169.185 172.626 169.148C158.014 168.957 127.65 168.461 123.094 168.004C118.59 167.551 119.375 150.37 116.916 141.412C116.86 141.21 116.781 141.02 116.68 140.836L113.7 135.391L112.99 134.418C112.886 134.276 112.77 134.144 112.643 134.023C102.202 124.057 95.6958 110.003 95.6958 94.4285C95.6958 64.2011 120.2 39.6971 150.427 39.697Z" fill="#FAAE2B"/>
<ellipse cx="170.05" cy="92.55" rx="18.4604" ry="15.9846" transform="rotate(88.3583 170.05 92.55)" fill="#F27E07"/>
<g filter="url(#filter0_d_399_320)">
<ellipse cx="170.631" cy="93.1822" rx="16.5172" ry="14.302" transform="rotate(88.3583 170.631 93.1822)" fill="white"/>
</g>
<ellipse cx="170.179" cy="97.0795" rx="10.0399" ry="8.69336" transform="rotate(88.3583 170.179 97.0795)" fill="#D27B08"/>
<ellipse cx="7.01256" cy="6.29709" rx="7.01256" ry="6.29709" transform="matrix(0.338425 0.940993 -0.904493 0.426489 173.791 88.1133)" fill="#381004"/>
<ellipse cx="170.193" cy="91.0387" rx="1.61934" ry="1.40215" transform="rotate(88.3583 170.193 91.0387)" fill="white"/>
<ellipse cx="135.114" cy="92.55" rx="18.4604" ry="15.9846" transform="rotate(88.3583 135.114 92.55)" fill="#F27E07"/>
<g filter="url(#filter1_d_399_320)">
<ellipse cx="135.695" cy="93.1822" rx="16.5172" ry="14.302" transform="rotate(88.3583 135.695 93.1822)" fill="white"/>
</g>
<ellipse cx="135.243" cy="97.0795" rx="10.0399" ry="8.69336" transform="rotate(88.3583 135.243 97.0795)" fill="#D27B08"/>
<ellipse cx="7.01256" cy="6.29709" rx="7.01256" ry="6.29709" transform="matrix(0.338425 0.940993 -0.904493 0.426489 138.854 88.1133)" fill="#381004"/>
<ellipse cx="135.256" cy="91.0387" rx="1.61934" ry="1.40215" transform="rotate(88.3583 135.256 91.0387)" fill="white"/>
<path d="M173.782 48.1276C172.426 49.6883 171.945 51.8962 172.443 54.2655C172.942 56.6348 174.38 58.9714 176.44 60.7613C178.501 62.5513 181.016 63.6479 183.432 63.8099C185.847 63.9719 187.966 63.1862 189.322 61.6254L181.552 54.8765L173.782 48.1276Z" fill="white"/>
<path d="M200.302 82.1011C201.768 80.6427 201.149 77.2106 198.583 72.5598C196.016 67.9089 191.712 62.4202 186.618 57.3012C181.523 52.1822 176.055 47.8522 171.416 45.2637C166.778 42.6752 163.349 42.0403 161.883 43.4986L174.187 50.304L185.031 60.1218L194.128 70.6692L200.302 82.1011Z" fill="white"/>
<line x1="147.457" y1="91.8829" x2="156.791" y2="91.8829" stroke="black" stroke-width="2.54565"/>
<path d="M128.57 123.214C135.877 128.237 144.432 130.87 152.904 130.702C161.376 130.534 169.291 127.575 175.419 122.286L172.691 119.247C167.184 124 160.072 126.658 152.459 126.809C144.846 126.96 137.158 124.595 130.592 120.081L128.57 123.214Z" fill="black"/>
<path d="M126.668 145.342C121.94 144.151 114.364 143.22 114.364 143.22L119.88 183.526L148.73 192.436H159.761L189.885 183.526C189.885 183.526 192.973 164.718 193.279 152.554C193.371 148.91 193.279 143.22 193.279 143.22C193.279 143.22 189.421 144.577 186.915 145.342C180.726 147.229 177.026 147.425 170.793 149.16C166.45 150.368 159.761 152.554 159.761 152.554H145.336C145.336 152.554 134.247 147.25 126.668 145.342Z" fill="#22B4FD"/>
<path d="M126.668 145.342C121.94 144.151 114.364 143.22 114.364 143.22L119.88 183.526L148.73 192.436H159.761L189.885 183.526C189.885 183.526 192.973 164.718 193.279 152.554C193.371 148.91 193.279 143.22 193.279 143.22C193.279 143.22 189.421 144.577 186.915 145.342C180.726 147.229 177.026 147.425 170.793 149.16C166.45 150.368 159.761 152.554 159.761 152.554H145.336C145.336 152.554 134.247 147.25 126.668 145.342Z" stroke="black" stroke-width="2.54565"/>
<path d="M126.668 145.342C121.94 144.151 114.364 143.22 114.364 143.22L119.88 183.526L148.73 192.436H159.761L189.885 183.526C189.885 183.526 192.973 164.718 193.279 152.554C193.371 148.91 193.279 143.22 193.279 143.22C193.279 143.22 189.421 144.577 186.915 145.342C180.726 147.229 177.026 147.425 170.793 149.16C166.45 150.368 159.761 152.554 159.761 152.554H145.336C145.336 152.554 134.247 147.25 126.668 145.342Z" stroke="black" stroke-width="2.54565"/>
<rect x="149.155" y="154.676" width="9.33406" height="36.4877" fill="#26B3FF" stroke="black" stroke-width="2.54565"/>
<line x1="153.994" y1="153.441" x2="192.179" y2="141.562" stroke="white" stroke-width="1.6971"/>
<line x1="112.884" y1="142.4" x2="154.463" y2="153.431" stroke="white" stroke-width="1.6971"/>
<line x1="153.994" y1="152.593" x2="192.179" y2="140.713" stroke="black" stroke-width="1.6971"/>
<line x1="112.884" y1="141.552" x2="154.463" y2="152.583" stroke="black" stroke-width="1.6971"/>
<line x1="153.994" y1="150.047" x2="192.179" y2="138.167" stroke="white" stroke-width="1.6971"/>
<line x1="112.884" y1="139.006" x2="154.463" y2="150.037" stroke="white" stroke-width="1.6971"/>
<line x1="153.994" y1="147.501" x2="192.179" y2="135.622" stroke="black" stroke-width="1.6971"/>
<line x1="112.884" y1="136.46" x2="154.463" y2="147.492" stroke="black" stroke-width="1.6971"/>
<path d="M113.547 154.675C114.975 154.675 116.055 154.964 116.884 155.426C117.71 155.886 118.357 156.557 118.861 157.434C119.896 159.235 120.303 161.856 120.303 165C120.303 168.143 119.896 170.765 118.861 172.566C118.357 173.443 117.71 174.114 116.884 174.574C116.055 175.036 114.974 175.324 113.547 175.324C110.738 175.324 108.783 174.208 107.489 172.447C106.158 170.634 105.454 168.029 105.454 165C105.454 161.97 106.158 159.366 107.489 157.553C108.783 155.791 110.738 154.675 113.547 154.675Z" fill="#D9D9D9" stroke="black" stroke-width="2.54565"/>
<path d="M196.225 176.22C194.797 176.211 193.719 175.916 192.892 175.449C192.07 174.984 191.426 174.309 190.927 173.43C189.903 171.623 189.511 168.999 189.53 165.856C189.548 162.712 189.97 160.093 191.016 158.298C191.526 157.424 192.177 156.757 193.005 156.302C193.837 155.845 194.919 155.563 196.346 155.572C199.156 155.588 201.104 156.715 202.388 158.484C203.708 160.305 204.397 162.914 204.379 165.943C204.361 168.972 203.642 171.573 202.3 173.377C200.996 175.132 199.034 176.236 196.225 176.22Z" fill="#D9D9D9" stroke="black" stroke-width="2.54565"/>
<path d="M178.005 188.618C178.005 193.07 166.988 196.679 153.397 196.679C139.807 196.679 128.789 193.07 128.789 188.618C128.789 184.166 139.807 188.618 153.397 188.618C166.988 188.618 178.005 184.166 178.005 188.618Z" fill="black"/>
<path d="M144.063 66.0559V70.6553L122.849 71.5177C122.849 71.5177 127.658 67.1725 132.184 66.0559C136.543 64.9804 144.063 66.0559 144.063 66.0559Z" fill="black"/>
<path d="M156.465 66.7685L157.459 71.2592L178.577 67.4659C178.577 67.4659 172.893 64.274 168.186 64.1727C163.652 64.0752 156.465 66.7685 156.465 66.7685Z" fill="black"/>
<path opacity="0.71333" d="M246.662 64.7632C246.81 64.1553 247.705 64.2637 247.703 64.8893L247.69 70.1373C247.674 76.914 252.303 82.8192 258.887 84.4212L263.986 85.6618C264.594 85.8098 264.486 86.7047 263.86 86.7032L258.612 86.6903C251.836 86.6737 245.93 91.3027 244.328 97.8872L243.088 102.987C242.94 103.594 242.045 103.486 242.046 102.86L242.059 97.6123C242.076 90.8358 237.447 84.9305 230.862 83.3285L225.763 82.0879C225.155 81.9399 225.264 81.045 225.889 81.0465L231.137 81.0594C237.914 81.0761 243.819 76.447 245.421 69.8624L246.662 64.7632Z" fill="#F2994A"/>
<path opacity="0.436899" fill-rule="evenodd" clip-rule="evenodd" d="M100.352 178.029C87.3384 172.982 72.691 179.387 67.6018 192.369C72.7023 179.358 66.2702 164.668 53.2354 159.558C66.2486 164.606 80.8961 158.2 85.9853 145.218C80.8846 158.229 87.3169 172.919 100.352 178.029Z" fill="#4F4F4F"/>
<path opacity="0.617831" d="M172 31.6382C172.89 27.4834 174.59 23.5446 177.002 20.0467C179.414 16.5488 182.492 13.5602 186.059 11.2517C189.626 8.94317 193.613 7.35986 197.792 6.59216C201.971 5.82447 206.261 5.88743 210.415 6.77744C214.57 7.66746 218.509 9.3671 222.007 11.7793C225.505 14.1916 228.493 17.2691 230.802 20.8363C233.11 24.4035 234.694 28.3905 235.461 32.5696C236.229 36.7487 236.166 41.0381 235.276 45.1929L224.884 42.9666C225.481 40.1766 225.523 37.2962 225.008 34.4899C224.492 31.6836 223.429 29.0062 221.879 26.6108C220.329 24.2154 218.322 22.1487 215.973 20.5289C213.624 18.909 210.979 17.7677 208.189 17.17C205.399 16.5724 202.519 16.5301 199.712 17.0456C196.906 17.5611 194.229 18.6244 191.833 20.1746C189.438 21.7248 187.371 23.7316 185.751 26.0806C184.132 28.4295 182.99 31.0744 182.393 33.8644L172 31.6382Z" fill="#9B51E0"/>
<path opacity="0.98067" d="M20.6112 49.7415C13.1356 39.0446 26.6291 26.2366 36.9221 34.2593C40.8585 37.3274 46.3354 37.4702 50.4262 34.6113C61.1232 27.1357 73.9312 40.6292 65.9085 50.9222C62.8403 54.8586 62.6976 60.3355 65.5565 64.4263C73.0321 75.1233 59.5385 87.9313 49.2455 79.9086C45.3092 76.8404 39.8323 76.6977 35.7414 79.5566C25.0444 87.0322 12.2364 73.5387 20.2592 63.2456C23.3273 59.3093 23.4701 53.8324 20.6112 49.7415Z" fill="#EB5757"/>
<path opacity="0.965814" fill-rule="evenodd" clip-rule="evenodd" d="M264.193 138.597C255.368 130.076 241.617 141.099 248.014 151.567C251.152 156.702 249.317 163.42 244.004 166.245C233.172 172.005 239.407 188.489 251.339 185.64C257.192 184.242 263.014 188.064 264.06 193.99C266.191 206.071 283.794 205.236 284.772 193.007C285.251 187.008 290.685 182.652 296.644 183.489C308.792 185.196 313.437 168.196 302.11 163.487C296.552 161.178 294.089 154.664 296.726 149.255C302.103 138.228 287.371 128.557 279.392 137.876C275.478 142.447 268.522 142.777 264.193 138.597ZM278.544 173.075C282.277 170.082 282.877 164.63 279.884 160.897C276.892 157.164 271.44 156.564 267.707 159.557C263.974 162.549 263.373 168.001 266.366 171.734C269.358 175.467 274.811 176.068 278.544 173.075Z" fill="#2F80ED"/>
<defs>
<filter id="filter0_d_399_320" x="153.736" y="76.6665" width="33.79" height="38.2131" filterUnits="userSpaceOnUse" color-interpolation-filters="sRGB">
<feFlood flood-opacity="0" result="BackgroundImageFix"/>
<feColorMatrix in="SourceAlpha" type="matrix" values="0 0 0 0 0 0 0 0 0 0 0 0 0 0 0 0 0 0 127 0" result="hardAlpha"/>
<feOffset dy="2.59094"/>
<feGaussianBlur stdDeviation="1.29547"/>
<feComposite in2="hardAlpha" operator="out"/>
<feColorMatrix type="matrix" values="0 0 0 0 0 0 0 0 0 0 0 0 0 0 0 0 0 0 0.25 0"/>
<feBlend mode="normal" in2="BackgroundImageFix" result="effect1_dropShadow_399_320"/>
<feBlend mode="normal" in="SourceGraphic" in2="effect1_dropShadow_399_320" result="shape"/>
</filter>
<filter id="filter1_d_399_320" x="118.8" y="76.6665" width="33.79" height="38.2131" filterUnits="userSpaceOnUse" color-interpolation-filters="sRGB">
<feFlood flood-opacity="0" result="BackgroundImageFix"/>
<feColorMatrix in="SourceAlpha" type="matrix" values="0 0 0 0 0 0 0 0 0 0 0 0 0 0 0 0 0 0 127 0" result="hardAlpha"/>
<feOffset dy="2.59094"/>
<feGaussianBlur stdDeviation="1.29547"/>
<feComposite in2="hardAlpha" operator="out"/>
<feColorMatrix type="matrix" values="0 0 0 0 0 0 0 0 0 0 0 0 0 0 0 0 0 0 0.25 0"/>
<feBlend mode="normal" in2="BackgroundImageFix" result="effect1_dropShadow_399_320"/>
<feBlend mode="normal" in="SourceGraphic" in2="effect1_dropShadow_399_320" result="shape"/>
</filter>
</defs>
</svg>
