<svg width="273" height="225" viewBox="0 0 273 225" fill="none" xmlns="http://www.w3.org/2000/svg">
<path d="M186.401 194.084C186.75 202.921 174.589 210.578 159.237 211.185C143.885 211.792 131.157 205.12 130.807 196.282C130.458 187.445 143.252 195.79 158.604 195.183C173.956 194.576 186.051 185.246 186.401 194.084Z" fill="black"/>
<path d="M157.382 38.9539C186.023 38.954 209.241 62.1718 209.241 90.8123C209.241 103.268 204.847 114.695 197.528 123.636C197.52 123.645 197.527 123.66 197.539 123.66V123.66C197.55 123.66 197.558 123.673 197.551 123.682C195.476 126.676 190.817 133.756 188.664 138.299C185.967 143.991 187.176 156.55 185.428 159.712C184.079 162.151 181.113 161.644 178.415 161.609C164.57 161.428 135.8 160.959 131.484 160.525C127.216 160.096 127.96 143.817 125.63 135.329C125.577 135.138 125.502 134.958 125.406 134.783L122.582 129.625L121.904 128.695C121.806 128.561 121.697 128.437 121.577 128.322C119.387 126.232 117.381 123.951 115.584 121.507C115.583 121.507 115.583 121.506 115.583 121.506L115.571 121.494C115.571 121.494 115.571 121.493 115.572 121.493V121.493C115.573 121.493 115.573 121.492 115.573 121.492C109.257 112.9 105.524 102.293 105.524 90.8123C105.524 62.1718 128.742 38.9539 157.382 38.9539Z" fill="#FAAE2B"/>
<ellipse cx="175.975" cy="89.032" rx="17.4913" ry="15.1454" transform="rotate(88.3583 175.975 89.032)" fill="#F27E07"/>
<g filter="url(#filter0_d_399_319)">
<ellipse cx="176.525" cy="89.631" rx="15.6501" ry="13.5511" transform="rotate(88.3583 176.525 89.631)" fill="white"/>
</g>
<ellipse cx="176.097" cy="93.3237" rx="9.51281" ry="8.23697" transform="rotate(88.3583 176.097 93.3237)" fill="#D27B08"/>
<ellipse cx="6.64441" cy="5.96651" rx="6.64441" ry="5.96651" transform="matrix(0.338425 0.940993 -0.904493 0.426489 179.519 84.8284)" fill="#381004"/>
<ellipse cx="176.04" cy="91.9819" rx="1.53432" ry="1.32854" transform="rotate(88.3583 176.04 91.9819)" fill="white"/>
<ellipse cx="142.873" cy="89.032" rx="17.4913" ry="15.1454" transform="rotate(88.3583 142.873 89.032)" fill="#F27E07"/>
<g filter="url(#filter1_d_399_319)">
<ellipse cx="143.423" cy="89.631" rx="15.6501" ry="13.5511" transform="rotate(88.3583 143.423 89.631)" fill="white"/>
</g>
<ellipse cx="142.995" cy="93.3237" rx="9.51281" ry="8.23697" transform="rotate(88.3583 142.995 93.3237)" fill="#D27B08"/>
<ellipse cx="6.64441" cy="5.96651" rx="6.64441" ry="5.96651" transform="matrix(0.338425 0.940993 -0.904493 0.426489 146.417 84.8284)" fill="#381004"/>
<ellipse cx="143.076" cy="91.1777" rx="1.53432" ry="1.32854" transform="rotate(88.3583 143.076 91.1777)" fill="white"/>
<path d="M179.511 46.942C178.226 48.4208 177.77 50.5128 178.242 52.7577C178.715 55.0026 180.077 57.2166 182.029 58.9125C183.982 60.6085 186.365 61.6475 188.654 61.801C190.943 61.9546 192.95 61.21 194.235 59.7312L186.873 53.3366L179.511 46.942Z" fill="white"/>
<path d="M204.638 79.1318C206.027 77.75 205.441 74.4981 203.009 70.0914C200.578 65.6846 196.5 60.4841 191.672 55.6339C186.845 50.7836 181.664 46.6809 177.269 44.2283C172.874 41.7757 169.625 41.1741 168.237 42.5559L179.894 49.004L190.169 58.3063L198.788 68.3001L204.638 79.1318Z" fill="white"/>
<path d="M151.352 63.929V68.287L131.252 69.1041C131.252 69.1041 135.808 64.9869 140.096 63.929C144.226 62.9099 151.352 63.929 151.352 63.929Z" fill="black"/>
<path d="M163.103 64.6039L164.045 68.8588L184.054 65.2647C184.054 65.2647 178.668 62.2404 174.209 62.1444C169.913 62.052 163.103 64.6039 163.103 64.6039Z" fill="black"/>
<path d="M138.614 112.772C138.63 115.465 139.177 118.127 140.223 120.608C141.268 123.089 142.792 125.34 144.708 127.232C146.623 129.124 148.893 130.621 151.386 131.636C153.88 132.651 156.549 133.164 159.242 133.148C161.934 133.131 164.597 132.584 167.078 131.539C169.559 130.493 171.809 128.969 173.701 127.054C175.594 125.138 177.09 122.869 178.105 120.375C179.12 117.881 179.634 115.212 179.617 112.52L159.115 112.646L138.614 112.772Z" fill="#77290F"/>
<path d="M168.842 128.934C168.844 127.574 168.578 126.227 168.06 124.971C167.541 123.714 166.78 122.571 165.82 121.609C164.86 120.646 163.72 119.882 162.465 119.359C161.21 118.837 159.864 118.568 158.504 118.566C157.145 118.564 155.798 118.829 154.541 119.348C153.285 119.866 152.142 120.627 151.179 121.587C150.217 122.547 149.452 123.687 148.93 124.942C148.408 126.198 148.138 127.544 148.136 128.903L158.489 128.918L168.842 128.934Z" fill="#FD6A81"/>
<path d="M150.862 161.966C141.975 161.726 129.907 160.88 129.907 160.88L130.993 171.226L133.088 171.347C133.088 171.347 140.632 173.19 145.566 173.711C151.606 174.349 155.016 175.043 161.072 174.605C166.072 174.243 168.942 173.118 173.833 172.049C178.437 171.043 185.385 168.601 185.385 168.601L185.383 161.162C185.383 161.162 172.658 161.966 164.216 161.966C159.392 161.966 155.803 162.1 150.862 161.966Z" fill="#B5B5CB" stroke="black" stroke-width="2.41201"/>
<path d="M152.82 174.506C144.198 174.274 130.98 171.246 130.98 171.246L132.031 181.316L134.064 181.433C134.064 181.433 141.383 183.226 146.169 183.732C152.029 184.351 155.383 184.228 161.258 183.8C166.11 183.448 168.847 183.15 173.593 182.109C178.06 181.129 184.801 178.751 184.801 178.751L185.398 168.376C185.398 168.376 173.265 172.986 165.086 174.012C160.331 174.608 157.613 174.636 152.82 174.506Z" fill="#B5B5CB" stroke="black" stroke-width="2.41201"/>
<path d="M153.159 184.639C144.802 184.422 132.04 181.777 132.04 181.777L133.041 191.844L135.012 191.957C135.012 191.957 142.103 193.737 146.742 194.234C152.421 194.844 155.672 194.714 161.368 194.276C166.071 193.915 168.725 193.613 173.328 192.563C177.659 191.576 184.197 189.186 184.197 189.186L184.795 178.811C184.795 178.811 172.806 183.066 164.875 184.106C160.265 184.711 157.805 184.76 153.159 184.639Z" fill="#B5B5CB" stroke="black" stroke-width="2.41201"/>
<path d="M209.24 148.432C201.185 150.797 187.13 148.432 187.13 148.432L186.326 156.338L185.924 163.976C185.924 163.976 204.36 166.635 214.466 164.021C223.623 161.652 234.566 153.017 234.566 153.017L224.516 138.65C224.516 138.65 216.516 146.296 209.24 148.432Z" fill="#FAAE2B" stroke="black" stroke-width="0.804003"/>
<path d="M108.247 164.78C115.561 160.66 129.787 159.794 129.787 159.794L126.271 144.606C126.271 144.606 108.896 145.945 99.6393 150.772C91.2524 155.145 82.5391 166.026 82.5391 166.026L95.5704 177.755C95.5704 177.755 101.64 168.502 108.247 164.78Z" fill="#FAAE2B" stroke="black" stroke-width="0.804003"/>
<path d="M74.5235 171.406C74.9052 172.317 76.4122 173.037 76.4122 173.037C76.4122 173.037 73.3979 172.414 71.5262 172.967C70.276 173.336 68.5289 174.528 68.5289 174.528C68.5289 174.528 64.8754 175.941 63.4572 177.855C61.9177 179.932 61.581 181.706 61.8481 184.172C62.1342 186.813 63.5064 187.929 65.1035 189.948C67.0228 192.375 71.0845 195.114 71.0845 195.114L77.9022 198.038C77.9022 198.038 81.1322 199.101 83.103 198.38C86.2088 197.244 87.7309 191.113 87.7309 191.113L88.7534 185.475C88.7534 185.475 90.6213 186.855 91.8367 186.359C93.4085 185.719 92.857 183.871 93.2171 182.216C93.6338 180.299 95.937 180.69 95.4738 178.851C94.7018 175.786 91.7794 174.838 89.4437 172.821C87.8456 171.44 82.2076 165.986 82.2076 165.986C82.2076 165.986 80.4614 166.323 78.336 166.991C76.2107 167.66 73.6964 169.43 74.5235 171.406Z" fill="#FFFBFE" stroke="black" stroke-width="0.804003"/>
<path d="M229.424 129.09L228.099 135.646C228.099 135.646 225.119 135.268 224.604 136.584C224.321 137.305 224.77 138.562 224.77 138.562L227.33 143.474L231.35 149.232C231.35 149.232 235.586 156.687 237.971 154.153C239.186 152.861 239.006 149.73 239.006 149.73L247.832 147.092C247.832 147.092 255.631 146.227 255.872 142.268C256.046 139.419 249.895 139.15 249.895 139.15C249.895 139.15 256.43 135.007 255.021 131.806C253.414 128.155 244.986 133.702 244.986 133.702C244.986 133.702 249.215 127.299 246.901 124.402C243.894 120.638 236.902 131.627 236.902 131.627C236.902 131.627 237.153 125.047 234.265 124.641C231.723 124.284 229.424 129.09 229.424 129.09Z" fill="#FFFDF4" stroke="black" stroke-width="0.680876"/>
<path fill-rule="evenodd" clip-rule="evenodd" d="M253.104 198.207L253.157 198.463L253.225 198.721L253.308 198.982L253.407 199.246L253.52 199.514L253.647 199.788L253.786 200.066L253.938 200.35L254.1 200.641L254.272 200.939L254.453 201.243L254.641 201.555L254.834 201.875L255.031 202.203L255.232 202.538L255.433 202.881L255.635 203.232L255.836 203.591L256.035 203.957L256.231 204.331L256.422 204.711L256.608 205.098L256.787 205.492L256.96 205.891L257.124 206.297L257.28 206.708L257.426 207.123L257.563 207.543L257.689 207.968L257.804 208.396L257.907 208.827L257.999 209.261L258.078 209.696L258.144 210.134L258.197 210.572L258.235 211.011L258.26 211.449L258.27 211.887L258.266 212.323L258.246 212.757L258.211 213.188L258.161 213.616L258.095 214.039L258.013 214.458L257.915 214.871L257.802 215.278L257.672 215.677L257.526 216.07L257.365 216.454L257.188 216.829L256.995 217.195L256.787 217.551L256.564 217.896L256.327 218.23L256.074 218.552L255.808 218.862L255.528 219.159L255.235 219.443L254.929 219.713L254.61 219.97L254.28 220.212L253.938 220.439L253.586 220.652L253.224 220.849L252.852 221.031L252.471 221.198L252.082 221.349L251.685 221.484L251.281 221.603L250.871 221.707L250.455 221.794L250.034 221.866L249.609 221.923L249.18 221.964L248.748 221.989L248.313 222L247.877 221.996L247.44 221.977L247.003 221.944L246.565 221.897L246.129 221.837L245.694 221.765L245.26 221.679L244.83 221.582L244.402 221.473L243.978 221.353L243.557 221.222L243.141 221.082L242.73 220.932L242.324 220.774L241.923 220.608L241.529 220.435L241.141 220.256L240.759 220.072L240.385 219.885L240.018 219.695L239.659 219.505L239.307 219.315L238.963 219.128L238.627 218.944L238.299 218.765L237.978 218.593L237.665 218.429L237.359 218.275L237.06 218.133L236.768 218.004L236.481 217.889L236.199 217.79L235.922 217.707L235.649 217.642L235.379 217.594L235.11 217.565L234.843 217.555L234.577 217.564L234.31 217.592L234.041 217.639L233.77 217.704L233.496 217.788L233.219 217.889L232.936 218.006L232.648 218.139L232.354 218.285L232.054 218.445L231.747 218.617L231.432 218.798L231.109 218.988L230.779 219.184L230.44 219.385L230.093 219.589L229.739 219.794L229.377 219.998L229.007 220.2L228.631 220.397L228.248 220.587L227.86 220.769L227.466 220.94L227.069 221.1L226.668 221.246L226.264 221.376L225.859 221.49L225.454 221.586L225.05 221.662L224.648 221.718L224.249 221.752L223.855 221.763L223.466 221.752L223.083 221.717L222.709 221.658L222.344 221.575L221.989 221.468L221.645 221.336L221.313 221.181L220.994 221.002L220.689 220.8L220.398 220.576L220.123 220.331L219.863 220.065L219.618 219.78L219.391 219.477L219.179 219.157L218.984 218.821L218.805 218.471L218.642 218.108L218.495 217.734L218.364 217.35L218.247 216.958L218.145 216.558L218.056 216.154L217.979 215.746L217.915 215.335L217.861 214.923L217.818 214.511L217.783 214.1L217.756 213.692L217.736 213.287L217.721 212.887L217.711 212.492L217.704 212.103L217.7 211.721L217.697 211.345L217.695 210.977L217.693 210.617L217.689 210.265L217.683 209.921L217.675 209.585L217.662 209.258L217.645 208.94L217.622 208.629L217.594 208.327L217.56 208.032L217.518 207.745L217.47 207.465L217.414 207.192L217.35 206.925L217.278 206.664L217.199 206.408L217.112 206.157L217.017 205.91L216.914 205.666L216.805 205.426L216.689 205.187L216.566 204.951L216.438 204.715L216.305 204.48L216.168 204.245L216.027 204.009L215.884 203.772L215.739 203.534L215.593 203.294L215.448 203.051L215.304 202.806L215.162 202.558L215.024 202.307L214.89 202.053L214.762 201.795L214.641 201.534L214.527 201.27L214.422 201.002L214.327 200.732L214.242 200.458L214.169 200.182L214.108 199.903L214.06 199.623L214.026 199.341L214.006 199.058L214 198.775L214.009 198.491L214.034 198.207L214.073 197.925L214.128 197.644L214.198 197.364L214.283 197.088L214.382 196.814L214.496 196.543L214.623 196.277L214.764 196.014L214.917 195.757L215.081 195.504L215.257 195.256L215.442 195.014L215.637 194.778L215.84 194.547L216.05 194.323L216.265 194.104L216.486 193.891L216.711 193.683L216.937 193.481L217.166 193.284L217.394 193.092L217.621 192.904L217.847 192.72L218.069 192.54L218.287 192.363L218.5 192.188L218.707 192.015L218.907 191.843L219.1 191.671L219.285 191.5L219.462 191.327L219.629 191.153L219.787 190.977L219.936 190.798L220.074 190.615L220.202 190.428L220.32 190.236L220.428 190.039L220.526 189.835L220.614 189.625L220.693 189.407L220.763 189.182L220.824 188.949L220.877 188.708L220.923 188.459L220.963 188.202L220.998 187.936L221.027 187.661L221.053 187.379L221.077 187.089L221.098 186.792L221.119 186.487L221.141 186.177L221.164 185.86L221.191 185.539L221.22 185.214L221.255 184.886L221.296 184.556L221.344 184.225L221.4 183.894L221.465 183.564L221.539 183.237L221.623 182.913L221.719 182.595L221.826 182.283L221.946 181.979L222.078 181.684L222.223 181.399L222.38 181.125L222.551 180.864L222.735 180.617L222.932 180.385L223.142 180.168L223.365 179.968L223.599 179.785L223.845 179.62L224.102 179.474L224.37 179.347L224.647 179.24L224.934 179.153L225.228 179.085L225.53 179.037L225.838 179.009L226.151 179L226.469 179.01L226.791 179.037L227.114 179.083L227.439 179.144L227.765 179.222L228.09 179.314L228.415 179.419L228.737 179.536L229.057 179.666L229.373 179.805L229.686 179.954L229.994 180.111L230.298 180.276L230.596 180.447L230.89 180.624L231.178 180.806L231.46 180.992L231.736 181.181L232.006 181.374L232.27 181.569L232.527 181.767L232.779 181.965L233.025 182.165L233.264 182.365L233.497 182.565L233.725 182.764L233.946 182.963L234.162 183.159L234.372 183.353L234.577 183.544L234.776 183.732L234.971 183.916L235.16 184.096L235.346 184.27L235.527 184.438L235.704 184.601L235.878 184.756L236.049 184.905L236.217 185.045L236.383 185.178L236.548 185.302L236.711 185.417L236.873 185.523L237.036 185.619L237.198 185.705L237.361 185.782L237.526 185.848L237.692 185.904L237.861 185.95L238.033 185.986L238.208 186.011L238.386 186.027L238.569 186.033L238.757 186.03L238.95 186.018L239.148 185.997L239.352 185.968L239.563 185.931L239.779 185.887L240.003 185.837L240.233 185.78L240.47 185.718L240.715 185.651L240.967 185.58L241.226 185.506L241.492 185.428L241.766 185.349L242.048 185.267L242.336 185.185L242.632 185.103L242.935 185.021L243.245 184.94L243.561 184.861L243.884 184.784L244.214 184.709L244.55 184.638L244.892 184.571L245.239 184.508L245.592 184.451L245.949 184.399L246.311 184.353L246.677 184.313L247.047 184.28L247.42 184.256L247.796 184.239L248.173 184.231L248.551 184.233L248.93 184.244L249.307 184.267L249.683 184.301L250.057 184.346L250.426 184.404L250.79 184.475L251.148 184.56L251.497 184.659L251.838 184.772L252.168 184.9L252.487 185.044L252.792 185.202L253.083 185.375L253.358 185.564L253.617 185.768L253.859 185.986L254.082 186.218L254.286 186.463L254.471 186.722L254.635 186.992L254.779 187.274L254.903 187.567L255.005 187.869L255.088 188.18L255.149 188.499L255.191 188.824L255.214 189.155L255.218 189.49L255.204 189.829L255.173 190.171L255.126 190.513L255.065 190.857L254.991 191.199L254.904 191.541L254.807 191.88L254.701 192.216L254.587 192.549L254.468 192.878L254.344 193.202L254.218 193.52L254.092 193.834L253.966 194.142L253.842 194.444L253.723 194.741L253.609 195.031L253.502 195.317L253.403 195.597L253.315 195.872L253.237 196.142L253.17 196.408L253.117 196.671L253.077 196.931L253.052 197.188L253.042 197.444L253.047 197.698L253.068 197.953L253.104 198.207Z" fill="url(#paint0_linear_399_319)"/>
<path opacity="0.636045" d="M46.7328 158.698C46.9472 157.711 48.3959 157.85 48.4187 158.86L48.609 167.331C48.8546 178.269 56.5636 187.614 67.2557 189.935L75.536 191.733C76.5232 191.947 76.3842 193.396 75.3743 193.418L66.9032 193.609C55.9649 193.854 46.6199 201.563 44.299 212.255L42.5016 220.536C42.2873 221.523 40.8385 221.384 40.8158 220.374L40.6255 211.903C40.3798 200.965 32.6709 191.62 21.9787 189.299L13.6983 187.501C12.7113 187.287 12.8503 185.838 13.8601 185.815L22.3311 185.625C33.2695 185.38 42.6146 177.671 44.9355 166.978L46.7328 158.698Z" fill="#F2994A"/>
<path fill-rule="evenodd" clip-rule="evenodd" d="M17.0857 118.562V118.562L17.5621 118.416L18.0237 118.236L18.4705 118.021L18.9024 117.771L19.3195 117.486L19.7218 117.167L20.1096 116.813L20.4828 116.426L20.8416 116.005L21.1863 115.55L21.5169 115.063L21.8337 114.543L22.137 113.992L22.427 113.409L22.7039 112.796L22.9682 112.153L23.2201 111.482L23.46 110.782L23.6883 110.055L23.9053 109.301L24.1115 108.523L24.3073 107.719L24.4931 106.893L24.6695 106.044L24.8369 105.175L24.9958 104.285L25.1468 103.377L25.2903 102.451L25.4268 101.509L25.5571 100.552L25.6815 99.5819L25.8008 98.5993L25.9154 97.6059L26.026 96.6031L26.1331 95.5922L26.2374 94.5747L26.3395 93.552L26.44 92.5255L26.5395 91.4967L26.6386 90.467L26.738 89.4379L26.8382 88.4108L26.94 87.3872L27.0438 86.3686L27.1503 85.3562L27.2601 84.3516L27.3739 83.3562L27.4921 82.3713L27.6155 81.3984L27.7445 80.4387L27.8797 79.4937L28.0218 78.5646L28.1711 77.6526L28.3284 76.7591L28.494 75.8853L28.6685 75.0322L28.8524 74.2012L29.0462 73.3932L29.2502 72.6093L29.465 71.8506L29.6909 71.1181L29.9284 70.4126L30.1779 69.7351L30.4396 69.0864L30.7139 68.4673L31.0012 67.8785L31.3018 67.3207L31.6158 66.7945L31.9436 66.3006L32.2854 65.8394L32.6413 65.4114L33.0116 65.0171L33.3964 64.6566L33.7958 64.3305L34.2099 64.0387L34.6387 63.7817L35.0825 63.5593L35.541 63.3718L36.0144 63.2191L36.5027 63.101L37.0056 63.0176L37.5233 62.9685L38.0555 62.9535L38.6022 62.9724L39.1632 63.0248L39.7382 63.1101L40.3271 63.228L40.9297 63.3779L41.5457 63.5592L42.1748 63.7712L42.8167 64.0133L43.4712 64.2846L44.1377 64.5845L44.8161 64.9119L45.5059 65.2661L46.2066 65.646L46.918 66.0506L47.6394 66.479L48.3705 66.9301L49.1108 67.4026L49.8598 67.8955L50.617 68.4076L51.3818 68.9376L52.1538 69.4843L52.9323 70.0464L53.7168 70.6226L54.5068 71.2115L55.3016 71.8118L56.1007 72.4221L56.9035 73.041L57.7093 73.6672L58.5176 74.299L59.3278 74.9353L60.1392 75.5744L60.9512 76.215L61.7632 76.8556L62.5746 77.4947L63.3848 78.1309L64.1931 78.7628L64.999 79.3889L65.8017 80.0079L66.6009 80.6182L67.3957 81.2185L68.1857 81.8074L68.9702 82.3836L69.7487 82.9457L70.5207 83.4924L71.2855 84.0224L72.0426 84.5345L72.7916 85.0274L73.5319 85.4999L74.2631 85.9509L74.9845 86.3793L75.6958 86.784L76.3966 87.1639L77.0864 87.5181L77.7647 87.8455L78.4313 88.1453L79.0857 88.4167L79.7277 88.6587L80.3568 88.8708L80.9728 89.0521L81.5753 89.202L82.1643 89.3199L82.7393 89.4052L83.3002 89.4575L83.8469 89.4764L84.3791 89.4615L84.8968 89.4124L85.3998 89.329L85.888 89.2109L86.3614 89.0582L86.82 88.8706L87.2637 88.6483L87.6926 88.3912L88.1067 88.0995L88.5061 87.7733L88.8909 87.4129L89.2611 87.0185L89.6171 86.5905L89.9588 86.1294L90.2866 85.6354L90.6007 85.1093L90.9012 84.5515L91.1885 83.9627L91.4629 83.3436L91.7246 82.6949L91.974 82.0174L92.2115 81.3119L92.4375 80.5794L92.6523 79.8207L92.8563 79.0368L93.0501 78.2288L93.2339 77.3977L93.4085 76.5447L93.5741 75.6708L93.7313 74.7773L93.8807 73.8654L94.0227 72.9363L94.158 71.9912L94.287 71.0316L94.4103 70.0586L94.5286 69.0738L94.6423 68.0784L94.7522 67.0738L94.8587 66.0614L94.9625 65.0427L95.0642 64.0191L95.1645 62.9921L95.2638 61.963L95.363 60.9333L95.4625 59.9045L95.5629 58.878L95.665 57.8553L95.7693 56.8378L95.8765 55.8269L95.9871 54.824L96.1017 53.8307L96.2209 52.8481L96.3454 51.8778L96.4756 50.921L96.6122 49.9791L96.7557 49.0534L96.9066 48.1451L97.0655 47.2555L97.2329 46.3857L97.4093 45.5371L97.5952 44.7106L97.791 43.9075L97.9972 43.1286L98.2142 42.3752L98.4425 41.6481L98.6824 40.9482L98.9343 40.2765L99.1985 39.6338L99.4755 39.0208L99.7655 38.4382L100.069 37.8868L100.386 37.3672L100.716 36.8799L101.061 36.4254L101.42 36.0043L101.793 35.6168L102.181 35.2633L102.583 34.9441L103 34.6594L103.432 34.4094L103.879 34.1942L104.34 34.0137" fill="url(#paint1_linear_399_319)"/>
<rect opacity="0.824191" x="229.707" y="30.1121" width="41.6427" height="15.872" rx="7.936" transform="rotate(-158.356 229.707 30.1121)" fill="#27AE60"/>
<path opacity="0.436899" fill-rule="evenodd" clip-rule="evenodd" d="M264.813 99.4229C254.464 95.4092 242.816 100.503 238.769 110.827C242.825 100.48 237.71 88.7978 227.344 84.7341C237.693 88.748 249.341 83.6542 253.388 73.3306C249.332 83.6774 254.447 95.3592 264.813 99.4229Z" fill="#4F4F4F"/>
<defs>
<filter id="filter0_d_399_319" x="160.517" y="73.9824" width="32.0162" height="36.207" filterUnits="userSpaceOnUse" color-interpolation-filters="sRGB">
<feFlood flood-opacity="0" result="BackgroundImageFix"/>
<feColorMatrix in="SourceAlpha" type="matrix" values="0 0 0 0 0 0 0 0 0 0 0 0 0 0 0 0 0 0 127 0" result="hardAlpha"/>
<feOffset dy="2.45492"/>
<feGaussianBlur stdDeviation="1.22746"/>
<feComposite in2="hardAlpha" operator="out"/>
<feColorMatrix type="matrix" values="0 0 0 0 0 0 0 0 0 0 0 0 0 0 0 0 0 0 0.25 0"/>
<feBlend mode="normal" in2="BackgroundImageFix" result="effect1_dropShadow_399_319"/>
<feBlend mode="normal" in="SourceGraphic" in2="effect1_dropShadow_399_319" result="shape"/>
</filter>
<filter id="filter1_d_399_319" x="127.415" y="73.9824" width="32.0162" height="36.207" filterUnits="userSpaceOnUse" color-interpolation-filters="sRGB">
<feFlood flood-opacity="0" result="BackgroundImageFix"/>
<feColorMatrix in="SourceAlpha" type="matrix" values="0 0 0 0 0 0 0 0 0 0 0 0 0 0 0 0 0 0 127 0" result="hardAlpha"/>
<feOffset dy="2.45492"/>
<feGaussianBlur stdDeviation="1.22746"/>
<feComposite in2="hardAlpha" operator="out"/>
<feColorMatrix type="matrix" values="0 0 0 0 0 0 0 0 0 0 0 0 0 0 0 0 0 0 0.25 0"/>
<feBlend mode="normal" in2="BackgroundImageFix" result="effect1_dropShadow_399_319"/>
<feBlend mode="normal" in="SourceGraphic" in2="effect1_dropShadow_399_319" result="shape"/>
</filter>
<linearGradient id="paint0_linear_399_319" x1="201.234" y1="150.24" x2="160.959" y2="168.118" gradientUnits="userSpaceOnUse">
<stop stop-color="#B35E82"/>
<stop offset="1" stop-color="#F5363D"/>
</linearGradient>
<linearGradient id="paint1_linear_399_319" x1="-55.5988" y1="109.319" x2="-77.3427" y2="70.0519" gradientUnits="userSpaceOnUse">
<stop stop-color="#0D5C3B"/>
<stop offset="1" stop-color="#C23087"/>
</linearGradient>
</defs>
</svg>
